<svg width="22592" height="24881" viewBox="0 0 22592 24881" fill="none" xmlns="http://www.w3.org/2000/svg">
<g clip-path="url(#clip0_3_149)">
<path d="M0 899.999C0 402.943 402.944 0 900 0H21692C22189.1 0 22592 402.944 22592 900V23981C22592 24478.1 22189.1 24881 21692 24881H900C402.944 24881 0 24478.1 0 23981V899.999Z" fill="url(#paint0_linear_3_149)" fill-opacity="0.991525"/>
<path d="M20577.4 9653.9C20593.1 9653.9 20605.8 9643.63 20605.8 9630.95C20605.8 9618.28 20593.1 9608 20577.4 9608C20561.7 9608 20549 9618.28 20549 9630.95C20549 9643.63 20561.7 9653.9 20577.4 9653.9Z" fill="#D9D9D9"/>
<path d="M20634.4 4717.9C20650.1 4717.9 20662.8 4707.62 20662.8 4694.95C20662.8 4682.27 20650.1 4672 20634.4 4672C20618.7 4672 20606 4682.27 20606 4694.95C20606 4707.62 20618.7 4717.9 20634.4 4717.9Z" fill="#D9D9D9"/>
<path d="M19068.4 1247.9C19084.1 1247.9 19096.8 1237.63 19096.8 1224.95C19096.8 1212.27 19084.1 1202 19068.4 1202C19052.7 1202 19040 1212.27 19040 1224.95C19040 1237.63 19052.7 1247.9 19068.4 1247.9Z" fill="#D9D9D9"/>
<path d="M17393.4 6434.9C17409.1 6434.9 17421.8 6424.62 17421.8 6411.95C17421.8 6399.27 17409.1 6389 17393.4 6389C17377.7 6389 17365 6399.27 17365 6411.95C17365 6424.62 17377.7 6434.9 17393.4 6434.9Z" fill="#D9D9D9"/>
<path d="M1818.4 2541.9C1834.09 2541.9 1846.8 2531.62 1846.8 2518.95C1846.8 2506.27 1834.09 2496 1818.4 2496C1802.72 2496 1790.01 2506.27 1790.01 2518.95C1790.01 2531.62 1802.72 2541.9 1818.4 2541.9Z" fill="#D9D9D9"/>
<path d="M1875.4 8707.9C1891.09 8707.9 1903.8 8697.63 1903.8 8684.95C1903.8 8672.28 1891.09 8662 1875.4 8662C1859.72 8662 1847.01 8672.28 1847.01 8684.95C1847.01 8697.63 1859.72 8707.9 1875.4 8707.9Z" fill="#D9D9D9"/>
<path d="M7348.31 10314C7360.63 10314 7370.62 10303.5 7370.62 10290.5C7370.62 10277.5 7360.63 10267 7348.31 10267C7335.99 10267 7326 10277.5 7326 10290.5C7326 10303.5 7335.99 10314 7348.31 10314Z" fill="white"/>
<path d="M4418.31 5349.94C4430.63 5349.94 4440.62 5339.43 4440.62 5326.47C4440.62 5313.51 4430.63 5303 4418.31 5303C4405.99 5303 4396 5313.51 4396 5326.47C4396 5339.43 4405.99 5349.94 4418.31 5349.94Z" fill="white"/>
<path d="M15055.3 1201.94C15067.6 1201.94 15077.6 1191.43 15077.6 1178.47C15077.6 1165.51 15067.6 1155 15055.3 1155C15043 1155 15033 1165.51 15033 1178.47C15033 1191.43 15043 1201.94 15055.3 1201.94Z" fill="white"/>
<path d="M6039.31 1155C6051.63 1155 6061.62 1143.8 6061.62 1130C6061.62 1116.19 6051.63 1105 6039.31 1105C6026.99 1105 6017 1116.19 6017 1130C6017 1143.8 6026.99 1155 6039.31 1155Z" fill="white"/>
<path d="M22492 11107H100C44.7715 11107 0 11151.8 0 11207V11356C0 11411.2 44.7715 11456 100 11456H22492C22547.2 11456 22592 11411.2 22592 11356V11207C22592 11151.8 22547.2 11107 22492 11107Z" fill="#D33F8F"/>
<g filter="url(#filter0_d_3_149)">
<path d="M13415 19280.5H8090C7806.95 19280.5 7577.5 19510 7577.5 19793V21064C7577.5 21347 7806.95 21576.5 8090 21576.5H13415C13698 21576.5 13927.5 21347 13927.5 21064V19793C13927.5 19510 13698 19280.5 13415 19280.5Z" stroke="#DDDDDD" stroke-width="25"/>
</g>
<path d="M5434.89 14886C5498.89 14832.7 5549.89 14788.3 5587.89 14753C5625.89 14717 5657.56 14679.7 5682.89 14641C5708.23 14602.3 5720.89 14564.3 5720.89 14527C5720.89 14493 5712.89 14466.3 5696.89 14447C5680.89 14427.7 5656.23 14418 5622.89 14418C5589.56 14418 5563.89 14429.3 5545.89 14452C5527.89 14474 5518.56 14504.3 5517.89 14543H5381.89C5384.56 14463 5408.23 14402.3 5452.89 14361C5498.23 14319.7 5555.56 14299 5624.89 14299C5700.89 14299 5759.23 14319.3 5799.89 14360C5840.56 14400 5860.89 14453 5860.89 14519C5860.89 14571 5846.89 14620.7 5818.89 14668C5790.89 14715.3 5758.89 14756.7 5722.89 14792C5686.89 14826.7 5639.89 14868.7 5581.89 14918H5876.89V15034H5382.89V14930L5434.89 14886ZM6505.11 14436H6181.11V14607C6195.11 14589.7 6215.11 14575.7 6241.11 14565C6267.11 14553.7 6294.78 14548 6324.11 14548C6377.45 14548 6421.11 14559.7 6455.11 14583C6489.11 14606.3 6513.78 14636.3 6529.11 14673C6544.45 14709 6552.11 14747.7 6552.11 14789C6552.11 14865.7 6530.11 14927.3 6486.11 14974C6442.78 15020.7 6380.78 15044 6300.11 15044C6224.11 15044 6163.45 15025 6118.11 14987C6072.78 14949 6047.11 14899.3 6041.11 14838H6177.11C6183.11 14864.7 6196.45 14886 6217.11 14902C6238.45 14918 6265.45 14926 6298.11 14926C6337.45 14926 6367.11 14913.7 6387.11 14889C6407.11 14864.3 6417.11 14831.7 6417.11 14791C6417.11 14749.7 6406.78 14718.3 6386.11 14697C6366.11 14675 6336.45 14664 6297.11 14664C6269.11 14664 6245.78 14671 6227.11 14685C6208.45 14699 6195.11 14717.7 6187.11 14741H6053.11V14313H6505.11V14436ZM6708.67 14670C6708.67 14554.7 6729.33 14464.3 6770.67 14399C6812.67 14333.7 6882 14301 6978.67 14301C7075.33 14301 7144.33 14333.7 7185.67 14399C7227.67 14464.3 7248.67 14554.7 7248.67 14670C7248.67 14786 7227.67 14877 7185.67 14943C7144.33 15009 7075.33 15042 6978.67 15042C6882 15042 6812.67 15009 6770.67 14943C6729.33 14877 6708.67 14786 6708.67 14670ZM7110.67 14670C7110.67 14620.7 7107.33 14579.3 7100.67 14546C7094.67 14512 7082 14484.3 7062.67 14463C7044 14441.7 7016 14431 6978.67 14431C6941.33 14431 6913 14441.7 6893.67 14463C6875 14484.3 6862.33 14512 6855.67 14546C6849.67 14579.3 6846.67 14620.7 6846.67 14670C6846.67 14720.7 6849.67 14763.3 6855.67 14798C6861.67 14832 6874.33 14859.7 6893.67 14881C6913 14901.7 6941.33 14912 6978.67 14912C7016 14912 7044.33 14901.7 7063.67 14881C7083 14859.7 7095.67 14832 7101.67 14798C7107.67 14763.3 7110.67 14720.7 7110.67 14670ZM7849.43 14304V15044H7709.43V14304H7849.43ZM8552.75 14755C8552.75 14775 8551.42 14793 8548.75 14809H8143.75C8147.09 14849 8161.09 14880.3 8185.75 14903C8210.42 14925.7 8240.75 14937 8276.75 14937C8328.75 14937 8365.75 14914.7 8387.75 14870H8538.75C8522.75 14923.3 8492.09 14967.3 8446.75 15002C8401.42 15036 8345.75 15053 8279.75 15053C8226.42 15053 8178.42 15041.3 8135.75 15018C8093.75 14994 8060.75 14960.3 8036.75 14917C8013.42 14873.7 8001.75 14823.7 8001.75 14767C8001.75 14709.7 8013.42 14659.3 8036.75 14616C8060.09 14572.7 8092.75 14539.3 8134.75 14516C8176.75 14492.7 8225.09 14481 8279.75 14481C8332.42 14481 8379.42 14492.3 8420.75 14515C8462.75 14537.7 8495.09 14570 8517.75 14612C8541.09 14653.3 8552.75 14701 8552.75 14755ZM8407.75 14715C8407.09 14679 8394.09 14650.3 8368.75 14629C8343.42 14607 8312.42 14596 8275.75 14596C8241.09 14596 8211.75 14606.7 8187.75 14628C8164.42 14648.7 8150.09 14677.7 8144.75 14715H8407.75ZM8916.94 15053C8871.61 15053 8830.94 15045 8794.94 15029C8758.94 15012.3 8730.27 14990 8708.94 14962C8688.27 14934 8676.94 14903 8674.94 14869H8815.94C8818.61 14890.3 8828.94 14908 8846.94 14922C8865.61 14936 8888.61 14943 8915.94 14943C8942.61 14943 8963.27 14937.7 8977.94 14927C8993.27 14916.3 9000.94 14902.7 9000.94 14886C9000.94 14868 8991.61 14854.7 8972.94 14846C8954.94 14836.7 8925.94 14826.7 8885.94 14816C8844.61 14806 8810.61 14795.7 8783.94 14785C8757.94 14774.3 8735.27 14758 8715.94 14736C8697.27 14714 8687.94 14684.3 8687.94 14647C8687.94 14616.3 8696.61 14588.3 8713.94 14563C8731.94 14537.7 8757.27 14517.7 8789.94 14503C8823.27 14488.3 8862.27 14481 8906.94 14481C8972.94 14481 9025.61 14497.7 9064.94 14531C9104.27 14563.7 9125.94 14608 9129.94 14664H8995.94C8993.94 14642 8984.61 14624.7 8967.94 14612C8951.94 14598.7 8930.27 14592 8902.94 14592C8877.61 14592 8857.94 14596.7 8843.94 14606C8830.61 14615.3 8823.94 14628.3 8823.94 14645C8823.94 14663.7 8833.27 14678 8851.94 14688C8870.61 14697.3 8899.61 14707 8938.94 14717C8978.94 14727 9011.94 14737.3 9037.94 14748C9063.94 14758.7 9086.27 14775.3 9104.94 14798C9124.27 14820 9134.27 14849.3 9134.94 14886C9134.94 14918 9125.94 14946.7 9107.94 14972C9090.61 14997.3 9065.27 15017.3 9031.94 15032C8999.27 15046 8960.94 15053 8916.94 15053ZM9511.86 15053C9466.53 15053 9425.86 15045 9389.86 15029C9353.86 15012.3 9325.2 14990 9303.86 14962C9283.2 14934 9271.86 14903 9269.86 14869H9410.86C9413.53 14890.3 9423.86 14908 9441.86 14922C9460.53 14936 9483.53 14943 9510.86 14943C9537.53 14943 9558.2 14937.7 9572.86 14927C9588.2 14916.3 9595.86 14902.7 9595.86 14886C9595.86 14868 9586.53 14854.7 9567.86 14846C9549.86 14836.7 9520.86 14826.7 9480.86 14816C9439.53 14806 9405.53 14795.7 9378.86 14785C9352.86 14774.3 9330.2 14758 9310.86 14736C9292.2 14714 9282.86 14684.3 9282.86 14647C9282.86 14616.3 9291.53 14588.3 9308.86 14563C9326.86 14537.7 9352.2 14517.7 9384.86 14503C9418.2 14488.3 9457.2 14481 9501.86 14481C9567.86 14481 9620.53 14497.7 9659.86 14531C9699.2 14563.7 9720.86 14608 9724.86 14664H9590.86C9588.86 14642 9579.53 14624.7 9562.86 14612C9546.86 14598.7 9525.2 14592 9497.86 14592C9472.53 14592 9452.86 14596.7 9438.86 14606C9425.53 14615.3 9418.86 14628.3 9418.86 14645C9418.86 14663.7 9428.2 14678 9446.86 14688C9465.53 14697.3 9494.53 14707 9533.86 14717C9573.86 14727 9606.86 14737.3 9632.86 14748C9658.86 14758.7 9681.2 14775.3 9699.86 14798C9719.2 14820 9729.2 14849.3 9729.86 14886C9729.86 14918 9720.86 14946.7 9702.86 14972C9685.53 14997.3 9660.2 15017.3 9626.86 15032C9594.2 15046 9555.86 15053 9511.86 15053ZM10140.8 15053C10087.5 15053 10039.5 15041.3 9996.79 15018C9954.12 14994 9920.45 14960.3 9895.79 14917C9871.79 14873.7 9859.79 14823.7 9859.79 14767C9859.79 14710.3 9872.12 14660.3 9896.79 14617C9922.12 14573.7 9956.45 14540.3 9999.79 14517C10043.1 14493 10091.5 14481 10144.8 14481C10198.1 14481 10246.5 14493 10289.8 14517C10333.1 14540.3 10367.1 14573.7 10391.8 14617C10417.1 14660.3 10429.8 14710.3 10429.8 14767C10429.8 14823.7 10416.8 14873.7 10390.8 14917C10365.5 14960.3 10330.8 14994 10286.8 15018C10243.5 15041.3 10194.8 15053 10140.8 15053ZM10140.8 14931C10166.1 14931 10189.8 14925 10211.8 14913C10234.5 14900.3 10252.5 14881.7 10265.8 14857C10279.1 14832.3 10285.8 14802.3 10285.8 14767C10285.8 14714.3 10271.8 14674 10243.8 14646C10216.5 14617.3 10182.8 14603 10142.8 14603C10102.8 14603 10069.1 14617.3 10041.8 14646C10015.1 14674 10001.8 14714.3 10001.8 14767C10001.8 14819.7 10014.8 14860.3 10040.8 14889C10067.5 14917 10100.8 14931 10140.8 14931ZM10889.5 14482C10955.5 14482 11008.8 14503 11049.5 14545C11090.1 14586.3 11110.5 14644.3 11110.5 14719V15044H10970.5V14738C10970.5 14694 10959.5 14660.3 10937.5 14637C10915.5 14613 10885.5 14601 10847.5 14601C10808.8 14601 10778.1 14613 10755.5 14637C10733.5 14660.3 10722.5 14694 10722.5 14738V15044H10582.5V14490H10722.5V14559C10741.1 14535 10764.8 14516.3 10793.5 14503C10822.8 14489 10854.8 14482 10889.5 14482ZM11505.6 15053C11460.3 15053 11419.6 15045 11383.6 15029C11347.6 15012.3 11318.9 14990 11297.6 14962C11276.9 14934 11265.6 14903 11263.6 14869H11404.6C11407.3 14890.3 11417.6 14908 11435.6 14922C11454.3 14936 11477.3 14943 11504.6 14943C11531.3 14943 11551.9 14937.7 11566.6 14927C11581.9 14916.3 11589.6 14902.7 11589.6 14886C11589.6 14868 11580.3 14854.7 11561.6 14846C11543.6 14836.7 11514.6 14826.7 11474.6 14816C11433.3 14806 11399.3 14795.7 11372.6 14785C11346.6 14774.3 11323.9 14758 11304.6 14736C11285.9 14714 11276.6 14684.3 11276.6 14647C11276.6 14616.3 11285.3 14588.3 11302.6 14563C11320.6 14537.7 11345.9 14517.7 11378.6 14503C11411.9 14488.3 11450.9 14481 11495.6 14481C11561.6 14481 11614.3 14497.7 11653.6 14531C11692.9 14563.7 11714.6 14608 11718.6 14664H11584.6C11582.6 14642 11573.3 14624.7 11556.6 14612C11540.6 14598.7 11518.9 14592 11491.6 14592C11466.3 14592 11446.6 14596.7 11432.6 14606C11419.3 14615.3 11412.6 14628.3 11412.6 14645C11412.6 14663.7 11421.9 14678 11440.6 14688C11459.3 14697.3 11488.3 14707 11527.6 14717C11567.6 14727 11600.6 14737.3 11626.6 14748C11652.6 14758.7 11674.9 14775.3 11693.6 14798C11712.9 14820 11722.9 14849.3 11723.6 14886C11723.6 14918 11714.6 14946.7 11696.6 14972C11679.3 14997.3 11653.9 15017.3 11620.6 15032C11587.9 15046 11549.6 15053 11505.6 15053ZM12332.8 15165H12191.8V14236H12332.8V15165ZM12790.7 14444V14315H13031.7V15044H12887.7V14444H12790.7ZM13598 14497C13591.3 14469 13579.7 14448 13563 14434C13547 14420 13523.7 14413 13493 14413C13447 14413 13413 14431.7 13391 14469C13369.7 14505.7 13358.7 14565.7 13358 14649C13374 14622.3 13397.3 14601.7 13428 14587C13458.7 14571.7 13492 14564 13528 14564C13571.3 14564 13609.7 14573.3 13643 14592C13676.3 14610.7 13702.3 14638 13721 14674C13739.7 14709.3 13749 14752 13749 14802C13749 14849.3 13739.3 14891.7 13720 14929C13701.3 14965.7 13673.7 14994.3 13637 15015C13600.3 15035.7 13556.7 15046 13506 15046C13436.7 15046 13382 15030.7 13342 15000C13302.7 14969.3 13275 14926.7 13259 14872C13243.7 14816.7 13236 14748.7 13236 14668C13236 14546 13257 14454 13299 14392C13341 14329.3 13407.3 14298 13498 14298C13568 14298 13622.3 14317 13661 14355C13699.7 14393 13722 14440.3 13728 14497H13598ZM13496 14679C13460.7 14679 13431 14689.3 13407 14710C13383 14730.7 13371 14760.7 13371 14800C13371 14839.3 13382 14870.3 13404 14893C13426.7 14915.7 13458.3 14927 13499 14927C13535 14927 13563.3 14916 13584 14894C13605.3 14872 13616 14842.3 13616 14805C13616 14766.3 13605.7 14735.7 13585 14713C13565 14690.3 13535.3 14679 13496 14679ZM14525.9 14482C14567.9 14482 14605.3 14491.3 14637.9 14510C14670.6 14528 14695.9 14555 14713.9 14591C14732.6 14626.3 14741.9 14669 14741.9 14719V15044H14601.9V14738C14601.9 14694 14590.9 14660.3 14568.9 14637C14546.9 14613 14516.9 14601 14478.9 14601C14440.3 14601 14409.6 14613 14386.9 14637C14364.9 14660.3 14353.9 14694 14353.9 14738V15044H14213.9V14304H14353.9V14559C14371.9 14535 14395.9 14516.3 14425.9 14503C14455.9 14489 14489.3 14482 14525.9 14482ZM15171.1 15053C15117.7 15053 15069.7 15041.3 15027.1 15018C14984.4 14994 14950.7 14960.3 14926.1 14917C14902.1 14873.7 14890.1 14823.7 14890.1 14767C14890.1 14710.3 14902.4 14660.3 14927.1 14617C14952.4 14573.7 14986.7 14540.3 15030.1 14517C15073.4 14493 15121.7 14481 15175.1 14481C15228.4 14481 15276.7 14493 15320.1 14517C15363.4 14540.3 15397.4 14573.7 15422.1 14617C15447.4 14660.3 15460.1 14710.3 15460.1 14767C15460.1 14823.7 15447.1 14873.7 15421.1 14917C15395.7 14960.3 15361.1 14994 15317.1 15018C15273.7 15041.3 15225.1 15053 15171.1 15053ZM15171.1 14931C15196.4 14931 15220.1 14925 15242.1 14913C15264.7 14900.3 15282.7 14881.7 15296.1 14857C15309.4 14832.3 15316.1 14802.3 15316.1 14767C15316.1 14714.3 15302.1 14674 15274.1 14646C15246.7 14617.3 15213.1 14603 15173.1 14603C15133.1 14603 15099.4 14617.3 15072.1 14646C15045.4 14674 15032.1 14714.3 15032.1 14767C15032.1 14819.7 15045.1 14860.3 15071.1 14889C15097.7 14917 15131.1 14931 15171.1 14931ZM16135.8 14490V15044H15994.8V14974C15976.8 14998 15953.1 15017 15923.8 15031C15895.1 15044.3 15863.8 15051 15829.8 15051C15786.4 15051 15748.1 15042 15714.8 15024C15681.4 15005.3 15655.1 14978.3 15635.8 14943C15617.1 14907 15607.8 14864.3 15607.8 14815V14490H15747.8V14795C15747.8 14839 15758.8 14873 15780.8 14897C15802.8 14920.3 15832.8 14932 15870.8 14932C15909.4 14932 15939.8 14920.3 15961.8 14897C15983.8 14873 15994.8 14839 15994.8 14795V14490H16135.8ZM16463.9 14576C16481.9 14546.7 16505.2 14523.7 16533.9 14507C16563.2 14490.3 16596.6 14482 16633.9 14482V14629H16596.9C16552.9 14629 16519.6 14639.3 16496.9 14660C16474.9 14680.7 16463.9 14716.7 16463.9 14768V15044H16323.9V14490H16463.9V14576ZM16990.2 15053C16944.9 15053 16904.2 15045 16868.2 15029C16832.2 15012.3 16803.5 14990 16782.2 14962C16761.5 14934 16750.2 14903 16748.2 14869H16889.2C16891.9 14890.3 16902.2 14908 16920.2 14922C16938.9 14936 16961.9 14943 16989.2 14943C17015.9 14943 17036.5 14937.7 17051.2 14927C17066.5 14916.3 17074.2 14902.7 17074.2 14886C17074.2 14868 17064.9 14854.7 17046.2 14846C17028.2 14836.7 16999.2 14826.7 16959.2 14816C16917.9 14806 16883.9 14795.7 16857.2 14785C16831.2 14774.3 16808.5 14758 16789.2 14736C16770.5 14714 16761.2 14684.3 16761.2 14647C16761.2 14616.3 16769.9 14588.3 16787.2 14563C16805.2 14537.7 16830.5 14517.7 16863.2 14503C16896.5 14488.3 16935.5 14481 16980.2 14481C17046.2 14481 17098.9 14497.7 17138.2 14531C17177.5 14563.7 17199.2 14608 17203.2 14664H17069.2C17067.2 14642 17057.9 14624.7 17041.2 14612C17025.2 14598.7 17003.5 14592 16976.2 14592C16950.9 14592 16931.2 14596.7 16917.2 14606C16903.9 14615.3 16897.2 14628.3 16897.2 14645C16897.2 14663.7 16906.5 14678 16925.2 14688C16943.9 14697.3 16972.9 14707 17012.2 14717C17052.2 14727 17085.2 14737.3 17111.2 14748C17137.2 14758.7 17159.5 14775.3 17178.2 14798C17197.5 14820 17207.5 14849.3 17208.2 14886C17208.2 14918 17199.2 14946.7 17181.2 14972C17163.9 14997.3 17138.5 15017.3 17105.2 15032C17072.5 15046 17034.2 15053 16990.2 15053Z" fill="#DDDDDD"/>
<path d="M6392.61 7196.4C6480.61 7196.4 6557.81 7213.6 6624.21 7248C6691.41 7282.4 6743.01 7331.6 6779.01 7395.6C6815.81 7458.8 6834.21 7532.4 6834.21 7616.4C6834.21 7700.4 6815.81 7774 6779.01 7837.2C6743.01 7899.6 6691.41 7948 6624.21 7982.4C6557.81 8016.8 6480.61 8034 6392.61 8034H6099.81V7196.4H6392.61ZM6386.61 7891.2C6474.61 7891.2 6542.61 7867.2 6590.61 7819.2C6638.61 7771.2 6662.61 7703.6 6662.61 7616.4C6662.61 7529.2 6638.61 7461.2 6590.61 7412.4C6542.61 7362.8 6474.61 7338 6386.61 7338H6267.81V7891.2H6386.61ZM6976.76 7699.2C6976.76 7632 6989.96 7572.4 7016.36 7520.4C7043.56 7468.4 7079.96 7428.4 7125.56 7400.4C7171.96 7372.4 7223.56 7358.4 7280.36 7358.4C7329.96 7358.4 7373.16 7368.4 7409.96 7388.4C7447.56 7408.4 7477.56 7433.6 7499.96 7464V7369.2H7669.16V8034H7499.96V7936.8C7478.36 7968 7448.36 7994 7409.96 8014.8C7372.36 8034.8 7328.76 8044.8 7279.16 8044.8C7223.16 8044.8 7171.96 8030.4 7125.56 8001.6C7079.96 7972.8 7043.56 7932.4 7016.36 7880.4C6989.96 7827.6 6976.76 7767.2 6976.76 7699.2ZM7499.96 7701.6C7499.96 7660.8 7491.96 7626 7475.96 7597.2C7459.96 7567.6 7438.36 7545.2 7411.16 7530C7383.96 7514 7354.76 7506 7323.56 7506C7292.36 7506 7263.56 7513.6 7237.16 7528.8C7210.76 7544 7189.16 7566.4 7172.36 7596C7156.36 7624.8 7148.36 7659.2 7148.36 7699.2C7148.36 7739.2 7156.36 7774.4 7172.36 7804.8C7189.16 7834.4 7210.76 7857.2 7237.16 7873.2C7264.36 7889.2 7293.16 7897.2 7323.56 7897.2C7354.76 7897.2 7383.96 7889.6 7411.16 7874.4C7438.36 7858.4 7459.96 7836 7475.96 7807.2C7491.96 7777.6 7499.96 7742.4 7499.96 7701.6ZM8088.85 7507.2V7828.8C8088.85 7851.2 8094.05 7867.6 8104.45 7878C8115.65 7887.6 8134.05 7892.4 8159.65 7892.4H8237.65V8034H8132.05C7990.45 8034 7919.65 7965.2 7919.65 7827.6V7507.2H7840.45V7369.2H7919.65V7204.8H8088.85V7369.2H8237.65V7507.2H8088.85ZM8375.28 7699.2C8375.28 7632 8388.48 7572.4 8414.88 7520.4C8442.08 7468.4 8478.48 7428.4 8524.08 7400.4C8570.48 7372.4 8622.08 7358.4 8678.88 7358.4C8728.48 7358.4 8771.68 7368.4 8808.48 7388.4C8846.08 7408.4 8876.08 7433.6 8898.48 7464V7369.2H9067.68V8034H8898.48V7936.8C8876.88 7968 8846.88 7994 8808.48 8014.8C8770.88 8034.8 8727.28 8044.8 8677.68 8044.8C8621.68 8044.8 8570.48 8030.4 8524.08 8001.6C8478.48 7972.8 8442.08 7932.4 8414.88 7880.4C8388.48 7827.6 8375.28 7767.2 8375.28 7699.2ZM8898.48 7701.6C8898.48 7660.8 8890.48 7626 8874.48 7597.2C8858.48 7567.6 8836.88 7545.2 8809.68 7530C8782.48 7514 8753.28 7506 8722.08 7506C8690.88 7506 8662.08 7513.6 8635.68 7528.8C8609.28 7544 8587.68 7566.4 8570.88 7596C8554.88 7624.8 8546.88 7659.2 8546.88 7699.2C8546.88 7739.2 8554.88 7774.4 8570.88 7804.8C8587.68 7834.4 8609.28 7857.2 8635.68 7873.2C8662.88 7889.2 8691.68 7897.2 8722.08 7897.2C8753.28 7897.2 8782.48 7889.6 8809.68 7874.4C8836.88 7858.4 8858.48 7836 8874.48 7807.2C8890.48 7777.6 8898.48 7742.4 8898.48 7701.6ZM9926.9 8042.4C9868.5 8042.4 9815.7 8032.4 9768.5 8012.4C9722.1 7992.4 9685.3 7963.6 9658.1 7926C9630.9 7888.4 9616.9 7844 9616.1 7792.8H9796.1C9798.5 7827.2 9810.5 7854.4 9832.1 7874.4C9854.5 7894.4 9884.9 7904.4 9923.3 7904.4C9962.5 7904.4 9993.3 7895.2 10015.7 7876.8C10038.1 7857.6 10049.3 7832.8 10049.3 7802.4C10049.3 7777.6 10041.7 7757.2 10026.5 7741.2C10011.3 7725.2 9992.1 7712.8 9968.9 7704C9946.5 7694.4 9915.3 7684 9875.3 7672.8C9820.9 7656.8 9776.5 7641.2 9742.1 7626C9708.5 7610 9679.3 7586.4 9654.5 7555.2C9630.5 7523.2 9618.5 7480.8 9618.5 7428C9618.5 7378.4 9630.9 7335.2 9655.7 7298.4C9680.5 7261.6 9715.3 7233.6 9760.1 7214.4C9804.9 7194.4 9856.1 7184.4 9913.7 7184.4C10000.1 7184.4 10070.1 7205.6 10123.7 7248C10178.1 7289.6 10208.1 7348 10213.7 7423.2H10028.9C10027.3 7394.4 10014.9 7370.8 9991.7 7352.4C9969.3 7333.2 9939.3 7323.6 9901.7 7323.6C9868.9 7323.6 9842.5 7332 9822.5 7348.8C9803.3 7365.6 9793.7 7390 9793.7 7422C9793.7 7444.4 9800.9 7463.2 9815.3 7478.4C9830.5 7492.8 9848.9 7504.8 9870.5 7514.4C9892.9 7523.2 9924.1 7533.6 9964.1 7545.6C10018.5 7561.6 10062.9 7577.6 10097.3 7593.6C10131.7 7609.6 10161.3 7633.6 10186.1 7665.6C10210.9 7697.6 10223.3 7739.6 10223.3 7791.6C10223.3 7836.4 10211.7 7878 10188.5 7916.4C10165.3 7954.8 10131.3 7985.6 10086.5 8008.8C10041.7 8031.2 9988.5 8042.4 9926.9 8042.4ZM10624.5 7507.2V7828.8C10624.5 7851.2 10629.7 7867.6 10640.1 7878C10651.3 7887.6 10669.7 7892.4 10695.3 7892.4H10773.3V8034H10667.7C10526.1 8034 10455.3 7965.2 10455.3 7827.6V7507.2H10376.1V7369.2H10455.3V7204.8H10624.5V7369.2H10773.3V7507.2H10624.5ZM11122.2 7472.4C11143.8 7437.2 11171.8 7409.6 11206.2 7389.6C11241.4 7369.6 11281.4 7359.6 11326.2 7359.6V7536H11281.8C11229 7536 11189 7548.4 11161.8 7573.2C11135.4 7598 11122.2 7641.2 11122.2 7702.8V8034H10954.2V7369.2H11122.2V7472.4ZM12126.9 7369.2V8034H11957.7V7950C11936.1 7978.8 11907.7 8001.6 11872.5 8018.4C11838.1 8034.4 11800.5 8042.4 11759.7 8042.4C11707.7 8042.4 11661.7 8031.6 11621.7 8010C11581.7 7987.6 11550.1 7955.2 11526.9 7912.8C11504.5 7869.6 11493.3 7818.4 11493.3 7759.2V7369.2H11661.3V7735.2C11661.3 7788 11674.5 7828.8 11700.9 7857.6C11727.3 7885.6 11763.3 7899.6 11808.9 7899.6C11855.3 7899.6 11891.7 7885.6 11918.1 7857.6C11944.5 7828.8 11957.7 7788 11957.7 7735.2V7369.2H12126.9ZM12309.5 7701.6C12309.5 7632.8 12323.5 7572.8 12351.5 7521.6C12379.5 7469.6 12418.3 7429.6 12467.9 7401.6C12517.5 7372.8 12574.3 7358.4 12638.3 7358.4C12720.7 7358.4 12788.7 7379.2 12842.3 7420.8C12896.7 7461.6 12933.1 7519.2 12951.5 7593.6H12770.3C12760.7 7564.8 12744.3 7542.4 12721.1 7526.4C12698.7 7509.6 12670.7 7501.2 12637.1 7501.2C12589.1 7501.2 12551.1 7518.8 12523.1 7554C12495.1 7588.4 12481.1 7637.6 12481.1 7701.6C12481.1 7764.8 12495.1 7814 12523.1 7849.2C12551.1 7883.6 12589.1 7900.8 12637.1 7900.8C12705.1 7900.8 12749.5 7870.4 12770.3 7809.6H12951.5C12933.1 7881.6 12896.7 7938.8 12842.3 7981.2C12787.9 8023.6 12719.9 8044.8 12638.3 8044.8C12574.3 8044.8 12517.5 8030.8 12467.9 8002.8C12418.3 7974 12379.5 7934 12351.5 7882.8C12323.5 7830.8 12309.5 7770.4 12309.5 7701.6ZM13330.2 7507.2V7828.8C13330.2 7851.2 13335.4 7867.6 13345.8 7878C13357 7887.6 13375.4 7892.4 13401 7892.4H13479V8034H13373.4C13231.8 8034 13161 7965.2 13161 7827.6V7507.2H13081.8V7369.2H13161V7204.8H13330.2V7369.2H13479V7507.2H13330.2ZM14287.4 7369.2V8034H14118.2V7950C14096.6 7978.8 14068.2 8001.6 14033 8018.4C13998.6 8034.4 13961 8042.4 13920.2 8042.4C13868.2 8042.4 13822.2 8031.6 13782.2 8010C13742.2 7987.6 13710.6 7955.2 13687.4 7912.8C13665 7869.6 13653.8 7818.4 13653.8 7759.2V7369.2H13821.8V7735.2C13821.8 7788 13835 7828.8 13861.4 7857.6C13887.8 7885.6 13923.8 7899.6 13969.4 7899.6C14015.8 7899.6 14052.2 7885.6 14078.6 7857.6C14105 7828.8 14118.2 7788 14118.2 7735.2V7369.2H14287.4ZM14681.2 7472.4C14702.8 7437.2 14730.8 7409.6 14765.2 7389.6C14800.4 7369.6 14840.4 7359.6 14885.2 7359.6V7536H14840.8C14788 7536 14748 7548.4 14720.8 7573.2C14694.4 7598 14681.2 7641.2 14681.2 7702.8V8034H14513.2V7369.2H14681.2V7472.4ZM15676.3 7687.2C15676.3 7711.2 15674.7 7732.8 15671.5 7752H15185.5C15189.5 7800 15206.3 7837.6 15235.9 7864.8C15265.5 7892 15301.9 7905.6 15345.1 7905.6C15407.5 7905.6 15451.9 7878.8 15478.3 7825.2H15659.5C15640.3 7889.2 15603.5 7942 15549.1 7983.6C15494.7 8024.4 15427.9 8044.8 15348.7 8044.8C15284.7 8044.8 15227.1 8030.8 15175.9 8002.8C15125.5 7974 15085.9 7933.6 15057.1 7881.6C15029.1 7829.6 15015.1 7769.6 15015.1 7701.6C15015.1 7632.8 15029.1 7572.4 15057.1 7520.4C15085.1 7468.4 15124.3 7428.4 15174.7 7400.4C15225.1 7372.4 15283.1 7358.4 15348.7 7358.4C15411.9 7358.4 15468.3 7372 15517.9 7399.2C15568.3 7426.4 15607.1 7465.2 15634.3 7515.6C15662.3 7565.2 15676.3 7622.4 15676.3 7687.2ZM15502.3 7639.2C15501.5 7596 15485.9 7561.6 15455.5 7536C15425.1 7509.6 15387.9 7496.4 15343.9 7496.4C15302.3 7496.4 15267.1 7509.2 15238.3 7534.8C15210.3 7559.6 15193.1 7594.4 15186.7 7639.2H15502.3ZM16113.3 8044.8C16058.9 8044.8 16010.1 8035.2 15966.9 8016C15923.7 7996 15889.3 7969.2 15863.7 7935.6C15838.9 7902 15825.3 7864.8 15822.9 7824H15992.1C15995.3 7849.6 16007.7 7870.8 16029.3 7887.6C16051.7 7904.4 16079.3 7912.8 16112.1 7912.8C16144.1 7912.8 16168.9 7906.4 16186.5 7893.6C16204.9 7880.8 16214.1 7864.4 16214.1 7844.4C16214.1 7822.8 16202.9 7806.8 16180.5 7796.4C16158.9 7785.2 16124.1 7773.2 16076.1 7760.4C16026.5 7748.4 15985.7 7736 15953.7 7723.2C15922.5 7710.4 15895.3 7690.8 15872.1 7664.4C15849.7 7638 15838.5 7602.4 15838.5 7557.6C15838.5 7520.8 15848.9 7487.2 15869.7 7456.8C15891.3 7426.4 15921.7 7402.4 15960.9 7384.8C16000.9 7367.2 16047.7 7358.4 16101.3 7358.4C16180.5 7358.4 16243.7 7378.4 16290.9 7418.4C16338.1 7457.6 16364.1 7510.8 16368.9 7578H16208.1C16205.7 7551.6 16194.5 7530.8 16174.5 7515.6C16155.3 7499.6 16129.3 7491.6 16096.5 7491.6C16066.1 7491.6 16042.5 7497.2 16025.7 7508.4C16009.7 7519.6 16001.7 7535.2 16001.7 7555.2C16001.7 7577.6 16012.9 7594.8 16035.3 7606.8C16057.7 7618 16092.5 7629.6 16139.7 7641.6C16187.7 7653.6 16227.3 7666 16258.5 7678.8C16289.7 7691.6 16316.5 7711.6 16338.9 7738.8C16362.1 7765.2 16374.1 7800.4 16374.9 7844.4C16374.9 7882.8 16364.1 7917.2 16342.5 7947.6C16321.7 7978 16291.3 8002 16251.3 8019.6C16212.1 8036.4 16166.1 8044.8 16113.3 8044.8ZM6312.9 9499.2C6312.9 9432 6326.1 9372.4 6352.5 9320.4C6379.7 9268.4 6416.1 9228.4 6461.7 9200.4C6508.1 9172.4 6559.7 9158.4 6616.5 9158.4C6666.1 9158.4 6709.3 9168.4 6746.1 9188.4C6783.7 9208.4 6813.7 9233.6 6836.1 9264V9169.2H7005.3V9834H6836.1V9736.8C6814.5 9768 6784.5 9794 6746.1 9814.8C6708.5 9834.8 6664.9 9844.8 6615.3 9844.8C6559.3 9844.8 6508.1 9830.4 6461.7 9801.6C6416.1 9772.8 6379.7 9732.4 6352.5 9680.4C6326.1 9627.6 6312.9 9567.2 6312.9 9499.2ZM6836.1 9501.6C6836.1 9460.8 6828.1 9426 6812.1 9397.2C6796.1 9367.6 6774.5 9345.2 6747.3 9330C6720.1 9314 6690.9 9306 6659.7 9306C6628.5 9306 6599.7 9313.6 6573.3 9328.8C6546.9 9344 6525.3 9366.4 6508.5 9396C6492.5 9424.8 6484.5 9459.2 6484.5 9499.2C6484.5 9539.2 6492.5 9574.4 6508.5 9604.8C6525.3 9634.4 6546.9 9657.2 6573.3 9673.2C6600.5 9689.2 6629.3 9697.2 6659.7 9697.2C6690.9 9697.2 6720.1 9689.6 6747.3 9674.4C6774.5 9658.4 6796.1 9636 6812.1 9607.2C6828.1 9577.6 6836.1 9542.4 6836.1 9501.6ZM7597.78 9159.6C7676.98 9159.6 7740.98 9184.8 7789.78 9235.2C7838.58 9284.8 7862.98 9354.4 7862.98 9444V9834H7694.98V9466.8C7694.98 9414 7681.78 9373.6 7655.38 9345.6C7628.98 9316.8 7592.98 9302.4 7547.38 9302.4C7500.98 9302.4 7464.18 9316.8 7436.98 9345.6C7410.58 9373.6 7397.38 9414 7397.38 9466.8V9834H7229.38V9169.2H7397.38V9252C7419.78 9223.2 7448.18 9200.8 7482.58 9184.8C7517.78 9168 7556.18 9159.6 7597.78 9159.6ZM8039.54 9499.2C8039.54 9432 8052.74 9372.4 8079.14 9320.4C8106.34 9268.4 8143.14 9228.4 8189.54 9200.4C8235.94 9172.4 8287.54 9158.4 8344.34 9158.4C8387.54 9158.4 8428.74 9168 8467.94 9187.2C8507.14 9205.6 8538.34 9230.4 8561.54 9261.6V8946H8731.94V9834H8561.54V9735.6C8540.74 9768.4 8511.54 9794.8 8473.94 9814.8C8436.34 9834.8 8392.74 9844.8 8343.14 9844.8C8287.14 9844.8 8235.94 9830.4 8189.54 9801.6C8143.14 9772.8 8106.34 9732.4 8079.14 9680.4C8052.74 9627.6 8039.54 9567.2 8039.54 9499.2ZM8562.74 9501.6C8562.74 9460.8 8554.74 9426 8538.74 9397.2C8522.74 9367.6 8501.14 9345.2 8473.94 9330C8446.74 9314 8417.54 9306 8386.34 9306C8355.14 9306 8326.34 9313.6 8299.94 9328.8C8273.54 9344 8251.94 9366.4 8235.14 9396C8219.14 9424.8 8211.14 9459.2 8211.14 9499.2C8211.14 9539.2 8219.14 9574.4 8235.14 9604.8C8251.94 9634.4 8273.54 9657.2 8299.94 9673.2C8327.14 9689.2 8355.94 9697.2 8386.34 9697.2C8417.54 9697.2 8446.74 9689.6 8473.94 9674.4C8501.14 9658.4 8522.74 9636 8538.74 9607.2C8554.74 9577.6 8562.74 9542.4 8562.74 9501.6ZM9815.56 9674.4H9481.96L9426.76 9834H9250.36L9551.56 8995.2H9747.16L10048.4 9834H9870.76L9815.56 9674.4ZM9769.96 9540L9648.76 9189.6L9527.56 9540H9769.96ZM10388.9 8946V9834H10220.9V8946H10388.9ZM10875.3 9158.4C10924.9 9158.4 10968.5 9168.4 11006.1 9188.4C11043.7 9207.6 11073.3 9232.8 11094.9 9264V9169.2H11264.1V9838.8C11264.1 9900.4 11251.7 9955.2 11226.9 10003.2C11202.1 10052 11164.9 10090.4 11115.3 10118.4C11065.7 10147.2 11005.7 10161.6 10935.3 10161.6C10840.9 10161.6 10763.3 10139.6 10702.5 10095.6C10642.5 10051.6 10608.5 9991.6 10600.5 9915.6H10767.3C10776.1 9946 10794.9 9970 10823.7 9987.6C10853.3 10006 10888.9 10015.2 10930.5 10015.2C10979.3 10015.2 11018.9 10000.4 11049.3 9970.8C11079.7 9942 11094.9 9898 11094.9 9838.8V9735.6C11073.3 9766.8 11043.3 9792.8 11004.9 9813.6C10967.3 9834.4 10924.1 9844.8 10875.3 9844.8C10819.3 9844.8 10768.1 9830.4 10721.7 9801.6C10675.3 9772.8 10638.5 9732.4 10611.3 9680.4C10584.9 9627.6 10571.7 9567.2 10571.7 9499.2C10571.7 9432 10584.9 9372.4 10611.3 9320.4C10638.5 9268.4 10674.9 9228.4 10720.5 9200.4C10766.9 9172.4 10818.5 9158.4 10875.3 9158.4ZM11094.9 9501.6C11094.9 9460.8 11086.9 9426 11070.9 9397.2C11054.9 9367.6 11033.3 9345.2 11006.1 9330C10978.9 9314 10949.7 9306 10918.5 9306C10887.3 9306 10858.5 9313.6 10832.1 9328.8C10805.7 9344 10784.1 9366.4 10767.3 9396C10751.3 9424.8 10743.3 9459.2 10743.3 9499.2C10743.3 9539.2 10751.3 9574.4 10767.3 9604.8C10784.1 9634.4 10805.7 9657.2 10832.1 9673.2C10859.3 9689.2 10888.1 9697.2 10918.5 9697.2C10949.7 9697.2 10978.9 9689.6 11006.1 9674.4C11033.3 9658.4 11054.9 9636 11070.9 9607.2C11086.9 9577.6 11094.9 9542.4 11094.9 9501.6ZM11783.4 9844.8C11719.4 9844.8 11661.8 9830.8 11610.6 9802.8C11559.4 9774 11519 9733.6 11489.4 9681.6C11460.6 9629.6 11446.2 9569.6 11446.2 9501.6C11446.2 9433.6 11461 9373.6 11490.6 9321.6C11521 9269.6 11562.2 9229.6 11614.2 9201.6C11666.2 9172.8 11724.2 9158.4 11788.2 9158.4C11852.2 9158.4 11910.2 9172.8 11962.2 9201.6C12014.2 9229.6 12055 9269.6 12084.6 9321.6C12115 9373.6 12130.2 9433.6 12130.2 9501.6C12130.2 9569.6 12114.6 9629.6 12083.4 9681.6C12053 9733.6 12011.4 9774 11958.6 9802.8C11906.6 9830.8 11848.2 9844.8 11783.4 9844.8ZM11783.4 9698.4C11813.8 9698.4 11842.2 9691.2 11868.6 9676.8C11895.8 9661.6 11917.4 9639.2 11933.4 9609.6C11949.4 9580 11957.4 9544 11957.4 9501.6C11957.4 9438.4 11940.6 9390 11907 9356.4C11874.2 9322 11833.8 9304.8 11785.8 9304.8C11737.8 9304.8 11697.4 9322 11664.6 9356.4C11632.6 9390 11616.6 9438.4 11616.6 9501.6C11616.6 9564.8 11632.2 9613.6 11663.4 9648C11695.4 9681.6 11735.4 9698.4 11783.4 9698.4ZM12481.4 9272.4C12503 9237.2 12531 9209.6 12565.4 9189.6C12600.6 9169.6 12640.6 9159.6 12685.4 9159.6V9336H12641C12588.2 9336 12548.2 9348.4 12521 9373.2C12494.6 9398 12481.4 9441.2 12481.4 9502.8V9834H12313.4V9169.2H12481.4V9272.4ZM12943.8 9090C12914.2 9090 12889.4 9080.8 12869.4 9062.4C12850.2 9043.2 12840.6 9019.6 12840.6 8991.6C12840.6 8963.6 12850.2 8940.4 12869.4 8922C12889.4 8902.8 12914.2 8893.2 12943.8 8893.2C12973.4 8893.2 12997.8 8902.8 13017 8922C13037 8940.4 13047 8963.6 13047 8991.6C13047 9019.6 13037 9043.2 13017 9062.4C12997.8 9080.8 12973.4 9090 12943.8 9090ZM13026.6 9169.2V9834H12858.6V9169.2H13026.6ZM13448.2 9307.2V9628.8C13448.2 9651.2 13453.4 9667.6 13463.8 9678C13475 9687.6 13493.4 9692.4 13519 9692.4H13597V9834H13491.4C13349.8 9834 13279 9765.2 13279 9627.6V9307.2H13199.8V9169.2H13279V9004.8H13448.2V9169.2H13597V9307.2H13448.2ZM14152.2 9159.6C14202.6 9159.6 14247.4 9170.8 14286.6 9193.2C14325.8 9214.8 14356.2 9247.2 14377.8 9290.4C14400.2 9332.8 14411.4 9384 14411.4 9444V9834H14243.4V9466.8C14243.4 9414 14230.2 9373.6 14203.8 9345.6C14177.4 9316.8 14141.4 9302.4 14095.8 9302.4C14049.4 9302.4 14012.6 9316.8 13985.4 9345.6C13959 9373.6 13945.8 9414 13945.8 9466.8V9834H13777.8V8946H13945.8V9252C13967.4 9223.2 13996.2 9200.8 14032.2 9184.8C14068.2 9168 14108.2 9159.6 14152.2 9159.6ZM15456.8 9159.6C15538.4 9159.6 15604 9184.8 15653.6 9235.2C15704 9284.8 15729.2 9354.4 15729.2 9444V9834H15561.2V9466.8C15561.2 9414.8 15548 9375.2 15521.6 9348C15495.2 9320 15459.2 9306 15413.6 9306C15368 9306 15331.6 9320 15304.4 9348C15278 9375.2 15264.8 9414.8 15264.8 9466.8V9834H15096.8V9466.8C15096.8 9414.8 15083.6 9375.2 15057.2 9348C15030.8 9320 14994.8 9306 14949.2 9306C14902.8 9306 14866 9320 14838.8 9348C14812.4 9375.2 14799.2 9414.8 14799.2 9466.8V9834H14631.2V9169.2H14799.2V9249.6C14820.8 9221.6 14848.4 9199.6 14882 9183.6C14916.4 9167.6 14954 9159.6 14994.8 9159.6C15046.8 9159.6 15093.2 9170.8 15134 9193.2C15174.8 9214.8 15206.4 9246 15228.8 9286.8C15250.4 9248.4 15281.6 9217.6 15322.4 9194.4C15364 9171.2 15408.8 9159.6 15456.8 9159.6ZM16203 9844.8C16148.6 9844.8 16099.8 9835.2 16056.6 9816C16013.4 9796 15979 9769.2 15953.4 9735.6C15928.6 9702 15915 9664.8 15912.6 9624H16081.8C16085 9649.6 16097.4 9670.8 16119 9687.6C16141.4 9704.4 16169 9712.8 16201.8 9712.8C16233.8 9712.8 16258.6 9706.4 16276.2 9693.6C16294.6 9680.8 16303.8 9664.4 16303.8 9644.4C16303.8 9622.8 16292.6 9606.8 16270.2 9596.4C16248.6 9585.2 16213.8 9573.2 16165.8 9560.4C16116.2 9548.4 16075.4 9536 16043.4 9523.2C16012.2 9510.4 15985 9490.8 15961.8 9464.4C15939.4 9438 15928.2 9402.4 15928.2 9357.6C15928.2 9320.8 15938.6 9287.2 15959.4 9256.8C15981 9226.4 16011.4 9202.4 16050.6 9184.8C16090.6 9167.2 16137.4 9158.4 16191 9158.4C16270.2 9158.4 16333.4 9178.4 16380.6 9218.4C16427.8 9257.6 16453.8 9310.8 16458.6 9378H16297.8C16295.4 9351.6 16284.2 9330.8 16264.2 9315.6C16245 9299.6 16219 9291.6 16186.2 9291.6C16155.8 9291.6 16132.2 9297.2 16115.4 9308.4C16099.4 9319.6 16091.4 9335.2 16091.4 9355.2C16091.4 9377.6 16102.6 9394.8 16125 9406.8C16147.4 9418 16182.2 9429.6 16229.4 9441.6C16277.4 9453.6 16317 9466 16348.2 9478.8C16379.4 9491.6 16406.2 9511.6 16428.6 9538.8C16451.8 9565.2 16463.8 9600.4 16464.6 9644.4C16464.6 9682.8 16453.8 9717.2 16432.2 9747.6C16411.4 9778 16381 9802 16341 9819.6C16301.8 9836.4 16255.8 9844.8 16203 9844.8Z" fill="white"/>
<mask id="mask0_3_149" style="mask-type:luminance" maskUnits="userSpaceOnUse" x="9222" y="1783" width="4350" height="3869">
<path d="M13572 1783H9222V5652H13572V1783Z" fill="white"/>
</mask>
<g mask="url(#mask0_3_149)">
<path d="M12348.6 5168.38V5410.19C12348.6 5476.69 12591.9 5531.09 12892.3 5531.09C13192.7 5531.09 13436.1 5476.69 13436.1 5410.19V5168.38H12348.6Z" fill="#ECEAEC"/>
<path d="M13436.1 5168.38H13300.1V5410.19C13300.1 5471.61 13092.6 5522.69 12824.3 5530.13C12846.6 5530.79 12869.3 5531.09 12892.3 5531.09C13192.7 5531.09 13436.1 5476.69 13436.1 5410.19V5168.38Z" fill="#DBD8DB"/>
<path d="M10445.4 5168.38V5410.19C10445.4 5476.69 10202.1 5531.09 9901.69 5531.09C9601.27 5531.09 9357.94 5476.69 9357.94 5410.19V5168.38H10445.4ZM10853.2 5168.38V5410.19C10853.2 5476.69 11096.6 5531.09 11397 5531.09C11697.4 5531.09 11940.8 5476.69 11940.8 5410.19V5168.38H10853.2Z" fill="#ECEAEC"/>
<path d="M11940.8 5168.38H11804.8V5410.19C11804.8 5471.61 11597.3 5522.69 11329 5530.13C11351.3 5530.79 11374 5531.09 11397 5531.09C11697.4 5531.09 11940.8 5476.69 11940.8 5410.19V5168.38Z" fill="#DBD8DB"/>
<path d="M10445.4 5168.38H10309.5V5410.19C10309.5 5471.61 10102 5522.69 9833.72 5530.13C9855.94 5530.79 9878.65 5531.09 9901.69 5531.09C10202.1 5531.09 10445.4 5476.69 10445.4 5410.19V5168.38Z" fill="#DBD8DB"/>
<path d="M12892.3 5289.28C13192.6 5289.28 13436.1 5235.15 13436.1 5168.38C13436.1 5101.6 13192.6 5047.47 12892.3 5047.47C12592 5047.47 12348.6 5101.6 12348.6 5168.38C12348.6 5235.15 12592 5289.28 12892.3 5289.28Z" fill="#615260"/>
<path fill-rule="evenodd" clip-rule="evenodd" d="M12824.3 5048.44C12846.6 5047.77 12869.3 5047.47 12892.3 5047.47C13192.4 5047.47 13436.1 5101.63 13436.1 5168.38C13436.1 5235.12 13192.4 5289.28 12892.3 5289.28C12869.3 5289.28 12846.6 5288.98 12824.3 5288.31C13092.4 5280.88 13300.1 5229.98 13300.1 5168.38C13300.1 5106.77 13092.4 5055.87 12824.3 5048.44Z" fill="#4E3D4D"/>
<path d="M9901.69 5289.28C10202 5289.28 10445.4 5235.15 10445.4 5168.38C10445.4 5101.6 10202 5047.47 9901.69 5047.47C9601.38 5047.47 9357.94 5101.6 9357.94 5168.38C9357.94 5235.15 9601.38 5289.28 9901.69 5289.28Z" fill="#615260"/>
<path d="M11397 5289.28C11697.3 5289.28 11940.8 5235.15 11940.8 5168.38C11940.8 5101.6 11697.3 5047.47 11397 5047.47C11096.7 5047.47 10853.2 5101.6 10853.2 5168.38C10853.2 5235.15 11096.7 5289.28 11397 5289.28Z" fill="#615260"/>
<path fill-rule="evenodd" clip-rule="evenodd" d="M11329 5048.44C11351.3 5047.77 11374 5047.47 11397 5047.47C11697.1 5047.47 11940.8 5101.63 11940.8 5168.38C11940.8 5235.12 11697.1 5289.28 11397 5289.28C11374 5289.28 11351.3 5288.98 11329 5288.31C11597.1 5280.88 11804.8 5229.98 11804.8 5168.38C11804.8 5106.77 11597.1 5055.87 11329 5048.44Z" fill="#4E3D4D"/>
<path fill-rule="evenodd" clip-rule="evenodd" d="M9833.72 5048.44C9856.01 5047.77 9878.65 5047.47 9901.69 5047.47C10201.8 5047.47 10445.4 5101.63 10445.4 5168.38C10445.4 5235.12 10201.8 5289.28 9901.69 5289.28C9878.65 5289.28 9856.01 5288.98 9833.72 5288.31C10101.8 5280.88 10309.5 5229.98 10309.5 5168.38C10309.5 5106.77 10101.8 5055.87 9833.72 5048.44Z" fill="#4E3D4D"/>
<path fill-rule="evenodd" clip-rule="evenodd" d="M11329 4745.2V5107.92C11329 5141.29 11359.5 5168.38 11397 5168.38C11434.5 5168.38 11465 5141.29 11465 5107.92V4745.2C11465 4711.83 11434.5 4684.75 11397 4684.75C11359.5 4684.75 11329 4711.83 11329 4745.2ZM11329 4261.58V4624.3C11329 4657.67 11359.5 4684.75 11397 4684.75C11434.5 4684.75 11465 4657.67 11465 4624.3V4261.58C11465 4228.21 11434.5 4201.12 11397 4201.12C11359.5 4201.12 11329 4228.21 11329 4261.58Z" fill="#DBD8DB"/>
<path fill-rule="evenodd" clip-rule="evenodd" d="M11465 4745.2H12824.3V5107.92C12824.3 5141.29 12854.8 5168.38 12892.3 5168.38C12929.8 5168.38 12960.3 5141.29 12960.3 5107.92V4684.75C12960.3 4651.38 12929.8 4624.3 12892.3 4624.3H11465C11427.5 4624.3 11397 4651.38 11397 4684.75C11397 4718.12 11427.5 4745.2 11465 4745.2ZM9969.66 5107.92V4745.2H11329C11366.5 4745.2 11397 4718.12 11397 4684.75C11397 4651.38 11366.5 4624.3 11329 4624.3H9901.69C9864.17 4624.3 9833.72 4651.38 9833.72 4684.75V5107.92C9833.72 5141.29 9864.17 5168.38 9901.69 5168.38C9939.21 5168.38 9969.66 5141.29 9969.66 5107.92ZM11465 3415.23V2810.7C11465 2777.33 11434.5 2750.25 11397 2750.25C11359.5 2750.25 11329 2777.33 11329 2810.7V3415.23C11329 3448.6 11359.5 3475.69 11397 3475.69C11434.5 3475.69 11465 3448.6 11465 3415.23Z" fill="#DBD8DB"/>
<path d="M10581.4 2274.71C10581.4 2315.18 10790.4 2349.68 11087.1 2364.19L11695.8 2364.67C11998.4 2350.64 12212.6 2315.66 12212.6 2274.71V2000.66H10581.4V2274.71ZM10581.4 2500.41V2774.47C10581.4 2827.83 10946.5 2871.19 11397 2871.19C11847.5 2871.19 12212.6 2827.83 12212.6 2774.47V2500.41C12212.6 2539.1 12021.8 2572.31 11745.8 2587.78L11054.7 2588.27C10775.2 2572.95 10581.4 2539.26 10581.4 2500.41Z" fill="#ECEAEC"/>
<path d="M10581.4 2516.53C10581.4 2555.38 10775.2 2589.07 11054.7 2604.39L11745.8 2603.91C12021.8 2588.43 12212.6 2555.22 12212.6 2516.53V2258.59C12212.6 2299.54 11998.4 2334.52 11695.8 2348.55L11087.1 2348.07C10790.4 2333.56 10581.4 2299.06 10581.4 2258.59V2516.53Z" fill="#ECEAEC"/>
<path fill-rule="evenodd" clip-rule="evenodd" d="M12212.6 2774.47V2000.66H12049.5V2774.47C12049.5 2824.57 11369.5 2871.19 11397 2871.19C11847.5 2871.19 12212.6 2827.83 12212.6 2774.47Z" fill="#DBD8DB"/>
<path d="M11397 2097.38C11847.5 2097.38 12212.6 2054.08 12212.6 2000.66C12212.6 1947.24 11847.5 1903.93 11397 1903.93C10946.5 1903.93 10581.4 1947.24 10581.4 2000.66C10581.4 2054.08 10946.5 2097.38 11397 2097.38Z" fill="#615260"/>
<path d="M12212.6 2238.36C12183.1 2260.33 12131.5 2277 12067.2 2290.41C11895.5 2326.3 11633.2 2335.21 11397.7 2331.75C11080.9 2327.09 10843.8 2317.9 10699.6 2285.96C10646 2274.1 10606 2259.22 10581.4 2239.67V2284.92C10608 2297.07 10641.1 2307.42 10680.5 2316.16C10828.5 2348.93 11071.5 2359.2 11396.3 2363.99C11638.6 2367.55 11908.5 2357.75 12085.3 2320.82C12135.9 2310.26 12179 2297.3 12212.6 2281.93V2238.36Z" fill="#615260"/>
<path d="M12212.6 2500.41C12183.1 2522.38 12131.5 2539.05 12067.2 2552.46C11895.5 2588.35 11633.2 2597.26 11397.7 2593.8C11080.9 2589.14 10843.8 2579.95 10699.6 2548.01C10646 2536.15 10606 2521.27 10581.4 2501.71V2546.96C10608 2559.12 10641.1 2569.47 10680.5 2578.21C10828.5 2610.98 11071.5 2621.25 11396.3 2626.04C11638.6 2629.6 11908.5 2619.8 12085.3 2582.87C12135.9 2572.31 12179 2559.34 12212.6 2543.98V2500.41Z" fill="#615260"/>
<path fill-rule="evenodd" clip-rule="evenodd" d="M11315.4 1904.41C11342.3 1904.09 11369.5 1903.93 11397 1903.93C11847.2 1903.93 12212.6 1947.28 12212.6 2000.66C12212.6 2054.05 11847.2 2097.38 11397 2097.38C11369.5 2097.38 11342.3 2097.22 11315.4 2096.9C11727.3 2092.05 12049.5 2050.78 12049.5 2000.66C12049.5 1950.54 11727.3 1909.27 11315.4 1904.41Z" fill="#4E3D4D"/>
<path fill-rule="evenodd" clip-rule="evenodd" d="M12049.5 2556.01V2589.77C12061.8 2587.57 12073.8 2585.28 12085.3 2582.87C12135.9 2572.29 12179 2559.33 12212.6 2543.97V2500.41C12183.1 2522.36 12131.5 2539.03 12067.2 2552.46C12061.4 2553.67 12055.5 2554.85 12049.5 2556.01ZM12049.5 2293.96V2327.72C12061.8 2325.53 12073.8 2323.24 12085.3 2320.82C12135.9 2310.24 12179 2297.28 12212.6 2281.92V2238.36C12183.1 2260.32 12131.5 2276.99 12067.2 2290.41C12061.4 2291.62 12055.5 2292.8 12049.5 2293.96Z" fill="#4E3D4D"/>
<path d="M10785.3 4140.67V3475.69C10785.3 3408.58 10846.5 3354.78 10921.2 3354.78H11872.8C11948.2 3354.78 12008.7 3409.19 12008.7 3475.69V4140.67" fill="#7AD7EE"/>
<path d="M10785.3 4140.67V4008.82C11387.7 3921.83 11712.2 3683.1 11872.8 3354.78C11948.2 3354.78 12008.7 3409.19 12008.7 3475.69V4140.67H10785.3Z" fill="#4BC3EF"/>
<path fill-rule="evenodd" clip-rule="evenodd" d="M10853.2 4140.67V3475.69C10853.2 3442.14 10883.8 3415.23 10921.2 3415.23H11872.8C11910.5 3415.23 11940.8 3442.44 11940.8 3475.69V4140.67H12076.7V3475.69C12076.7 3375.94 11985.9 3294.33 11872.8 3294.33H10921.2C10809.1 3294.33 10717.3 3375.03 10717.3 3475.69V4140.67H10853.2Z" fill="#615260"/>
<path d="M12212.6 4080.22H10581.4C10581.4 4213.82 10703 4322.03 10853.2 4322.03H11940.8C12091 4322.03 12212.6 4213.82 12212.6 4080.22Z" fill="#615260"/>
<path d="M12212.6 4080.22C12184.1 4263.51 10796.4 4221.68 10853.2 4322.03H11940.7C12091 4322.03 12212.6 4213.82 12212.6 4080.22Z" fill="#4E3D4D"/>
<path d="M11397 4805.66C11472.1 4805.66 11532.9 4751.52 11532.9 4684.75C11532.9 4617.98 11472.1 4563.84 11397 4563.84C11321.9 4563.84 11261.1 4617.98 11261.1 4684.75C11261.1 4751.52 11321.9 4805.66 11397 4805.66Z" fill="#4E3D4D"/>
</g>
<path d="M9777.59 20714L9669.79 20523.6H9623.59V20714H9525.59V20225.4H9708.99C9746.79 20225.4 9778.99 20232.2 9805.59 20245.7C9832.19 20258.8 9852.03 20276.7 9865.09 20299.6C9878.63 20322 9885.39 20347.2 9885.39 20375.2C9885.39 20407.4 9876.06 20436.6 9857.39 20462.7C9838.73 20488.4 9810.96 20506.1 9774.09 20515.9L9890.99 20714H9777.59ZM9623.59 20450.1H9705.49C9732.09 20450.1 9751.93 20443.8 9764.99 20431.2C9778.06 20418.1 9784.59 20400.2 9784.59 20377.3C9784.59 20354.9 9778.06 20337.6 9764.99 20325.5C9751.93 20312.9 9732.09 20306.6 9705.49 20306.6H9623.59V20450.1ZM10122.4 20720.3C10090.7 20720.3 10062.2 20714.7 10037 20703.5C10011.8 20691.8 9991.76 20676.2 9976.83 20656.6C9962.36 20637 9954.43 20615.3 9953.03 20591.5H10051.7C10053.6 20606.4 10060.8 20618.8 10073.4 20628.6C10086.5 20638.4 10102.6 20643.3 10121.7 20643.3C10140.4 20643.3 10154.9 20639.6 10165.1 20632.1C10175.9 20624.6 10181.2 20615.1 10181.2 20603.4C10181.2 20590.8 10174.7 20581.5 10161.6 20575.4C10149 20568.9 10128.7 20561.9 10100.7 20554.4C10071.8 20547.4 10048 20540.2 10029.3 20532.7C10011.1 20525.2 9995.26 20513.8 9981.73 20498.4C9968.66 20483 9962.13 20462.2 9962.13 20436.1C9962.13 20414.6 9968.2 20395 9980.33 20377.3C9992.93 20359.6 10010.7 20345.6 10033.5 20335.3C10056.9 20325 10084.2 20319.9 10115.4 20319.9C10161.6 20319.9 10198.5 20331.6 10226 20354.9C10253.6 20377.8 10268.7 20408.8 10271.5 20448H10177.7C10176.3 20432.6 10169.8 20420.5 10158.1 20411.6C10146.9 20402.3 10131.8 20397.6 10112.6 20397.6C10094.9 20397.6 10081.1 20400.9 10071.3 20407.4C10062 20413.9 10057.3 20423 10057.3 20434.7C10057.3 20447.8 10063.9 20457.8 10076.9 20464.8C10090 20471.3 10110.3 20478.1 10137.8 20485.1C10165.8 20492.1 10188.9 20499.3 10207.1 20506.8C10225.3 20514.3 10241 20525.9 10254 20541.8C10267.6 20557.2 10274.6 20577.7 10275 20603.4C10275 20625.8 10268.7 20645.9 10256.1 20663.6C10244 20681.3 10226.3 20695.3 10202.9 20705.6C10180.1 20715.4 10153.2 20720.3 10122.4 20720.3ZM10499.2 20294V20203.7H10667.9V20714H10567.1V20294H10499.2ZM11029.3 20331.1C11024.6 20311.5 11016.5 20296.8 11004.8 20287C10993.6 20277.2 10977.3 20272.3 10955.8 20272.3C10923.6 20272.3 10899.8 20285.4 10884.4 20311.5C10869.5 20337.2 10861.8 20379.2 10861.3 20437.5C10872.5 20418.8 10888.8 20404.4 10910.3 20394.1C10931.8 20383.4 10955.1 20378 10980.3 20378C11010.6 20378 11037.5 20384.5 11060.8 20397.6C11084.1 20410.7 11102.3 20429.8 11115.4 20455C11128.5 20479.7 11135 20509.6 11135 20544.6C11135 20577.7 11128.2 20607.4 11114.7 20633.5C11101.6 20659.2 11082.3 20679.2 11056.6 20693.7C11030.9 20708.2 11000.4 20715.4 10964.9 20715.4C10916.4 20715.4 10878.1 20704.7 10850.1 20683.2C10822.6 20661.7 10803.2 20631.9 10792 20593.6C10781.3 20554.9 10775.9 20507.3 10775.9 20450.8C10775.9 20365.4 10790.6 20301 10820 20257.6C10849.4 20213.7 10895.8 20191.8 10959.3 20191.8C11008.3 20191.8 11046.3 20205.1 11073.4 20231.7C11100.5 20258.3 11116.1 20291.4 11120.3 20331.1H11029.3ZM10957.9 20458.5C10933.2 20458.5 10912.4 20465.7 10895.6 20480.2C10878.8 20494.7 10870.4 20515.7 10870.4 20543.2C10870.4 20570.7 10878.1 20592.4 10893.5 20608.3C10909.4 20624.2 10931.5 20632.1 10960 20632.1C10985.2 20632.1 11005 20624.4 11019.5 20609C11034.4 20593.6 11041.9 20572.8 11041.9 20546.7C11041.9 20519.6 11034.7 20498.2 11020.2 20482.3C11006.2 20466.4 10985.4 20458.5 10957.9 20458.5ZM11325.8 20570.5C11329.6 20591 11338 20606.9 11351 20618.1C11364.6 20628.8 11382.5 20634.2 11404.9 20634.2C11433.9 20634.2 11454.9 20622.3 11467.9 20598.5C11481 20574.2 11487.5 20533.6 11487.5 20476.7C11476.8 20491.6 11461.6 20503.3 11442 20511.7C11422.9 20520.1 11402.1 20524.3 11379.7 20524.3C11349.9 20524.3 11322.8 20518.2 11298.5 20506.1C11274.7 20493.5 11255.8 20475.1 11241.8 20450.8C11227.8 20426.1 11220.8 20396.2 11220.8 20361.2C11220.8 20309.4 11236.2 20268.3 11267 20238C11297.8 20207.2 11339.8 20191.8 11393 20191.8C11459.3 20191.8 11506 20213 11533 20255.5C11560.6 20298 11574.3 20361.9 11574.3 20447.3C11574.3 20508 11569 20557.7 11558.2 20596.4C11548 20635.1 11530 20664.5 11504.3 20684.6C11479.1 20704.7 11444.6 20714.7 11400.7 20714.7C11366.2 20714.7 11336.8 20708.2 11312.5 20695.1C11288.3 20681.6 11269.6 20664.1 11256.5 20642.6C11243.9 20620.7 11236.7 20596.6 11234.8 20570.5H11325.8ZM11400 20444.5C11424.3 20444.5 11443.4 20437 11457.4 20422.1C11471.4 20407.2 11478.4 20387.1 11478.4 20361.9C11478.4 20334.4 11471 20313.1 11456 20298.2C11441.6 20282.8 11421.7 20275.1 11396.5 20275.1C11371.3 20275.1 11351.3 20283 11336.3 20298.9C11321.9 20314.3 11314.6 20334.8 11314.6 20360.5C11314.6 20385.2 11321.6 20405.5 11335.6 20421.4C11350.1 20436.8 11371.6 20444.5 11400 20444.5ZM11764 20570.5C11767.8 20591 11776.2 20606.9 11789.2 20618.1C11802.8 20628.8 11820.7 20634.2 11843.1 20634.2C11872.1 20634.2 11893.1 20622.3 11906.1 20598.5C11919.2 20574.2 11925.7 20533.6 11925.7 20476.7C11915 20491.6 11899.8 20503.3 11880.2 20511.7C11861.1 20520.1 11840.3 20524.3 11817.9 20524.3C11788.1 20524.3 11761 20518.2 11736.7 20506.1C11712.9 20493.5 11694 20475.1 11680 20450.8C11666 20426.1 11659 20396.2 11659 20361.2C11659 20309.4 11674.4 20268.3 11705.2 20238C11736 20207.2 11778 20191.8 11831.2 20191.8C11897.5 20191.8 11944.2 20213 11971.2 20255.5C11998.8 20298 12012.5 20361.9 12012.5 20447.3C12012.5 20508 12007.2 20557.7 11996.4 20596.4C11986.2 20635.1 11968.2 20664.5 11942.5 20684.6C11917.3 20704.7 11882.8 20714.7 11838.9 20714.7C11804.4 20714.7 11775 20708.2 11750.7 20695.1C11726.5 20681.6 11707.8 20664.1 11694.7 20642.6C11682.1 20620.7 11674.9 20596.6 11673 20570.5H11764ZM11838.2 20444.5C11862.5 20444.5 11881.6 20437 11895.6 20422.1C11909.6 20407.2 11916.6 20387.1 11916.6 20361.9C11916.6 20334.4 11909.2 20313.1 11894.2 20298.2C11879.8 20282.8 11859.9 20275.1 11834.7 20275.1C11809.5 20275.1 11789.5 20283 11774.5 20298.9C11760.1 20314.3 11752.8 20334.8 11752.8 20360.5C11752.8 20385.2 11759.8 20405.5 11773.8 20421.4C11788.3 20436.8 11809.8 20444.5 11838.2 20444.5Z" fill="#DDDDDD"/>
</g>
<defs>
<filter id="filter0_d_3_149" x="7561" y="19268" width="6383" height="2329" filterUnits="userSpaceOnUse" color-interpolation-filters="sRGB">
<feFlood flood-opacity="0" result="BackgroundImageFix"/>
<feColorMatrix in="SourceAlpha" type="matrix" values="0 0 0 0 0 0 0 0 0 0 0 0 0 0 0 0 0 0 127 0" result="hardAlpha"/>
<feOffset dy="4"/>
<feGaussianBlur stdDeviation="2"/>
<feComposite in2="hardAlpha" operator="out"/>
<feColorMatrix type="matrix" values="0 0 0 0 0 0 0 0 0 0 0 0 0 0 0 0 0 0 0.25 0"/>
<feBlend mode="normal" in2="BackgroundImageFix" result="effect1_dropShadow_3_149"/>
<feBlend mode="normal" in="SourceGraphic" in2="effect1_dropShadow_3_149" result="shape"/>
</filter>
<linearGradient id="paint0_linear_3_149" x1="1733.41" y1="-2667.06" x2="1942.16" y2="25150.5" gradientUnits="userSpaceOnUse">
<stop offset="0.431077" stop-color="#001833"/>
<stop offset="1" stop-color="#203956" stop-opacity="0.46"/>
</linearGradient>
<clipPath id="clip0_3_149">
<rect width="22592" height="24881" fill="white"/>
</clipPath>
</defs>
</svg>
