<svg width="22592" height="24881" viewBox="0 0 22592 24881" fill="none" xmlns="http://www.w3.org/2000/svg">
<path d="M0 899.999C0 402.943 402.944 0 900 0H21692C22189.1 0 22592 402.944 22592 900V23981C22592 24478.1 22189.1 24881 21692 24881H900C402.944 24881 0 24478.1 0 23981V899.999Z" fill="url(#paint0_linear_411_139)" fill-opacity="0.991525"/>
<ellipse cx="20577.4" cy="9630.95" rx="28.3956" ry="22.9524" fill="#D9D9D9"/>
<ellipse cx="20634.4" cy="4694.95" rx="28.3956" ry="22.9524" fill="#D9D9D9"/>
<ellipse cx="19068.4" cy="1224.95" rx="28.3956" ry="22.9524" fill="#D9D9D9"/>
<ellipse cx="17393.4" cy="6411.95" rx="28.3956" ry="22.9524" fill="#D9D9D9"/>
<ellipse cx="1818.4" cy="2518.95" rx="28.3956" ry="22.9524" fill="#D9D9D9"/>
<ellipse cx="1875.4" cy="8684.95" rx="28.3956" ry="22.9524" fill="#D9D9D9"/>
<ellipse cx="7348.31" cy="10290.5" rx="22.3108" ry="23.474" fill="white"/>
<ellipse cx="4418.31" cy="5326.47" rx="22.3108" ry="23.474" fill="white"/>
<ellipse cx="15055.3" cy="1178.47" rx="22.3108" ry="23.474" fill="white"/>
<ellipse cx="6039.31" cy="1130" rx="22.3108" ry="24.9957" fill="white"/>
<rect y="11107" width="22592" height="349" rx="100" fill="#D3623F"/>
<path d="M9924.53 20639L9816.73 20448.6H9770.53V20639H9672.53V20150.4H9855.93C9893.73 20150.4 9925.93 20157.2 9952.53 20170.7C9979.13 20183.8 9998.96 20201.7 10012 20224.6C10025.6 20247 10032.3 20272.2 10032.3 20300.2C10032.3 20332.4 10023 20361.6 10004.3 20387.7C9985.66 20413.4 9957.9 20431.1 9921.03 20440.9L10037.9 20639H9924.53ZM9770.53 20375.1H9852.43C9879.03 20375.1 9898.86 20368.8 9911.93 20356.2C9925 20343.1 9931.53 20325.2 9931.53 20302.3C9931.53 20279.9 9925 20262.6 9911.93 20250.5C9898.86 20237.9 9879.03 20231.6 9852.43 20231.6H9770.53V20375.1ZM10269.4 20645.3C10237.6 20645.3 10209.2 20639.7 10184 20628.5C10158.8 20616.8 10138.7 20601.2 10123.8 20581.6C10109.3 20562 10101.4 20540.3 10100 20516.5H10198.7C10200.5 20531.4 10207.8 20543.8 10220.4 20553.6C10233.4 20563.4 10249.5 20568.3 10268.7 20568.3C10287.3 20568.3 10301.8 20564.6 10312.1 20557.1C10322.8 20549.6 10328.2 20540.1 10328.2 20528.4C10328.2 20515.8 10321.6 20506.5 10308.6 20500.4C10296 20493.9 10275.7 20486.9 10247.7 20479.4C10218.7 20472.4 10194.9 20465.2 10176.3 20457.7C10158.1 20450.2 10142.2 20438.8 10128.7 20423.4C10115.6 20408 10109.1 20387.2 10109.1 20361.1C10109.1 20339.6 10115.1 20320 10127.3 20302.3C10139.9 20284.6 10157.6 20270.6 10180.5 20260.3C10203.8 20250 10231.1 20244.9 10262.4 20244.9C10308.6 20244.9 10345.4 20256.6 10373 20279.9C10400.5 20302.8 10415.7 20333.8 10418.5 20373H10324.7C10323.3 20357.6 10316.7 20345.5 10305.1 20336.6C10293.9 20327.3 10278.7 20322.6 10259.6 20322.6C10241.8 20322.6 10228.1 20325.9 10218.3 20332.4C10208.9 20338.9 10204.3 20348 10204.3 20359.7C10204.3 20372.8 10210.8 20382.8 10223.9 20389.8C10236.9 20396.3 10257.2 20403.1 10284.8 20410.1C10312.8 20417.1 10335.9 20424.3 10354.1 20431.8C10372.3 20439.3 10387.9 20450.9 10401 20466.8C10414.5 20482.2 10421.5 20502.7 10422 20528.4C10422 20550.8 10415.7 20570.9 10403.1 20588.6C10390.9 20606.3 10373.2 20620.3 10349.9 20630.6C10327 20640.4 10300.2 20645.3 10269.4 20645.3ZM10982.8 20202.9L10796.6 20639H10697.2L10884.8 20214.1H10645.4V20130.1H10982.8V20202.9ZM11154.9 20495.5C11158.6 20516 11167 20531.9 11180.1 20543.1C11193.6 20553.8 11211.6 20559.2 11234 20559.2C11262.9 20559.2 11283.9 20547.3 11297 20523.5C11310.1 20499.2 11316.6 20458.6 11316.6 20401.7C11305.9 20416.6 11290.7 20428.3 11271.1 20436.7C11252 20445.1 11231.2 20449.3 11208.8 20449.3C11178.9 20449.3 11151.9 20443.2 11127.6 20431.1C11103.8 20418.5 11084.9 20400.1 11070.9 20375.8C11056.9 20351.1 11049.9 20321.2 11049.9 20286.2C11049.9 20234.4 11065.3 20193.3 11096.1 20163C11126.9 20132.2 11168.9 20116.8 11222.1 20116.8C11288.4 20116.8 11335 20138 11362.1 20180.5C11389.6 20223 11403.4 20286.9 11403.4 20372.3C11403.4 20433 11398 20482.7 11387.3 20521.4C11377 20560.1 11359.1 20589.5 11333.4 20609.6C11308.2 20629.7 11273.7 20639.7 11229.8 20639.7C11195.3 20639.7 11165.9 20633.2 11141.6 20620.1C11117.3 20606.6 11098.7 20589.1 11085.6 20567.6C11073 20545.7 11065.8 20521.6 11063.9 20495.5H11154.9ZM11229.1 20369.5C11253.4 20369.5 11272.5 20362 11286.5 20347.1C11300.5 20332.2 11307.5 20312.1 11307.5 20286.9C11307.5 20259.4 11300 20238.1 11285.1 20223.2C11270.6 20207.8 11250.8 20200.1 11225.6 20200.1C11200.4 20200.1 11180.3 20208 11165.4 20223.9C11150.9 20239.3 11143.7 20259.8 11143.7 20285.5C11143.7 20310.2 11150.7 20330.5 11164.7 20346.4C11179.2 20361.8 11200.6 20369.5 11229.1 20369.5ZM11593.1 20495.5C11596.8 20516 11605.2 20531.9 11618.3 20543.1C11631.8 20553.8 11649.8 20559.2 11672.2 20559.2C11701.1 20559.2 11722.1 20547.3 11735.2 20523.5C11748.3 20499.2 11754.8 20458.6 11754.8 20401.7C11744.1 20416.6 11728.9 20428.3 11709.3 20436.7C11690.2 20445.1 11669.4 20449.3 11647 20449.3C11617.1 20449.3 11590.1 20443.2 11565.8 20431.1C11542 20418.5 11523.1 20400.1 11509.1 20375.8C11495.1 20351.1 11488.1 20321.2 11488.1 20286.2C11488.1 20234.4 11503.5 20193.3 11534.3 20163C11565.1 20132.2 11607.1 20116.8 11660.3 20116.8C11726.6 20116.8 11773.2 20138 11800.3 20180.5C11827.8 20223 11841.6 20286.9 11841.6 20372.3C11841.6 20433 11836.2 20482.7 11825.5 20521.4C11815.2 20560.1 11797.3 20589.5 11771.6 20609.6C11746.4 20629.7 11711.9 20639.7 11668 20639.7C11633.5 20639.7 11604.1 20633.2 11579.8 20620.1C11555.5 20606.6 11536.9 20589.1 11523.8 20567.6C11511.2 20545.7 11504 20521.6 11502.1 20495.5H11593.1ZM11667.3 20369.5C11691.6 20369.5 11710.7 20362 11724.7 20347.1C11738.7 20332.2 11745.7 20312.1 11745.7 20286.9C11745.7 20259.4 11738.2 20238.1 11723.3 20223.2C11708.8 20207.8 11689 20200.1 11663.8 20200.1C11638.6 20200.1 11618.5 20208 11603.6 20223.9C11589.1 20239.3 11581.9 20259.8 11581.9 20285.5C11581.9 20310.2 11588.9 20330.5 11602.9 20346.4C11617.4 20361.8 11638.8 20369.5 11667.3 20369.5Z" fill="#DDDDDD"/>
<g filter="url(#filter0_d_411_139)">
<rect x="7577.5" y="19280.5" width="6350" height="2296" rx="512.5" stroke="#DDDDDD" stroke-width="25" shape-rendering="crispEdges"/>
</g>
<path d="M5434.89 14886C5498.89 14832.7 5549.89 14788.3 5587.89 14753C5625.89 14717 5657.56 14679.7 5682.89 14641C5708.23 14602.3 5720.89 14564.3 5720.89 14527C5720.89 14493 5712.89 14466.3 5696.89 14447C5680.89 14427.7 5656.23 14418 5622.89 14418C5589.56 14418 5563.89 14429.3 5545.89 14452C5527.89 14474 5518.56 14504.3 5517.89 14543H5381.89C5384.56 14463 5408.23 14402.3 5452.89 14361C5498.23 14319.7 5555.56 14299 5624.89 14299C5700.89 14299 5759.23 14319.3 5799.89 14360C5840.56 14400 5860.89 14453 5860.89 14519C5860.89 14571 5846.89 14620.7 5818.89 14668C5790.89 14715.3 5758.89 14756.7 5722.89 14792C5686.89 14826.7 5639.89 14868.7 5581.89 14918H5876.89V15034H5382.89V14930L5434.89 14886ZM6505.11 14436H6181.11V14607C6195.11 14589.7 6215.11 14575.7 6241.11 14565C6267.11 14553.7 6294.78 14548 6324.11 14548C6377.45 14548 6421.11 14559.7 6455.11 14583C6489.11 14606.3 6513.78 14636.3 6529.11 14673C6544.45 14709 6552.11 14747.7 6552.11 14789C6552.11 14865.7 6530.11 14927.3 6486.11 14974C6442.78 15020.7 6380.78 15044 6300.11 15044C6224.11 15044 6163.45 15025 6118.11 14987C6072.78 14949 6047.11 14899.3 6041.11 14838H6177.11C6183.11 14864.7 6196.45 14886 6217.11 14902C6238.45 14918 6265.45 14926 6298.11 14926C6337.45 14926 6367.11 14913.7 6387.11 14889C6407.11 14864.3 6417.11 14831.7 6417.11 14791C6417.11 14749.7 6406.78 14718.3 6386.11 14697C6366.11 14675 6336.45 14664 6297.11 14664C6269.11 14664 6245.78 14671 6227.11 14685C6208.45 14699 6195.11 14717.7 6187.11 14741H6053.11V14313H6505.11V14436ZM6708.67 14670C6708.67 14554.7 6729.33 14464.3 6770.67 14399C6812.67 14333.7 6882 14301 6978.67 14301C7075.33 14301 7144.33 14333.7 7185.67 14399C7227.67 14464.3 7248.67 14554.7 7248.67 14670C7248.67 14786 7227.67 14877 7185.67 14943C7144.33 15009 7075.33 15042 6978.67 15042C6882 15042 6812.67 15009 6770.67 14943C6729.33 14877 6708.67 14786 6708.67 14670ZM7110.67 14670C7110.67 14620.7 7107.33 14579.3 7100.67 14546C7094.67 14512 7082 14484.3 7062.67 14463C7044 14441.7 7016 14431 6978.67 14431C6941.33 14431 6913 14441.7 6893.67 14463C6875 14484.3 6862.33 14512 6855.67 14546C6849.67 14579.3 6846.67 14620.7 6846.67 14670C6846.67 14720.7 6849.67 14763.3 6855.67 14798C6861.67 14832 6874.33 14859.7 6893.67 14881C6913 14901.7 6941.33 14912 6978.67 14912C7016 14912 7044.33 14901.7 7063.67 14881C7083 14859.7 7095.67 14832 7101.67 14798C7107.67 14763.3 7110.67 14720.7 7110.67 14670ZM7849.43 14304V15044H7709.43V14304H7849.43ZM8552.75 14755C8552.75 14775 8551.42 14793 8548.75 14809H8143.75C8147.09 14849 8161.09 14880.3 8185.75 14903C8210.42 14925.7 8240.75 14937 8276.75 14937C8328.75 14937 8365.75 14914.7 8387.75 14870H8538.75C8522.75 14923.3 8492.09 14967.3 8446.75 15002C8401.42 15036 8345.75 15053 8279.75 15053C8226.42 15053 8178.42 15041.3 8135.75 15018C8093.75 14994 8060.75 14960.3 8036.75 14917C8013.42 14873.7 8001.75 14823.7 8001.75 14767C8001.75 14709.7 8013.42 14659.3 8036.75 14616C8060.09 14572.7 8092.75 14539.3 8134.75 14516C8176.75 14492.7 8225.09 14481 8279.75 14481C8332.42 14481 8379.42 14492.3 8420.75 14515C8462.75 14537.7 8495.09 14570 8517.75 14612C8541.09 14653.3 8552.75 14701 8552.75 14755ZM8407.75 14715C8407.09 14679 8394.09 14650.3 8368.75 14629C8343.42 14607 8312.42 14596 8275.75 14596C8241.09 14596 8211.75 14606.7 8187.75 14628C8164.42 14648.7 8150.09 14677.7 8144.75 14715H8407.75ZM8916.94 15053C8871.61 15053 8830.94 15045 8794.94 15029C8758.94 15012.3 8730.27 14990 8708.94 14962C8688.27 14934 8676.94 14903 8674.94 14869H8815.94C8818.61 14890.3 8828.94 14908 8846.94 14922C8865.61 14936 8888.61 14943 8915.94 14943C8942.61 14943 8963.27 14937.7 8977.94 14927C8993.27 14916.3 9000.94 14902.7 9000.94 14886C9000.94 14868 8991.61 14854.7 8972.94 14846C8954.94 14836.7 8925.94 14826.7 8885.94 14816C8844.61 14806 8810.61 14795.7 8783.94 14785C8757.94 14774.3 8735.27 14758 8715.94 14736C8697.27 14714 8687.94 14684.3 8687.94 14647C8687.94 14616.3 8696.61 14588.3 8713.94 14563C8731.94 14537.7 8757.27 14517.7 8789.94 14503C8823.27 14488.3 8862.27 14481 8906.94 14481C8972.94 14481 9025.61 14497.7 9064.94 14531C9104.27 14563.7 9125.94 14608 9129.94 14664H8995.94C8993.94 14642 8984.61 14624.7 8967.94 14612C8951.94 14598.7 8930.27 14592 8902.94 14592C8877.61 14592 8857.94 14596.7 8843.94 14606C8830.61 14615.3 8823.94 14628.3 8823.94 14645C8823.94 14663.7 8833.27 14678 8851.94 14688C8870.61 14697.3 8899.61 14707 8938.94 14717C8978.94 14727 9011.94 14737.3 9037.94 14748C9063.94 14758.7 9086.27 14775.3 9104.94 14798C9124.27 14820 9134.27 14849.3 9134.94 14886C9134.94 14918 9125.94 14946.7 9107.94 14972C9090.61 14997.3 9065.27 15017.3 9031.94 15032C8999.27 15046 8960.94 15053 8916.94 15053ZM9511.86 15053C9466.53 15053 9425.86 15045 9389.86 15029C9353.86 15012.3 9325.2 14990 9303.86 14962C9283.2 14934 9271.86 14903 9269.86 14869H9410.86C9413.53 14890.3 9423.86 14908 9441.86 14922C9460.53 14936 9483.53 14943 9510.86 14943C9537.53 14943 9558.2 14937.7 9572.86 14927C9588.2 14916.3 9595.86 14902.7 9595.86 14886C9595.86 14868 9586.53 14854.7 9567.86 14846C9549.86 14836.7 9520.86 14826.7 9480.86 14816C9439.53 14806 9405.53 14795.7 9378.86 14785C9352.86 14774.3 9330.2 14758 9310.86 14736C9292.2 14714 9282.86 14684.3 9282.86 14647C9282.86 14616.3 9291.53 14588.3 9308.86 14563C9326.86 14537.7 9352.2 14517.7 9384.86 14503C9418.2 14488.3 9457.2 14481 9501.86 14481C9567.86 14481 9620.53 14497.7 9659.86 14531C9699.2 14563.7 9720.86 14608 9724.86 14664H9590.86C9588.86 14642 9579.53 14624.7 9562.86 14612C9546.86 14598.7 9525.2 14592 9497.86 14592C9472.53 14592 9452.86 14596.7 9438.86 14606C9425.53 14615.3 9418.86 14628.3 9418.86 14645C9418.86 14663.7 9428.2 14678 9446.86 14688C9465.53 14697.3 9494.53 14707 9533.86 14717C9573.86 14727 9606.86 14737.3 9632.86 14748C9658.86 14758.7 9681.2 14775.3 9699.86 14798C9719.2 14820 9729.2 14849.3 9729.86 14886C9729.86 14918 9720.86 14946.7 9702.86 14972C9685.53 14997.3 9660.2 15017.3 9626.86 15032C9594.2 15046 9555.86 15053 9511.86 15053ZM10140.8 15053C10087.5 15053 10039.5 15041.3 9996.79 15018C9954.12 14994 9920.45 14960.3 9895.79 14917C9871.79 14873.7 9859.79 14823.7 9859.79 14767C9859.79 14710.3 9872.12 14660.3 9896.79 14617C9922.12 14573.7 9956.45 14540.3 9999.79 14517C10043.1 14493 10091.5 14481 10144.8 14481C10198.1 14481 10246.5 14493 10289.8 14517C10333.1 14540.3 10367.1 14573.7 10391.8 14617C10417.1 14660.3 10429.8 14710.3 10429.8 14767C10429.8 14823.7 10416.8 14873.7 10390.8 14917C10365.5 14960.3 10330.8 14994 10286.8 15018C10243.5 15041.3 10194.8 15053 10140.8 15053ZM10140.8 14931C10166.1 14931 10189.8 14925 10211.8 14913C10234.5 14900.3 10252.5 14881.7 10265.8 14857C10279.1 14832.3 10285.8 14802.3 10285.8 14767C10285.8 14714.3 10271.8 14674 10243.8 14646C10216.5 14617.3 10182.8 14603 10142.8 14603C10102.8 14603 10069.1 14617.3 10041.8 14646C10015.1 14674 10001.8 14714.3 10001.8 14767C10001.8 14819.7 10014.8 14860.3 10040.8 14889C10067.5 14917 10100.8 14931 10140.8 14931ZM10889.5 14482C10955.5 14482 11008.8 14503 11049.5 14545C11090.1 14586.3 11110.5 14644.3 11110.5 14719V15044H10970.5V14738C10970.5 14694 10959.5 14660.3 10937.5 14637C10915.5 14613 10885.5 14601 10847.5 14601C10808.8 14601 10778.1 14613 10755.5 14637C10733.5 14660.3 10722.5 14694 10722.5 14738V15044H10582.5V14490H10722.5V14559C10741.1 14535 10764.8 14516.3 10793.5 14503C10822.8 14489 10854.8 14482 10889.5 14482ZM11505.6 15053C11460.3 15053 11419.6 15045 11383.6 15029C11347.6 15012.3 11318.9 14990 11297.6 14962C11276.9 14934 11265.6 14903 11263.6 14869H11404.6C11407.3 14890.3 11417.6 14908 11435.6 14922C11454.3 14936 11477.3 14943 11504.6 14943C11531.3 14943 11551.9 14937.7 11566.6 14927C11581.9 14916.3 11589.6 14902.7 11589.6 14886C11589.6 14868 11580.3 14854.7 11561.6 14846C11543.6 14836.7 11514.6 14826.7 11474.6 14816C11433.3 14806 11399.3 14795.7 11372.6 14785C11346.6 14774.3 11323.9 14758 11304.6 14736C11285.9 14714 11276.6 14684.3 11276.6 14647C11276.6 14616.3 11285.3 14588.3 11302.6 14563C11320.6 14537.7 11345.9 14517.7 11378.6 14503C11411.9 14488.3 11450.9 14481 11495.6 14481C11561.6 14481 11614.3 14497.7 11653.6 14531C11692.9 14563.7 11714.6 14608 11718.6 14664H11584.6C11582.6 14642 11573.3 14624.7 11556.6 14612C11540.6 14598.7 11518.9 14592 11491.6 14592C11466.3 14592 11446.6 14596.7 11432.6 14606C11419.3 14615.3 11412.6 14628.3 11412.6 14645C11412.6 14663.7 11421.9 14678 11440.6 14688C11459.3 14697.3 11488.3 14707 11527.6 14717C11567.6 14727 11600.6 14737.3 11626.6 14748C11652.6 14758.7 11674.9 14775.3 11693.6 14798C11712.9 14820 11722.9 14849.3 11723.6 14886C11723.6 14918 11714.6 14946.7 11696.6 14972C11679.3 14997.3 11653.9 15017.3 11620.6 15032C11587.9 15046 11549.6 15053 11505.6 15053ZM12332.8 15165H12191.8V14236H12332.8V15165ZM12790.7 14444V14315H13031.7V15044H12887.7V14444H12790.7ZM13598 14497C13591.3 14469 13579.7 14448 13563 14434C13547 14420 13523.7 14413 13493 14413C13447 14413 13413 14431.7 13391 14469C13369.7 14505.7 13358.7 14565.7 13358 14649C13374 14622.3 13397.3 14601.7 13428 14587C13458.7 14571.7 13492 14564 13528 14564C13571.3 14564 13609.7 14573.3 13643 14592C13676.3 14610.7 13702.3 14638 13721 14674C13739.7 14709.3 13749 14752 13749 14802C13749 14849.3 13739.3 14891.7 13720 14929C13701.3 14965.7 13673.7 14994.3 13637 15015C13600.3 15035.7 13556.7 15046 13506 15046C13436.7 15046 13382 15030.7 13342 15000C13302.7 14969.3 13275 14926.7 13259 14872C13243.7 14816.7 13236 14748.7 13236 14668C13236 14546 13257 14454 13299 14392C13341 14329.3 13407.3 14298 13498 14298C13568 14298 13622.3 14317 13661 14355C13699.7 14393 13722 14440.3 13728 14497H13598ZM13496 14679C13460.7 14679 13431 14689.3 13407 14710C13383 14730.7 13371 14760.7 13371 14800C13371 14839.3 13382 14870.3 13404 14893C13426.7 14915.7 13458.3 14927 13499 14927C13535 14927 13563.3 14916 13584 14894C13605.3 14872 13616 14842.3 13616 14805C13616 14766.3 13605.7 14735.7 13585 14713C13565 14690.3 13535.3 14679 13496 14679ZM14525.9 14482C14567.9 14482 14605.3 14491.3 14637.9 14510C14670.6 14528 14695.9 14555 14713.9 14591C14732.6 14626.3 14741.9 14669 14741.9 14719V15044H14601.9V14738C14601.9 14694 14590.9 14660.3 14568.9 14637C14546.9 14613 14516.9 14601 14478.9 14601C14440.3 14601 14409.6 14613 14386.9 14637C14364.9 14660.3 14353.9 14694 14353.9 14738V15044H14213.9V14304H14353.9V14559C14371.9 14535 14395.9 14516.3 14425.9 14503C14455.9 14489 14489.3 14482 14525.9 14482ZM15171.1 15053C15117.7 15053 15069.7 15041.3 15027.1 15018C14984.4 14994 14950.7 14960.3 14926.1 14917C14902.1 14873.7 14890.1 14823.7 14890.1 14767C14890.1 14710.3 14902.4 14660.3 14927.1 14617C14952.4 14573.7 14986.7 14540.3 15030.1 14517C15073.4 14493 15121.7 14481 15175.1 14481C15228.4 14481 15276.7 14493 15320.1 14517C15363.4 14540.3 15397.4 14573.7 15422.1 14617C15447.4 14660.3 15460.1 14710.3 15460.1 14767C15460.1 14823.7 15447.1 14873.7 15421.1 14917C15395.7 14960.3 15361.1 14994 15317.1 15018C15273.7 15041.3 15225.1 15053 15171.1 15053ZM15171.1 14931C15196.4 14931 15220.1 14925 15242.1 14913C15264.7 14900.3 15282.7 14881.7 15296.1 14857C15309.4 14832.3 15316.1 14802.3 15316.1 14767C15316.1 14714.3 15302.1 14674 15274.1 14646C15246.7 14617.3 15213.1 14603 15173.1 14603C15133.1 14603 15099.4 14617.3 15072.1 14646C15045.4 14674 15032.1 14714.3 15032.1 14767C15032.1 14819.7 15045.1 14860.3 15071.1 14889C15097.7 14917 15131.1 14931 15171.1 14931ZM16135.8 14490V15044H15994.8V14974C15976.8 14998 15953.1 15017 15923.8 15031C15895.1 15044.3 15863.8 15051 15829.8 15051C15786.4 15051 15748.1 15042 15714.8 15024C15681.4 15005.3 15655.1 14978.3 15635.8 14943C15617.1 14907 15607.8 14864.3 15607.8 14815V14490H15747.8V14795C15747.8 14839 15758.8 14873 15780.8 14897C15802.8 14920.3 15832.8 14932 15870.8 14932C15909.4 14932 15939.8 14920.3 15961.8 14897C15983.8 14873 15994.8 14839 15994.8 14795V14490H16135.8ZM16463.9 14576C16481.9 14546.7 16505.2 14523.7 16533.9 14507C16563.2 14490.3 16596.6 14482 16633.9 14482V14629H16596.9C16552.9 14629 16519.6 14639.3 16496.9 14660C16474.9 14680.7 16463.9 14716.7 16463.9 14768V15044H16323.9V14490H16463.9V14576ZM16990.2 15053C16944.9 15053 16904.2 15045 16868.2 15029C16832.2 15012.3 16803.5 14990 16782.2 14962C16761.5 14934 16750.2 14903 16748.2 14869H16889.2C16891.9 14890.3 16902.2 14908 16920.2 14922C16938.9 14936 16961.9 14943 16989.2 14943C17015.9 14943 17036.5 14937.7 17051.2 14927C17066.5 14916.3 17074.2 14902.7 17074.2 14886C17074.2 14868 17064.9 14854.7 17046.2 14846C17028.2 14836.7 16999.2 14826.7 16959.2 14816C16917.9 14806 16883.9 14795.7 16857.2 14785C16831.2 14774.3 16808.5 14758 16789.2 14736C16770.5 14714 16761.2 14684.3 16761.2 14647C16761.2 14616.3 16769.9 14588.3 16787.2 14563C16805.2 14537.7 16830.5 14517.7 16863.2 14503C16896.5 14488.3 16935.5 14481 16980.2 14481C17046.2 14481 17098.9 14497.7 17138.2 14531C17177.5 14563.7 17199.2 14608 17203.2 14664H17069.2C17067.2 14642 17057.9 14624.7 17041.2 14612C17025.2 14598.7 17003.5 14592 16976.2 14592C16950.9 14592 16931.2 14596.7 16917.2 14606C16903.9 14615.3 16897.2 14628.3 16897.2 14645C16897.2 14663.7 16906.5 14678 16925.2 14688C16943.9 14697.3 16972.9 14707 17012.2 14717C17052.2 14727 17085.2 14737.3 17111.2 14748C17137.2 14758.7 17159.5 14775.3 17178.2 14798C17197.5 14820 17207.5 14849.3 17208.2 14886C17208.2 14918 17199.2 14946.7 17181.2 14972C17163.9 14997.3 17138.5 15017.3 17105.2 15032C17072.5 15046 17034.2 15053 16990.2 15053Z" fill="#DDDDDD"/>
<path d="M10068.6 8968.4H9734.98L9679.78 9128H9503.38L9804.58 8289.2H10000.2L10301.4 9128H10123.8L10068.6 8968.4ZM10023 8834L9901.78 8483.6L9780.58 8834H10023ZM10642 8290.4V9128H10474V8290.4H10642ZM11317.9 7991.6L10993.9 9345.2H10829.5L11153.5 7991.6H11317.9ZM12424.7 8290.4V9128H12256.7V8583.2L12032.3 9128H11905.1L11679.5 8583.2V9128H11511.5V8290.4H11702.3L11968.7 8913.2L12235.1 8290.4H12424.7ZM12818.8 8994.8H13094.8V9128H12650.8V8290.4H12818.8V8994.8Z" fill="white"/>
<g clip-path="url(#clip0_411_139)">
<path d="M13111.9 3870.8C13112 4153.29 13062.6 4433.01 12966.7 4694.01C12870.7 4955.01 12730.1 5192.16 12552.8 5391.92C12375.5 5591.68 12165 5750.14 11933.4 5858.25C11701.7 5966.37 11453.5 6022.01 11202.7 6022.01C8669.88 5908.65 8670.6 1832.95 11202.7 1719.85C11709.1 1719.85 12194.7 1946.47 12552.7 2349.85C12910.8 2753.23 13111.9 3300.33 13111.9 3870.8Z" stroke="#A5A7AA" stroke-miterlimit="10"/>
<path d="M11252.1 1484.55H11175.7L11165.4 1035.41L11162.7 912.058L11239.1 909.898L11241.8 1033.25L11252.1 1484.55Z" fill="#002A47"/>
<path d="M11303.6 972.232C11292.8 995.122 11276.3 1013.9 11256 1026.18C11235.8 1038.46 11212.7 1043.69 11189.8 1041.22C11167 1038.75 11145.2 1028.68 11127.4 1012.28C11109.6 995.893 11096.5 973.917 11089.8 949.138C11083.1 924.359 11083.1 897.893 11089.7 873.089C11096.3 848.286 11109.4 826.261 11127.1 809.804C11144.9 793.346 11166.6 783.197 11189.5 780.639C11212.4 778.082 11235.4 783.232 11255.7 795.438C11282.8 811.763 11303.1 839.539 11312.1 872.679C11321.1 905.819 11318 941.619 11303.6 972.232Z" fill="#002A47"/>
<path d="M11214.2 6168.79L11290.6 6170.41L11292.6 6619.82L11293 6742.9L11216.6 6743.44L11216.1 6620.09L11214.2 6168.79Z" fill="#002A47"/>
<path d="M11153.6 6679.78C11164.8 6657.19 11181.6 6638.85 11202 6627.06C11222.4 6615.27 11245.5 6610.56 11268.3 6613.54C11291.1 6616.52 11312.6 6627.05 11330 6643.79C11347.5 6660.53 11360.2 6682.74 11366.5 6707.6C11372.7 6732.46 11372.3 6758.86 11365.3 6783.45C11358.2 6808.04 11344.9 6829.73 11326.9 6845.77C11308.9 6861.8 11287.1 6871.46 11264.2 6873.53C11241.3 6875.6 11218.4 6869.98 11198.4 6857.38C11185.1 6849.05 11173.4 6837.85 11163.9 6824.4C11154.5 6810.96 11147.5 6795.55 11143.3 6779.05C11139.1 6762.55 11137.9 6745.29 11139.7 6728.26C11141.4 6711.22 11146.2 6694.75 11153.6 6679.78Z" fill="#002A47"/>
<path d="M13289.2 3910.24L13290.7 3824.14L13689.6 3821.71L13798.8 3821.17L13799.3 3907.27L13689.8 3907.81L13289.2 3910.24Z" fill="#002A47"/>
<path d="M13742.7 3978.51C13722.7 3965.97 13706.4 3947.01 13695.9 3924.03C13685.4 3901.04 13681.2 3875.08 13683.8 3849.4C13686.5 3823.73 13695.8 3799.51 13710.6 3779.8C13725.4 3760.1 13745.1 3745.79 13767.2 3738.69C13789.2 3731.59 13812.7 3732.02 13834.5 3739.92C13856.3 3747.83 13875.6 3762.85 13889.9 3783.09C13904.1 3803.33 13912.7 3827.88 13914.6 3853.63C13916.5 3879.38 13911.5 3905.19 13900.4 3927.77C13885.5 3958.05 13860.5 3980.4 13830.9 3989.91C13801.3 3999.43 13769.6 3995.33 13742.7 3978.51Z" fill="#002A47"/>
<path d="M9138.02 3908.35L9136.35 3822.24L8737.69 3819.81L8628.2 3819.27L8627.72 3905.38L8737.45 3905.92L9138.02 3908.35Z" fill="#002A47"/>
<path d="M8684.51 3976.72C8704.61 3964.15 8720.95 3945.15 8731.46 3922.11C8741.98 3899.08 8746.19 3873.05 8743.56 3847.31C8740.94 3821.58 8731.6 3797.31 8716.73 3777.56C8701.85 3757.81 8682.11 3743.47 8660 3736.37C8637.89 3729.26 8614.41 3729.7 8592.53 3737.64C8570.64 3745.57 8551.34 3760.64 8537.06 3780.94C8522.78 3801.24 8514.17 3825.86 8512.31 3851.67C8510.45 3877.49 8515.43 3903.35 8526.62 3925.97C8534.02 3941 8543.97 3954.23 8555.92 3964.92C8567.86 3975.61 8581.56 3983.53 8596.22 3988.25C8610.89 3992.96 8626.23 3994.37 8641.38 3992.39C8656.53 3990.41 8671.19 3985.08 8684.51 3976.72Z" fill="#002A47"/>
<path d="M9688.34 2221.43L9741.29 2159.35L9460.74 1839.77L9383.59 1752.32L9329.45 1813.05L9406.59 1900.5L9688.34 2221.43Z" fill="#002A47"/>
<path d="M9324.66 1908.27C9346.7 1915.31 9370.09 1914.83 9391.9 1906.91C9413.7 1898.98 9432.93 1883.95 9447.15 1863.72C9461.38 1843.5 9469.97 1818.97 9471.85 1793.25C9473.72 1767.53 9468.78 1741.76 9457.66 1719.19C9446.55 1696.62 9429.75 1678.27 9409.38 1666.45C9389.01 1654.63 9366 1649.87 9343.23 1652.77C9320.47 1655.68 9298.98 1666.11 9281.48 1682.76C9263.97 1699.41 9251.23 1721.53 9244.88 1746.32C9240.6 1762.86 9239.28 1780.18 9240.98 1797.3C9242.69 1814.41 9247.38 1830.98 9254.8 1846.03C9262.22 1861.09 9272.21 1874.34 9284.2 1885.03C9296.19 1895.71 9309.94 1903.61 9324.66 1908.27Z" fill="#002A47"/>
<path d="M12715.2 5457.95L12662.2 5520.03L12942.8 5839.33L13019.7 5926.79L13074.1 5866.32L12996.9 5778.6L12715.2 5457.95Z" fill="#002A47"/>
<path d="M13078.9 5770.78C13056.8 5763.62 13033.3 5764 13011.4 5771.87C12989.5 5779.74 12970.2 5794.75 12955.9 5815C12941.5 5835.25 12932.9 5859.84 12930.9 5885.64C12929 5911.44 12933.9 5937.31 12945.1 5959.96C12956.2 5982.62 12973 6001.05 12993.5 6012.92C13013.9 6024.8 13037 6029.58 13059.8 6026.66C13082.6 6023.75 13104.2 6013.27 13121.8 5996.55C13139.3 5979.83 13152.1 5957.62 13158.4 5932.73C13166.9 5899.37 13163.3 5863.57 13148.4 5833.2C13133.5 5802.84 13108.5 5780.38 13078.9 5770.78ZM9136.35 3824.43H9113.83C9114.52 3197.15 9336.01 2595.79 9729.72 2152.24C10123.4 1708.69 10657.2 1459.15 11214 1458.37V1483.74C10663.2 1484.45 10135.1 1731.29 9745.57 2170.1C9356.08 2608.91 9136.98 3203.86 9136.35 3824.43ZM11214 6190.5V6165.13C11764.8 6164.41 12292.9 5917.58 12682.4 5478.77C13071.9 5039.95 13291 4445 13291.6 3824.43H13314.1C13313.6 4451.76 13092.1 5053.2 12698.4 5496.78C12304.7 5940.37 11770.8 6189.86 11214 6190.5Z" fill="#002A47"/>
<path d="M12652.4 4157.92L12658.2 3892.87H12139C12122.4 4161.35 12016.1 4412.75 11841.4 4596.33C11666.7 4779.91 11436.7 4882 11197.8 4882C10958.9 4882 10728.9 4779.91 10554.3 4596.33C10379.6 4412.75 10273.2 4161.35 10256.6 3892.87H9751.6L9747.29 4100.16L9995.73 4106.91C10010.8 4186.5 10032 4264.45 10059.2 4339.84L9833.29 4478.04L10034.3 4892.9L10282 4740.4C10326.1 4796.34 10374.2 4848.15 10425.8 4895.33L10276 5171.99L10635.4 5417.88L10793.5 5125.83C10853.3 5149.25 10914.5 5167.3 10976.8 5179.82L10969.6 5523.42L11388.6 5534.75L11396.1 5183.87C11457.8 5172.35 11518.6 5155.76 11578.2 5134.2L11724.8 5436.78L12093 5210.32L11949.3 4913.41C12000.5 4868.81 12048.5 4819.81 12093 4766.85L12341 4936.89L12559 4533.37L12324 4371.42C12352 4299.8 12374.4 4225.56 12391 4149.56L12652.4 4157.92Z" fill="#383838"/>
<path d="M11838.3 3892.87C11822.1 4071.55 11747.6 4237.09 11629.2 4357.45C11510.9 4477.82 11357.1 4544.44 11197.7 4544.44C11038.3 4544.44 10884.5 4477.82 10766.2 4357.45C10647.8 4237.09 10573.3 4071.55 10557.1 3892.87H10421.5C10437.9 4112.12 10526.8 4316.43 10670.5 4465.33C10814.3 4614.24 11002.5 4696.87 11197.8 4696.87C11393.1 4696.87 11581.3 4614.24 11725.1 4465.33C11868.9 4316.43 11957.8 4112.12 11974.2 3892.87H11838.3Z" fill="#383838"/>
<path d="M11093.7 3169.52C11073.4 3142.32 11048.1 3120.46 11019.5 3105.49C10990.9 3090.52 10959.7 3082.8 10928.2 3082.88C10821.8 3082.88 10736.5 3163.86 10736.5 3260.76H10703.4C10703.4 3155.49 10784.2 3068.04 10889.6 3050.49C10881.2 2974.92 10850.1 2921.74 10800.5 2900.42C10771.3 2889.38 10740.1 2887.65 10710.1 2895.41C10680.2 2903.18 10652.7 2920.14 10630.8 2944.42C10613.8 2962.73 10602.1 2986.48 10597.4 3012.47C10592.6 3038.47 10595 3065.48 10604.2 3089.9L10624.4 3147.93L10580 3110.68C10508.2 3049.14 10429.4 3036.46 10361.3 3074.78C10327.2 3095.33 10298.9 3126.05 10279.2 3163.56C10259.6 3201.08 10249.6 3243.95 10250.1 3287.48C10250.2 3328.7 10263.4 3368.52 10287.4 3399.66C10311.4 3430.79 10344.5 3451.14 10380.7 3456.98C10407.3 3463.04 10434.9 3457.6 10458 3441.74C10481.1 3425.88 10498.1 3400.77 10505.5 3371.42L10535.7 3382.49C10527.4 3415.25 10509.6 3443.98 10485.3 3464.23C10460.9 3484.48 10431.3 3495.12 10401.1 3494.5C10392.3 3494.46 10383.4 3493.65 10374.7 3492.07C10331.2 3484.65 10291.5 3459.9 10262.8 3422.31C10234.1 3384.72 10218.3 3336.79 10218.3 3287.21C10217.7 3237.03 10229.4 3187.65 10252.2 3144.5C10274.9 3101.35 10307.8 3066.11 10347.2 3042.66C10381.4 3024.14 10419.3 3015.67 10457.2 3018.03C10495.2 3020.39 10532 3033.5 10564.2 3056.16C10561.7 3030.98 10564.4 3005.49 10572 2981.67C10579.7 2957.84 10592.1 2936.32 10608.3 2918.77C10628.7 2896.14 10653.3 2878.73 10680.2 2867.76C10627.7 2777.61 10628.7 2682.33 10685 2609.18C10741.3 2536.04 10828.7 2514.17 10888.9 2551.69L10873.3 2583C10825.4 2553.31 10753.5 2575.17 10709.2 2632.67C10685.2 2663.17 10640.4 2744.95 10712.3 2858.04C10745.5 2850.57 10779.9 2853.56 10811.7 2866.68C10848.1 2882.34 10907.6 2927.14 10921 3047.25H10928.2C10964.3 3047.12 11000.1 3055.95 11032.8 3073.11C11065.6 3090.28 11094.7 3115.36 11117.9 3146.58C11146.4 3185.44 11167.7 3230.31 11180.7 3278.57V2881.26C11180.7 2652.91 11115.3 2615.66 11114.8 2615.39L11095.9 2605.4L11109 2587.32C11131 2560.31 11145.2 2526.43 11149.8 2490.14C11154.3 2453.85 11149 2416.87 11134.4 2384.07C11110.7 2331.8 11074.9 2287.7 11030.8 2256.44C10986.7 2225.18 10935.9 2207.92 10883.8 2206.47C10793.3 2206.47 10720 2266.66 10677.3 2376.25L10664.6 2408.91L10648.8 2377.87C10622.5 2325.23 10585.6 2296.89 10545.1 2296.89C10484.7 2296.89 10430.3 2360.32 10424.1 2438.33L10421.9 2466.67L10400.1 2452.36C10379.7 2438.91 10356.5 2431.91 10332.8 2432.12C10307.6 2432.18 10282.8 2438.62 10260.1 2450.96C10237.5 2463.3 10217.6 2481.24 10201.9 2503.43C10186.2 2525.62 10175.2 2551.5 10169.6 2579.16C10164 2606.81 10164 2635.52 10169.6 2663.17L10173 2685.03H10146.4C10116.3 2685.92 10086.7 2694.13 10059.7 2709.08C10032.6 2724.03 10008.8 2745.38 9989.73 2771.67C9966.94 2801.4 9950.13 2836.34 9940.45 2874.07C9930.78 2911.81 9928.46 2951.46 9933.66 2990.3L9936.78 3013.24H9935.34C9948.28 3121.21 10063.8 3154.41 10065 3154.68L10140.4 3175.19L10063.8 3189.77C9956.18 3209.47 9949.48 3325.26 9949.48 3374.12L9933.66 3377.09H9917.85C9916.17 3336.06 9920.01 3215.14 10012 3168.98C9983.07 3155.29 9957.82 3133.32 9938.74 3105.24C9919.66 3077.17 9907.42 3043.97 9903.24 3008.93C9880.57 3008.04 9858.09 3013.82 9838.01 3025.7C9817.93 3037.58 9800.94 3055.15 9788.72 3076.67C9759.49 3130.66 9760.45 3201.1 9791.59 3273.71L9796.62 3285.32L9788.48 3294.49C9762.5 3321.16 9744.31 3356.07 9736.31 3394.62C9728.31 3433.17 9730.88 3473.55 9743.68 3510.43C9755.35 3544.76 9776.07 3574.26 9803.05 3594.95C9830.03 3615.65 9861.98 3626.56 9894.61 3626.22C9931.79 3625.28 9968.17 3613.97 10000.5 3593.29L10029.5 3575.47L10024.5 3614.34C10025.4 3619.64 10027.9 3624.41 10031.7 3627.84C10046.7 3645.65 10094.7 3675.61 10244.6 3675.61C10401.8 3675.61 10621.5 3680.74 10636.6 3681.01C10673.2 3677.77 10774.8 3657.53 10774.8 3608.13V3550.91L10803.8 3597.88C10827.8 3637.56 10897.5 3667.52 10964.8 3667.52C11018.6 3669.3 11071 3648.08 11111.4 3608.13C11144.1 3571.61 11165.7 3524.36 11173 3473.18C11172.5 3341.73 11145 3236.46 11093.7 3169.52ZM10165.1 2993.54L10133.5 2990.03C10137.6 2957.92 10149.2 2927.6 10167 2902.12C10184.9 2876.63 10208.3 2856.87 10235.1 2844.82C10266.6 2827.68 10301.6 2820.14 10336.5 2822.93C10371.4 2825.73 10405.1 2838.76 10434.1 2860.74L10415.9 2890.16C10391.4 2871.75 10363 2860.87 10333.6 2858.59C10304.2 2856.32 10274.8 2862.74 10248.2 2877.21C10226.6 2886.73 10207.5 2902.49 10192.9 2922.9C10178.3 2943.3 10168.7 2967.66 10165.1 2993.54ZM11232.2 3471.56C11239.3 3522.76 11260.8 3570.05 11293.5 3606.52C11334 3646.46 11386.4 3667.68 11440.1 3665.9C11507.5 3665.9 11576.5 3635.94 11600.9 3596.26L11629.9 3549.29V3606.52C11629.9 3655.91 11731.5 3676.15 11768.4 3679.39C11783.2 3679.39 12002.9 3673.99 12160.1 3673.99C12310.1 3673.99 12358 3644.03 12373.3 3626.22C12376.8 3622.57 12379.3 3617.89 12380.5 3612.72L12374.5 3576.01L12403.7 3593.83C12436 3614.57 12472.4 3625.89 12509.6 3626.76C12542.2 3627.02 12574.2 3616.08 12601.1 3595.4C12628.1 3574.71 12648.8 3545.26 12660.6 3510.97C12673.3 3474.09 12675.9 3433.72 12667.9 3395.17C12659.9 3356.63 12641.7 3321.72 12615.8 3295.03L12607.4 3285.86L12612.4 3274.25C12643.5 3201.64 12644.5 3129.85 12615.3 3077.21C12603.1 3055.69 12586.1 3038.12 12566 3026.24C12545.9 3014.36 12523.4 3008.58 12500.8 3009.47C12496.7 3044.28 12484.6 3077.3 12465.7 3105.27C12446.9 3133.24 12421.9 3155.19 12393.2 3168.98C12485.2 3216.22 12489 3336.06 12487.6 3377.09H12471.5L12455.7 3374.12C12457.6 3325.26 12450.2 3209.47 12341.7 3188.69L12265.3 3174.11L12340.7 3153.6C12340.7 3153.6 12457.2 3120.67 12470.3 3012.16H12468.7L12471.8 2989.22C12477 2950.38 12474.7 2910.73 12465 2872.99C12455.3 2835.26 12438.5 2800.32 12415.7 2770.59C12396.7 2744.29 12372.8 2722.93 12345.8 2707.98C12318.7 2693.02 12289.1 2684.83 12259 2683.95H12232.4L12235.8 2662.09C12241.4 2634.44 12241.4 2605.73 12235.8 2578.08C12230.2 2550.42 12219.2 2524.54 12203.5 2502.35C12187.9 2480.16 12168 2462.22 12145.3 2449.88C12122.6 2437.54 12097.8 2431.1 12072.6 2431.04C12048.9 2430.66 12025.6 2437.47 12005.1 2450.74L11983.5 2465.05L11981.1 2436.71C11974.9 2358.7 11920.7 2295.27 11861.3 2295.27C11820.6 2295.27 11783.7 2324.15 11757.3 2376.25L11741.5 2407.29L11728.8 2374.63C11686.2 2265.04 11612.9 2204.85 11522.3 2204.85C11470.4 2206.49 11419.8 2223.84 11375.9 2255.09C11332 2286.34 11296.3 2330.33 11272.7 2382.46C11257.3 2415.4 11251.4 2452.88 11255.6 2489.79C11259.8 2526.69 11274.1 2561.22 11296.4 2588.67L11309.3 2606.75L11291.1 2615.66C11291.1 2615.66 11225 2653.18 11225 2881.53V3278.3C11237.9 3230.04 11259.3 3185.17 11287.8 3146.31C11311 3115.26 11340 3090.32 11372.7 3073.25C11405.4 3056.19 11441 3047.4 11477 3047.52H11484.2C11497.2 2927.41 11556.1 2882.61 11593.5 2866.95C11625.3 2853.83 11659.7 2850.84 11692.9 2858.31C11764.8 2745.22 11719.5 2663.44 11696.3 2632.94C11651.7 2575.44 11579.6 2553.58 11531.9 2583.27L11516.6 2551.96C11576.9 2514.44 11666.3 2539.81 11720.2 2609.45C11774.1 2679.09 11777.5 2777.88 11725 2868.03C11752 2878.87 11776.5 2896.29 11796.9 2919.04C11813.3 2936.46 11825.9 2957.93 11833.8 2981.76C11841.7 3005.59 11844.5 3031.15 11842.2 3056.43C11874.4 3033.77 11911.2 3020.66 11949.1 3018.3C11987.1 3015.94 12025 3024.41 12059.2 3042.93C12098.6 3066.38 12131.5 3101.62 12154.2 3144.77C12177 3187.92 12188.7 3237.3 12188.1 3287.48C12188.1 3337.08 12172.4 3385.04 12143.6 3422.64C12114.9 3460.23 12075.2 3484.97 12031.7 3492.34C12023 3493.94 12014.1 3494.76 12005.3 3494.77C11975.1 3495.34 11945.5 3484.69 11921.2 3464.44C11896.8 3444.2 11879.1 3415.49 11870.7 3382.76L11901.1 3371.69C11908.5 3401.25 11925.7 3426.51 11949 3442.35C11972.4 3458.19 12000.2 3463.42 12026.9 3456.98C12062.9 3450.85 12095.7 3430.37 12119.5 3399.26C12143.2 3368.16 12156.3 3328.5 12156.2 3287.48C12156.7 3243.76 12146.5 3200.74 12126.7 3163.16C12106.9 3125.58 12078.2 3094.9 12043.9 3074.51C11976.1 3036.19 11898.5 3047.52 11825.1 3110.41L11781.1 3147.66L11800.9 3089.63C11810.3 3065.23 11812.7 3038.19 11807.9 3012.18C11803.2 2986.17 11791.5 2962.42 11774.4 2944.15C11752.5 2919.85 11725 2902.87 11695.1 2895.1C11665.1 2887.33 11633.8 2889.08 11604.7 2900.15C11555.1 2921.47 11524 2974.65 11515.6 3050.22C11621.3 3067.77 11701.8 3155.22 11701.8 3260.49H11669.9C11669.9 3162.51 11583.4 3082.61 11478.2 3082.61C11446.7 3082.53 11415.5 3090.25 11386.9 3105.22C11358.3 3120.19 11333 3142.05 11312.7 3169.25C11260.2 3236.46 11232.9 3341.73 11232.2 3471.56ZM12157 2877.75C12130.4 2863.3 12101 2856.9 12071.6 2859.17C12042.2 2861.45 12013.8 2872.31 11989.3 2890.7L11971 2861.28C12000.2 2839.3 12033.9 2826.27 12068.8 2823.48C12103.8 2820.68 12138.8 2828.23 12170.4 2845.36C12197.1 2857.43 12220.5 2877.2 12238.3 2902.68C12256.1 2928.17 12267.6 2958.48 12271.7 2990.57L12240.1 2994.08C12236.6 2968.08 12227 2943.59 12212.5 2923.07C12197.9 2902.55 12178.7 2886.73 12157 2877.21V2877.75Z" fill="#F46300"/>
</g>
<defs>
<filter id="filter0_d_411_139" x="7561" y="19268" width="6383" height="2329" filterUnits="userSpaceOnUse" color-interpolation-filters="sRGB">
<feFlood flood-opacity="0" result="BackgroundImageFix"/>
<feColorMatrix in="SourceAlpha" type="matrix" values="0 0 0 0 0 0 0 0 0 0 0 0 0 0 0 0 0 0 127 0" result="hardAlpha"/>
<feOffset dy="4"/>
<feGaussianBlur stdDeviation="2"/>
<feComposite in2="hardAlpha" operator="out"/>
<feColorMatrix type="matrix" values="0 0 0 0 0 0 0 0 0 0 0 0 0 0 0 0 0 0 0.25 0"/>
<feBlend mode="normal" in2="BackgroundImageFix" result="effect1_dropShadow_411_139"/>
<feBlend mode="normal" in="SourceGraphic" in2="effect1_dropShadow_411_139" result="shape"/>
</filter>
<linearGradient id="paint0_linear_411_139" x1="1733.41" y1="-2667.06" x2="1942.16" y2="25150.5" gradientUnits="userSpaceOnUse">
<stop offset="0.431077" stop-color="#001833"/>
<stop offset="1" stop-color="#203956" stop-opacity="0.46"/>
</linearGradient>
<clipPath id="clip0_411_139">
<rect width="5403" height="6094" fill="white" transform="translate(8512 780)"/>
</clipPath>
</defs>
</svg>
