<svg width="22592" height="24881" viewBox="0 0 22592 24881" fill="none" xmlns="http://www.w3.org/2000/svg">
<path d="M0 899.999C0 402.943 402.944 0 900 0H21692C22189.1 0 22592 402.944 22592 900V23981C22592 24478.1 22189.1 24881 21692 24881H900C402.944 24881 0 24478.1 0 23981V899.999Z" fill="url(#paint0_linear_411_139)" fill-opacity="0.991525"/>
<ellipse cx="20577.4" cy="9630.95" rx="28.3956" ry="22.9524" fill="#D9D9D9"/>
<ellipse cx="20634.4" cy="4694.95" rx="28.3956" ry="22.9524" fill="#D9D9D9"/>
<ellipse cx="19068.4" cy="1224.95" rx="28.3956" ry="22.9524" fill="#D9D9D9"/>
<ellipse cx="17393.4" cy="6411.95" rx="28.3956" ry="22.9524" fill="#D9D9D9"/>
<ellipse cx="1818.4" cy="2518.95" rx="28.3956" ry="22.9524" fill="#D9D9D9"/>
<ellipse cx="1875.4" cy="8684.95" rx="28.3956" ry="22.9524" fill="#D9D9D9"/>
<ellipse cx="7348.31" cy="10290.5" rx="22.3108" ry="23.474" fill="white"/>
<ellipse cx="4418.31" cy="5326.47" rx="22.3108" ry="23.474" fill="white"/>
<ellipse cx="15055.3" cy="1178.47" rx="22.3108" ry="23.474" fill="white"/>
<ellipse cx="6039.31" cy="1130" rx="22.3108" ry="24.9957" fill="white"/>
<rect y="11107" width="22592" height="349" rx="100" fill="#D9D350"/>
<path d="M9924.53 20639L9816.73 20448.6H9770.53V20639H9672.53V20150.4H9855.93C9893.73 20150.4 9925.93 20157.2 9952.53 20170.7C9979.13 20183.8 9998.96 20201.7 10012 20224.6C10025.6 20247 10032.3 20272.2 10032.3 20300.2C10032.3 20332.4 10023 20361.6 10004.3 20387.7C9985.66 20413.4 9957.9 20431.1 9921.03 20440.9L10037.9 20639H9924.53ZM9770.53 20375.1H9852.43C9879.03 20375.1 9898.86 20368.8 9911.93 20356.2C9925 20343.1 9931.53 20325.2 9931.53 20302.3C9931.53 20279.9 9925 20262.6 9911.93 20250.5C9898.86 20237.9 9879.03 20231.6 9852.43 20231.6H9770.53V20375.1ZM10269.4 20645.3C10237.6 20645.3 10209.2 20639.7 10184 20628.5C10158.8 20616.8 10138.7 20601.2 10123.8 20581.6C10109.3 20562 10101.4 20540.3 10100 20516.5H10198.7C10200.5 20531.4 10207.8 20543.8 10220.4 20553.6C10233.4 20563.4 10249.5 20568.3 10268.7 20568.3C10287.3 20568.3 10301.8 20564.6 10312.1 20557.1C10322.8 20549.6 10328.2 20540.1 10328.2 20528.4C10328.2 20515.8 10321.6 20506.5 10308.6 20500.4C10296 20493.9 10275.7 20486.9 10247.7 20479.4C10218.7 20472.4 10194.9 20465.2 10176.3 20457.7C10158.1 20450.2 10142.2 20438.8 10128.7 20423.4C10115.6 20408 10109.1 20387.2 10109.1 20361.1C10109.1 20339.6 10115.1 20320 10127.3 20302.3C10139.9 20284.6 10157.6 20270.6 10180.5 20260.3C10203.8 20250 10231.1 20244.9 10262.4 20244.9C10308.6 20244.9 10345.4 20256.6 10373 20279.9C10400.5 20302.8 10415.7 20333.8 10418.5 20373H10324.7C10323.3 20357.6 10316.7 20345.5 10305.1 20336.6C10293.9 20327.3 10278.7 20322.6 10259.6 20322.6C10241.8 20322.6 10228.1 20325.9 10218.3 20332.4C10208.9 20338.9 10204.3 20348 10204.3 20359.7C10204.3 20372.8 10210.8 20382.8 10223.9 20389.8C10236.9 20396.3 10257.2 20403.1 10284.8 20410.1C10312.8 20417.1 10335.9 20424.3 10354.1 20431.8C10372.3 20439.3 10387.9 20450.9 10401 20466.8C10414.5 20482.2 10421.5 20502.7 10422 20528.4C10422 20550.8 10415.7 20570.9 10403.1 20588.6C10390.9 20606.3 10373.2 20620.3 10349.9 20630.6C10327 20640.4 10300.2 20645.3 10269.4 20645.3ZM10982.8 20202.9L10796.6 20639H10697.2L10884.8 20214.1H10645.4V20130.1H10982.8V20202.9ZM11154.9 20495.5C11158.6 20516 11167 20531.9 11180.1 20543.1C11193.6 20553.8 11211.6 20559.2 11234 20559.2C11262.9 20559.2 11283.9 20547.3 11297 20523.5C11310.1 20499.2 11316.6 20458.6 11316.6 20401.7C11305.9 20416.6 11290.7 20428.3 11271.1 20436.7C11252 20445.1 11231.2 20449.3 11208.8 20449.3C11178.9 20449.3 11151.9 20443.2 11127.6 20431.1C11103.8 20418.5 11084.9 20400.1 11070.9 20375.8C11056.9 20351.1 11049.9 20321.2 11049.9 20286.2C11049.9 20234.4 11065.3 20193.3 11096.1 20163C11126.9 20132.2 11168.9 20116.8 11222.1 20116.8C11288.4 20116.8 11335 20138 11362.1 20180.5C11389.6 20223 11403.4 20286.9 11403.4 20372.3C11403.4 20433 11398 20482.7 11387.3 20521.4C11377 20560.1 11359.1 20589.5 11333.4 20609.6C11308.2 20629.7 11273.7 20639.7 11229.8 20639.7C11195.3 20639.7 11165.9 20633.2 11141.6 20620.1C11117.3 20606.6 11098.7 20589.1 11085.6 20567.6C11073 20545.7 11065.8 20521.6 11063.9 20495.5H11154.9ZM11229.1 20369.5C11253.4 20369.5 11272.5 20362 11286.5 20347.1C11300.5 20332.2 11307.5 20312.1 11307.5 20286.9C11307.5 20259.4 11300 20238.1 11285.1 20223.2C11270.6 20207.8 11250.8 20200.1 11225.6 20200.1C11200.4 20200.1 11180.3 20208 11165.4 20223.9C11150.9 20239.3 11143.7 20259.8 11143.7 20285.5C11143.7 20310.2 11150.7 20330.5 11164.7 20346.4C11179.2 20361.8 11200.6 20369.5 11229.1 20369.5ZM11593.1 20495.5C11596.8 20516 11605.2 20531.9 11618.3 20543.1C11631.8 20553.8 11649.8 20559.2 11672.2 20559.2C11701.1 20559.2 11722.1 20547.3 11735.2 20523.5C11748.3 20499.2 11754.8 20458.6 11754.8 20401.7C11744.1 20416.6 11728.9 20428.3 11709.3 20436.7C11690.2 20445.1 11669.4 20449.3 11647 20449.3C11617.1 20449.3 11590.1 20443.2 11565.8 20431.1C11542 20418.5 11523.1 20400.1 11509.1 20375.8C11495.1 20351.1 11488.1 20321.2 11488.1 20286.2C11488.1 20234.4 11503.5 20193.3 11534.3 20163C11565.1 20132.2 11607.1 20116.8 11660.3 20116.8C11726.6 20116.8 11773.2 20138 11800.3 20180.5C11827.8 20223 11841.6 20286.9 11841.6 20372.3C11841.6 20433 11836.2 20482.7 11825.5 20521.4C11815.2 20560.1 11797.3 20589.5 11771.6 20609.6C11746.4 20629.7 11711.9 20639.7 11668 20639.7C11633.5 20639.7 11604.1 20633.2 11579.8 20620.1C11555.5 20606.6 11536.9 20589.1 11523.8 20567.6C11511.2 20545.7 11504 20521.6 11502.1 20495.5H11593.1ZM11667.3 20369.5C11691.6 20369.5 11710.7 20362 11724.7 20347.1C11738.7 20332.2 11745.7 20312.1 11745.7 20286.9C11745.7 20259.4 11738.2 20238.1 11723.3 20223.2C11708.8 20207.8 11689 20200.1 11663.8 20200.1C11638.6 20200.1 11618.5 20208 11603.6 20223.9C11589.1 20239.3 11581.9 20259.8 11581.9 20285.5C11581.9 20310.2 11588.9 20330.5 11602.9 20346.4C11617.4 20361.8 11638.8 20369.5 11667.3 20369.5Z" fill="#DDDDDD"/>
<g filter="url(#filter0_d_411_139)">
<rect x="7577.5" y="19280.5" width="6350" height="2296" rx="512.5" stroke="#DDDDDD" stroke-width="25" shape-rendering="crispEdges"/>
</g>
<path d="M5434.89 14886C5498.89 14832.7 5549.89 14788.3 5587.89 14753C5625.89 14717 5657.56 14679.7 5682.89 14641C5708.23 14602.3 5720.89 14564.3 5720.89 14527C5720.89 14493 5712.89 14466.3 5696.89 14447C5680.89 14427.7 5656.23 14418 5622.89 14418C5589.56 14418 5563.89 14429.3 5545.89 14452C5527.89 14474 5518.56 14504.3 5517.89 14543H5381.89C5384.56 14463 5408.23 14402.3 5452.89 14361C5498.23 14319.7 5555.56 14299 5624.89 14299C5700.89 14299 5759.23 14319.3 5799.89 14360C5840.56 14400 5860.89 14453 5860.89 14519C5860.89 14571 5846.89 14620.7 5818.89 14668C5790.89 14715.3 5758.89 14756.7 5722.89 14792C5686.89 14826.7 5639.89 14868.7 5581.89 14918H5876.89V15034H5382.89V14930L5434.89 14886ZM6505.11 14436H6181.11V14607C6195.11 14589.7 6215.11 14575.7 6241.11 14565C6267.11 14553.7 6294.78 14548 6324.11 14548C6377.45 14548 6421.11 14559.7 6455.11 14583C6489.11 14606.3 6513.78 14636.3 6529.11 14673C6544.45 14709 6552.11 14747.7 6552.11 14789C6552.11 14865.7 6530.11 14927.3 6486.11 14974C6442.78 15020.7 6380.78 15044 6300.11 15044C6224.11 15044 6163.45 15025 6118.11 14987C6072.78 14949 6047.11 14899.3 6041.11 14838H6177.11C6183.11 14864.7 6196.45 14886 6217.11 14902C6238.45 14918 6265.45 14926 6298.11 14926C6337.45 14926 6367.11 14913.7 6387.11 14889C6407.11 14864.3 6417.11 14831.7 6417.11 14791C6417.11 14749.7 6406.78 14718.3 6386.11 14697C6366.11 14675 6336.45 14664 6297.11 14664C6269.11 14664 6245.78 14671 6227.11 14685C6208.45 14699 6195.11 14717.7 6187.11 14741H6053.11V14313H6505.11V14436ZM6708.67 14670C6708.67 14554.7 6729.33 14464.3 6770.67 14399C6812.67 14333.7 6882 14301 6978.67 14301C7075.33 14301 7144.33 14333.7 7185.67 14399C7227.67 14464.3 7248.67 14554.7 7248.67 14670C7248.67 14786 7227.67 14877 7185.67 14943C7144.33 15009 7075.33 15042 6978.67 15042C6882 15042 6812.67 15009 6770.67 14943C6729.33 14877 6708.67 14786 6708.67 14670ZM7110.67 14670C7110.67 14620.7 7107.33 14579.3 7100.67 14546C7094.67 14512 7082 14484.3 7062.67 14463C7044 14441.7 7016 14431 6978.67 14431C6941.33 14431 6913 14441.7 6893.67 14463C6875 14484.3 6862.33 14512 6855.67 14546C6849.67 14579.3 6846.67 14620.7 6846.67 14670C6846.67 14720.7 6849.67 14763.3 6855.67 14798C6861.67 14832 6874.33 14859.7 6893.67 14881C6913 14901.7 6941.33 14912 6978.67 14912C7016 14912 7044.33 14901.7 7063.67 14881C7083 14859.7 7095.67 14832 7101.67 14798C7107.67 14763.3 7110.67 14720.7 7110.67 14670ZM7849.43 14304V15044H7709.43V14304H7849.43ZM8552.75 14755C8552.75 14775 8551.42 14793 8548.75 14809H8143.75C8147.09 14849 8161.09 14880.3 8185.75 14903C8210.42 14925.7 8240.75 14937 8276.75 14937C8328.75 14937 8365.75 14914.7 8387.75 14870H8538.75C8522.75 14923.3 8492.09 14967.3 8446.75 15002C8401.42 15036 8345.75 15053 8279.75 15053C8226.42 15053 8178.42 15041.3 8135.75 15018C8093.75 14994 8060.75 14960.3 8036.75 14917C8013.42 14873.7 8001.75 14823.7 8001.75 14767C8001.75 14709.7 8013.42 14659.3 8036.75 14616C8060.09 14572.7 8092.75 14539.3 8134.75 14516C8176.75 14492.7 8225.09 14481 8279.75 14481C8332.42 14481 8379.42 14492.3 8420.75 14515C8462.75 14537.7 8495.09 14570 8517.75 14612C8541.09 14653.3 8552.75 14701 8552.75 14755ZM8407.75 14715C8407.09 14679 8394.09 14650.3 8368.75 14629C8343.42 14607 8312.42 14596 8275.75 14596C8241.09 14596 8211.75 14606.7 8187.75 14628C8164.42 14648.7 8150.09 14677.7 8144.75 14715H8407.75ZM8916.94 15053C8871.61 15053 8830.94 15045 8794.94 15029C8758.94 15012.3 8730.27 14990 8708.94 14962C8688.27 14934 8676.94 14903 8674.94 14869H8815.94C8818.61 14890.3 8828.94 14908 8846.94 14922C8865.61 14936 8888.61 14943 8915.94 14943C8942.61 14943 8963.27 14937.7 8977.94 14927C8993.27 14916.3 9000.94 14902.7 9000.94 14886C9000.94 14868 8991.61 14854.7 8972.94 14846C8954.94 14836.7 8925.94 14826.7 8885.94 14816C8844.61 14806 8810.61 14795.7 8783.94 14785C8757.94 14774.3 8735.27 14758 8715.94 14736C8697.27 14714 8687.94 14684.3 8687.94 14647C8687.94 14616.3 8696.61 14588.3 8713.94 14563C8731.94 14537.7 8757.27 14517.7 8789.94 14503C8823.27 14488.3 8862.27 14481 8906.94 14481C8972.94 14481 9025.61 14497.7 9064.94 14531C9104.27 14563.7 9125.94 14608 9129.94 14664H8995.94C8993.94 14642 8984.61 14624.7 8967.94 14612C8951.94 14598.7 8930.27 14592 8902.94 14592C8877.61 14592 8857.94 14596.7 8843.94 14606C8830.61 14615.3 8823.94 14628.3 8823.94 14645C8823.94 14663.7 8833.27 14678 8851.94 14688C8870.61 14697.3 8899.61 14707 8938.94 14717C8978.94 14727 9011.94 14737.3 9037.94 14748C9063.94 14758.7 9086.27 14775.3 9104.94 14798C9124.27 14820 9134.27 14849.3 9134.94 14886C9134.94 14918 9125.94 14946.7 9107.94 14972C9090.61 14997.3 9065.27 15017.3 9031.94 15032C8999.27 15046 8960.94 15053 8916.94 15053ZM9511.86 15053C9466.53 15053 9425.86 15045 9389.86 15029C9353.86 15012.3 9325.2 14990 9303.86 14962C9283.2 14934 9271.86 14903 9269.86 14869H9410.86C9413.53 14890.3 9423.86 14908 9441.86 14922C9460.53 14936 9483.53 14943 9510.86 14943C9537.53 14943 9558.2 14937.7 9572.86 14927C9588.2 14916.3 9595.86 14902.7 9595.86 14886C9595.86 14868 9586.53 14854.7 9567.86 14846C9549.86 14836.7 9520.86 14826.7 9480.86 14816C9439.53 14806 9405.53 14795.7 9378.86 14785C9352.86 14774.3 9330.2 14758 9310.86 14736C9292.2 14714 9282.86 14684.3 9282.86 14647C9282.86 14616.3 9291.53 14588.3 9308.86 14563C9326.86 14537.7 9352.2 14517.7 9384.86 14503C9418.2 14488.3 9457.2 14481 9501.86 14481C9567.86 14481 9620.53 14497.7 9659.86 14531C9699.2 14563.7 9720.86 14608 9724.86 14664H9590.86C9588.86 14642 9579.53 14624.7 9562.86 14612C9546.86 14598.7 9525.2 14592 9497.86 14592C9472.53 14592 9452.86 14596.7 9438.86 14606C9425.53 14615.3 9418.86 14628.3 9418.86 14645C9418.86 14663.7 9428.2 14678 9446.86 14688C9465.53 14697.3 9494.53 14707 9533.86 14717C9573.86 14727 9606.86 14737.3 9632.86 14748C9658.86 14758.7 9681.2 14775.3 9699.86 14798C9719.2 14820 9729.2 14849.3 9729.86 14886C9729.86 14918 9720.86 14946.7 9702.86 14972C9685.53 14997.3 9660.2 15017.3 9626.86 15032C9594.2 15046 9555.86 15053 9511.86 15053ZM10140.8 15053C10087.5 15053 10039.5 15041.3 9996.79 15018C9954.12 14994 9920.45 14960.3 9895.79 14917C9871.79 14873.7 9859.79 14823.7 9859.79 14767C9859.79 14710.3 9872.12 14660.3 9896.79 14617C9922.12 14573.7 9956.45 14540.3 9999.79 14517C10043.1 14493 10091.5 14481 10144.8 14481C10198.1 14481 10246.5 14493 10289.8 14517C10333.1 14540.3 10367.1 14573.7 10391.8 14617C10417.1 14660.3 10429.8 14710.3 10429.8 14767C10429.8 14823.7 10416.8 14873.7 10390.8 14917C10365.5 14960.3 10330.8 14994 10286.8 15018C10243.5 15041.3 10194.8 15053 10140.8 15053ZM10140.8 14931C10166.1 14931 10189.8 14925 10211.8 14913C10234.5 14900.3 10252.5 14881.7 10265.8 14857C10279.1 14832.3 10285.8 14802.3 10285.8 14767C10285.8 14714.3 10271.8 14674 10243.8 14646C10216.5 14617.3 10182.8 14603 10142.8 14603C10102.8 14603 10069.1 14617.3 10041.8 14646C10015.1 14674 10001.8 14714.3 10001.8 14767C10001.8 14819.7 10014.8 14860.3 10040.8 14889C10067.5 14917 10100.8 14931 10140.8 14931ZM10889.5 14482C10955.5 14482 11008.8 14503 11049.5 14545C11090.1 14586.3 11110.5 14644.3 11110.5 14719V15044H10970.5V14738C10970.5 14694 10959.5 14660.3 10937.5 14637C10915.5 14613 10885.5 14601 10847.5 14601C10808.8 14601 10778.1 14613 10755.5 14637C10733.5 14660.3 10722.5 14694 10722.5 14738V15044H10582.5V14490H10722.5V14559C10741.1 14535 10764.8 14516.3 10793.5 14503C10822.8 14489 10854.8 14482 10889.5 14482ZM11505.6 15053C11460.3 15053 11419.6 15045 11383.6 15029C11347.6 15012.3 11318.9 14990 11297.6 14962C11276.9 14934 11265.6 14903 11263.6 14869H11404.6C11407.3 14890.3 11417.6 14908 11435.6 14922C11454.3 14936 11477.3 14943 11504.6 14943C11531.3 14943 11551.9 14937.7 11566.6 14927C11581.9 14916.3 11589.6 14902.7 11589.6 14886C11589.6 14868 11580.3 14854.7 11561.6 14846C11543.6 14836.7 11514.6 14826.7 11474.6 14816C11433.3 14806 11399.3 14795.7 11372.6 14785C11346.6 14774.3 11323.9 14758 11304.6 14736C11285.9 14714 11276.6 14684.3 11276.6 14647C11276.6 14616.3 11285.3 14588.3 11302.6 14563C11320.6 14537.7 11345.9 14517.7 11378.6 14503C11411.9 14488.3 11450.9 14481 11495.6 14481C11561.6 14481 11614.3 14497.7 11653.6 14531C11692.9 14563.7 11714.6 14608 11718.6 14664H11584.6C11582.6 14642 11573.3 14624.7 11556.6 14612C11540.6 14598.7 11518.9 14592 11491.6 14592C11466.3 14592 11446.6 14596.7 11432.6 14606C11419.3 14615.3 11412.6 14628.3 11412.6 14645C11412.6 14663.7 11421.9 14678 11440.6 14688C11459.3 14697.3 11488.3 14707 11527.6 14717C11567.6 14727 11600.6 14737.3 11626.6 14748C11652.6 14758.7 11674.9 14775.3 11693.6 14798C11712.9 14820 11722.9 14849.3 11723.6 14886C11723.6 14918 11714.6 14946.7 11696.6 14972C11679.3 14997.3 11653.9 15017.3 11620.6 15032C11587.9 15046 11549.6 15053 11505.6 15053ZM12332.8 15165H12191.8V14236H12332.8V15165ZM12790.7 14444V14315H13031.7V15044H12887.7V14444H12790.7ZM13598 14497C13591.3 14469 13579.7 14448 13563 14434C13547 14420 13523.7 14413 13493 14413C13447 14413 13413 14431.7 13391 14469C13369.7 14505.7 13358.7 14565.7 13358 14649C13374 14622.3 13397.3 14601.7 13428 14587C13458.7 14571.7 13492 14564 13528 14564C13571.3 14564 13609.7 14573.3 13643 14592C13676.3 14610.7 13702.3 14638 13721 14674C13739.7 14709.3 13749 14752 13749 14802C13749 14849.3 13739.3 14891.7 13720 14929C13701.3 14965.7 13673.7 14994.3 13637 15015C13600.3 15035.7 13556.7 15046 13506 15046C13436.7 15046 13382 15030.7 13342 15000C13302.7 14969.3 13275 14926.7 13259 14872C13243.7 14816.7 13236 14748.7 13236 14668C13236 14546 13257 14454 13299 14392C13341 14329.3 13407.3 14298 13498 14298C13568 14298 13622.3 14317 13661 14355C13699.7 14393 13722 14440.3 13728 14497H13598ZM13496 14679C13460.7 14679 13431 14689.3 13407 14710C13383 14730.7 13371 14760.7 13371 14800C13371 14839.3 13382 14870.3 13404 14893C13426.7 14915.7 13458.3 14927 13499 14927C13535 14927 13563.3 14916 13584 14894C13605.3 14872 13616 14842.3 13616 14805C13616 14766.3 13605.7 14735.7 13585 14713C13565 14690.3 13535.3 14679 13496 14679ZM14525.9 14482C14567.9 14482 14605.3 14491.3 14637.9 14510C14670.6 14528 14695.9 14555 14713.9 14591C14732.6 14626.3 14741.9 14669 14741.9 14719V15044H14601.9V14738C14601.9 14694 14590.9 14660.3 14568.9 14637C14546.9 14613 14516.9 14601 14478.9 14601C14440.3 14601 14409.6 14613 14386.9 14637C14364.9 14660.3 14353.9 14694 14353.9 14738V15044H14213.9V14304H14353.9V14559C14371.9 14535 14395.9 14516.3 14425.9 14503C14455.9 14489 14489.3 14482 14525.9 14482ZM15171.1 15053C15117.7 15053 15069.7 15041.3 15027.1 15018C14984.4 14994 14950.7 14960.3 14926.1 14917C14902.1 14873.7 14890.1 14823.7 14890.1 14767C14890.1 14710.3 14902.4 14660.3 14927.1 14617C14952.4 14573.7 14986.7 14540.3 15030.1 14517C15073.4 14493 15121.7 14481 15175.1 14481C15228.4 14481 15276.7 14493 15320.1 14517C15363.4 14540.3 15397.4 14573.7 15422.1 14617C15447.4 14660.3 15460.1 14710.3 15460.1 14767C15460.1 14823.7 15447.1 14873.7 15421.1 14917C15395.7 14960.3 15361.1 14994 15317.1 15018C15273.7 15041.3 15225.1 15053 15171.1 15053ZM15171.1 14931C15196.4 14931 15220.1 14925 15242.1 14913C15264.7 14900.3 15282.7 14881.7 15296.1 14857C15309.4 14832.3 15316.1 14802.3 15316.1 14767C15316.1 14714.3 15302.1 14674 15274.1 14646C15246.7 14617.3 15213.1 14603 15173.1 14603C15133.1 14603 15099.4 14617.3 15072.1 14646C15045.4 14674 15032.1 14714.3 15032.1 14767C15032.1 14819.7 15045.1 14860.3 15071.1 14889C15097.7 14917 15131.1 14931 15171.1 14931ZM16135.8 14490V15044H15994.8V14974C15976.8 14998 15953.1 15017 15923.8 15031C15895.1 15044.3 15863.8 15051 15829.8 15051C15786.4 15051 15748.1 15042 15714.8 15024C15681.4 15005.3 15655.1 14978.3 15635.8 14943C15617.1 14907 15607.8 14864.3 15607.8 14815V14490H15747.8V14795C15747.8 14839 15758.8 14873 15780.8 14897C15802.8 14920.3 15832.8 14932 15870.8 14932C15909.4 14932 15939.8 14920.3 15961.8 14897C15983.8 14873 15994.8 14839 15994.8 14795V14490H16135.8ZM16463.9 14576C16481.9 14546.7 16505.2 14523.7 16533.9 14507C16563.2 14490.3 16596.6 14482 16633.9 14482V14629H16596.9C16552.9 14629 16519.6 14639.3 16496.9 14660C16474.9 14680.7 16463.9 14716.7 16463.9 14768V15044H16323.9V14490H16463.9V14576ZM16990.2 15053C16944.9 15053 16904.2 15045 16868.2 15029C16832.2 15012.3 16803.5 14990 16782.2 14962C16761.5 14934 16750.2 14903 16748.2 14869H16889.2C16891.9 14890.3 16902.2 14908 16920.2 14922C16938.9 14936 16961.9 14943 16989.2 14943C17015.9 14943 17036.5 14937.7 17051.2 14927C17066.5 14916.3 17074.2 14902.7 17074.2 14886C17074.2 14868 17064.9 14854.7 17046.2 14846C17028.2 14836.7 16999.2 14826.7 16959.2 14816C16917.9 14806 16883.9 14795.7 16857.2 14785C16831.2 14774.3 16808.5 14758 16789.2 14736C16770.5 14714 16761.2 14684.3 16761.2 14647C16761.2 14616.3 16769.9 14588.3 16787.2 14563C16805.2 14537.7 16830.5 14517.7 16863.2 14503C16896.5 14488.3 16935.5 14481 16980.2 14481C17046.2 14481 17098.9 14497.7 17138.2 14531C17177.5 14563.7 17199.2 14608 17203.2 14664H17069.2C17067.2 14642 17057.9 14624.7 17041.2 14612C17025.2 14598.7 17003.5 14592 16976.2 14592C16950.9 14592 16931.2 14596.7 16917.2 14606C16903.9 14615.3 16897.2 14628.3 16897.2 14645C16897.2 14663.7 16906.5 14678 16925.2 14688C16943.9 14697.3 16972.9 14707 17012.2 14717C17052.2 14727 17085.2 14737.3 17111.2 14748C17137.2 14758.7 17159.5 14775.3 17178.2 14798C17197.5 14820 17207.5 14849.3 17208.2 14886C17208.2 14918 17199.2 14946.7 17181.2 14972C17163.9 14997.3 17138.5 15017.3 17105.2 15032C17072.5 15046 17034.2 15053 16990.2 15053Z" fill="#DDDDDD"/>
<path d="M6847.07 7870.4C6935.07 7870.4 7012.27 7887.6 7078.67 7922C7145.87 7956.4 7197.47 8005.6 7233.47 8069.6C7270.27 8132.8 7288.67 8206.4 7288.67 8290.4C7288.67 8374.4 7270.27 8448 7233.47 8511.2C7197.47 8573.6 7145.87 8622 7078.67 8656.4C7012.27 8690.8 6935.07 8708 6847.07 8708H6554.27V7870.4H6847.07ZM6841.07 8565.2C6929.07 8565.2 6997.07 8541.2 7045.07 8493.2C7093.07 8445.2 7117.07 8377.6 7117.07 8290.4C7117.07 8203.2 7093.07 8135.2 7045.07 8086.4C6997.07 8036.8 6929.07 8012 6841.07 8012H6722.27V8565.2H6841.07ZM7431.22 8373.2C7431.22 8306 7444.42 8246.4 7470.82 8194.4C7498.03 8142.4 7534.43 8102.4 7580.03 8074.4C7626.43 8046.4 7678.03 8032.4 7734.83 8032.4C7784.43 8032.4 7827.63 8042.4 7864.43 8062.4C7902.03 8082.4 7932.03 8107.6 7954.43 8138V8043.2H8123.63V8708H7954.43V8610.8C7932.83 8642 7902.83 8668 7864.43 8688.8C7826.83 8708.8 7783.23 8718.8 7733.63 8718.8C7677.63 8718.8 7626.43 8704.4 7580.03 8675.6C7534.43 8646.8 7498.03 8606.4 7470.82 8554.4C7444.42 8501.6 7431.22 8441.2 7431.22 8373.2ZM7954.43 8375.6C7954.43 8334.8 7946.43 8300 7930.43 8271.2C7914.43 8241.6 7892.83 8219.2 7865.63 8204C7838.43 8188 7809.23 8180 7778.03 8180C7746.83 8180 7718.03 8187.6 7691.62 8202.8C7665.23 8218 7643.63 8240.4 7626.83 8270C7610.83 8298.8 7602.83 8333.2 7602.83 8373.2C7602.83 8413.2 7610.83 8448.4 7626.83 8478.8C7643.63 8508.4 7665.23 8531.2 7691.62 8547.2C7718.83 8563.2 7747.63 8571.2 7778.03 8571.2C7809.23 8571.2 7838.43 8563.6 7865.63 8548.4C7892.83 8532.4 7914.43 8510 7930.43 8481.2C7946.43 8451.6 7954.43 8416.4 7954.43 8375.6ZM8543.31 8181.2V8502.8C8543.31 8525.2 8548.51 8541.6 8558.91 8552C8570.11 8561.6 8588.51 8566.4 8614.11 8566.4H8692.11V8708H8586.51C8444.91 8708 8374.11 8639.2 8374.11 8501.6V8181.2H8294.91V8043.2H8374.11V7878.8H8543.31V8043.2H8692.11V8181.2H8543.31ZM8829.74 8373.2C8829.74 8306 8842.94 8246.4 8869.34 8194.4C8896.54 8142.4 8932.94 8102.4 8978.54 8074.4C9024.94 8046.4 9076.54 8032.4 9133.34 8032.4C9182.94 8032.4 9226.14 8042.4 9262.94 8062.4C9300.54 8082.4 9330.54 8107.6 9352.94 8138V8043.2H9522.14V8708H9352.94V8610.8C9331.34 8642 9301.34 8668 9262.94 8688.8C9225.34 8708.8 9181.74 8718.8 9132.14 8718.8C9076.14 8718.8 9024.94 8704.4 8978.54 8675.6C8932.94 8646.8 8896.54 8606.4 8869.34 8554.4C8842.94 8501.6 8829.74 8441.2 8829.74 8373.2ZM9352.94 8375.6C9352.94 8334.8 9344.94 8300 9328.94 8271.2C9312.94 8241.6 9291.34 8219.2 9264.14 8204C9236.94 8188 9207.74 8180 9176.54 8180C9145.34 8180 9116.54 8187.6 9090.14 8202.8C9063.74 8218 9042.14 8240.4 9025.34 8270C9009.34 8298.8 9001.34 8333.2 9001.34 8373.2C9001.34 8413.2 9009.34 8448.4 9025.34 8478.8C9042.14 8508.4 9063.74 8531.2 9090.14 8547.2C9117.34 8563.2 9146.14 8571.2 9176.54 8571.2C9207.74 8571.2 9236.94 8563.6 9264.14 8548.4C9291.34 8532.4 9312.94 8510 9328.94 8481.2C9344.94 8451.6 9352.94 8416.4 9352.94 8375.6ZM10605.8 8548.4H10272.2L10217 8708H10040.6L10341.8 7869.2H10537.4L10838.6 8708H10661L10605.8 8548.4ZM10560.2 8414L10439 8063.6L10317.8 8414H10560.2ZM11379.5 8033.6C11458.7 8033.6 11522.7 8058.8 11571.5 8109.2C11620.3 8158.8 11644.7 8228.4 11644.7 8318V8708H11476.7V8340.8C11476.7 8288 11463.5 8247.6 11437.1 8219.6C11410.7 8190.8 11374.7 8176.4 11329.1 8176.4C11282.7 8176.4 11245.9 8190.8 11218.7 8219.6C11192.3 8247.6 11179.1 8288 11179.1 8340.8V8708H11011.1V8043.2H11179.1V8126C11201.5 8097.2 11229.9 8074.8 11264.3 8058.8C11299.5 8042 11337.9 8033.6 11379.5 8033.6ZM11821.3 8373.2C11821.3 8306 11834.5 8246.4 11860.9 8194.4C11888.1 8142.4 11924.5 8102.4 11970.1 8074.4C12016.5 8046.4 12068.1 8032.4 12124.9 8032.4C12174.5 8032.4 12217.7 8042.4 12254.5 8062.4C12292.1 8082.4 12322.1 8107.6 12344.5 8138V8043.2H12513.7V8708H12344.5V8610.8C12322.9 8642 12292.9 8668 12254.5 8688.8C12216.9 8708.8 12173.3 8718.8 12123.7 8718.8C12067.7 8718.8 12016.5 8704.4 11970.1 8675.6C11924.5 8646.8 11888.1 8606.4 11860.9 8554.4C11834.5 8501.6 11821.3 8441.2 11821.3 8373.2ZM12344.5 8375.6C12344.5 8334.8 12336.5 8300 12320.5 8271.2C12304.5 8241.6 12282.9 8219.2 12255.7 8204C12228.5 8188 12199.3 8180 12168.1 8180C12136.9 8180 12108.1 8187.6 12081.7 8202.8C12055.3 8218 12033.7 8240.4 12016.9 8270C12000.9 8298.8 11992.9 8333.2 11992.9 8373.2C11992.9 8413.2 12000.9 8448.4 12016.9 8478.8C12033.7 8508.4 12055.3 8531.2 12081.7 8547.2C12108.9 8563.2 12137.7 8571.2 12168.1 8571.2C12199.3 8571.2 12228.5 8563.6 12255.7 8548.4C12282.9 8532.4 12304.5 8510 12320.5 8481.2C12336.5 8451.6 12344.5 8416.4 12344.5 8375.6ZM12905.8 7820V8708H12737.8V7820H12905.8ZM13767.8 8043.2L13356.2 9022.4H13177.4L13321.4 8691.2L13055 8043.2H13243.4L13415 8507.6L13589 8043.2H13767.8ZM14113.9 8181.2V8502.8C14113.9 8525.2 14119.1 8541.6 14129.5 8552C14140.7 8561.6 14159.1 8566.4 14184.7 8566.4H14262.7V8708H14157.1C14015.5 8708 13944.7 8639.2 13944.7 8501.6V8181.2H13865.5V8043.2H13944.7V7878.8H14113.9V8043.2H14262.7V8181.2H14113.9ZM14528.8 7964C14499.2 7964 14474.4 7954.8 14454.4 7936.4C14435.2 7917.2 14425.6 7893.6 14425.6 7865.6C14425.6 7837.6 14435.2 7814.4 14454.4 7796C14474.4 7776.8 14499.2 7767.2 14528.8 7767.2C14558.4 7767.2 14582.8 7776.8 14602 7796C14622 7814.4 14632 7837.6 14632 7865.6C14632 7893.6 14622 7917.2 14602 7936.4C14582.8 7954.8 14558.4 7964 14528.8 7964ZM14611.6 8043.2V8708H14443.6V8043.2H14611.6ZM14794.3 8375.6C14794.3 8306.8 14808.4 8246.8 14836.4 8195.6C14864.4 8143.6 14903.2 8103.6 14952.8 8075.6C15002.4 8046.8 15059.2 8032.4 15123.2 8032.4C15205.6 8032.4 15273.6 8053.2 15327.2 8094.8C15381.6 8135.6 15418 8193.2 15436.4 8267.6H15255.2C15245.6 8238.8 15229.2 8216.4 15206 8200.4C15183.6 8183.6 15155.6 8175.2 15122 8175.2C15074 8175.2 15036 8192.8 15008 8228C14980 8262.4 14966 8311.6 14966 8375.6C14966 8438.8 14980 8488 15008 8523.2C15036 8557.6 15074 8574.8 15122 8574.8C15190 8574.8 15234.4 8544.4 15255.2 8483.6H15436.4C15418 8555.6 15381.6 8612.8 15327.2 8655.2C15272.8 8697.6 15204.8 8718.8 15123.2 8718.8C15059.2 8718.8 15002.4 8704.8 14952.8 8676.8C14903.2 8648 14864.4 8608 14836.4 8556.8C14808.4 8504.8 14794.3 8444.4 14794.3 8375.6ZM15873.8 8718.8C15819.4 8718.8 15770.6 8709.2 15727.4 8690C15684.2 8670 15649.8 8643.2 15624.2 8609.6C15599.4 8576 15585.8 8538.8 15583.4 8498H15752.6C15755.8 8523.6 15768.2 8544.8 15789.8 8561.6C15812.2 8578.4 15839.8 8586.8 15872.6 8586.8C15904.6 8586.8 15929.4 8580.4 15947 8567.6C15965.4 8554.8 15974.6 8538.4 15974.6 8518.4C15974.6 8496.8 15963.4 8480.8 15941 8470.4C15919.4 8459.2 15884.6 8447.2 15836.6 8434.4C15787 8422.4 15746.2 8410 15714.2 8397.2C15683 8384.4 15655.8 8364.8 15632.6 8338.4C15610.2 8312 15599 8276.4 15599 8231.6C15599 8194.8 15609.4 8161.2 15630.2 8130.8C15651.8 8100.4 15682.2 8076.4 15721.4 8058.8C15761.4 8041.2 15808.2 8032.4 15861.8 8032.4C15941 8032.4 16004.2 8052.4 16051.4 8092.4C16098.6 8131.6 16124.6 8184.8 16129.4 8252H15968.6C15966.2 8225.6 15955 8204.8 15935 8189.6C15915.8 8173.6 15889.8 8165.6 15857 8165.6C15826.6 8165.6 15803 8171.2 15786.2 8182.4C15770.2 8193.6 15762.2 8209.2 15762.2 8229.2C15762.2 8251.6 15773.4 8268.8 15795.8 8280.8C15818.2 8292 15853 8303.6 15900.2 8315.6C15948.2 8327.6 15987.8 8340 16019 8352.8C16050.2 8365.6 16077 8385.6 16099.4 8412.8C16122.6 8439.2 16134.6 8474.4 16135.4 8518.4C16135.4 8556.8 16124.6 8591.2 16103 8621.6C16082.2 8652 16051.8 8676 16011.8 8693.6C15972.6 8710.4 15926.6 8718.8 15873.8 8718.8Z" fill="white"/>
<g clip-path="url(#clip0_411_139)">
<path d="M11617 4723.43C11577.8 4774.59 11530.8 4833.07 11475.9 4876.92C11421 4928.09 11366.2 4971.95 11311.3 5008.49C10778.4 5366.65 10033.8 5322.8 9555.71 4876.92C9461.66 4789.21 9383.29 4694.19 9320.59 4591.86C9038.44 4109.44 9116.81 3495.45 9555.71 3086.13C10041.6 2632.95 10801.9 2596.4 11334.8 2969.18C11389.7 3005.72 11436.7 3042.27 11483.7 3086.13C11954 3532 12001 4226.39 11617 4723.43Z" fill="#445C6C"/>
<path d="M11891.3 4971.94L11577.8 5257.01L11311.3 5008.49C11366.2 4964.63 11428.9 4920.77 11475.9 4876.92C11530.8 4825.75 11577.8 4774.59 11617 4723.42L11891.3 4971.94Z" fill="#2E435A"/>
<path d="M12965 6265.7C12800.4 6419.2 12541.8 6419.2 12377.2 6265.7L11381.8 5344.72L11522.9 5213.15L11836.4 4928.08L11977.5 4796.52L12965 5717.5C13129.6 5870.99 13129.6 6112.2 12965 6265.7Z" fill="#34AFAA"/>
<path d="M13748.8 4021.73H14078V4650.33H13748.8V4021.73Z" fill="#51BF9F"/>
<path d="M13247.2 4182.53H13576.4V4643.02H13247.2V4182.53Z" fill="#F26E61"/>
<path d="M12745.6 3941.32H13074.7V4643.02H12745.6V3941.32Z" fill="#4EBDE5"/>
<path d="M12236.1 4116.75H12565.3V4650.33H12236.1V4116.75Z" fill="#ECC25D"/>
<path d="M14172 3466.21V3458.91C14172 3451.6 14172 3451.6 14164.2 3444.29V3429.67C14156.3 3415.05 14140.7 3407.74 14132.8 3400.43L14125 3393.12L13913.4 3341.96C13874.2 3334.65 13835 3356.57 13827.2 3393.12C13819.3 3429.67 13842.8 3466.21 13882 3473.52L13921.2 3480.83L13388.3 3758.59L12839.6 3422.36C12816.1 3407.74 12784.8 3407.74 12761.3 3422.36L12173.4 3722.04C12134.3 3736.66 12126.4 3780.52 12142.1 3817.06C12165.6 3853.61 12204.8 3860.92 12244 3846.3L12792.6 3568.55L13341.2 3904.78C13356.9 3912.09 13364.7 3919.4 13380.4 3919.4C13396.1 3919.4 13403.9 3919.4 13419.6 3912.09L13968.2 3627.02L13960.4 3656.26C13944.7 3692.81 13968.2 3729.35 14007.4 3743.97H14030.9C14062.3 3743.97 14093.6 3729.35 14101.5 3700.11L14172 3502.76V3466.21Z" fill="#A72A45"/>
<path d="M11609.1 3985.17C11609.1 4548 11123.2 5008.49 10511.9 5008.49C9971.1 5008.49 9524.36 4643.02 9430.31 4160.6C9422.47 4102.13 9414.64 4043.65 9414.64 3985.17C9414.64 3795.13 9469.5 3612.4 9571.39 3458.9C9688.95 3283.47 9853.54 3144.6 10057.3 3056.88C10174.9 3005.72 10308.1 2976.48 10449.2 2969.17H10511.9C11123.2 2961.86 11609.1 3422.35 11609.1 3985.17Z" fill="#FFDE17"/>
<path d="M10519.7 4825.76C11017.5 4825.76 11421 4449.42 11421 3985.18C11421 3520.94 11017.5 3144.6 10519.7 3144.6C10021.9 3144.6 9618.41 3520.94 9618.41 3985.18C9618.41 4449.42 10021.9 4825.76 10519.7 4825.76Z" fill="#E38900"/>
<path d="M10786.2 3948.63C10833.2 3904.77 10856.7 3846.3 10856.7 3787.82C10856.7 3707.42 10817.5 3641.64 10762.7 3597.78C10715.7 3561.23 10660.8 3539.3 10582.4 3532V3466.21C10582.4 3429.66 10551.1 3393.12 10504 3393.12C10464.9 3393.12 10425.7 3422.35 10425.7 3466.21V3524.69C10363 3524.69 10308.1 3532 10268.9 3539.3C10237.6 3546.61 10206.2 3575.85 10206.2 3605.09V4365.26C10206.2 4401.81 10237.6 4431.05 10268.9 4431.05C10292.4 4431.05 10347.3 4438.36 10425.7 4438.36V4504.14C10425.7 4540.69 10457 4577.24 10504 4577.24C10543.2 4577.24 10582.4 4548 10582.4 4504.14V4431.05C10676.5 4416.43 10739.2 4394.5 10794 4343.34C10856.7 4284.86 10888.1 4219.08 10888.1 4138.67C10888.1 4058.27 10848.9 3992.49 10786.2 3948.63ZM10363 3663.56C10402.2 3656.25 10441.3 3656.25 10480.5 3656.25C10566.7 3656.25 10621.6 3670.87 10660.8 3700.11C10684.3 3714.73 10700 3743.97 10700 3780.51C10700 3824.37 10668.6 3860.92 10613.8 3882.85H10355.1V3663.56H10363ZM10692.1 4255.62C10653 4292.17 10574.6 4306.79 10457 4306.79H10363V4021.72H10621.6C10645.1 4029.03 10739.2 4058.27 10739.2 4145.98C10739.2 4189.84 10723.5 4226.39 10692.1 4255.62Z" fill="#FFDE17"/>
</g>
<defs>
<filter id="filter0_d_411_139" x="7561" y="19268" width="6383" height="2329" filterUnits="userSpaceOnUse" color-interpolation-filters="sRGB">
<feFlood flood-opacity="0" result="BackgroundImageFix"/>
<feColorMatrix in="SourceAlpha" type="matrix" values="0 0 0 0 0 0 0 0 0 0 0 0 0 0 0 0 0 0 127 0" result="hardAlpha"/>
<feOffset dy="4"/>
<feGaussianBlur stdDeviation="2"/>
<feComposite in2="hardAlpha" operator="out"/>
<feColorMatrix type="matrix" values="0 0 0 0 0 0 0 0 0 0 0 0 0 0 0 0 0 0 0.25 0"/>
<feBlend mode="normal" in2="BackgroundImageFix" result="effect1_dropShadow_411_139"/>
<feBlend mode="normal" in="SourceGraphic" in2="effect1_dropShadow_411_139" result="shape"/>
</filter>
<linearGradient id="paint0_linear_411_139" x1="1733.41" y1="-2667.06" x2="1942.16" y2="25150.5" gradientUnits="userSpaceOnUse">
<stop offset="0.431077" stop-color="#001833"/>
<stop offset="1" stop-color="#203956" stop-opacity="0.46"/>
</linearGradient>
<clipPath id="clip0_411_139">
<rect width="5016" height="4678" fill="white" transform="translate(9156 2209)"/>
</clipPath>
</defs>
</svg>
