<svg width="22592" height="24881" viewBox="0 0 22592 24881" fill="none" xmlns="http://www.w3.org/2000/svg">
<path d="M0 899.999C0 402.943 402.944 0 900 0H21692C22189.1 0 22592 402.944 22592 900V23981C22592 24478.1 22189.1 24881 21692 24881H900C402.944 24881 0 24478.1 0 23981V899.999Z" fill="url(#paint0_linear_411_139)" fill-opacity="0.991525"/>
<ellipse cx="20577.4" cy="9630.95" rx="28.3956" ry="22.9524" fill="#D9D9D9"/>
<ellipse cx="20634.4" cy="4694.95" rx="28.3956" ry="22.9524" fill="#D9D9D9"/>
<ellipse cx="19068.4" cy="1224.95" rx="28.3956" ry="22.9524" fill="#D9D9D9"/>
<ellipse cx="17393.4" cy="6411.95" rx="28.3956" ry="22.9524" fill="#D9D9D9"/>
<ellipse cx="1818.4" cy="2518.95" rx="28.3956" ry="22.9524" fill="#D9D9D9"/>
<ellipse cx="1875.4" cy="8684.95" rx="28.3956" ry="22.9524" fill="#D9D9D9"/>
<ellipse cx="7348.31" cy="10290.5" rx="22.3108" ry="23.474" fill="white"/>
<ellipse cx="4418.31" cy="5326.47" rx="22.3108" ry="23.474" fill="white"/>
<ellipse cx="15055.3" cy="1178.47" rx="22.3108" ry="23.474" fill="white"/>
<ellipse cx="6039.31" cy="1130" rx="22.3108" ry="24.9957" fill="white"/>
<rect y="11107" width="22592" height="349" rx="100" fill="#C5707A"/>
<path d="M9924.53 20639L9816.73 20448.6H9770.53V20639H9672.53V20150.4H9855.93C9893.73 20150.4 9925.93 20157.2 9952.53 20170.7C9979.13 20183.8 9998.96 20201.7 10012 20224.6C10025.6 20247 10032.3 20272.2 10032.3 20300.2C10032.3 20332.4 10023 20361.6 10004.3 20387.7C9985.66 20413.4 9957.9 20431.1 9921.03 20440.9L10037.9 20639H9924.53ZM9770.53 20375.1H9852.43C9879.03 20375.1 9898.86 20368.8 9911.93 20356.2C9925 20343.1 9931.53 20325.2 9931.53 20302.3C9931.53 20279.9 9925 20262.6 9911.93 20250.5C9898.86 20237.9 9879.03 20231.6 9852.43 20231.6H9770.53V20375.1ZM10269.4 20645.3C10237.6 20645.3 10209.2 20639.7 10184 20628.5C10158.8 20616.8 10138.7 20601.2 10123.8 20581.6C10109.3 20562 10101.4 20540.3 10100 20516.5H10198.7C10200.5 20531.4 10207.8 20543.8 10220.4 20553.6C10233.4 20563.4 10249.5 20568.3 10268.7 20568.3C10287.3 20568.3 10301.8 20564.6 10312.1 20557.1C10322.8 20549.6 10328.2 20540.1 10328.2 20528.4C10328.2 20515.8 10321.6 20506.5 10308.6 20500.4C10296 20493.9 10275.7 20486.9 10247.7 20479.4C10218.7 20472.4 10194.9 20465.2 10176.3 20457.7C10158.1 20450.2 10142.2 20438.8 10128.7 20423.4C10115.6 20408 10109.1 20387.2 10109.1 20361.1C10109.1 20339.6 10115.1 20320 10127.3 20302.3C10139.9 20284.6 10157.6 20270.6 10180.5 20260.3C10203.8 20250 10231.1 20244.9 10262.4 20244.9C10308.6 20244.9 10345.4 20256.6 10373 20279.9C10400.5 20302.8 10415.7 20333.8 10418.5 20373H10324.7C10323.3 20357.6 10316.7 20345.5 10305.1 20336.6C10293.9 20327.3 10278.7 20322.6 10259.6 20322.6C10241.8 20322.6 10228.1 20325.9 10218.3 20332.4C10208.9 20338.9 10204.3 20348 10204.3 20359.7C10204.3 20372.8 10210.8 20382.8 10223.9 20389.8C10236.9 20396.3 10257.2 20403.1 10284.8 20410.1C10312.8 20417.1 10335.9 20424.3 10354.1 20431.8C10372.3 20439.3 10387.9 20450.9 10401 20466.8C10414.5 20482.2 10421.5 20502.7 10422 20528.4C10422 20550.8 10415.7 20570.9 10403.1 20588.6C10390.9 20606.3 10373.2 20620.3 10349.9 20630.6C10327 20640.4 10300.2 20645.3 10269.4 20645.3ZM10982.8 20202.9L10796.6 20639H10697.2L10884.8 20214.1H10645.4V20130.1H10982.8V20202.9ZM11154.9 20495.5C11158.6 20516 11167 20531.9 11180.1 20543.1C11193.6 20553.8 11211.6 20559.2 11234 20559.2C11262.9 20559.2 11283.9 20547.3 11297 20523.5C11310.1 20499.2 11316.6 20458.6 11316.6 20401.7C11305.9 20416.6 11290.7 20428.3 11271.1 20436.7C11252 20445.1 11231.2 20449.3 11208.8 20449.3C11178.9 20449.3 11151.9 20443.2 11127.6 20431.1C11103.8 20418.5 11084.9 20400.1 11070.9 20375.8C11056.9 20351.1 11049.9 20321.2 11049.9 20286.2C11049.9 20234.4 11065.3 20193.3 11096.1 20163C11126.9 20132.2 11168.9 20116.8 11222.1 20116.8C11288.4 20116.8 11335 20138 11362.1 20180.5C11389.6 20223 11403.4 20286.9 11403.4 20372.3C11403.4 20433 11398 20482.7 11387.3 20521.4C11377 20560.1 11359.1 20589.5 11333.4 20609.6C11308.2 20629.7 11273.7 20639.7 11229.8 20639.7C11195.3 20639.7 11165.9 20633.2 11141.6 20620.1C11117.3 20606.6 11098.7 20589.1 11085.6 20567.6C11073 20545.7 11065.8 20521.6 11063.9 20495.5H11154.9ZM11229.1 20369.5C11253.4 20369.5 11272.5 20362 11286.5 20347.1C11300.5 20332.2 11307.5 20312.1 11307.5 20286.9C11307.5 20259.4 11300 20238.1 11285.1 20223.2C11270.6 20207.8 11250.8 20200.1 11225.6 20200.1C11200.4 20200.1 11180.3 20208 11165.4 20223.9C11150.9 20239.3 11143.7 20259.8 11143.7 20285.5C11143.7 20310.2 11150.7 20330.5 11164.7 20346.4C11179.2 20361.8 11200.6 20369.5 11229.1 20369.5ZM11593.1 20495.5C11596.8 20516 11605.2 20531.9 11618.3 20543.1C11631.8 20553.8 11649.8 20559.2 11672.2 20559.2C11701.1 20559.2 11722.1 20547.3 11735.2 20523.5C11748.3 20499.2 11754.8 20458.6 11754.8 20401.7C11744.1 20416.6 11728.9 20428.3 11709.3 20436.7C11690.2 20445.1 11669.4 20449.3 11647 20449.3C11617.1 20449.3 11590.1 20443.2 11565.8 20431.1C11542 20418.5 11523.1 20400.1 11509.1 20375.8C11495.1 20351.1 11488.1 20321.2 11488.1 20286.2C11488.1 20234.4 11503.5 20193.3 11534.3 20163C11565.1 20132.2 11607.1 20116.8 11660.3 20116.8C11726.6 20116.8 11773.2 20138 11800.3 20180.5C11827.8 20223 11841.6 20286.9 11841.6 20372.3C11841.6 20433 11836.2 20482.7 11825.5 20521.4C11815.2 20560.1 11797.3 20589.5 11771.6 20609.6C11746.4 20629.7 11711.9 20639.7 11668 20639.7C11633.5 20639.7 11604.1 20633.2 11579.8 20620.1C11555.5 20606.6 11536.9 20589.1 11523.8 20567.6C11511.2 20545.7 11504 20521.6 11502.1 20495.5H11593.1ZM11667.3 20369.5C11691.6 20369.5 11710.7 20362 11724.7 20347.1C11738.7 20332.2 11745.7 20312.1 11745.7 20286.9C11745.7 20259.4 11738.2 20238.1 11723.3 20223.2C11708.8 20207.8 11689 20200.1 11663.8 20200.1C11638.6 20200.1 11618.5 20208 11603.6 20223.9C11589.1 20239.3 11581.9 20259.8 11581.9 20285.5C11581.9 20310.2 11588.9 20330.5 11602.9 20346.4C11617.4 20361.8 11638.8 20369.5 11667.3 20369.5Z" fill="#DDDDDD"/>
<g filter="url(#filter0_d_411_139)">
<rect x="7577.5" y="19280.5" width="6350" height="2296" rx="512.5" stroke="#DDDDDD" stroke-width="25" shape-rendering="crispEdges"/>
</g>
<path d="M5434.89 14886C5498.89 14832.7 5549.89 14788.3 5587.89 14753C5625.89 14717 5657.56 14679.7 5682.89 14641C5708.23 14602.3 5720.89 14564.3 5720.89 14527C5720.89 14493 5712.89 14466.3 5696.89 14447C5680.89 14427.7 5656.23 14418 5622.89 14418C5589.56 14418 5563.89 14429.3 5545.89 14452C5527.89 14474 5518.56 14504.3 5517.89 14543H5381.89C5384.56 14463 5408.23 14402.3 5452.89 14361C5498.23 14319.7 5555.56 14299 5624.89 14299C5700.89 14299 5759.23 14319.3 5799.89 14360C5840.56 14400 5860.89 14453 5860.89 14519C5860.89 14571 5846.89 14620.7 5818.89 14668C5790.89 14715.3 5758.89 14756.7 5722.89 14792C5686.89 14826.7 5639.89 14868.7 5581.89 14918H5876.89V15034H5382.89V14930L5434.89 14886ZM6505.11 14436H6181.11V14607C6195.11 14589.7 6215.11 14575.7 6241.11 14565C6267.11 14553.7 6294.78 14548 6324.11 14548C6377.45 14548 6421.11 14559.7 6455.11 14583C6489.11 14606.3 6513.78 14636.3 6529.11 14673C6544.45 14709 6552.11 14747.7 6552.11 14789C6552.11 14865.7 6530.11 14927.3 6486.11 14974C6442.78 15020.7 6380.78 15044 6300.11 15044C6224.11 15044 6163.45 15025 6118.11 14987C6072.78 14949 6047.11 14899.3 6041.11 14838H6177.11C6183.11 14864.7 6196.45 14886 6217.11 14902C6238.45 14918 6265.45 14926 6298.11 14926C6337.45 14926 6367.11 14913.7 6387.11 14889C6407.11 14864.3 6417.11 14831.7 6417.11 14791C6417.11 14749.7 6406.78 14718.3 6386.11 14697C6366.11 14675 6336.45 14664 6297.11 14664C6269.11 14664 6245.78 14671 6227.11 14685C6208.45 14699 6195.11 14717.7 6187.11 14741H6053.11V14313H6505.11V14436ZM6708.67 14670C6708.67 14554.7 6729.33 14464.3 6770.67 14399C6812.67 14333.7 6882 14301 6978.67 14301C7075.33 14301 7144.33 14333.7 7185.67 14399C7227.67 14464.3 7248.67 14554.7 7248.67 14670C7248.67 14786 7227.67 14877 7185.67 14943C7144.33 15009 7075.33 15042 6978.67 15042C6882 15042 6812.67 15009 6770.67 14943C6729.33 14877 6708.67 14786 6708.67 14670ZM7110.67 14670C7110.67 14620.7 7107.33 14579.3 7100.67 14546C7094.67 14512 7082 14484.3 7062.67 14463C7044 14441.7 7016 14431 6978.67 14431C6941.33 14431 6913 14441.7 6893.67 14463C6875 14484.3 6862.33 14512 6855.67 14546C6849.67 14579.3 6846.67 14620.7 6846.67 14670C6846.67 14720.7 6849.67 14763.3 6855.67 14798C6861.67 14832 6874.33 14859.7 6893.67 14881C6913 14901.7 6941.33 14912 6978.67 14912C7016 14912 7044.33 14901.7 7063.67 14881C7083 14859.7 7095.67 14832 7101.67 14798C7107.67 14763.3 7110.67 14720.7 7110.67 14670ZM7849.43 14304V15044H7709.43V14304H7849.43ZM8552.75 14755C8552.75 14775 8551.42 14793 8548.75 14809H8143.75C8147.09 14849 8161.09 14880.3 8185.75 14903C8210.42 14925.7 8240.75 14937 8276.75 14937C8328.75 14937 8365.75 14914.7 8387.75 14870H8538.75C8522.75 14923.3 8492.09 14967.3 8446.75 15002C8401.42 15036 8345.75 15053 8279.75 15053C8226.42 15053 8178.42 15041.3 8135.75 15018C8093.75 14994 8060.75 14960.3 8036.75 14917C8013.42 14873.7 8001.75 14823.7 8001.75 14767C8001.75 14709.7 8013.42 14659.3 8036.75 14616C8060.09 14572.7 8092.75 14539.3 8134.75 14516C8176.75 14492.7 8225.09 14481 8279.75 14481C8332.42 14481 8379.42 14492.3 8420.75 14515C8462.75 14537.7 8495.09 14570 8517.75 14612C8541.09 14653.3 8552.75 14701 8552.75 14755ZM8407.75 14715C8407.09 14679 8394.09 14650.3 8368.75 14629C8343.42 14607 8312.42 14596 8275.75 14596C8241.09 14596 8211.75 14606.7 8187.75 14628C8164.42 14648.7 8150.09 14677.7 8144.75 14715H8407.75ZM8916.94 15053C8871.61 15053 8830.94 15045 8794.94 15029C8758.94 15012.3 8730.27 14990 8708.94 14962C8688.27 14934 8676.94 14903 8674.94 14869H8815.94C8818.61 14890.3 8828.94 14908 8846.94 14922C8865.61 14936 8888.61 14943 8915.94 14943C8942.61 14943 8963.27 14937.7 8977.94 14927C8993.27 14916.3 9000.94 14902.7 9000.94 14886C9000.94 14868 8991.61 14854.7 8972.94 14846C8954.94 14836.7 8925.94 14826.7 8885.94 14816C8844.61 14806 8810.61 14795.7 8783.94 14785C8757.94 14774.3 8735.27 14758 8715.94 14736C8697.27 14714 8687.94 14684.3 8687.94 14647C8687.94 14616.3 8696.61 14588.3 8713.94 14563C8731.94 14537.7 8757.27 14517.7 8789.94 14503C8823.27 14488.3 8862.27 14481 8906.94 14481C8972.94 14481 9025.61 14497.7 9064.94 14531C9104.27 14563.7 9125.94 14608 9129.94 14664H8995.94C8993.94 14642 8984.61 14624.7 8967.94 14612C8951.94 14598.7 8930.27 14592 8902.94 14592C8877.61 14592 8857.94 14596.7 8843.94 14606C8830.61 14615.3 8823.94 14628.3 8823.94 14645C8823.94 14663.7 8833.27 14678 8851.94 14688C8870.61 14697.3 8899.61 14707 8938.94 14717C8978.94 14727 9011.94 14737.3 9037.94 14748C9063.94 14758.7 9086.27 14775.3 9104.94 14798C9124.27 14820 9134.27 14849.3 9134.94 14886C9134.94 14918 9125.94 14946.7 9107.94 14972C9090.61 14997.3 9065.27 15017.3 9031.94 15032C8999.27 15046 8960.94 15053 8916.94 15053ZM9511.86 15053C9466.53 15053 9425.86 15045 9389.86 15029C9353.86 15012.3 9325.2 14990 9303.86 14962C9283.2 14934 9271.86 14903 9269.86 14869H9410.86C9413.53 14890.3 9423.86 14908 9441.86 14922C9460.53 14936 9483.53 14943 9510.86 14943C9537.53 14943 9558.2 14937.7 9572.86 14927C9588.2 14916.3 9595.86 14902.7 9595.86 14886C9595.86 14868 9586.53 14854.7 9567.86 14846C9549.86 14836.7 9520.86 14826.7 9480.86 14816C9439.53 14806 9405.53 14795.7 9378.86 14785C9352.86 14774.3 9330.2 14758 9310.86 14736C9292.2 14714 9282.86 14684.3 9282.86 14647C9282.86 14616.3 9291.53 14588.3 9308.86 14563C9326.86 14537.7 9352.2 14517.7 9384.86 14503C9418.2 14488.3 9457.2 14481 9501.86 14481C9567.86 14481 9620.53 14497.7 9659.86 14531C9699.2 14563.7 9720.86 14608 9724.86 14664H9590.86C9588.86 14642 9579.53 14624.7 9562.86 14612C9546.86 14598.7 9525.2 14592 9497.86 14592C9472.53 14592 9452.86 14596.7 9438.86 14606C9425.53 14615.3 9418.86 14628.3 9418.86 14645C9418.86 14663.7 9428.2 14678 9446.86 14688C9465.53 14697.3 9494.53 14707 9533.86 14717C9573.86 14727 9606.86 14737.3 9632.86 14748C9658.86 14758.7 9681.2 14775.3 9699.86 14798C9719.2 14820 9729.2 14849.3 9729.86 14886C9729.86 14918 9720.86 14946.7 9702.86 14972C9685.53 14997.3 9660.2 15017.3 9626.86 15032C9594.2 15046 9555.86 15053 9511.86 15053ZM10140.8 15053C10087.5 15053 10039.5 15041.3 9996.79 15018C9954.12 14994 9920.45 14960.3 9895.79 14917C9871.79 14873.7 9859.79 14823.7 9859.79 14767C9859.79 14710.3 9872.12 14660.3 9896.79 14617C9922.12 14573.7 9956.45 14540.3 9999.79 14517C10043.1 14493 10091.5 14481 10144.8 14481C10198.1 14481 10246.5 14493 10289.8 14517C10333.1 14540.3 10367.1 14573.7 10391.8 14617C10417.1 14660.3 10429.8 14710.3 10429.8 14767C10429.8 14823.7 10416.8 14873.7 10390.8 14917C10365.5 14960.3 10330.8 14994 10286.8 15018C10243.5 15041.3 10194.8 15053 10140.8 15053ZM10140.8 14931C10166.1 14931 10189.8 14925 10211.8 14913C10234.5 14900.3 10252.5 14881.7 10265.8 14857C10279.1 14832.3 10285.8 14802.3 10285.8 14767C10285.8 14714.3 10271.8 14674 10243.8 14646C10216.5 14617.3 10182.8 14603 10142.8 14603C10102.8 14603 10069.1 14617.3 10041.8 14646C10015.1 14674 10001.8 14714.3 10001.8 14767C10001.8 14819.7 10014.8 14860.3 10040.8 14889C10067.5 14917 10100.8 14931 10140.8 14931ZM10889.5 14482C10955.5 14482 11008.8 14503 11049.5 14545C11090.1 14586.3 11110.5 14644.3 11110.5 14719V15044H10970.5V14738C10970.5 14694 10959.5 14660.3 10937.5 14637C10915.5 14613 10885.5 14601 10847.5 14601C10808.8 14601 10778.1 14613 10755.5 14637C10733.5 14660.3 10722.5 14694 10722.5 14738V15044H10582.5V14490H10722.5V14559C10741.1 14535 10764.8 14516.3 10793.5 14503C10822.8 14489 10854.8 14482 10889.5 14482ZM11505.6 15053C11460.3 15053 11419.6 15045 11383.6 15029C11347.6 15012.3 11318.9 14990 11297.6 14962C11276.9 14934 11265.6 14903 11263.6 14869H11404.6C11407.3 14890.3 11417.6 14908 11435.6 14922C11454.3 14936 11477.3 14943 11504.6 14943C11531.3 14943 11551.9 14937.7 11566.6 14927C11581.9 14916.3 11589.6 14902.7 11589.6 14886C11589.6 14868 11580.3 14854.7 11561.6 14846C11543.6 14836.7 11514.6 14826.7 11474.6 14816C11433.3 14806 11399.3 14795.7 11372.6 14785C11346.6 14774.3 11323.9 14758 11304.6 14736C11285.9 14714 11276.6 14684.3 11276.6 14647C11276.6 14616.3 11285.3 14588.3 11302.6 14563C11320.6 14537.7 11345.9 14517.7 11378.6 14503C11411.9 14488.3 11450.9 14481 11495.6 14481C11561.6 14481 11614.3 14497.7 11653.6 14531C11692.9 14563.7 11714.6 14608 11718.6 14664H11584.6C11582.6 14642 11573.3 14624.7 11556.6 14612C11540.6 14598.7 11518.9 14592 11491.6 14592C11466.3 14592 11446.6 14596.7 11432.6 14606C11419.3 14615.3 11412.6 14628.3 11412.6 14645C11412.6 14663.7 11421.9 14678 11440.6 14688C11459.3 14697.3 11488.3 14707 11527.6 14717C11567.6 14727 11600.6 14737.3 11626.6 14748C11652.6 14758.7 11674.9 14775.3 11693.6 14798C11712.9 14820 11722.9 14849.3 11723.6 14886C11723.6 14918 11714.6 14946.7 11696.6 14972C11679.3 14997.3 11653.9 15017.3 11620.6 15032C11587.9 15046 11549.6 15053 11505.6 15053ZM12332.8 15165H12191.8V14236H12332.8V15165ZM12790.7 14444V14315H13031.7V15044H12887.7V14444H12790.7ZM13598 14497C13591.3 14469 13579.7 14448 13563 14434C13547 14420 13523.7 14413 13493 14413C13447 14413 13413 14431.7 13391 14469C13369.7 14505.7 13358.7 14565.7 13358 14649C13374 14622.3 13397.3 14601.7 13428 14587C13458.7 14571.7 13492 14564 13528 14564C13571.3 14564 13609.7 14573.3 13643 14592C13676.3 14610.7 13702.3 14638 13721 14674C13739.7 14709.3 13749 14752 13749 14802C13749 14849.3 13739.3 14891.7 13720 14929C13701.3 14965.7 13673.7 14994.3 13637 15015C13600.3 15035.7 13556.7 15046 13506 15046C13436.7 15046 13382 15030.7 13342 15000C13302.7 14969.3 13275 14926.7 13259 14872C13243.7 14816.7 13236 14748.7 13236 14668C13236 14546 13257 14454 13299 14392C13341 14329.3 13407.3 14298 13498 14298C13568 14298 13622.3 14317 13661 14355C13699.7 14393 13722 14440.3 13728 14497H13598ZM13496 14679C13460.7 14679 13431 14689.3 13407 14710C13383 14730.7 13371 14760.7 13371 14800C13371 14839.3 13382 14870.3 13404 14893C13426.7 14915.7 13458.3 14927 13499 14927C13535 14927 13563.3 14916 13584 14894C13605.3 14872 13616 14842.3 13616 14805C13616 14766.3 13605.7 14735.7 13585 14713C13565 14690.3 13535.3 14679 13496 14679ZM14525.9 14482C14567.9 14482 14605.3 14491.3 14637.9 14510C14670.6 14528 14695.9 14555 14713.9 14591C14732.6 14626.3 14741.9 14669 14741.9 14719V15044H14601.9V14738C14601.9 14694 14590.9 14660.3 14568.9 14637C14546.9 14613 14516.9 14601 14478.9 14601C14440.3 14601 14409.6 14613 14386.9 14637C14364.9 14660.3 14353.9 14694 14353.9 14738V15044H14213.9V14304H14353.9V14559C14371.9 14535 14395.9 14516.3 14425.9 14503C14455.9 14489 14489.3 14482 14525.9 14482ZM15171.1 15053C15117.7 15053 15069.7 15041.3 15027.1 15018C14984.4 14994 14950.7 14960.3 14926.1 14917C14902.1 14873.7 14890.1 14823.7 14890.1 14767C14890.1 14710.3 14902.4 14660.3 14927.1 14617C14952.4 14573.7 14986.7 14540.3 15030.1 14517C15073.4 14493 15121.7 14481 15175.1 14481C15228.4 14481 15276.7 14493 15320.1 14517C15363.4 14540.3 15397.4 14573.7 15422.1 14617C15447.4 14660.3 15460.1 14710.3 15460.1 14767C15460.1 14823.7 15447.1 14873.7 15421.1 14917C15395.7 14960.3 15361.1 14994 15317.1 15018C15273.7 15041.3 15225.1 15053 15171.1 15053ZM15171.1 14931C15196.4 14931 15220.1 14925 15242.1 14913C15264.7 14900.3 15282.7 14881.7 15296.1 14857C15309.4 14832.3 15316.1 14802.3 15316.1 14767C15316.1 14714.3 15302.1 14674 15274.1 14646C15246.7 14617.3 15213.1 14603 15173.1 14603C15133.1 14603 15099.4 14617.3 15072.1 14646C15045.4 14674 15032.1 14714.3 15032.1 14767C15032.1 14819.7 15045.1 14860.3 15071.1 14889C15097.7 14917 15131.1 14931 15171.1 14931ZM16135.8 14490V15044H15994.8V14974C15976.8 14998 15953.1 15017 15923.8 15031C15895.1 15044.3 15863.8 15051 15829.8 15051C15786.4 15051 15748.1 15042 15714.8 15024C15681.4 15005.3 15655.1 14978.3 15635.8 14943C15617.1 14907 15607.8 14864.3 15607.8 14815V14490H15747.8V14795C15747.8 14839 15758.8 14873 15780.8 14897C15802.8 14920.3 15832.8 14932 15870.8 14932C15909.4 14932 15939.8 14920.3 15961.8 14897C15983.8 14873 15994.8 14839 15994.8 14795V14490H16135.8ZM16463.9 14576C16481.9 14546.7 16505.2 14523.7 16533.9 14507C16563.2 14490.3 16596.6 14482 16633.9 14482V14629H16596.9C16552.9 14629 16519.6 14639.3 16496.9 14660C16474.9 14680.7 16463.9 14716.7 16463.9 14768V15044H16323.9V14490H16463.9V14576ZM16990.2 15053C16944.9 15053 16904.2 15045 16868.2 15029C16832.2 15012.3 16803.5 14990 16782.2 14962C16761.5 14934 16750.2 14903 16748.2 14869H16889.2C16891.9 14890.3 16902.2 14908 16920.2 14922C16938.9 14936 16961.9 14943 16989.2 14943C17015.9 14943 17036.5 14937.7 17051.2 14927C17066.5 14916.3 17074.2 14902.7 17074.2 14886C17074.2 14868 17064.9 14854.7 17046.2 14846C17028.2 14836.7 16999.2 14826.7 16959.2 14816C16917.9 14806 16883.9 14795.7 16857.2 14785C16831.2 14774.3 16808.5 14758 16789.2 14736C16770.5 14714 16761.2 14684.3 16761.2 14647C16761.2 14616.3 16769.9 14588.3 16787.2 14563C16805.2 14537.7 16830.5 14517.7 16863.2 14503C16896.5 14488.3 16935.5 14481 16980.2 14481C17046.2 14481 17098.9 14497.7 17138.2 14531C17177.5 14563.7 17199.2 14608 17203.2 14664H17069.2C17067.2 14642 17057.9 14624.7 17041.2 14612C17025.2 14598.7 17003.5 14592 16976.2 14592C16950.9 14592 16931.2 14596.7 16917.2 14606C16903.9 14615.3 16897.2 14628.3 16897.2 14645C16897.2 14663.7 16906.5 14678 16925.2 14688C16943.9 14697.3 16972.9 14707 17012.2 14717C17052.2 14727 17085.2 14737.3 17111.2 14748C17137.2 14758.7 17159.5 14775.3 17178.2 14798C17197.5 14820 17207.5 14849.3 17208.2 14886C17208.2 14918 17199.2 14946.7 17181.2 14972C17163.9 14997.3 17138.5 15017.3 17105.2 15032C17072.5 15046 17034.2 15053 16990.2 15053Z" fill="#DDDDDD"/>
<path d="M11949.5 5876.28C11944.9 5861.82 11935.2 5849.23 11922 5840.49C11908.9 5831.75 11893 5827.35 11876.9 5828H10714.1C10698 5827.35 10682.1 5831.75 10669 5840.49C10655.8 5849.23 10646.1 5861.82 10641.5 5876.28L10423.4 6556.28H12167.6L11949.5 5876.28Z" fill="#93A8A9"/>
<path d="M9328.27 5964C9268.04 5960.15 9211.87 5934.2 9171.99 5891.79C9132.11 5849.38 9111.75 5793.95 9115.34 5737.56V2926.44C9111.75 2870.05 9132.11 2814.62 9171.99 2772.21C9211.87 2729.8 9268.04 2703.85 9328.27 2700H13262.7C13323 2703.85 13379.1 2729.8 13419 2772.21C13458.9 2814.62 13479.2 2870.05 13475.7 2926.44V5728.04C13475 5759.71 13467.7 5790.95 13454.1 5819.96C13440.5 5848.98 13420.9 5875.2 13396.5 5897.12C13372 5919.04 13343.2 5936.23 13311.6 5947.71C13280.1 5959.19 13246.4 5964.72 13212.6 5964H9328.27Z" fill="#D5E1DD"/>
<path d="M13475.7 5148V5692C13479.2 5760.69 13453.5 5827.89 13404.2 5878.88C13354.9 5929.87 13286 5960.48 13212.6 5964H9329C9210.54 5964 9115.34 5847.04 9115.34 5702.88V5148H13475.7Z" fill="#31464F"/>
<path d="M12748.9 6508H9842.06V6644H12748.9V6508Z" fill="#4C5870"/>
<path d="M11295.5 5760C11415.9 5760 11513.5 5668.67 11513.5 5556C11513.5 5443.33 11415.9 5352 11295.5 5352C11175.1 5352 11077.5 5443.33 11077.5 5556C11077.5 5668.67 11175.1 5760 11295.5 5760Z" fill="#7ACFD6"/>
<path d="M10641.5 3414H10586.2C10579 3414.06 10572 3412.08 10566 3408.31C10560 3404.55 10555.4 3399.18 10552.8 3392.92C10549.9 3386.77 10549.2 3379.95 10550.6 3373.38C10552 3366.81 10555.6 3360.81 10560.8 3356.2L10599.3 3319.48C10612.8 3306.74 10620.4 3289.5 10620.4 3271.54C10620.4 3253.58 10612.8 3236.34 10599.3 3223.6L10445.2 3079.44C10431.6 3066.77 10413.2 3059.67 10394 3059.67C10374.8 3059.67 10356.4 3066.77 10342.8 3079.44L10303.5 3115.48C10298.6 3120.35 10292.2 3123.68 10285.2 3125.01C10278.1 3126.35 10270.9 3125.64 10264.3 3122.96C10257.6 3120.49 10251.9 3116.17 10247.8 3110.59C10243.8 3105.01 10241.7 3098.41 10241.8 3091.68V3040C10241.8 3021.97 10234.1 3004.67 10220.5 2991.92C10206.8 2979.16 10188.4 2972 10169.1 2972H9951.07C9931.8 2972 9913.31 2979.16 9899.68 2991.92C9886.05 3004.67 9878.4 3021.97 9878.4 3040V3091.68C9878.46 3098.41 9876.34 3105.01 9872.32 3110.59C9868.3 3116.17 9862.56 3120.49 9855.87 3122.96C9849.3 3125.64 9842.01 3126.35 9834.99 3125.01C9827.97 3123.68 9821.56 3120.35 9816.63 3115.48L9777.38 3079.44C9763.77 3066.77 9745.35 3059.67 9726.15 3059.67C9706.95 3059.67 9688.53 3066.77 9674.92 3079.44L9520.85 3223.6C9507.32 3236.34 9499.72 3253.58 9499.72 3271.54C9499.72 3289.5 9507.32 3306.74 9520.85 3319.48L9559.37 3356.2C9564.57 3360.81 9568.13 3366.81 9569.56 3373.38C9570.99 3379.95 9570.22 3386.77 9567.36 3392.92C9564.72 3399.18 9560.11 3404.55 9554.14 3408.31C9548.18 3412.08 9541.13 3414.06 9533.93 3414H9478.7C9459.43 3414 9440.94 3421.16 9427.32 3433.92C9413.69 3446.67 9406.03 3463.97 9406.03 3482V3686C9406.03 3704.03 9413.69 3721.33 9427.32 3734.08C9440.94 3746.84 9459.43 3754 9478.7 3754H9533.93C9541.13 3753.94 9548.18 3755.92 9554.14 3759.69C9560.11 3763.45 9564.72 3768.82 9567.36 3775.08C9570.22 3781.23 9570.99 3788.05 9569.56 3794.62C9568.13 3801.19 9564.57 3807.19 9559.37 3811.8L9520.85 3848.52C9513.99 3854.82 9508.52 3862.33 9504.78 3870.62C9501.04 3878.9 9499.09 3887.8 9499.05 3896.8C9499.32 3914.74 9507.16 3931.85 9520.85 3944.4L9674.92 4088.56C9688.53 4101.23 9706.95 4108.33 9726.15 4108.33C9745.35 4108.33 9763.77 4101.23 9777.38 4088.56L9816.63 4052.52C9821.56 4047.65 9827.97 4044.32 9834.99 4042.99C9842.01 4041.65 9849.3 4042.36 9855.87 4045.04C9862.56 4047.51 9868.3 4051.83 9872.32 4057.41C9876.34 4062.99 9878.46 4069.59 9878.4 4076.32V4128C9878.4 4146.03 9886.05 4163.33 9899.68 4176.08C9913.31 4188.84 9931.8 4196 9951.07 4196H10169.1C10188.4 4196 10206.8 4188.84 10220.5 4176.08C10234.1 4163.33 10241.8 4146.03 10241.8 4128V4076.32C10241.7 4069.59 10243.8 4062.99 10247.8 4057.41C10251.9 4051.83 10257.6 4047.51 10264.3 4045.04C10270.8 4042.15 10278.2 4041.32 10285.2 4042.67C10292.3 4044.02 10298.7 4047.48 10303.5 4052.52L10342.8 4088.56C10356.4 4101.23 10374.8 4108.33 10394 4108.33C10413.2 4108.33 10431.6 4101.23 10445.2 4088.56L10599.3 3944.4C10613 3931.85 10620.8 3914.74 10621.1 3896.8C10621.1 3887.8 10619.1 3878.9 10615.4 3870.62C10611.6 3862.33 10606.2 3854.82 10599.3 3848.52L10560.8 3811.8C10555.6 3807.19 10552 3801.19 10550.6 3794.62C10549.2 3788.05 10549.9 3781.23 10552.8 3775.08C10555.4 3768.82 10560 3763.45 10566 3759.69C10572 3755.92 10579 3753.94 10586.2 3754H10641.5C10660.7 3754 10679.2 3746.84 10692.8 3734.08C10706.5 3721.33 10714.1 3704.03 10714.1 3686V3482C10714.1 3463.97 10706.5 3446.67 10692.8 3433.92C10679.2 3421.16 10660.7 3414 10641.5 3414Z" fill="#31464F"/>
<path d="M10060.1 3856C10220.6 3856 10350.8 3734.22 10350.8 3584C10350.8 3433.78 10220.6 3312 10060.1 3312C9899.54 3312 9769.39 3433.78 9769.39 3584C9769.39 3734.22 9899.54 3856 10060.1 3856Z" fill="#7CA2A1"/>
<path d="M13112.3 4196H11949.5C11909.4 4196 11876.9 4226.44 11876.9 4264V4944C11876.9 4981.56 11909.4 5012 11949.5 5012H13112.3C13152.4 5012 13185 4981.56 13185 4944V4264C13185 4226.44 13152.4 4196 13112.3 4196Z" fill="#ED8A3F"/>
<path d="M12894.3 3380H11150.2V3516H12894.3V3380Z" fill="#005995"/>
<path d="M13039.6 3652H10859.5V3788H13039.6V3652Z" fill="#005995"/>
<path d="M11586.2 4468H10132.8V4604H11586.2V4468Z" fill="#003A6F"/>
<path d="M11731.5 4740H9696.72V4876H11731.5V4740Z" fill="#003A6F"/>
<path d="M6428.88 8290.4L6194.88 9128H5996.88L5839.68 8531.6L5675.28 9128L5478.48 9129.2L5252.88 8290.4H5432.88L5580.48 8940.8L5750.88 8290.4H5938.08L6098.88 8937.2L6247.68 8290.4H6428.88ZM7216.57 8781.2C7216.57 8805.2 7214.97 8826.8 7211.77 8846H6725.77C6729.77 8894 6746.57 8931.6 6776.17 8958.8C6805.77 8986 6842.17 8999.6 6885.37 8999.6C6947.77 8999.6 6992.17 8972.8 7018.57 8919.2H7199.77C7180.57 8983.2 7143.77 9036 7089.37 9077.6C7034.97 9118.4 6968.17 9138.8 6888.97 9138.8C6824.97 9138.8 6767.37 9124.8 6716.17 9096.8C6665.77 9068 6626.17 9027.6 6597.37 8975.6C6569.37 8923.6 6555.37 8863.6 6555.37 8795.6C6555.37 8726.8 6569.37 8666.4 6597.37 8614.4C6625.37 8562.4 6664.57 8522.4 6714.97 8494.4C6765.37 8466.4 6823.37 8452.4 6888.97 8452.4C6952.17 8452.4 7008.57 8466 7058.17 8493.2C7108.57 8520.4 7147.37 8559.2 7174.57 8609.6C7202.57 8659.2 7216.57 8716.4 7216.57 8781.2ZM7042.57 8733.2C7041.77 8690 7026.17 8655.6 6995.77 8630C6965.37 8603.6 6928.17 8590.4 6884.17 8590.4C6842.57 8590.4 6807.37 8603.2 6778.57 8628.8C6750.57 8653.6 6733.37 8688.4 6726.97 8733.2H7042.57ZM7567.2 8560.4C7588.8 8528.4 7618.4 8502.4 7656 8482.4C7694.4 8462.4 7738 8452.4 7786.8 8452.4C7843.6 8452.4 7894.8 8466.4 7940.4 8494.4C7986.8 8522.4 8023.2 8562.4 8049.6 8614.4C8076.8 8665.6 8090.4 8725.2 8090.4 8793.2C8090.4 8861.2 8076.8 8921.6 8049.6 8974.4C8023.2 9026.4 7986.8 9066.8 7940.4 9095.6C7894.8 9124.4 7843.6 9138.8 7786.8 9138.8C7737.2 9138.8 7693.6 9129.2 7656 9110C7619.2 9090 7589.6 9064.4 7567.2 9033.2V9128H7399.2V8240H7567.2V8560.4ZM7918.8 8793.2C7918.8 8753.2 7910.4 8718.8 7893.6 8690C7877.6 8660.4 7856 8638 7828.8 8622.8C7802.4 8607.6 7773.6 8600 7742.4 8600C7712 8600 7683.2 8608 7656 8624C7629.6 8639.2 7608 8661.6 7591.2 8691.2C7575.2 8720.8 7567.2 8755.6 7567.2 8795.6C7567.2 8835.6 7575.2 8870.4 7591.2 8900C7608 8929.6 7629.6 8952.4 7656 8968.4C7683.2 8983.6 7712 8991.2 7742.4 8991.2C7773.6 8991.2 7802.4 8983.2 7828.8 8967.2C7856 8951.2 7877.6 8928.4 7893.6 8898.8C7910.4 8869.2 7918.8 8834 7918.8 8793.2ZM8911.22 8290.4C8999.22 8290.4 9076.42 8307.6 9142.82 8342C9210.02 8376.4 9261.62 8425.6 9297.62 8489.6C9334.42 8552.8 9352.82 8626.4 9352.82 8710.4C9352.82 8794.4 9334.42 8868 9297.62 8931.2C9261.62 8993.6 9210.02 9042 9142.82 9076.4C9076.42 9110.8 8999.22 9128 8911.22 9128H8618.42V8290.4H8911.22ZM8905.22 8985.2C8993.22 8985.2 9061.22 8961.2 9109.22 8913.2C9157.22 8865.2 9181.22 8797.6 9181.22 8710.4C9181.22 8623.2 9157.22 8555.2 9109.22 8506.4C9061.22 8456.8 8993.22 8432 8905.22 8432H8786.42V8985.2H8905.22ZM10156.6 8781.2C10156.6 8805.2 10155 8826.8 10151.8 8846H9665.77C9669.77 8894 9686.57 8931.6 9716.17 8958.8C9745.77 8986 9782.17 8999.6 9825.37 8999.6C9887.77 8999.6 9932.17 8972.8 9958.57 8919.2H10139.8C10120.6 8983.2 10083.8 9036 10029.4 9077.6C9974.97 9118.4 9908.17 9138.8 9828.97 9138.8C9764.97 9138.8 9707.37 9124.8 9656.17 9096.8C9605.77 9068 9566.17 9027.6 9537.37 8975.6C9509.37 8923.6 9495.37 8863.6 9495.37 8795.6C9495.37 8726.8 9509.37 8666.4 9537.37 8614.4C9565.37 8562.4 9604.57 8522.4 9654.97 8494.4C9705.37 8466.4 9763.37 8452.4 9828.97 8452.4C9892.17 8452.4 9948.57 8466 9998.17 8493.2C10048.6 8520.4 10087.4 8559.2 10114.6 8609.6C10142.6 8659.2 10156.6 8716.4 10156.6 8781.2ZM9982.57 8733.2C9981.77 8690 9966.17 8655.6 9935.77 8630C9905.37 8603.6 9868.17 8590.4 9824.17 8590.4C9782.57 8590.4 9747.37 8603.2 9718.57 8628.8C9690.57 8653.6 9673.37 8688.4 9666.97 8733.2H9982.57ZM10616.4 8973.2L10784.4 8463.2H10963.2L10717.2 9128H10513.2L10268.4 8463.2H10448.4L10616.4 8973.2ZM11735.6 8781.2C11735.6 8805.2 11734 8826.8 11730.8 8846H11244.8C11248.8 8894 11265.6 8931.6 11295.2 8958.8C11324.8 8986 11361.2 8999.6 11404.4 8999.6C11466.8 8999.6 11511.2 8972.8 11537.6 8919.2H11718.8C11699.6 8983.2 11662.8 9036 11608.4 9077.6C11554 9118.4 11487.2 9138.8 11408 9138.8C11344 9138.8 11286.4 9124.8 11235.2 9096.8C11184.8 9068 11145.2 9027.6 11116.4 8975.6C11088.4 8923.6 11074.4 8863.6 11074.4 8795.6C11074.4 8726.8 11088.4 8666.4 11116.4 8614.4C11144.4 8562.4 11183.6 8522.4 11234 8494.4C11284.4 8466.4 11342.4 8452.4 11408 8452.4C11471.2 8452.4 11527.6 8466 11577.2 8493.2C11627.6 8520.4 11666.4 8559.2 11693.6 8609.6C11721.6 8659.2 11735.6 8716.4 11735.6 8781.2ZM11561.6 8733.2C11560.8 8690 11545.2 8655.6 11514.8 8630C11484.4 8603.6 11447.2 8590.4 11403.2 8590.4C11361.6 8590.4 11326.4 8603.2 11297.6 8628.8C11269.6 8653.6 11252.4 8688.4 11246 8733.2H11561.6ZM12086.2 8240V9128H11918.2V8240H12086.2ZM12607.4 9138.8C12543.4 9138.8 12485.8 9124.8 12434.6 9096.8C12383.4 9068 12343 9027.6 12313.4 8975.6C12284.6 8923.6 12270.2 8863.6 12270.2 8795.6C12270.2 8727.6 12285 8667.6 12314.6 8615.6C12345 8563.6 12386.2 8523.6 12438.2 8495.6C12490.2 8466.8 12548.2 8452.4 12612.2 8452.4C12676.2 8452.4 12734.2 8466.8 12786.2 8495.6C12838.2 8523.6 12879 8563.6 12908.6 8615.6C12939 8667.6 12954.2 8727.6 12954.2 8795.6C12954.2 8863.6 12938.6 8923.6 12907.4 8975.6C12877 9027.6 12835.4 9068 12782.6 9096.8C12730.6 9124.8 12672.2 9138.8 12607.4 9138.8ZM12607.4 8992.4C12637.8 8992.4 12666.2 8985.2 12692.6 8970.8C12719.8 8955.6 12741.4 8933.2 12757.4 8903.6C12773.4 8874 12781.4 8838 12781.4 8795.6C12781.4 8732.4 12764.6 8684 12731 8650.4C12698.2 8616 12657.8 8598.8 12609.8 8598.8C12561.8 8598.8 12521.4 8616 12488.6 8650.4C12456.6 8684 12440.6 8732.4 12440.6 8795.6C12440.6 8858.8 12456.2 8907.6 12487.4 8942C12519.4 8975.6 12559.4 8992.4 12607.4 8992.4ZM13305.4 8559.2C13327 8528.8 13356.6 8503.6 13394.2 8483.6C13432.6 8462.8 13476.2 8452.4 13525 8452.4C13581.8 8452.4 13633 8466.4 13678.6 8494.4C13725 8522.4 13761.4 8562.4 13787.8 8614.4C13815 8665.6 13828.6 8725.2 13828.6 8793.2C13828.6 8861.2 13815 8921.6 13787.8 8974.4C13761.4 9026.4 13725 9066.8 13678.6 9095.6C13633 9124.4 13581.8 9138.8 13525 9138.8C13476.2 9138.8 13433 9128.8 13395.4 9108.8C13358.6 9088.8 13328.6 9063.6 13305.4 9033.2V9444.8H13137.4V8463.2H13305.4V8559.2ZM13657 8793.2C13657 8753.2 13648.6 8718.8 13631.8 8690C13615.8 8660.4 13594.2 8638 13567 8622.8C13540.6 8607.6 13511.8 8600 13480.6 8600C13450.2 8600 13421.4 8608 13394.2 8624C13367.8 8639.2 13346.2 8661.6 13329.4 8691.2C13313.4 8720.8 13305.4 8755.6 13305.4 8795.6C13305.4 8835.6 13313.4 8870.4 13329.4 8900C13346.2 8929.6 13367.8 8952.4 13394.2 8968.4C13421.4 8983.6 13450.2 8991.2 13480.6 8991.2C13511.8 8991.2 13540.6 8983.2 13567 8967.2C13594.2 8951.2 13615.8 8928.4 13631.8 8898.8C13648.6 8869.2 13657 8834 13657 8793.2ZM14836.3 8453.6C14917.9 8453.6 14983.5 8478.8 15033.1 8529.2C15083.5 8578.8 15108.7 8648.4 15108.7 8738V9128H14940.7V8760.8C14940.7 8708.8 14927.5 8669.2 14901.1 8642C14874.7 8614 14838.7 8600 14793.1 8600C14747.5 8600 14711.1 8614 14683.9 8642C14657.5 8669.2 14644.3 8708.8 14644.3 8760.8V9128H14476.3V8760.8C14476.3 8708.8 14463.1 8669.2 14436.7 8642C14410.3 8614 14374.3 8600 14328.7 8600C14282.3 8600 14245.5 8614 14218.3 8642C14191.9 8669.2 14178.7 8708.8 14178.7 8760.8V9128H14010.7V8463.2H14178.7V8543.6C14200.3 8515.6 14227.9 8493.6 14261.5 8477.6C14295.9 8461.6 14333.5 8453.6 14374.3 8453.6C14426.3 8453.6 14472.7 8464.8 14513.5 8487.2C14554.3 8508.8 14585.9 8540 14608.3 8580.8C14629.9 8542.4 14661.1 8511.6 14701.9 8488.4C14743.5 8465.2 14788.3 8453.6 14836.3 8453.6ZM15946.1 8781.2C15946.1 8805.2 15944.5 8826.8 15941.3 8846H15455.3C15459.3 8894 15476.1 8931.6 15505.7 8958.8C15535.3 8986 15571.7 8999.6 15614.9 8999.6C15677.3 8999.6 15721.7 8972.8 15748.1 8919.2H15929.3C15910.1 8983.2 15873.3 9036 15818.9 9077.6C15764.5 9118.4 15697.7 9138.8 15618.5 9138.8C15554.5 9138.8 15496.9 9124.8 15445.7 9096.8C15395.3 9068 15355.7 9027.6 15326.9 8975.6C15298.9 8923.6 15284.9 8863.6 15284.9 8795.6C15284.9 8726.8 15298.9 8666.4 15326.9 8614.4C15354.9 8562.4 15394.1 8522.4 15444.5 8494.4C15494.9 8466.4 15552.9 8452.4 15618.5 8452.4C15681.7 8452.4 15738.1 8466 15787.7 8493.2C15838.1 8520.4 15876.9 8559.2 15904.1 8609.6C15932.1 8659.2 15946.1 8716.4 15946.1 8781.2ZM15772.1 8733.2C15771.3 8690 15755.7 8655.6 15725.3 8630C15694.9 8603.6 15657.7 8590.4 15613.7 8590.4C15572.1 8590.4 15536.9 8603.2 15508.1 8628.8C15480.1 8653.6 15462.9 8688.4 15456.5 8733.2H15772.1ZM16497.1 8453.6C16576.3 8453.6 16640.3 8478.8 16689.1 8529.2C16737.9 8578.8 16762.3 8648.4 16762.3 8738V9128H16594.3V8760.8C16594.3 8708 16581.1 8667.6 16554.7 8639.6C16528.3 8610.8 16492.3 8596.4 16446.7 8596.4C16400.3 8596.4 16363.5 8610.8 16336.3 8639.6C16309.9 8667.6 16296.7 8708 16296.7 8760.8V9128H16128.7V8463.2H16296.7V8546C16319.1 8517.2 16347.5 8494.8 16381.9 8478.8C16417.1 8462 16455.5 8453.6 16497.1 8453.6ZM17177.7 8601.2V8922.8C17177.7 8945.2 17182.9 8961.6 17193.3 8972C17204.5 8981.6 17222.9 8986.4 17248.5 8986.4H17326.5V9128H17220.9C17079.3 9128 17008.5 9059.2 17008.5 8921.6V8601.2H16929.3V8463.2H17008.5V8298.8H17177.7V8463.2H17326.5V8601.2H17177.7Z" fill="white"/>
<defs>
<filter id="filter0_d_411_139" x="7561" y="19268" width="6383" height="2329" filterUnits="userSpaceOnUse" color-interpolation-filters="sRGB">
<feFlood flood-opacity="0" result="BackgroundImageFix"/>
<feColorMatrix in="SourceAlpha" type="matrix" values="0 0 0 0 0 0 0 0 0 0 0 0 0 0 0 0 0 0 127 0" result="hardAlpha"/>
<feOffset dy="4"/>
<feGaussianBlur stdDeviation="2"/>
<feComposite in2="hardAlpha" operator="out"/>
<feColorMatrix type="matrix" values="0 0 0 0 0 0 0 0 0 0 0 0 0 0 0 0 0 0 0.25 0"/>
<feBlend mode="normal" in2="BackgroundImageFix" result="effect1_dropShadow_411_139"/>
<feBlend mode="normal" in="SourceGraphic" in2="effect1_dropShadow_411_139" result="shape"/>
</filter>
<linearGradient id="paint0_linear_411_139" x1="1733.41" y1="-2667.06" x2="1942.16" y2="25150.5" gradientUnits="userSpaceOnUse">
<stop offset="0.431077" stop-color="#001833"/>
<stop offset="1" stop-color="#203956" stop-opacity="0.46"/>
</linearGradient>
</defs>
</svg>
