<svg width="22592" height="24881" viewBox="0 0 22592 24881" fill="none" xmlns="http://www.w3.org/2000/svg">
<path d="M0 899.999C0 402.943 402.944 0 900 0H21692C22189.1 0 22592 402.944 22592 900V23981C22592 24478.1 22189.1 24881 21692 24881H900C402.944 24881 0 24478.1 0 23981V899.999Z" fill="url(#paint0_linear_411_139)" fill-opacity="0.991525"/>
<ellipse cx="20577.4" cy="9630.95" rx="28.3956" ry="22.9524" fill="#D9D9D9"/>
<ellipse cx="20634.4" cy="4694.95" rx="28.3956" ry="22.9524" fill="#D9D9D9"/>
<ellipse cx="19068.4" cy="1224.95" rx="28.3956" ry="22.9524" fill="#D9D9D9"/>
<ellipse cx="17393.4" cy="6411.95" rx="28.3956" ry="22.9524" fill="#D9D9D9"/>
<ellipse cx="1818.4" cy="2518.95" rx="28.3956" ry="22.9524" fill="#D9D9D9"/>
<ellipse cx="1875.4" cy="8684.95" rx="28.3956" ry="22.9524" fill="#D9D9D9"/>
<ellipse cx="7348.31" cy="10290.5" rx="22.3108" ry="23.474" fill="white"/>
<ellipse cx="4418.31" cy="5326.47" rx="22.3108" ry="23.474" fill="white"/>
<ellipse cx="15055.3" cy="1178.47" rx="22.3108" ry="23.474" fill="white"/>
<ellipse cx="6039.31" cy="1130" rx="22.3108" ry="24.9957" fill="white"/>
<rect y="11107" width="22592" height="349" rx="100" fill="#667FD7"/>
<path d="M9924.53 20639L9816.73 20448.6H9770.53V20639H9672.53V20150.4H9855.93C9893.73 20150.4 9925.93 20157.2 9952.53 20170.7C9979.13 20183.8 9998.96 20201.7 10012 20224.6C10025.6 20247 10032.3 20272.2 10032.3 20300.2C10032.3 20332.4 10023 20361.6 10004.3 20387.7C9985.66 20413.4 9957.9 20431.1 9921.03 20440.9L10037.9 20639H9924.53ZM9770.53 20375.1H9852.43C9879.03 20375.1 9898.86 20368.8 9911.93 20356.2C9925 20343.1 9931.53 20325.2 9931.53 20302.3C9931.53 20279.9 9925 20262.6 9911.93 20250.5C9898.86 20237.9 9879.03 20231.6 9852.43 20231.6H9770.53V20375.1ZM10269.4 20645.3C10237.6 20645.3 10209.2 20639.7 10184 20628.5C10158.8 20616.8 10138.7 20601.2 10123.8 20581.6C10109.3 20562 10101.4 20540.3 10100 20516.5H10198.7C10200.5 20531.4 10207.8 20543.8 10220.4 20553.6C10233.4 20563.4 10249.5 20568.3 10268.7 20568.3C10287.3 20568.3 10301.8 20564.6 10312.1 20557.1C10322.8 20549.6 10328.2 20540.1 10328.2 20528.4C10328.2 20515.8 10321.6 20506.5 10308.6 20500.4C10296 20493.9 10275.7 20486.9 10247.7 20479.4C10218.7 20472.4 10194.9 20465.2 10176.3 20457.7C10158.1 20450.2 10142.2 20438.8 10128.7 20423.4C10115.6 20408 10109.1 20387.2 10109.1 20361.1C10109.1 20339.6 10115.1 20320 10127.3 20302.3C10139.9 20284.6 10157.6 20270.6 10180.5 20260.3C10203.8 20250 10231.1 20244.9 10262.4 20244.9C10308.6 20244.9 10345.4 20256.6 10373 20279.9C10400.5 20302.8 10415.7 20333.8 10418.5 20373H10324.7C10323.3 20357.6 10316.7 20345.5 10305.1 20336.6C10293.9 20327.3 10278.7 20322.6 10259.6 20322.6C10241.8 20322.6 10228.1 20325.9 10218.3 20332.4C10208.9 20338.9 10204.3 20348 10204.3 20359.7C10204.3 20372.8 10210.8 20382.8 10223.9 20389.8C10236.9 20396.3 10257.2 20403.1 10284.8 20410.1C10312.8 20417.1 10335.9 20424.3 10354.1 20431.8C10372.3 20439.3 10387.9 20450.9 10401 20466.8C10414.5 20482.2 10421.5 20502.7 10422 20528.4C10422 20550.8 10415.7 20570.9 10403.1 20588.6C10390.9 20606.3 10373.2 20620.3 10349.9 20630.6C10327 20640.4 10300.2 20645.3 10269.4 20645.3ZM10982.8 20202.9L10796.6 20639H10697.2L10884.8 20214.1H10645.4V20130.1H10982.8V20202.9ZM11154.9 20495.5C11158.6 20516 11167 20531.9 11180.1 20543.1C11193.6 20553.8 11211.6 20559.2 11234 20559.2C11262.9 20559.2 11283.9 20547.3 11297 20523.5C11310.1 20499.2 11316.6 20458.6 11316.6 20401.7C11305.9 20416.6 11290.7 20428.3 11271.1 20436.7C11252 20445.1 11231.2 20449.3 11208.8 20449.3C11178.9 20449.3 11151.9 20443.2 11127.6 20431.1C11103.8 20418.5 11084.9 20400.1 11070.9 20375.8C11056.9 20351.1 11049.9 20321.2 11049.9 20286.2C11049.9 20234.4 11065.3 20193.3 11096.1 20163C11126.9 20132.2 11168.9 20116.8 11222.1 20116.8C11288.4 20116.8 11335 20138 11362.1 20180.5C11389.6 20223 11403.4 20286.9 11403.4 20372.3C11403.4 20433 11398 20482.7 11387.3 20521.4C11377 20560.1 11359.1 20589.5 11333.4 20609.6C11308.2 20629.7 11273.7 20639.7 11229.8 20639.7C11195.3 20639.7 11165.9 20633.2 11141.6 20620.1C11117.3 20606.6 11098.7 20589.1 11085.6 20567.6C11073 20545.7 11065.8 20521.6 11063.9 20495.5H11154.9ZM11229.1 20369.5C11253.4 20369.5 11272.5 20362 11286.5 20347.1C11300.5 20332.2 11307.5 20312.1 11307.5 20286.9C11307.5 20259.4 11300 20238.1 11285.1 20223.2C11270.6 20207.8 11250.8 20200.1 11225.6 20200.1C11200.4 20200.1 11180.3 20208 11165.4 20223.9C11150.9 20239.3 11143.7 20259.8 11143.7 20285.5C11143.7 20310.2 11150.7 20330.5 11164.7 20346.4C11179.2 20361.8 11200.6 20369.5 11229.1 20369.5ZM11593.1 20495.5C11596.8 20516 11605.2 20531.9 11618.3 20543.1C11631.8 20553.8 11649.8 20559.2 11672.2 20559.2C11701.1 20559.2 11722.1 20547.3 11735.2 20523.5C11748.3 20499.2 11754.8 20458.6 11754.8 20401.7C11744.1 20416.6 11728.9 20428.3 11709.3 20436.7C11690.2 20445.1 11669.4 20449.3 11647 20449.3C11617.1 20449.3 11590.1 20443.2 11565.8 20431.1C11542 20418.5 11523.1 20400.1 11509.1 20375.8C11495.1 20351.1 11488.1 20321.2 11488.1 20286.2C11488.1 20234.4 11503.5 20193.3 11534.3 20163C11565.1 20132.2 11607.1 20116.8 11660.3 20116.8C11726.6 20116.8 11773.2 20138 11800.3 20180.5C11827.8 20223 11841.6 20286.9 11841.6 20372.3C11841.6 20433 11836.2 20482.7 11825.5 20521.4C11815.2 20560.1 11797.3 20589.5 11771.6 20609.6C11746.4 20629.7 11711.9 20639.7 11668 20639.7C11633.5 20639.7 11604.1 20633.2 11579.8 20620.1C11555.5 20606.6 11536.9 20589.1 11523.8 20567.6C11511.2 20545.7 11504 20521.6 11502.1 20495.5H11593.1ZM11667.3 20369.5C11691.6 20369.5 11710.7 20362 11724.7 20347.1C11738.7 20332.2 11745.7 20312.1 11745.7 20286.9C11745.7 20259.4 11738.2 20238.1 11723.3 20223.2C11708.8 20207.8 11689 20200.1 11663.8 20200.1C11638.6 20200.1 11618.5 20208 11603.6 20223.9C11589.1 20239.3 11581.9 20259.8 11581.9 20285.5C11581.9 20310.2 11588.9 20330.5 11602.9 20346.4C11617.4 20361.8 11638.8 20369.5 11667.3 20369.5Z" fill="#DDDDDD"/>
<g filter="url(#filter0_d_411_139)">
<rect x="7577.5" y="19280.5" width="6350" height="2296" rx="512.5" stroke="#DDDDDD" stroke-width="25" shape-rendering="crispEdges"/>
</g>
<path d="M5434.89 14886C5498.89 14832.7 5549.89 14788.3 5587.89 14753C5625.89 14717 5657.56 14679.7 5682.89 14641C5708.23 14602.3 5720.89 14564.3 5720.89 14527C5720.89 14493 5712.89 14466.3 5696.89 14447C5680.89 14427.7 5656.23 14418 5622.89 14418C5589.56 14418 5563.89 14429.3 5545.89 14452C5527.89 14474 5518.56 14504.3 5517.89 14543H5381.89C5384.56 14463 5408.23 14402.3 5452.89 14361C5498.23 14319.7 5555.56 14299 5624.89 14299C5700.89 14299 5759.23 14319.3 5799.89 14360C5840.56 14400 5860.89 14453 5860.89 14519C5860.89 14571 5846.89 14620.7 5818.89 14668C5790.89 14715.3 5758.89 14756.7 5722.89 14792C5686.89 14826.7 5639.89 14868.7 5581.89 14918H5876.89V15034H5382.89V14930L5434.89 14886ZM6505.11 14436H6181.11V14607C6195.11 14589.7 6215.11 14575.7 6241.11 14565C6267.11 14553.7 6294.78 14548 6324.11 14548C6377.45 14548 6421.11 14559.7 6455.11 14583C6489.11 14606.3 6513.78 14636.3 6529.11 14673C6544.45 14709 6552.11 14747.7 6552.11 14789C6552.11 14865.7 6530.11 14927.3 6486.11 14974C6442.78 15020.7 6380.78 15044 6300.11 15044C6224.11 15044 6163.45 15025 6118.11 14987C6072.78 14949 6047.11 14899.3 6041.11 14838H6177.11C6183.11 14864.7 6196.45 14886 6217.11 14902C6238.45 14918 6265.45 14926 6298.11 14926C6337.45 14926 6367.11 14913.7 6387.11 14889C6407.11 14864.3 6417.11 14831.7 6417.11 14791C6417.11 14749.7 6406.78 14718.3 6386.11 14697C6366.11 14675 6336.45 14664 6297.11 14664C6269.11 14664 6245.78 14671 6227.11 14685C6208.45 14699 6195.11 14717.7 6187.11 14741H6053.11V14313H6505.11V14436ZM6708.67 14670C6708.67 14554.7 6729.33 14464.3 6770.67 14399C6812.67 14333.7 6882 14301 6978.67 14301C7075.33 14301 7144.33 14333.7 7185.67 14399C7227.67 14464.3 7248.67 14554.7 7248.67 14670C7248.67 14786 7227.67 14877 7185.67 14943C7144.33 15009 7075.33 15042 6978.67 15042C6882 15042 6812.67 15009 6770.67 14943C6729.33 14877 6708.67 14786 6708.67 14670ZM7110.67 14670C7110.67 14620.7 7107.33 14579.3 7100.67 14546C7094.67 14512 7082 14484.3 7062.67 14463C7044 14441.7 7016 14431 6978.67 14431C6941.33 14431 6913 14441.7 6893.67 14463C6875 14484.3 6862.33 14512 6855.67 14546C6849.67 14579.3 6846.67 14620.7 6846.67 14670C6846.67 14720.7 6849.67 14763.3 6855.67 14798C6861.67 14832 6874.33 14859.7 6893.67 14881C6913 14901.7 6941.33 14912 6978.67 14912C7016 14912 7044.33 14901.7 7063.67 14881C7083 14859.7 7095.67 14832 7101.67 14798C7107.67 14763.3 7110.67 14720.7 7110.67 14670ZM7849.43 14304V15044H7709.43V14304H7849.43ZM8552.75 14755C8552.75 14775 8551.42 14793 8548.75 14809H8143.75C8147.09 14849 8161.09 14880.3 8185.75 14903C8210.42 14925.7 8240.75 14937 8276.75 14937C8328.75 14937 8365.75 14914.7 8387.75 14870H8538.75C8522.75 14923.3 8492.09 14967.3 8446.75 15002C8401.42 15036 8345.75 15053 8279.75 15053C8226.42 15053 8178.42 15041.3 8135.75 15018C8093.75 14994 8060.75 14960.3 8036.75 14917C8013.42 14873.7 8001.75 14823.7 8001.75 14767C8001.75 14709.7 8013.42 14659.3 8036.75 14616C8060.09 14572.7 8092.75 14539.3 8134.75 14516C8176.75 14492.7 8225.09 14481 8279.75 14481C8332.42 14481 8379.42 14492.3 8420.75 14515C8462.75 14537.7 8495.09 14570 8517.75 14612C8541.09 14653.3 8552.75 14701 8552.75 14755ZM8407.75 14715C8407.09 14679 8394.09 14650.3 8368.75 14629C8343.42 14607 8312.42 14596 8275.75 14596C8241.09 14596 8211.75 14606.7 8187.75 14628C8164.42 14648.7 8150.09 14677.7 8144.75 14715H8407.75ZM8916.94 15053C8871.61 15053 8830.94 15045 8794.94 15029C8758.94 15012.3 8730.27 14990 8708.94 14962C8688.27 14934 8676.94 14903 8674.94 14869H8815.94C8818.61 14890.3 8828.94 14908 8846.94 14922C8865.61 14936 8888.61 14943 8915.94 14943C8942.61 14943 8963.27 14937.7 8977.94 14927C8993.27 14916.3 9000.94 14902.7 9000.94 14886C9000.94 14868 8991.61 14854.7 8972.94 14846C8954.94 14836.7 8925.94 14826.7 8885.94 14816C8844.61 14806 8810.61 14795.7 8783.94 14785C8757.94 14774.3 8735.27 14758 8715.94 14736C8697.27 14714 8687.94 14684.3 8687.94 14647C8687.94 14616.3 8696.61 14588.3 8713.94 14563C8731.94 14537.7 8757.27 14517.7 8789.94 14503C8823.27 14488.3 8862.27 14481 8906.94 14481C8972.94 14481 9025.61 14497.7 9064.94 14531C9104.27 14563.7 9125.94 14608 9129.94 14664H8995.94C8993.94 14642 8984.61 14624.7 8967.94 14612C8951.94 14598.7 8930.27 14592 8902.94 14592C8877.61 14592 8857.94 14596.7 8843.94 14606C8830.61 14615.3 8823.94 14628.3 8823.94 14645C8823.94 14663.7 8833.27 14678 8851.94 14688C8870.61 14697.3 8899.61 14707 8938.94 14717C8978.94 14727 9011.94 14737.3 9037.94 14748C9063.94 14758.7 9086.27 14775.3 9104.94 14798C9124.27 14820 9134.27 14849.3 9134.94 14886C9134.94 14918 9125.94 14946.7 9107.94 14972C9090.61 14997.3 9065.27 15017.3 9031.94 15032C8999.27 15046 8960.94 15053 8916.94 15053ZM9511.86 15053C9466.53 15053 9425.86 15045 9389.86 15029C9353.86 15012.3 9325.2 14990 9303.86 14962C9283.2 14934 9271.86 14903 9269.86 14869H9410.86C9413.53 14890.3 9423.86 14908 9441.86 14922C9460.53 14936 9483.53 14943 9510.86 14943C9537.53 14943 9558.2 14937.7 9572.86 14927C9588.2 14916.3 9595.86 14902.7 9595.86 14886C9595.86 14868 9586.53 14854.7 9567.86 14846C9549.86 14836.7 9520.86 14826.7 9480.86 14816C9439.53 14806 9405.53 14795.7 9378.86 14785C9352.86 14774.3 9330.2 14758 9310.86 14736C9292.2 14714 9282.86 14684.3 9282.86 14647C9282.86 14616.3 9291.53 14588.3 9308.86 14563C9326.86 14537.7 9352.2 14517.7 9384.86 14503C9418.2 14488.3 9457.2 14481 9501.86 14481C9567.86 14481 9620.53 14497.7 9659.86 14531C9699.2 14563.7 9720.86 14608 9724.86 14664H9590.86C9588.86 14642 9579.53 14624.7 9562.86 14612C9546.86 14598.7 9525.2 14592 9497.86 14592C9472.53 14592 9452.86 14596.7 9438.86 14606C9425.53 14615.3 9418.86 14628.3 9418.86 14645C9418.86 14663.7 9428.2 14678 9446.86 14688C9465.53 14697.3 9494.53 14707 9533.86 14717C9573.86 14727 9606.86 14737.3 9632.86 14748C9658.86 14758.7 9681.2 14775.3 9699.86 14798C9719.2 14820 9729.2 14849.3 9729.86 14886C9729.86 14918 9720.86 14946.7 9702.86 14972C9685.53 14997.3 9660.2 15017.3 9626.86 15032C9594.2 15046 9555.86 15053 9511.86 15053ZM10140.8 15053C10087.5 15053 10039.5 15041.3 9996.79 15018C9954.12 14994 9920.45 14960.3 9895.79 14917C9871.79 14873.7 9859.79 14823.7 9859.79 14767C9859.79 14710.3 9872.12 14660.3 9896.79 14617C9922.12 14573.7 9956.45 14540.3 9999.79 14517C10043.1 14493 10091.5 14481 10144.8 14481C10198.1 14481 10246.5 14493 10289.8 14517C10333.1 14540.3 10367.1 14573.7 10391.8 14617C10417.1 14660.3 10429.8 14710.3 10429.8 14767C10429.8 14823.7 10416.8 14873.7 10390.8 14917C10365.5 14960.3 10330.8 14994 10286.8 15018C10243.5 15041.3 10194.8 15053 10140.8 15053ZM10140.8 14931C10166.1 14931 10189.8 14925 10211.8 14913C10234.5 14900.3 10252.5 14881.7 10265.8 14857C10279.1 14832.3 10285.8 14802.3 10285.8 14767C10285.8 14714.3 10271.8 14674 10243.8 14646C10216.5 14617.3 10182.8 14603 10142.8 14603C10102.8 14603 10069.1 14617.3 10041.8 14646C10015.1 14674 10001.8 14714.3 10001.8 14767C10001.8 14819.7 10014.8 14860.3 10040.8 14889C10067.5 14917 10100.8 14931 10140.8 14931ZM10889.5 14482C10955.5 14482 11008.8 14503 11049.5 14545C11090.1 14586.3 11110.5 14644.3 11110.5 14719V15044H10970.5V14738C10970.5 14694 10959.5 14660.3 10937.5 14637C10915.5 14613 10885.5 14601 10847.5 14601C10808.8 14601 10778.1 14613 10755.5 14637C10733.5 14660.3 10722.5 14694 10722.5 14738V15044H10582.5V14490H10722.5V14559C10741.1 14535 10764.8 14516.3 10793.5 14503C10822.8 14489 10854.8 14482 10889.5 14482ZM11505.6 15053C11460.3 15053 11419.6 15045 11383.6 15029C11347.6 15012.3 11318.9 14990 11297.6 14962C11276.9 14934 11265.6 14903 11263.6 14869H11404.6C11407.3 14890.3 11417.6 14908 11435.6 14922C11454.3 14936 11477.3 14943 11504.6 14943C11531.3 14943 11551.9 14937.7 11566.6 14927C11581.9 14916.3 11589.6 14902.7 11589.6 14886C11589.6 14868 11580.3 14854.7 11561.6 14846C11543.6 14836.7 11514.6 14826.7 11474.6 14816C11433.3 14806 11399.3 14795.7 11372.6 14785C11346.6 14774.3 11323.9 14758 11304.6 14736C11285.9 14714 11276.6 14684.3 11276.6 14647C11276.6 14616.3 11285.3 14588.3 11302.6 14563C11320.6 14537.7 11345.9 14517.7 11378.6 14503C11411.9 14488.3 11450.9 14481 11495.6 14481C11561.6 14481 11614.3 14497.7 11653.6 14531C11692.9 14563.7 11714.6 14608 11718.6 14664H11584.6C11582.6 14642 11573.3 14624.7 11556.6 14612C11540.6 14598.7 11518.9 14592 11491.6 14592C11466.3 14592 11446.6 14596.7 11432.6 14606C11419.3 14615.3 11412.6 14628.3 11412.6 14645C11412.6 14663.7 11421.9 14678 11440.6 14688C11459.3 14697.3 11488.3 14707 11527.6 14717C11567.6 14727 11600.6 14737.3 11626.6 14748C11652.6 14758.7 11674.9 14775.3 11693.6 14798C11712.9 14820 11722.9 14849.3 11723.6 14886C11723.6 14918 11714.6 14946.7 11696.6 14972C11679.3 14997.3 11653.9 15017.3 11620.6 15032C11587.9 15046 11549.6 15053 11505.6 15053ZM12332.8 15165H12191.8V14236H12332.8V15165ZM12790.7 14444V14315H13031.7V15044H12887.7V14444H12790.7ZM13598 14497C13591.3 14469 13579.7 14448 13563 14434C13547 14420 13523.7 14413 13493 14413C13447 14413 13413 14431.7 13391 14469C13369.7 14505.7 13358.7 14565.7 13358 14649C13374 14622.3 13397.3 14601.7 13428 14587C13458.7 14571.7 13492 14564 13528 14564C13571.3 14564 13609.7 14573.3 13643 14592C13676.3 14610.7 13702.3 14638 13721 14674C13739.7 14709.3 13749 14752 13749 14802C13749 14849.3 13739.3 14891.7 13720 14929C13701.3 14965.7 13673.7 14994.3 13637 15015C13600.3 15035.7 13556.7 15046 13506 15046C13436.7 15046 13382 15030.7 13342 15000C13302.7 14969.3 13275 14926.7 13259 14872C13243.7 14816.7 13236 14748.7 13236 14668C13236 14546 13257 14454 13299 14392C13341 14329.3 13407.3 14298 13498 14298C13568 14298 13622.3 14317 13661 14355C13699.7 14393 13722 14440.3 13728 14497H13598ZM13496 14679C13460.7 14679 13431 14689.3 13407 14710C13383 14730.7 13371 14760.7 13371 14800C13371 14839.3 13382 14870.3 13404 14893C13426.7 14915.7 13458.3 14927 13499 14927C13535 14927 13563.3 14916 13584 14894C13605.3 14872 13616 14842.3 13616 14805C13616 14766.3 13605.7 14735.7 13585 14713C13565 14690.3 13535.3 14679 13496 14679ZM14525.9 14482C14567.9 14482 14605.3 14491.3 14637.9 14510C14670.6 14528 14695.9 14555 14713.9 14591C14732.6 14626.3 14741.9 14669 14741.9 14719V15044H14601.9V14738C14601.9 14694 14590.9 14660.3 14568.9 14637C14546.9 14613 14516.9 14601 14478.9 14601C14440.3 14601 14409.6 14613 14386.9 14637C14364.9 14660.3 14353.9 14694 14353.9 14738V15044H14213.9V14304H14353.9V14559C14371.9 14535 14395.9 14516.3 14425.9 14503C14455.9 14489 14489.3 14482 14525.9 14482ZM15171.1 15053C15117.7 15053 15069.7 15041.3 15027.1 15018C14984.4 14994 14950.7 14960.3 14926.1 14917C14902.1 14873.7 14890.1 14823.7 14890.1 14767C14890.1 14710.3 14902.4 14660.3 14927.1 14617C14952.4 14573.7 14986.7 14540.3 15030.1 14517C15073.4 14493 15121.7 14481 15175.1 14481C15228.4 14481 15276.7 14493 15320.1 14517C15363.4 14540.3 15397.4 14573.7 15422.1 14617C15447.4 14660.3 15460.1 14710.3 15460.1 14767C15460.1 14823.7 15447.1 14873.7 15421.1 14917C15395.7 14960.3 15361.1 14994 15317.1 15018C15273.7 15041.3 15225.1 15053 15171.1 15053ZM15171.1 14931C15196.4 14931 15220.1 14925 15242.1 14913C15264.7 14900.3 15282.7 14881.7 15296.1 14857C15309.4 14832.3 15316.1 14802.3 15316.1 14767C15316.1 14714.3 15302.1 14674 15274.1 14646C15246.7 14617.3 15213.1 14603 15173.1 14603C15133.1 14603 15099.4 14617.3 15072.1 14646C15045.4 14674 15032.1 14714.3 15032.1 14767C15032.1 14819.7 15045.1 14860.3 15071.1 14889C15097.7 14917 15131.1 14931 15171.1 14931ZM16135.8 14490V15044H15994.8V14974C15976.8 14998 15953.1 15017 15923.8 15031C15895.1 15044.3 15863.8 15051 15829.8 15051C15786.4 15051 15748.1 15042 15714.8 15024C15681.4 15005.3 15655.1 14978.3 15635.8 14943C15617.1 14907 15607.8 14864.3 15607.8 14815V14490H15747.8V14795C15747.8 14839 15758.8 14873 15780.8 14897C15802.8 14920.3 15832.8 14932 15870.8 14932C15909.4 14932 15939.8 14920.3 15961.8 14897C15983.8 14873 15994.8 14839 15994.8 14795V14490H16135.8ZM16463.9 14576C16481.9 14546.7 16505.2 14523.7 16533.9 14507C16563.2 14490.3 16596.6 14482 16633.9 14482V14629H16596.9C16552.9 14629 16519.6 14639.3 16496.9 14660C16474.9 14680.7 16463.9 14716.7 16463.9 14768V15044H16323.9V14490H16463.9V14576ZM16990.2 15053C16944.9 15053 16904.2 15045 16868.2 15029C16832.2 15012.3 16803.5 14990 16782.2 14962C16761.5 14934 16750.2 14903 16748.2 14869H16889.2C16891.9 14890.3 16902.2 14908 16920.2 14922C16938.9 14936 16961.9 14943 16989.2 14943C17015.9 14943 17036.5 14937.7 17051.2 14927C17066.5 14916.3 17074.2 14902.7 17074.2 14886C17074.2 14868 17064.9 14854.7 17046.2 14846C17028.2 14836.7 16999.2 14826.7 16959.2 14816C16917.9 14806 16883.9 14795.7 16857.2 14785C16831.2 14774.3 16808.5 14758 16789.2 14736C16770.5 14714 16761.2 14684.3 16761.2 14647C16761.2 14616.3 16769.9 14588.3 16787.2 14563C16805.2 14537.7 16830.5 14517.7 16863.2 14503C16896.5 14488.3 16935.5 14481 16980.2 14481C17046.2 14481 17098.9 14497.7 17138.2 14531C17177.5 14563.7 17199.2 14608 17203.2 14664H17069.2C17067.2 14642 17057.9 14624.7 17041.2 14612C17025.2 14598.7 17003.5 14592 16976.2 14592C16950.9 14592 16931.2 14596.7 16917.2 14606C16903.9 14615.3 16897.2 14628.3 16897.2 14645C16897.2 14663.7 16906.5 14678 16925.2 14688C16943.9 14697.3 16972.9 14707 17012.2 14717C17052.2 14727 17085.2 14737.3 17111.2 14748C17137.2 14758.7 17159.5 14775.3 17178.2 14798C17197.5 14820 17207.5 14849.3 17208.2 14886C17208.2 14918 17199.2 14946.7 17181.2 14972C17163.9 14997.3 17138.5 15017.3 17105.2 15032C17072.5 15046 17034.2 15053 16990.2 15053Z" fill="#DDDDDD"/>
<path d="M5482.43 8708C5482.43 8625.6 5500.83 8552 5537.63 8487.2C5575.23 8421.6 5626.03 8370.8 5690.03 8334.8C5754.83 8298 5827.23 8279.6 5907.23 8279.6C6000.83 8279.6 6082.83 8303.6 6153.23 8351.6C6223.63 8399.6 6272.83 8466 6300.83 8550.8H6107.63C6088.43 8510.8 6061.23 8480.8 6026.03 8460.8C5991.63 8440.8 5951.63 8430.8 5906.03 8430.8C5857.23 8430.8 5813.63 8442.4 5775.23 8465.6C5737.63 8488 5708.03 8520 5686.43 8561.6C5665.63 8603.2 5655.23 8652 5655.23 8708C5655.23 8763.2 5665.63 8812 5686.43 8854.4C5708.03 8896 5737.63 8928.4 5775.23 8951.6C5813.63 8974 5857.23 8985.2 5906.03 8985.2C5951.63 8985.2 5991.63 8975.2 6026.03 8955.2C6061.23 8934.4 6088.43 8904 6107.63 8864H6300.83C6272.83 8949.6 6223.63 9016.4 6153.23 9064.4C6083.63 9111.6 6001.63 9135.2 5907.23 9135.2C5827.23 9135.2 5754.83 9117.2 5690.03 9081.2C5626.03 9044.4 5575.23 8993.6 5537.63 8928.8C5500.83 8864 5482.43 8790.4 5482.43 8708ZM6672.32 8240V9128H6504.32V8240H6672.32ZM7193.51 9138.8C7129.51 9138.8 7071.91 9124.8 7020.71 9096.8C6969.51 9068 6929.11 9027.6 6899.51 8975.6C6870.71 8923.6 6856.31 8863.6 6856.31 8795.6C6856.31 8727.6 6871.11 8667.6 6900.71 8615.6C6931.11 8563.6 6972.31 8523.6 7024.31 8495.6C7076.31 8466.8 7134.31 8452.4 7198.31 8452.4C7262.31 8452.4 7320.31 8466.8 7372.31 8495.6C7424.31 8523.6 7465.11 8563.6 7494.71 8615.6C7525.11 8667.6 7540.31 8727.6 7540.31 8795.6C7540.31 8863.6 7524.71 8923.6 7493.51 8975.6C7463.11 9027.6 7421.51 9068 7368.71 9096.8C7316.71 9124.8 7258.31 9138.8 7193.51 9138.8ZM7193.51 8992.4C7223.91 8992.4 7252.31 8985.2 7278.71 8970.8C7305.91 8955.6 7327.51 8933.2 7343.51 8903.6C7359.51 8874 7367.51 8838 7367.51 8795.6C7367.51 8732.4 7350.71 8684 7317.11 8650.4C7284.31 8616 7243.91 8598.8 7195.91 8598.8C7147.91 8598.8 7107.51 8616 7074.71 8650.4C7042.71 8684 7026.71 8732.4 7026.71 8795.6C7026.71 8858.8 7042.31 8907.6 7073.51 8942C7105.51 8975.6 7145.51 8992.4 7193.51 8992.4ZM8351.14 8463.2V9128H8181.94V9044C8160.34 9072.8 8131.94 9095.6 8096.74 9112.4C8062.34 9128.4 8024.74 9136.4 7983.94 9136.4C7931.94 9136.4 7885.94 9125.6 7845.94 9104C7805.94 9081.6 7774.34 9049.2 7751.14 9006.8C7728.74 8963.6 7717.54 8912.4 7717.54 8853.2V8463.2H7885.54V8829.2C7885.54 8882 7898.74 8922.8 7925.14 8951.6C7951.54 8979.6 7987.54 8993.6 8033.14 8993.6C8079.54 8993.6 8115.94 8979.6 8142.34 8951.6C8168.74 8922.8 8181.94 8882 8181.94 8829.2V8463.2H8351.14ZM8533.7 8793.2C8533.7 8726 8546.9 8666.4 8573.3 8614.4C8600.5 8562.4 8637.3 8522.4 8683.7 8494.4C8730.1 8466.4 8781.7 8452.4 8838.5 8452.4C8881.7 8452.4 8922.9 8462 8962.1 8481.2C9001.3 8499.6 9032.5 8524.4 9055.7 8555.6V8240H9226.1V9128H9055.7V9029.6C9034.9 9062.4 9005.7 9088.8 8968.1 9108.8C8930.5 9128.8 8886.9 9138.8 8837.3 9138.8C8781.3 9138.8 8730.1 9124.4 8683.7 9095.6C8637.3 9066.8 8600.5 9026.4 8573.3 8974.4C8546.9 8921.6 8533.7 8861.2 8533.7 8793.2ZM9056.9 8795.6C9056.9 8754.8 9048.9 8720 9032.9 8691.2C9016.9 8661.6 8995.3 8639.2 8968.1 8624C8940.9 8608 8911.7 8600 8880.5 8600C8849.3 8600 8820.5 8607.6 8794.1 8622.8C8767.7 8638 8746.1 8660.4 8729.3 8690C8713.3 8718.8 8705.3 8753.2 8705.3 8793.2C8705.3 8833.2 8713.3 8868.4 8729.3 8898.8C8746.1 8928.4 8767.7 8951.2 8794.1 8967.2C8821.3 8983.2 8850.1 8991.2 8880.5 8991.2C8911.7 8991.2 8940.9 8983.6 8968.1 8968.4C8995.3 8952.4 9016.9 8930 9032.9 8901.2C9048.9 8871.6 9056.9 8836.4 9056.9 8795.6ZM9755.32 8708C9755.32 8625.6 9773.72 8552 9810.52 8487.2C9848.12 8421.6 9898.92 8370.8 9962.92 8334.8C10027.7 8298 10100.1 8279.6 10180.1 8279.6C10273.7 8279.6 10355.7 8303.6 10426.1 8351.6C10496.5 8399.6 10545.7 8466 10573.7 8550.8H10380.5C10361.3 8510.8 10334.1 8480.8 10298.9 8460.8C10264.5 8440.8 10224.5 8430.8 10178.9 8430.8C10130.1 8430.8 10086.5 8442.4 10048.1 8465.6C10010.5 8488 9980.92 8520 9959.32 8561.6C9938.52 8603.2 9928.12 8652 9928.12 8708C9928.12 8763.2 9938.52 8812 9959.32 8854.4C9980.92 8896 10010.5 8928.4 10048.1 8951.6C10086.5 8974 10130.1 8985.2 10178.9 8985.2C10224.5 8985.2 10264.5 8975.2 10298.9 8955.2C10334.1 8934.4 10361.3 8904 10380.5 8864H10573.7C10545.7 8949.6 10496.5 9016.4 10426.1 9064.4C10356.5 9111.6 10274.5 9135.2 10180.1 9135.2C10100.1 9135.2 10027.7 9117.2 9962.92 9081.2C9898.92 9044.4 9848.12 8993.6 9810.52 8928.8C9773.72 8864 9755.32 8790.4 9755.32 8708ZM11072.4 9138.8C11008.4 9138.8 10950.8 9124.8 10899.6 9096.8C10848.4 9068 10808 9027.6 10778.4 8975.6C10749.6 8923.6 10735.2 8863.6 10735.2 8795.6C10735.2 8727.6 10750 8667.6 10779.6 8615.6C10810 8563.6 10851.2 8523.6 10903.2 8495.6C10955.2 8466.8 11013.2 8452.4 11077.2 8452.4C11141.2 8452.4 11199.2 8466.8 11251.2 8495.6C11303.2 8523.6 11344 8563.6 11373.6 8615.6C11404 8667.6 11419.2 8727.6 11419.2 8795.6C11419.2 8863.6 11403.6 8923.6 11372.4 8975.6C11342 9027.6 11300.4 9068 11247.6 9096.8C11195.6 9124.8 11137.2 9138.8 11072.4 9138.8ZM11072.4 8992.4C11102.8 8992.4 11131.2 8985.2 11157.6 8970.8C11184.8 8955.6 11206.4 8933.2 11222.4 8903.6C11238.4 8874 11246.4 8838 11246.4 8795.6C11246.4 8732.4 11229.6 8684 11196 8650.4C11163.2 8616 11122.8 8598.8 11074.8 8598.8C11026.8 8598.8 10986.4 8616 10953.6 8650.4C10921.6 8684 10905.6 8732.4 10905.6 8795.6C10905.6 8858.8 10921.2 8907.6 10952.4 8942C10984.4 8975.6 11024.4 8992.4 11072.4 8992.4ZM12428 8453.6C12509.6 8453.6 12575.2 8478.8 12624.8 8529.2C12675.2 8578.8 12700.4 8648.4 12700.4 8738V9128H12532.4V8760.8C12532.4 8708.8 12519.2 8669.2 12492.8 8642C12466.4 8614 12430.4 8600 12384.8 8600C12339.2 8600 12302.8 8614 12275.6 8642C12249.2 8669.2 12236 8708.8 12236 8760.8V9128H12068V8760.8C12068 8708.8 12054.8 8669.2 12028.4 8642C12002 8614 11966 8600 11920.4 8600C11874 8600 11837.2 8614 11810 8642C11783.6 8669.2 11770.4 8708.8 11770.4 8760.8V9128H11602.4V8463.2H11770.4V8543.6C11792 8515.6 11819.6 8493.6 11853.2 8477.6C11887.6 8461.6 11925.2 8453.6 11966 8453.6C12018 8453.6 12064.4 8464.8 12105.2 8487.2C12146 8508.8 12177.6 8540 12200 8580.8C12221.6 8542.4 12252.8 8511.6 12293.6 8488.4C12335.2 8465.2 12380 8453.6 12428 8453.6ZM13087.9 8559.2C13109.5 8528.8 13139.1 8503.6 13176.7 8483.6C13215.1 8462.8 13258.7 8452.4 13307.5 8452.4C13364.3 8452.4 13415.5 8466.4 13461.1 8494.4C13507.5 8522.4 13543.9 8562.4 13570.3 8614.4C13597.5 8665.6 13611.1 8725.2 13611.1 8793.2C13611.1 8861.2 13597.5 8921.6 13570.3 8974.4C13543.9 9026.4 13507.5 9066.8 13461.1 9095.6C13415.5 9124.4 13364.3 9138.8 13307.5 9138.8C13258.7 9138.8 13215.5 9128.8 13177.9 9108.8C13141.1 9088.8 13111.1 9063.6 13087.9 9033.2V9444.8H12919.9V8463.2H13087.9V8559.2ZM13439.5 8793.2C13439.5 8753.2 13431.1 8718.8 13414.3 8690C13398.3 8660.4 13376.7 8638 13349.5 8622.8C13323.1 8607.6 13294.3 8600 13263.1 8600C13232.7 8600 13203.9 8608 13176.7 8624C13150.3 8639.2 13128.7 8661.6 13111.9 8691.2C13095.9 8720.8 13087.9 8755.6 13087.9 8795.6C13087.9 8835.6 13095.9 8870.4 13111.9 8900C13128.7 8929.6 13150.3 8952.4 13176.7 8968.4C13203.9 8983.6 13232.7 8991.2 13263.1 8991.2C13294.3 8991.2 13323.1 8983.2 13349.5 8967.2C13376.7 8951.2 13398.3 8928.4 13414.3 8898.8C13431.1 8869.2 13439.5 8834 13439.5 8793.2ZM14420.8 8463.2V9128H14251.6V9044C14230 9072.8 14201.6 9095.6 14166.4 9112.4C14132 9128.4 14094.4 9136.4 14053.6 9136.4C14001.6 9136.4 13955.6 9125.6 13915.6 9104C13875.6 9081.6 13844 9049.2 13820.8 9006.8C13798.4 8963.6 13787.2 8912.4 13787.2 8853.2V8463.2H13955.2V8829.2C13955.2 8882 13968.4 8922.8 13994.8 8951.6C14021.2 8979.6 14057.2 8993.6 14102.8 8993.6C14149.2 8993.6 14185.6 8979.6 14212 8951.6C14238.4 8922.8 14251.6 8882 14251.6 8829.2V8463.2H14420.8ZM14842.1 8601.2V8922.8C14842.1 8945.2 14847.3 8961.6 14857.7 8972C14868.9 8981.6 14887.3 8986.4 14912.9 8986.4H14990.9V9128H14885.3C14743.7 9128 14672.9 9059.2 14672.9 8921.6V8601.2H14593.7V8463.2H14672.9V8298.8H14842.1V8463.2H14990.9V8601.2H14842.1ZM15256.9 8384C15227.3 8384 15202.5 8374.8 15182.5 8356.4C15163.3 8337.2 15153.7 8313.6 15153.7 8285.6C15153.7 8257.6 15163.3 8234.4 15182.5 8216C15202.5 8196.8 15227.3 8187.2 15256.9 8187.2C15286.5 8187.2 15310.9 8196.8 15330.1 8216C15350.1 8234.4 15360.1 8257.6 15360.1 8285.6C15360.1 8313.6 15350.1 8337.2 15330.1 8356.4C15310.9 8374.8 15286.5 8384 15256.9 8384ZM15339.7 8463.2V9128H15171.7V8463.2H15339.7ZM15934.1 8453.6C16013.3 8453.6 16077.3 8478.8 16126.1 8529.2C16174.9 8578.8 16199.3 8648.4 16199.3 8738V9128H16031.3V8760.8C16031.3 8708 16018.1 8667.6 15991.7 8639.6C15965.3 8610.8 15929.3 8596.4 15883.7 8596.4C15837.3 8596.4 15800.5 8610.8 15773.3 8639.6C15746.9 8667.6 15733.7 8708 15733.7 8760.8V9128H15565.7V8463.2H15733.7V8546C15756.1 8517.2 15784.5 8494.8 15818.9 8478.8C15854.1 8462 15892.5 8453.6 15934.1 8453.6ZM16679.5 8452.4C16729.1 8452.4 16772.7 8462.4 16810.3 8482.4C16847.9 8501.6 16877.5 8526.8 16899.1 8558V8463.2H17068.3V9132.8C17068.3 9194.4 17055.9 9249.2 17031.1 9297.2C17006.3 9346 16969.1 9384.4 16919.5 9412.4C16869.9 9441.2 16809.9 9455.6 16739.5 9455.6C16645.1 9455.6 16567.5 9433.6 16506.7 9389.6C16446.7 9345.6 16412.7 9285.6 16404.7 9209.6H16571.5C16580.3 9240 16599.1 9264 16627.9 9281.6C16657.5 9300 16693.1 9309.2 16734.7 9309.2C16783.5 9309.2 16823.1 9294.4 16853.5 9264.8C16883.9 9236 16899.1 9192 16899.1 9132.8V9029.6C16877.5 9060.8 16847.5 9086.8 16809.1 9107.6C16771.5 9128.4 16728.3 9138.8 16679.5 9138.8C16623.5 9138.8 16572.3 9124.4 16525.9 9095.6C16479.5 9066.8 16442.7 9026.4 16415.5 8974.4C16389.1 8921.6 16375.9 8861.2 16375.9 8793.2C16375.9 8726 16389.1 8666.4 16415.5 8614.4C16442.7 8562.4 16479.1 8522.4 16524.7 8494.4C16571.1 8466.4 16622.7 8452.4 16679.5 8452.4ZM16899.1 8795.6C16899.1 8754.8 16891.1 8720 16875.1 8691.2C16859.1 8661.6 16837.5 8639.2 16810.3 8624C16783.1 8608 16753.9 8600 16722.7 8600C16691.5 8600 16662.7 8607.6 16636.3 8622.8C16609.9 8638 16588.3 8660.4 16571.5 8690C16555.5 8718.8 16547.5 8753.2 16547.5 8793.2C16547.5 8833.2 16555.5 8868.4 16571.5 8898.8C16588.3 8928.4 16609.9 8951.2 16636.3 8967.2C16663.5 8983.2 16692.3 8991.2 16722.7 8991.2C16753.9 8991.2 16783.1 8983.6 16810.3 8968.4C16837.5 8952.4 16859.1 8930 16875.1 8901.2C16891.1 8871.6 16899.1 8836.4 16899.1 8795.6Z" fill="white"/>
<path d="M12946.1 5757.37C12888.1 5757.37 12841.2 5710.77 12841.2 5653.03V5099.31H9608.07V5653.03C9608.07 5710.77 9561.23 5757.37 9503.21 5757.37C9445.19 5757.37 9398.35 5710.77 9398.35 5653.03V4994.97C9398.35 4937.23 9445.19 4890.62 9503.21 4890.62H12946.1C13004.1 4890.62 13051 4937.23 13051 4994.97V5653.03C13051 5710.77 13004.1 5757.37 12946.1 5757.37Z" fill="#D3D3D3"/>
<path d="M11232 5897.89C11174 5897.89 11127.1 5851.28 11127.1 5793.55V4144.22C11127.1 4086.48 11174 4039.88 11232 4039.88C11290 4039.88 11336.8 4086.48 11336.8 4144.22V5793.55C11336.8 5851.28 11290 5897.89 11232 5897.89Z" fill="#D3D3D3"/>
<path d="M13280.9 5653.03H12611.9V6318.74H13280.9V5653.03Z" fill="#76BFE9"/>
<path d="M11705.7 5916.39L11232.6 5445.65L10759.6 5916.37L11232.6 6387.11L11705.7 5916.39Z" fill="#F4C95A"/>
<path d="M9837.36 5653.03H9168.36V6318.74H9837.36V5653.03Z" fill="#F56E57"/>
<path d="M13462 3499.37C13462 3855.53 13172.6 4144.22 12814.7 4144.22H9559.13C9243.16 4144.22 8988 3888.92 8988 3575.2C8988 3260.77 9243.16 3005.48 9559.13 3005.48C9629.04 3005.48 9696.85 3018 9757.67 3042.35C9720.62 2949.83 9699.65 2848.27 9699.65 2742.53C9699.65 2298.03 10061.1 1938.39 10507.1 1938.39C10858 1938.39 11155.8 2160.99 11268.3 2471.24C11368.3 2270.2 11575.9 2132.47 11816.4 2132.47C12154.8 2132.47 12428.8 2405.15 12428.8 2742.53C12428.8 2859.4 12395.9 2968.61 12339.3 3061.13C12458.1 2933.83 12627.3 2855.22 12814.7 2855.22C13172.6 2855.22 13462 3143.21 13462 3499.37Z" fill="#84DBFF"/>
<defs>
<filter id="filter0_d_411_139" x="7561" y="19268" width="6383" height="2329" filterUnits="userSpaceOnUse" color-interpolation-filters="sRGB">
<feFlood flood-opacity="0" result="BackgroundImageFix"/>
<feColorMatrix in="SourceAlpha" type="matrix" values="0 0 0 0 0 0 0 0 0 0 0 0 0 0 0 0 0 0 127 0" result="hardAlpha"/>
<feOffset dy="4"/>
<feGaussianBlur stdDeviation="2"/>
<feComposite in2="hardAlpha" operator="out"/>
<feColorMatrix type="matrix" values="0 0 0 0 0 0 0 0 0 0 0 0 0 0 0 0 0 0 0.25 0"/>
<feBlend mode="normal" in2="BackgroundImageFix" result="effect1_dropShadow_411_139"/>
<feBlend mode="normal" in="SourceGraphic" in2="effect1_dropShadow_411_139" result="shape"/>
</filter>
<linearGradient id="paint0_linear_411_139" x1="1733.41" y1="-2667.06" x2="1942.16" y2="25150.5" gradientUnits="userSpaceOnUse">
<stop offset="0.431077" stop-color="#001833"/>
<stop offset="1" stop-color="#203956" stop-opacity="0.46"/>
</linearGradient>
</defs>
</svg>
