<svg width="22592" height="24881" viewBox="0 0 22592 24881" fill="none" xmlns="http://www.w3.org/2000/svg">
<path d="M0 899.999C0 402.943 402.944 0 900 0H21692C22189.1 0 22592 402.944 22592 900V23981C22592 24478.1 22189.1 24881 21692 24881H900C402.944 24881 0 24478.1 0 23981V899.999Z" fill="url(#paint0_linear_411_139)" fill-opacity="0.991525"/>
<ellipse cx="20577.4" cy="9630.95" rx="28.3956" ry="22.9524" fill="#D9D9D9"/>
<ellipse cx="20634.4" cy="4694.95" rx="28.3956" ry="22.9524" fill="#D9D9D9"/>
<ellipse cx="19068.4" cy="1224.95" rx="28.3956" ry="22.9524" fill="#D9D9D9"/>
<ellipse cx="17393.4" cy="6411.95" rx="28.3956" ry="22.9524" fill="#D9D9D9"/>
<ellipse cx="1818.4" cy="2518.95" rx="28.3956" ry="22.9524" fill="#D9D9D9"/>
<ellipse cx="1875.4" cy="8684.95" rx="28.3956" ry="22.9524" fill="#D9D9D9"/>
<ellipse cx="7348.31" cy="10290.5" rx="22.3108" ry="23.474" fill="white"/>
<ellipse cx="4418.31" cy="5326.47" rx="22.3108" ry="23.474" fill="white"/>
<ellipse cx="15055.3" cy="1178.47" rx="22.3108" ry="23.474" fill="white"/>
<ellipse cx="6039.31" cy="1130" rx="22.3108" ry="24.9957" fill="white"/>
<rect y="11107" width="22592" height="349" rx="100" fill="#C5707A"/>
<path d="M9924.53 20639L9816.73 20448.6H9770.53V20639H9672.53V20150.4H9855.93C9893.73 20150.4 9925.93 20157.2 9952.53 20170.7C9979.13 20183.8 9998.96 20201.7 10012 20224.6C10025.6 20247 10032.3 20272.2 10032.3 20300.2C10032.3 20332.4 10023 20361.6 10004.3 20387.7C9985.66 20413.4 9957.9 20431.1 9921.03 20440.9L10037.9 20639H9924.53ZM9770.53 20375.1H9852.43C9879.03 20375.1 9898.86 20368.8 9911.93 20356.2C9925 20343.1 9931.53 20325.2 9931.53 20302.3C9931.53 20279.9 9925 20262.6 9911.93 20250.5C9898.86 20237.9 9879.03 20231.6 9852.43 20231.6H9770.53V20375.1ZM10269.4 20645.3C10237.6 20645.3 10209.2 20639.7 10184 20628.5C10158.8 20616.8 10138.7 20601.2 10123.8 20581.6C10109.3 20562 10101.4 20540.3 10100 20516.5H10198.7C10200.5 20531.4 10207.8 20543.8 10220.4 20553.6C10233.4 20563.4 10249.5 20568.3 10268.7 20568.3C10287.3 20568.3 10301.8 20564.6 10312.1 20557.1C10322.8 20549.6 10328.2 20540.1 10328.2 20528.4C10328.2 20515.8 10321.6 20506.5 10308.6 20500.4C10296 20493.9 10275.7 20486.9 10247.7 20479.4C10218.7 20472.4 10194.9 20465.2 10176.3 20457.7C10158.1 20450.2 10142.2 20438.8 10128.7 20423.4C10115.6 20408 10109.1 20387.2 10109.1 20361.1C10109.1 20339.6 10115.1 20320 10127.3 20302.3C10139.9 20284.6 10157.6 20270.6 10180.5 20260.3C10203.8 20250 10231.1 20244.9 10262.4 20244.9C10308.6 20244.9 10345.4 20256.6 10373 20279.9C10400.5 20302.8 10415.7 20333.8 10418.5 20373H10324.7C10323.3 20357.6 10316.7 20345.5 10305.1 20336.6C10293.9 20327.3 10278.7 20322.6 10259.6 20322.6C10241.8 20322.6 10228.1 20325.9 10218.3 20332.4C10208.9 20338.9 10204.3 20348 10204.3 20359.7C10204.3 20372.8 10210.8 20382.8 10223.9 20389.8C10236.9 20396.3 10257.2 20403.1 10284.8 20410.1C10312.8 20417.1 10335.9 20424.3 10354.1 20431.8C10372.3 20439.3 10387.9 20450.9 10401 20466.8C10414.5 20482.2 10421.5 20502.7 10422 20528.4C10422 20550.8 10415.7 20570.9 10403.1 20588.6C10390.9 20606.3 10373.2 20620.3 10349.9 20630.6C10327 20640.4 10300.2 20645.3 10269.4 20645.3ZM10982.8 20202.9L10796.6 20639H10697.2L10884.8 20214.1H10645.4V20130.1H10982.8V20202.9ZM11154.9 20495.5C11158.6 20516 11167 20531.9 11180.1 20543.1C11193.6 20553.8 11211.6 20559.2 11234 20559.2C11262.9 20559.2 11283.9 20547.3 11297 20523.5C11310.1 20499.2 11316.6 20458.6 11316.6 20401.7C11305.9 20416.6 11290.7 20428.3 11271.1 20436.7C11252 20445.1 11231.2 20449.3 11208.8 20449.3C11178.9 20449.3 11151.9 20443.2 11127.6 20431.1C11103.8 20418.5 11084.9 20400.1 11070.9 20375.8C11056.9 20351.1 11049.9 20321.2 11049.9 20286.2C11049.9 20234.4 11065.3 20193.3 11096.1 20163C11126.9 20132.2 11168.9 20116.8 11222.1 20116.8C11288.4 20116.8 11335 20138 11362.1 20180.5C11389.6 20223 11403.4 20286.9 11403.4 20372.3C11403.4 20433 11398 20482.7 11387.3 20521.4C11377 20560.1 11359.1 20589.5 11333.4 20609.6C11308.2 20629.7 11273.7 20639.7 11229.8 20639.7C11195.3 20639.7 11165.9 20633.2 11141.6 20620.1C11117.3 20606.6 11098.7 20589.1 11085.6 20567.6C11073 20545.7 11065.8 20521.6 11063.9 20495.5H11154.9ZM11229.1 20369.5C11253.4 20369.5 11272.5 20362 11286.5 20347.1C11300.5 20332.2 11307.5 20312.1 11307.5 20286.9C11307.5 20259.4 11300 20238.1 11285.1 20223.2C11270.6 20207.8 11250.8 20200.1 11225.6 20200.1C11200.4 20200.1 11180.3 20208 11165.4 20223.9C11150.9 20239.3 11143.7 20259.8 11143.7 20285.5C11143.7 20310.2 11150.7 20330.5 11164.7 20346.4C11179.2 20361.8 11200.6 20369.5 11229.1 20369.5ZM11593.1 20495.5C11596.8 20516 11605.2 20531.9 11618.3 20543.1C11631.8 20553.8 11649.8 20559.2 11672.2 20559.2C11701.1 20559.2 11722.1 20547.3 11735.2 20523.5C11748.3 20499.2 11754.8 20458.6 11754.8 20401.7C11744.1 20416.6 11728.9 20428.3 11709.3 20436.7C11690.2 20445.1 11669.4 20449.3 11647 20449.3C11617.1 20449.3 11590.1 20443.2 11565.8 20431.1C11542 20418.5 11523.1 20400.1 11509.1 20375.8C11495.1 20351.1 11488.1 20321.2 11488.1 20286.2C11488.1 20234.4 11503.5 20193.3 11534.3 20163C11565.1 20132.2 11607.1 20116.8 11660.3 20116.8C11726.6 20116.8 11773.2 20138 11800.3 20180.5C11827.8 20223 11841.6 20286.9 11841.6 20372.3C11841.6 20433 11836.2 20482.7 11825.5 20521.4C11815.2 20560.1 11797.3 20589.5 11771.6 20609.6C11746.4 20629.7 11711.9 20639.7 11668 20639.7C11633.5 20639.7 11604.1 20633.2 11579.8 20620.1C11555.5 20606.6 11536.9 20589.1 11523.8 20567.6C11511.2 20545.7 11504 20521.6 11502.1 20495.5H11593.1ZM11667.3 20369.5C11691.6 20369.5 11710.7 20362 11724.7 20347.1C11738.7 20332.2 11745.7 20312.1 11745.7 20286.9C11745.7 20259.4 11738.2 20238.1 11723.3 20223.2C11708.8 20207.8 11689 20200.1 11663.8 20200.1C11638.6 20200.1 11618.5 20208 11603.6 20223.9C11589.1 20239.3 11581.9 20259.8 11581.9 20285.5C11581.9 20310.2 11588.9 20330.5 11602.9 20346.4C11617.4 20361.8 11638.8 20369.5 11667.3 20369.5Z" fill="#DDDDDD"/>
<g filter="url(#filter0_d_411_139)">
<rect x="7577.5" y="19280.5" width="6350" height="2296" rx="512.5" stroke="#DDDDDD" stroke-width="25" shape-rendering="crispEdges"/>
</g>
<path d="M5434.89 14886C5498.89 14832.7 5549.89 14788.3 5587.89 14753C5625.89 14717 5657.56 14679.7 5682.89 14641C5708.23 14602.3 5720.89 14564.3 5720.89 14527C5720.89 14493 5712.89 14466.3 5696.89 14447C5680.89 14427.7 5656.23 14418 5622.89 14418C5589.56 14418 5563.89 14429.3 5545.89 14452C5527.89 14474 5518.56 14504.3 5517.89 14543H5381.89C5384.56 14463 5408.23 14402.3 5452.89 14361C5498.23 14319.7 5555.56 14299 5624.89 14299C5700.89 14299 5759.23 14319.3 5799.89 14360C5840.56 14400 5860.89 14453 5860.89 14519C5860.89 14571 5846.89 14620.7 5818.89 14668C5790.89 14715.3 5758.89 14756.7 5722.89 14792C5686.89 14826.7 5639.89 14868.7 5581.89 14918H5876.89V15034H5382.89V14930L5434.89 14886ZM6505.11 14436H6181.11V14607C6195.11 14589.7 6215.11 14575.7 6241.11 14565C6267.11 14553.7 6294.78 14548 6324.11 14548C6377.45 14548 6421.11 14559.7 6455.11 14583C6489.11 14606.3 6513.78 14636.3 6529.11 14673C6544.45 14709 6552.11 14747.7 6552.11 14789C6552.11 14865.7 6530.11 14927.3 6486.11 14974C6442.78 15020.7 6380.78 15044 6300.11 15044C6224.11 15044 6163.45 15025 6118.11 14987C6072.78 14949 6047.11 14899.3 6041.11 14838H6177.11C6183.11 14864.7 6196.45 14886 6217.11 14902C6238.45 14918 6265.45 14926 6298.11 14926C6337.45 14926 6367.11 14913.7 6387.11 14889C6407.11 14864.3 6417.11 14831.7 6417.11 14791C6417.11 14749.7 6406.78 14718.3 6386.11 14697C6366.11 14675 6336.45 14664 6297.11 14664C6269.11 14664 6245.78 14671 6227.11 14685C6208.45 14699 6195.11 14717.7 6187.11 14741H6053.11V14313H6505.11V14436ZM6708.67 14670C6708.67 14554.7 6729.33 14464.3 6770.67 14399C6812.67 14333.7 6882 14301 6978.67 14301C7075.33 14301 7144.33 14333.7 7185.67 14399C7227.67 14464.3 7248.67 14554.7 7248.67 14670C7248.67 14786 7227.67 14877 7185.67 14943C7144.33 15009 7075.33 15042 6978.67 15042C6882 15042 6812.67 15009 6770.67 14943C6729.33 14877 6708.67 14786 6708.67 14670ZM7110.67 14670C7110.67 14620.7 7107.33 14579.3 7100.67 14546C7094.67 14512 7082 14484.3 7062.67 14463C7044 14441.7 7016 14431 6978.67 14431C6941.33 14431 6913 14441.7 6893.67 14463C6875 14484.3 6862.33 14512 6855.67 14546C6849.67 14579.3 6846.67 14620.7 6846.67 14670C6846.67 14720.7 6849.67 14763.3 6855.67 14798C6861.67 14832 6874.33 14859.7 6893.67 14881C6913 14901.7 6941.33 14912 6978.67 14912C7016 14912 7044.33 14901.7 7063.67 14881C7083 14859.7 7095.67 14832 7101.67 14798C7107.67 14763.3 7110.67 14720.7 7110.67 14670ZM7849.43 14304V15044H7709.43V14304H7849.43ZM8552.75 14755C8552.75 14775 8551.42 14793 8548.75 14809H8143.75C8147.09 14849 8161.09 14880.3 8185.75 14903C8210.42 14925.7 8240.75 14937 8276.75 14937C8328.75 14937 8365.75 14914.7 8387.75 14870H8538.75C8522.75 14923.3 8492.09 14967.3 8446.75 15002C8401.42 15036 8345.75 15053 8279.75 15053C8226.42 15053 8178.42 15041.3 8135.75 15018C8093.75 14994 8060.75 14960.3 8036.75 14917C8013.42 14873.7 8001.75 14823.7 8001.75 14767C8001.75 14709.7 8013.42 14659.3 8036.75 14616C8060.09 14572.7 8092.75 14539.3 8134.75 14516C8176.75 14492.7 8225.09 14481 8279.75 14481C8332.42 14481 8379.42 14492.3 8420.75 14515C8462.75 14537.7 8495.09 14570 8517.75 14612C8541.09 14653.3 8552.75 14701 8552.75 14755ZM8407.75 14715C8407.09 14679 8394.09 14650.3 8368.75 14629C8343.42 14607 8312.42 14596 8275.75 14596C8241.09 14596 8211.75 14606.7 8187.75 14628C8164.42 14648.7 8150.09 14677.7 8144.75 14715H8407.75ZM8916.94 15053C8871.61 15053 8830.94 15045 8794.94 15029C8758.94 15012.3 8730.27 14990 8708.94 14962C8688.27 14934 8676.94 14903 8674.94 14869H8815.94C8818.61 14890.3 8828.94 14908 8846.94 14922C8865.61 14936 8888.61 14943 8915.94 14943C8942.61 14943 8963.27 14937.7 8977.94 14927C8993.27 14916.3 9000.94 14902.7 9000.94 14886C9000.94 14868 8991.61 14854.7 8972.94 14846C8954.94 14836.7 8925.94 14826.7 8885.94 14816C8844.61 14806 8810.61 14795.7 8783.94 14785C8757.94 14774.3 8735.27 14758 8715.94 14736C8697.27 14714 8687.94 14684.3 8687.94 14647C8687.94 14616.3 8696.61 14588.3 8713.94 14563C8731.94 14537.7 8757.27 14517.7 8789.94 14503C8823.27 14488.3 8862.27 14481 8906.94 14481C8972.94 14481 9025.61 14497.7 9064.94 14531C9104.27 14563.7 9125.94 14608 9129.94 14664H8995.94C8993.94 14642 8984.61 14624.7 8967.94 14612C8951.94 14598.7 8930.27 14592 8902.94 14592C8877.61 14592 8857.94 14596.7 8843.94 14606C8830.61 14615.3 8823.94 14628.3 8823.94 14645C8823.94 14663.7 8833.27 14678 8851.94 14688C8870.61 14697.3 8899.61 14707 8938.94 14717C8978.94 14727 9011.94 14737.3 9037.94 14748C9063.94 14758.7 9086.27 14775.3 9104.94 14798C9124.27 14820 9134.27 14849.3 9134.94 14886C9134.94 14918 9125.94 14946.7 9107.94 14972C9090.61 14997.3 9065.27 15017.3 9031.94 15032C8999.27 15046 8960.94 15053 8916.94 15053ZM9511.86 15053C9466.53 15053 9425.86 15045 9389.86 15029C9353.86 15012.3 9325.2 14990 9303.86 14962C9283.2 14934 9271.86 14903 9269.86 14869H9410.86C9413.53 14890.3 9423.86 14908 9441.86 14922C9460.53 14936 9483.53 14943 9510.86 14943C9537.53 14943 9558.2 14937.7 9572.86 14927C9588.2 14916.3 9595.86 14902.7 9595.86 14886C9595.86 14868 9586.53 14854.7 9567.86 14846C9549.86 14836.7 9520.86 14826.7 9480.86 14816C9439.53 14806 9405.53 14795.7 9378.86 14785C9352.86 14774.3 9330.2 14758 9310.86 14736C9292.2 14714 9282.86 14684.3 9282.86 14647C9282.86 14616.3 9291.53 14588.3 9308.86 14563C9326.86 14537.7 9352.2 14517.7 9384.86 14503C9418.2 14488.3 9457.2 14481 9501.86 14481C9567.86 14481 9620.53 14497.7 9659.86 14531C9699.2 14563.7 9720.86 14608 9724.86 14664H9590.86C9588.86 14642 9579.53 14624.7 9562.86 14612C9546.86 14598.7 9525.2 14592 9497.86 14592C9472.53 14592 9452.86 14596.7 9438.86 14606C9425.53 14615.3 9418.86 14628.3 9418.86 14645C9418.86 14663.7 9428.2 14678 9446.86 14688C9465.53 14697.3 9494.53 14707 9533.86 14717C9573.86 14727 9606.86 14737.3 9632.86 14748C9658.86 14758.7 9681.2 14775.3 9699.86 14798C9719.2 14820 9729.2 14849.3 9729.86 14886C9729.86 14918 9720.86 14946.7 9702.86 14972C9685.53 14997.3 9660.2 15017.3 9626.86 15032C9594.2 15046 9555.86 15053 9511.86 15053ZM10140.8 15053C10087.5 15053 10039.5 15041.3 9996.79 15018C9954.12 14994 9920.45 14960.3 9895.79 14917C9871.79 14873.7 9859.79 14823.7 9859.79 14767C9859.79 14710.3 9872.12 14660.3 9896.79 14617C9922.12 14573.7 9956.45 14540.3 9999.79 14517C10043.1 14493 10091.5 14481 10144.8 14481C10198.1 14481 10246.5 14493 10289.8 14517C10333.1 14540.3 10367.1 14573.7 10391.8 14617C10417.1 14660.3 10429.8 14710.3 10429.8 14767C10429.8 14823.7 10416.8 14873.7 10390.8 14917C10365.5 14960.3 10330.8 14994 10286.8 15018C10243.5 15041.3 10194.8 15053 10140.8 15053ZM10140.8 14931C10166.1 14931 10189.8 14925 10211.8 14913C10234.5 14900.3 10252.5 14881.7 10265.8 14857C10279.1 14832.3 10285.8 14802.3 10285.8 14767C10285.8 14714.3 10271.8 14674 10243.8 14646C10216.5 14617.3 10182.8 14603 10142.8 14603C10102.8 14603 10069.1 14617.3 10041.8 14646C10015.1 14674 10001.8 14714.3 10001.8 14767C10001.8 14819.7 10014.8 14860.3 10040.8 14889C10067.5 14917 10100.8 14931 10140.8 14931ZM10889.5 14482C10955.5 14482 11008.8 14503 11049.5 14545C11090.1 14586.3 11110.5 14644.3 11110.5 14719V15044H10970.5V14738C10970.5 14694 10959.5 14660.3 10937.5 14637C10915.5 14613 10885.5 14601 10847.5 14601C10808.8 14601 10778.1 14613 10755.5 14637C10733.5 14660.3 10722.5 14694 10722.5 14738V15044H10582.5V14490H10722.5V14559C10741.1 14535 10764.8 14516.3 10793.5 14503C10822.8 14489 10854.8 14482 10889.5 14482ZM11505.6 15053C11460.3 15053 11419.6 15045 11383.6 15029C11347.6 15012.3 11318.9 14990 11297.6 14962C11276.9 14934 11265.6 14903 11263.6 14869H11404.6C11407.3 14890.3 11417.6 14908 11435.6 14922C11454.3 14936 11477.3 14943 11504.6 14943C11531.3 14943 11551.9 14937.7 11566.6 14927C11581.9 14916.3 11589.6 14902.7 11589.6 14886C11589.6 14868 11580.3 14854.7 11561.6 14846C11543.6 14836.7 11514.6 14826.7 11474.6 14816C11433.3 14806 11399.3 14795.7 11372.6 14785C11346.6 14774.3 11323.9 14758 11304.6 14736C11285.9 14714 11276.6 14684.3 11276.6 14647C11276.6 14616.3 11285.3 14588.3 11302.6 14563C11320.6 14537.7 11345.9 14517.7 11378.6 14503C11411.9 14488.3 11450.9 14481 11495.6 14481C11561.6 14481 11614.3 14497.7 11653.6 14531C11692.9 14563.7 11714.6 14608 11718.6 14664H11584.6C11582.6 14642 11573.3 14624.7 11556.6 14612C11540.6 14598.7 11518.9 14592 11491.6 14592C11466.3 14592 11446.6 14596.7 11432.6 14606C11419.3 14615.3 11412.6 14628.3 11412.6 14645C11412.6 14663.7 11421.9 14678 11440.6 14688C11459.3 14697.3 11488.3 14707 11527.6 14717C11567.6 14727 11600.6 14737.3 11626.6 14748C11652.6 14758.7 11674.9 14775.3 11693.6 14798C11712.9 14820 11722.9 14849.3 11723.6 14886C11723.6 14918 11714.6 14946.7 11696.6 14972C11679.3 14997.3 11653.9 15017.3 11620.6 15032C11587.9 15046 11549.6 15053 11505.6 15053ZM12332.8 15165H12191.8V14236H12332.8V15165ZM12790.7 14444V14315H13031.7V15044H12887.7V14444H12790.7ZM13598 14497C13591.3 14469 13579.7 14448 13563 14434C13547 14420 13523.7 14413 13493 14413C13447 14413 13413 14431.7 13391 14469C13369.7 14505.7 13358.7 14565.7 13358 14649C13374 14622.3 13397.3 14601.7 13428 14587C13458.7 14571.7 13492 14564 13528 14564C13571.3 14564 13609.7 14573.3 13643 14592C13676.3 14610.7 13702.3 14638 13721 14674C13739.7 14709.3 13749 14752 13749 14802C13749 14849.3 13739.3 14891.7 13720 14929C13701.3 14965.7 13673.7 14994.3 13637 15015C13600.3 15035.7 13556.7 15046 13506 15046C13436.7 15046 13382 15030.7 13342 15000C13302.7 14969.3 13275 14926.7 13259 14872C13243.7 14816.7 13236 14748.7 13236 14668C13236 14546 13257 14454 13299 14392C13341 14329.3 13407.3 14298 13498 14298C13568 14298 13622.3 14317 13661 14355C13699.7 14393 13722 14440.3 13728 14497H13598ZM13496 14679C13460.7 14679 13431 14689.3 13407 14710C13383 14730.7 13371 14760.7 13371 14800C13371 14839.3 13382 14870.3 13404 14893C13426.7 14915.7 13458.3 14927 13499 14927C13535 14927 13563.3 14916 13584 14894C13605.3 14872 13616 14842.3 13616 14805C13616 14766.3 13605.7 14735.7 13585 14713C13565 14690.3 13535.3 14679 13496 14679ZM14525.9 14482C14567.9 14482 14605.3 14491.3 14637.9 14510C14670.6 14528 14695.9 14555 14713.9 14591C14732.6 14626.3 14741.9 14669 14741.9 14719V15044H14601.9V14738C14601.9 14694 14590.9 14660.3 14568.9 14637C14546.9 14613 14516.9 14601 14478.9 14601C14440.3 14601 14409.6 14613 14386.9 14637C14364.9 14660.3 14353.9 14694 14353.9 14738V15044H14213.9V14304H14353.9V14559C14371.9 14535 14395.9 14516.3 14425.9 14503C14455.9 14489 14489.3 14482 14525.9 14482ZM15171.1 15053C15117.7 15053 15069.7 15041.3 15027.1 15018C14984.4 14994 14950.7 14960.3 14926.1 14917C14902.1 14873.7 14890.1 14823.7 14890.1 14767C14890.1 14710.3 14902.4 14660.3 14927.1 14617C14952.4 14573.7 14986.7 14540.3 15030.1 14517C15073.4 14493 15121.7 14481 15175.1 14481C15228.4 14481 15276.7 14493 15320.1 14517C15363.4 14540.3 15397.4 14573.7 15422.1 14617C15447.4 14660.3 15460.1 14710.3 15460.1 14767C15460.1 14823.7 15447.1 14873.7 15421.1 14917C15395.7 14960.3 15361.1 14994 15317.1 15018C15273.7 15041.3 15225.1 15053 15171.1 15053ZM15171.1 14931C15196.4 14931 15220.1 14925 15242.1 14913C15264.7 14900.3 15282.7 14881.7 15296.1 14857C15309.4 14832.3 15316.1 14802.3 15316.1 14767C15316.1 14714.3 15302.1 14674 15274.1 14646C15246.7 14617.3 15213.1 14603 15173.1 14603C15133.1 14603 15099.4 14617.3 15072.1 14646C15045.4 14674 15032.1 14714.3 15032.1 14767C15032.1 14819.7 15045.1 14860.3 15071.1 14889C15097.7 14917 15131.1 14931 15171.1 14931ZM16135.8 14490V15044H15994.8V14974C15976.8 14998 15953.1 15017 15923.8 15031C15895.1 15044.3 15863.8 15051 15829.8 15051C15786.4 15051 15748.1 15042 15714.8 15024C15681.4 15005.3 15655.1 14978.3 15635.8 14943C15617.1 14907 15607.8 14864.3 15607.8 14815V14490H15747.8V14795C15747.8 14839 15758.8 14873 15780.8 14897C15802.8 14920.3 15832.8 14932 15870.8 14932C15909.4 14932 15939.8 14920.3 15961.8 14897C15983.8 14873 15994.8 14839 15994.8 14795V14490H16135.8ZM16463.9 14576C16481.9 14546.7 16505.2 14523.7 16533.9 14507C16563.2 14490.3 16596.6 14482 16633.9 14482V14629H16596.9C16552.9 14629 16519.6 14639.3 16496.9 14660C16474.9 14680.7 16463.9 14716.7 16463.9 14768V15044H16323.9V14490H16463.9V14576ZM16990.2 15053C16944.9 15053 16904.2 15045 16868.2 15029C16832.2 15012.3 16803.5 14990 16782.2 14962C16761.5 14934 16750.2 14903 16748.2 14869H16889.2C16891.9 14890.3 16902.2 14908 16920.2 14922C16938.9 14936 16961.9 14943 16989.2 14943C17015.9 14943 17036.5 14937.7 17051.2 14927C17066.5 14916.3 17074.2 14902.7 17074.2 14886C17074.2 14868 17064.9 14854.7 17046.2 14846C17028.2 14836.7 16999.2 14826.7 16959.2 14816C16917.9 14806 16883.9 14795.7 16857.2 14785C16831.2 14774.3 16808.5 14758 16789.2 14736C16770.5 14714 16761.2 14684.3 16761.2 14647C16761.2 14616.3 16769.9 14588.3 16787.2 14563C16805.2 14537.7 16830.5 14517.7 16863.2 14503C16896.5 14488.3 16935.5 14481 16980.2 14481C17046.2 14481 17098.9 14497.7 17138.2 14531C17177.5 14563.7 17199.2 14608 17203.2 14664H17069.2C17067.2 14642 17057.9 14624.7 17041.2 14612C17025.2 14598.7 17003.5 14592 16976.2 14592C16950.9 14592 16931.2 14596.7 16917.2 14606C16903.9 14615.3 16897.2 14628.3 16897.2 14645C16897.2 14663.7 16906.5 14678 16925.2 14688C16943.9 14697.3 16972.9 14707 17012.2 14717C17052.2 14727 17085.2 14737.3 17111.2 14748C17137.2 14758.7 17159.5 14775.3 17178.2 14798C17197.5 14820 17207.5 14849.3 17208.2 14886C17208.2 14918 17199.2 14946.7 17181.2 14972C17163.9 14997.3 17138.5 15017.3 17105.2 15032C17072.5 15046 17034.2 15053 16990.2 15053Z" fill="#DDDDDD"/>
<path d="M5971.7 8968.4H5638.1L5582.9 9128H5406.5L5707.7 8289.2H5903.3L6204.5 9128H6026.9L5971.7 8968.4ZM5926.1 8834L5804.9 8483.6L5683.7 8834H5926.1ZM6545.09 8559.2C6566.69 8528.8 6596.29 8503.6 6633.89 8483.6C6672.29 8462.8 6715.89 8452.4 6764.69 8452.4C6821.49 8452.4 6872.69 8466.4 6918.29 8494.4C6964.69 8522.4 7001.09 8562.4 7027.49 8614.4C7054.69 8665.6 7068.29 8725.2 7068.29 8793.2C7068.29 8861.2 7054.69 8921.6 7027.49 8974.4C7001.09 9026.4 6964.69 9066.8 6918.29 9095.6C6872.69 9124.4 6821.49 9138.8 6764.69 9138.8C6715.89 9138.8 6672.69 9128.8 6635.09 9108.8C6598.29 9088.8 6568.29 9063.6 6545.09 9033.2V9444.8H6377.09V8463.2H6545.09V8559.2ZM6896.69 8793.2C6896.69 8753.2 6888.29 8718.8 6871.49 8690C6855.49 8660.4 6833.89 8638 6806.69 8622.8C6780.29 8607.6 6751.49 8600 6720.29 8600C6689.89 8600 6661.09 8608 6633.89 8624C6607.49 8639.2 6585.89 8661.6 6569.09 8691.2C6553.09 8720.8 6545.09 8755.6 6545.09 8795.6C6545.09 8835.6 6553.09 8870.4 6569.09 8900C6585.89 8929.6 6607.49 8952.4 6633.89 8968.4C6661.09 8983.6 6689.89 8991.2 6720.29 8991.2C6751.49 8991.2 6780.29 8983.2 6806.69 8967.2C6833.89 8951.2 6855.49 8928.4 6871.49 8898.8C6888.29 8869.2 6896.69 8834 6896.69 8793.2ZM7418.37 8559.2C7439.97 8528.8 7469.57 8503.6 7507.17 8483.6C7545.57 8462.8 7589.17 8452.4 7637.97 8452.4C7694.77 8452.4 7745.97 8466.4 7791.57 8494.4C7837.97 8522.4 7874.37 8562.4 7900.77 8614.4C7927.97 8665.6 7941.57 8725.2 7941.57 8793.2C7941.57 8861.2 7927.97 8921.6 7900.77 8974.4C7874.37 9026.4 7837.97 9066.8 7791.57 9095.6C7745.97 9124.4 7694.77 9138.8 7637.97 9138.8C7589.17 9138.8 7545.97 9128.8 7508.37 9108.8C7471.57 9088.8 7441.57 9063.6 7418.37 9033.2V9444.8H7250.37V8463.2H7418.37V8559.2ZM7769.97 8793.2C7769.97 8753.2 7761.57 8718.8 7744.77 8690C7728.77 8660.4 7707.17 8638 7679.97 8622.8C7653.57 8607.6 7624.77 8600 7593.57 8600C7563.17 8600 7534.37 8608 7507.17 8624C7480.77 8639.2 7459.17 8661.6 7442.37 8691.2C7426.37 8720.8 7418.37 8755.6 7418.37 8795.6C7418.37 8835.6 7426.37 8870.4 7442.37 8900C7459.17 8929.6 7480.77 8952.4 7507.17 8968.4C7534.37 8983.6 7563.17 8991.2 7593.57 8991.2C7624.77 8991.2 7653.57 8983.2 7679.97 8967.2C7707.17 8951.2 7728.77 8928.4 7744.77 8898.8C7761.57 8869.2 7769.97 8834 7769.97 8793.2ZM8762.39 8290.4C8850.39 8290.4 8927.59 8307.6 8993.99 8342C9061.19 8376.4 9112.79 8425.6 9148.79 8489.6C9185.59 8552.8 9203.99 8626.4 9203.99 8710.4C9203.99 8794.4 9185.59 8868 9148.79 8931.2C9112.79 8993.6 9061.19 9042 8993.99 9076.4C8927.59 9110.8 8850.39 9128 8762.39 9128H8469.59V8290.4H8762.39ZM8756.39 8985.2C8844.39 8985.2 8912.39 8961.2 8960.39 8913.2C9008.39 8865.2 9032.39 8797.6 9032.39 8710.4C9032.39 8623.2 9008.39 8555.2 8960.39 8506.4C8912.39 8456.8 8844.39 8432 8756.39 8432H8637.59V8985.2H8756.39ZM10007.7 8781.2C10007.7 8805.2 10006.1 8826.8 10002.9 8846H9516.95C9520.95 8894 9537.75 8931.6 9567.35 8958.8C9596.95 8986 9633.35 8999.6 9676.55 8999.6C9738.95 8999.6 9783.35 8972.8 9809.75 8919.2H9990.95C9971.75 8983.2 9934.95 9036 9880.55 9077.6C9826.15 9118.4 9759.35 9138.8 9680.15 9138.8C9616.15 9138.8 9558.55 9124.8 9507.35 9096.8C9456.95 9068 9417.35 9027.6 9388.55 8975.6C9360.55 8923.6 9346.55 8863.6 9346.55 8795.6C9346.55 8726.8 9360.55 8666.4 9388.55 8614.4C9416.55 8562.4 9455.75 8522.4 9506.15 8494.4C9556.55 8466.4 9614.55 8452.4 9680.15 8452.4C9743.35 8452.4 9799.75 8466 9849.35 8493.2C9899.75 8520.4 9938.55 8559.2 9965.75 8609.6C9993.75 8659.2 10007.7 8716.4 10007.7 8781.2ZM9833.75 8733.2C9832.95 8690 9817.35 8655.6 9786.95 8630C9756.55 8603.6 9719.35 8590.4 9675.35 8590.4C9633.75 8590.4 9598.55 8603.2 9569.75 8628.8C9541.75 8653.6 9524.55 8688.4 9518.15 8733.2H9833.75ZM10467.6 8973.2L10635.6 8463.2H10814.4L10568.4 9128H10364.4L10119.6 8463.2H10299.6L10467.6 8973.2ZM11586.7 8781.2C11586.7 8805.2 11585.1 8826.8 11581.9 8846H11095.9C11099.9 8894 11116.7 8931.6 11146.3 8958.8C11175.9 8986 11212.3 8999.6 11255.5 8999.6C11317.9 8999.6 11362.3 8972.8 11388.7 8919.2H11569.9C11550.7 8983.2 11513.9 9036 11459.5 9077.6C11405.1 9118.4 11338.3 9138.8 11259.1 9138.8C11195.1 9138.8 11137.5 9124.8 11086.3 9096.8C11035.9 9068 10996.3 9027.6 10967.5 8975.6C10939.5 8923.6 10925.5 8863.6 10925.5 8795.6C10925.5 8726.8 10939.5 8666.4 10967.5 8614.4C10995.5 8562.4 11034.7 8522.4 11085.1 8494.4C11135.5 8466.4 11193.5 8452.4 11259.1 8452.4C11322.3 8452.4 11378.7 8466 11428.3 8493.2C11478.7 8520.4 11517.5 8559.2 11544.7 8609.6C11572.7 8659.2 11586.7 8716.4 11586.7 8781.2ZM11412.7 8733.2C11411.9 8690 11396.3 8655.6 11365.9 8630C11335.5 8603.6 11298.3 8590.4 11254.3 8590.4C11212.7 8590.4 11177.5 8603.2 11148.7 8628.8C11120.7 8653.6 11103.5 8688.4 11097.1 8733.2H11412.7ZM11937.4 8240V9128H11769.4V8240H11937.4ZM12458.5 9138.8C12394.5 9138.8 12336.9 9124.8 12285.7 9096.8C12234.5 9068 12194.1 9027.6 12164.5 8975.6C12135.7 8923.6 12121.3 8863.6 12121.3 8795.6C12121.3 8727.6 12136.1 8667.6 12165.7 8615.6C12196.1 8563.6 12237.3 8523.6 12289.3 8495.6C12341.3 8466.8 12399.3 8452.4 12463.3 8452.4C12527.3 8452.4 12585.3 8466.8 12637.3 8495.6C12689.3 8523.6 12730.1 8563.6 12759.7 8615.6C12790.1 8667.6 12805.3 8727.6 12805.3 8795.6C12805.3 8863.6 12789.7 8923.6 12758.5 8975.6C12728.1 9027.6 12686.5 9068 12633.7 9096.8C12581.7 9124.8 12523.3 9138.8 12458.5 9138.8ZM12458.5 8992.4C12488.9 8992.4 12517.3 8985.2 12543.7 8970.8C12570.9 8955.6 12592.5 8933.2 12608.5 8903.6C12624.5 8874 12632.5 8838 12632.5 8795.6C12632.5 8732.4 12615.7 8684 12582.1 8650.4C12549.3 8616 12508.9 8598.8 12460.9 8598.8C12412.9 8598.8 12372.5 8616 12339.7 8650.4C12307.7 8684 12291.7 8732.4 12291.7 8795.6C12291.7 8858.8 12307.3 8907.6 12338.5 8942C12370.5 8975.6 12410.5 8992.4 12458.5 8992.4ZM13156.6 8559.2C13178.2 8528.8 13207.8 8503.6 13245.4 8483.6C13283.8 8462.8 13327.4 8452.4 13376.2 8452.4C13433 8452.4 13484.2 8466.4 13529.8 8494.4C13576.2 8522.4 13612.6 8562.4 13639 8614.4C13666.2 8665.6 13679.8 8725.2 13679.8 8793.2C13679.8 8861.2 13666.2 8921.6 13639 8974.4C13612.6 9026.4 13576.2 9066.8 13529.8 9095.6C13484.2 9124.4 13433 9138.8 13376.2 9138.8C13327.4 9138.8 13284.2 9128.8 13246.6 9108.8C13209.8 9088.8 13179.8 9063.6 13156.6 9033.2V9444.8H12988.6V8463.2H13156.6V8559.2ZM13508.2 8793.2C13508.2 8753.2 13499.8 8718.8 13483 8690C13467 8660.4 13445.4 8638 13418.2 8622.8C13391.8 8607.6 13363 8600 13331.8 8600C13301.4 8600 13272.6 8608 13245.4 8624C13219 8639.2 13197.4 8661.6 13180.6 8691.2C13164.6 8720.8 13156.6 8755.6 13156.6 8795.6C13156.6 8835.6 13164.6 8870.4 13180.6 8900C13197.4 8929.6 13219 8952.4 13245.4 8968.4C13272.6 8983.6 13301.4 8991.2 13331.8 8991.2C13363 8991.2 13391.8 8983.2 13418.2 8967.2C13445.4 8951.2 13467 8928.4 13483 8898.8C13499.8 8869.2 13508.2 8834 13508.2 8793.2ZM14687.5 8453.6C14769.1 8453.6 14834.7 8478.8 14884.3 8529.2C14934.7 8578.8 14959.9 8648.4 14959.9 8738V9128H14791.9V8760.8C14791.9 8708.8 14778.7 8669.2 14752.3 8642C14725.9 8614 14689.9 8600 14644.3 8600C14598.7 8600 14562.3 8614 14535.1 8642C14508.7 8669.2 14495.5 8708.8 14495.5 8760.8V9128H14327.5V8760.8C14327.5 8708.8 14314.3 8669.2 14287.9 8642C14261.5 8614 14225.5 8600 14179.9 8600C14133.5 8600 14096.7 8614 14069.5 8642C14043.1 8669.2 14029.9 8708.8 14029.9 8760.8V9128H13861.9V8463.2H14029.9V8543.6C14051.5 8515.6 14079.1 8493.6 14112.7 8477.6C14147.1 8461.6 14184.7 8453.6 14225.5 8453.6C14277.5 8453.6 14323.9 8464.8 14364.7 8487.2C14405.5 8508.8 14437.1 8540 14459.5 8580.8C14481.1 8542.4 14512.3 8511.6 14553.1 8488.4C14594.7 8465.2 14639.5 8453.6 14687.5 8453.6ZM15797.3 8781.2C15797.3 8805.2 15795.7 8826.8 15792.5 8846H15306.5C15310.5 8894 15327.3 8931.6 15356.9 8958.8C15386.5 8986 15422.9 8999.6 15466.1 8999.6C15528.5 8999.6 15572.9 8972.8 15599.3 8919.2H15780.5C15761.3 8983.2 15724.5 9036 15670.1 9077.6C15615.7 9118.4 15548.9 9138.8 15469.7 9138.8C15405.7 9138.8 15348.1 9124.8 15296.9 9096.8C15246.5 9068 15206.9 9027.6 15178.1 8975.6C15150.1 8923.6 15136.1 8863.6 15136.1 8795.6C15136.1 8726.8 15150.1 8666.4 15178.1 8614.4C15206.1 8562.4 15245.3 8522.4 15295.7 8494.4C15346.1 8466.4 15404.1 8452.4 15469.7 8452.4C15532.9 8452.4 15589.3 8466 15638.9 8493.2C15689.3 8520.4 15728.1 8559.2 15755.3 8609.6C15783.3 8659.2 15797.3 8716.4 15797.3 8781.2ZM15623.3 8733.2C15622.5 8690 15606.9 8655.6 15576.5 8630C15546.1 8603.6 15508.9 8590.4 15464.9 8590.4C15423.3 8590.4 15388.1 8603.2 15359.3 8628.8C15331.3 8653.6 15314.1 8688.4 15307.7 8733.2H15623.3ZM16348.3 8453.6C16427.5 8453.6 16491.5 8478.8 16540.3 8529.2C16589.1 8578.8 16613.5 8648.4 16613.5 8738V9128H16445.5V8760.8C16445.5 8708 16432.3 8667.6 16405.9 8639.6C16379.5 8610.8 16343.5 8596.4 16297.9 8596.4C16251.5 8596.4 16214.7 8610.8 16187.5 8639.6C16161.1 8667.6 16147.9 8708 16147.9 8760.8V9128H15979.9V8463.2H16147.9V8546C16170.3 8517.2 16198.7 8494.8 16233.1 8478.8C16268.3 8462 16306.7 8453.6 16348.3 8453.6ZM17028.9 8601.2V8922.8C17028.9 8945.2 17034.1 8961.6 17044.5 8972C17055.7 8981.6 17074.1 8986.4 17099.7 8986.4H17177.7V9128H17072.1C16930.5 9128 16859.7 9059.2 16859.7 8921.6V8601.2H16780.5V8463.2H16859.7V8298.8H17028.9V8463.2H17177.7V8601.2H17028.9Z" fill="white"/>
<path d="M9579.83 2543.41H12626.2V5770.58H9579.83V2543.41Z" fill="#9FDBF3"/>
<path d="M9931.33 2543.41V3397.66C9931.33 3976.65 10215.3 4531.93 10720.6 4941.34C11226 5350.74 11911.5 5580.75 12626.2 5580.75C12637.9 5580.75 12626.2 5694.65 12626.2 2543.41H9931.33Z" fill="#B2E5FB"/>
<path d="M12626.2 2163.75V2543.41H9579.83V2163.75C9579.83 2113.4 9604.52 2065.12 9648.47 2029.51C9692.41 1993.91 9752.02 1973.91 9814.17 1973.91H12391.8C12454 1973.91 12513.6 1993.91 12557.5 2029.51C12601.5 2065.12 12626.2 2113.4 12626.2 2163.75Z" fill="#374F68"/>
<path d="M12626.2 2163.75V2353.58H10400C10275.7 2353.58 10156.5 2313.58 10068.6 2242.38C9980.71 2171.18 9931.33 2074.61 9931.33 1973.91H12391.8C12454 1973.91 12513.6 1993.91 12557.5 2029.51C12601.5 2065.12 12626.2 2113.4 12626.2 2163.75Z" fill="#425B72"/>
<path d="M12626.2 5770.59V6150.25C12626.2 6200.6 12601.5 6248.88 12557.5 6284.49C12513.6 6320.09 12454 6340.09 12391.8 6340.09H9814.17C9752.02 6340.09 9692.41 6320.09 9648.47 6284.49C9604.52 6248.88 9579.83 6200.6 9579.83 6150.25V5770.59H12626.2Z" fill="#374F68"/>
<path d="M12626.2 5770.59V6150.25H10400C10275.7 6150.25 10156.5 6110.25 10068.6 6039.05C9980.71 5967.85 9931.33 5871.28 9931.33 5770.59H12626.2Z" fill="#425B72"/>
<path d="M11454.5 2353.58H10751.5C10720.4 2353.58 10690.6 2343.58 10668.6 2325.78C10646.7 2307.98 10634.3 2283.84 10634.3 2258.67C10634.3 2233.49 10646.7 2209.35 10668.6 2191.55C10690.6 2173.75 10720.4 2163.75 10751.5 2163.75H11454.5C11485.6 2163.75 11515.4 2173.75 11537.3 2191.55C11559.3 2209.35 11571.7 2233.49 11571.7 2258.67C11571.7 2283.84 11559.3 2307.98 11537.3 2325.78C11515.4 2343.58 11485.6 2353.58 11454.5 2353.58ZM11220.2 6150.25H10985.8C10954.8 6150.25 10925 6140.25 10903 6122.45C10881 6104.65 10868.7 6080.51 10868.7 6055.33C10868.7 6030.16 10881 6006.02 10903 5988.22C10925 5970.42 10954.8 5960.42 10985.8 5960.42H11220.2C11251.2 5960.42 11281 5970.42 11303 5988.22C11325 6006.02 11337.3 6030.16 11337.3 6055.33C11337.3 6080.51 11325 6104.65 11303 6122.45C11281 6140.25 11251.2 6150.25 11220.2 6150.25ZM10282.8 2353.58C10255.9 2353.33 10230 2345.59 10209.3 2331.66C10188.6 2317.73 10174.5 2298.47 10169.3 2277.1C10164.1 2255.73 10168.1 2233.56 10180.6 2214.3C10193.2 2195.05 10213.6 2179.88 10238.3 2171.34C10254.3 2165.81 10271.7 2163.25 10289.1 2163.84C10306.5 2164.43 10323.6 2168.16 10339 2174.77C10354.4 2181.37 10367.8 2190.67 10378.2 2202C10388.6 2213.33 10395.8 2226.39 10399.1 2240.25C10402.5 2254.1 10402.1 2268.39 10397.8 2282.07C10393.5 2295.76 10385.5 2308.49 10374.3 2319.35C10363.2 2330.21 10349.2 2338.92 10333.3 2344.84C10317.5 2350.76 10300.3 2353.75 10282.8 2353.58Z" fill="#EDEBF2"/>
<path d="M12157.5 4299.37V4014.62L11886.8 3959.57C11871.6 3921.32 11852.4 3884.18 11829.4 3848.52L11972.4 3653.94L11724 3452.72L11483.8 3568.52C11439.8 3549.94 11393.9 3534.38 11346.7 3522.01L11278.7 3302.75H10927.2L10859.3 3522.01C10812.1 3534.38 10766.2 3549.94 10722.2 3568.52L10482 3452.72L10233.6 3653.94L10376.6 3848.52C10353.6 3884.18 10334.4 3921.32 10319.2 3959.57L10048.5 4014.62V4299.37L10319.2 4354.43C10334.4 4392.68 10353.6 4429.82 10376.6 4465.48L10233.6 4660.06L10482 4861.28L10722.2 4745.48C10766.2 4764.06 10812.1 4779.62 10859.3 4791.99L10927.2 5011.25H11278.7L11346.7 4791.99C11393.9 4779.62 11439.8 4764.06 11483.8 4745.48L11724 4861.28L11972.4 4660.06L11829.4 4465.48C11852.4 4429.82 11871.6 4392.68 11886.8 4354.43L12157.5 4299.37ZM11103 4441.75C11033.5 4441.75 10965.5 4425.05 10907.7 4393.76C10849.9 4362.47 10804.9 4318 10778.3 4265.97C10751.7 4213.94 10744.7 4156.68 10758.3 4101.45C10771.8 4046.21 10805.3 3995.47 10854.5 3955.65C10903.6 3915.83 10966.2 3888.71 11034.4 3877.72C11102.6 3866.73 11173.3 3872.37 11237.5 3893.93C11301.7 3915.48 11356.6 3951.97 11395.3 3998.8C11433.9 4045.63 11454.5 4100.68 11454.5 4157C11454.5 4232.52 11417.5 4304.95 11351.5 4358.35C11285.6 4411.75 11196.2 4441.75 11103 4441.75Z" fill="#DB5669"/>
<path d="M12157.5 4299.37V4014.62L11886.8 3959.57C11871.6 3921.32 11852.4 3884.18 11829.4 3848.52L11972.4 3653.94L11724 3452.72L11483.8 3568.52C11439.8 3549.94 11393.9 3534.38 11346.7 3522.01L11278.7 3302.75H10927.2L10859.3 3522.01C10667.1 3571.36 10783.1 3597.94 10574.6 3497.33C10475.5 3619.34 10416.7 3759.88 10403.7 3905.55C10390.8 4051.22 10424.2 4197.14 10500.7 4329.38C10577.2 4461.62 10694.3 4575.77 10840.7 4660.91C10987.2 4746.05 11158.2 4799.35 11337.3 4815.72C11350.2 4771.11 11319.8 4815.72 11481.4 4745.48L11721.6 4861.28L11970 4660.06L11829.4 4465.48C11852.4 4429.82 11871.6 4392.68 11886.8 4354.43L12157.5 4299.37ZM11103 4441.75C11033.5 4441.75 10965.5 4425.05 10907.7 4393.76C10849.9 4362.47 10804.9 4318 10778.3 4265.97C10751.7 4213.94 10744.7 4156.68 10758.3 4101.45C10771.8 4046.21 10805.3 3995.47 10854.5 3955.65C10903.6 3915.83 10966.2 3888.71 11034.4 3877.72C11102.6 3866.73 11173.3 3872.37 11237.5 3893.93C11301.7 3915.48 11356.6 3951.97 11395.3 3998.8C11433.9 4045.63 11454.5 4100.68 11454.5 4157C11454.5 4232.52 11417.5 4304.95 11351.5 4358.35C11285.6 4411.75 11196.2 4441.75 11103 4441.75Z" fill="#F26674"/>
<path d="M12391.8 1879H9814.17C9720.94 1879 9631.54 1909 9565.62 1962.4C9499.7 2015.8 9462.67 2088.23 9462.67 2163.75V6150.25C9462.67 6225.77 9499.7 6298.2 9565.62 6351.6C9631.54 6405 9720.94 6435 9814.17 6435H12391.8C12485.1 6435 12574.5 6405 12640.4 6351.6C12706.3 6298.2 12743.3 6225.77 12743.3 6150.25V2163.75C12743.3 2088.23 12706.3 2015.8 12640.4 1962.4C12574.5 1909 12485.1 1879 12391.8 1879ZM9697 2638.33H12509V5675.67H9697V2638.33ZM9697 2163.75C9697 2138.58 9709.34 2114.43 9731.32 2096.63C9753.29 2078.83 9783.09 2068.83 9814.17 2068.83H12391.8C12422.9 2068.83 12452.7 2078.83 12474.7 2096.63C12496.7 2114.43 12509 2138.58 12509 2163.75V2448.5H9697V2163.75ZM12509 6150.25C12509 6175.42 12496.7 6199.57 12474.7 6217.37C12452.7 6235.17 12422.9 6245.17 12391.8 6245.17H9814.17C9783.09 6245.17 9753.29 6235.17 9731.32 6217.37C9709.34 6199.57 9697 6175.42 9697 6150.25V5865.5H12509V6150.25Z" fill="black"/>
<path d="M11454.5 2163.75H10751.5C10720.4 2163.75 10690.6 2173.75 10668.6 2191.55C10646.7 2209.35 10634.3 2233.49 10634.3 2258.67C10634.3 2283.84 10646.7 2307.98 10668.6 2325.78C10690.6 2343.58 10720.4 2353.58 10751.5 2353.58H11454.5C11485.6 2353.58 11515.4 2343.58 11537.3 2325.78C11559.3 2307.98 11571.7 2283.84 11571.7 2258.67C11571.7 2233.49 11559.3 2209.35 11537.3 2191.55C11515.4 2173.75 11485.6 2163.75 11454.5 2163.75ZM10985.8 6150.25H11220.2C11251.2 6150.25 11281 6140.25 11303 6122.45C11325 6104.65 11337.3 6080.51 11337.3 6055.33C11337.3 6030.16 11325 6006.02 11303 5988.22C11281 5970.42 11251.2 5960.42 11220.2 5960.42H10985.8C10954.8 5960.42 10925 5970.42 10903 5988.22C10881 6006.02 10868.7 6030.16 10868.7 6055.33C10868.7 6080.51 10881 6104.65 10903 6122.45C10925 6140.25 10954.8 6150.25 10985.8 6150.25ZM10390.6 2222.6C10382.5 2206.67 10369.3 2192.82 10352.2 2182.54C10335.2 2172.25 10315 2165.92 10293.8 2164.22C10272.7 2162.51 10251.4 2165.5 10232.1 2172.87C10212.9 2180.23 10196.6 2191.69 10184.8 2206.02C10173 2220.35 10166.2 2237 10165.2 2254.2C10164.2 2271.4 10169 2288.5 10179.1 2303.66C10189.2 2318.83 10204.1 2331.48 10222.4 2340.28C10240.7 2349.07 10261.6 2353.67 10282.8 2353.58C10302 2353.51 10320.9 2349.61 10337.8 2342.24C10354.7 2334.87 10369.1 2324.25 10379.7 2311.32C10390.4 2298.38 10396.9 2283.53 10398.8 2268.06C10400.7 2252.59 10397.9 2236.98 10390.6 2222.6ZM11103 3777.33C11010.3 3777.33 10919.7 3799.6 10842.6 3841.32C10765.6 3883.04 10705.5 3942.33 10670 4011.71C10634.5 4081.08 10625.3 4157.42 10643.3 4231.07C10661.4 4304.72 10706.1 4372.37 10771.6 4425.46C10837.1 4478.56 10920.7 4514.72 11011.6 4529.37C11102.5 4544.02 11196.7 4536.5 11282.4 4507.77C11368 4479.03 11441.2 4430.37 11492.7 4367.93C11544.2 4305.5 11571.7 4232.09 11571.7 4157C11571.7 4056.31 11522.3 3959.74 11434.4 3888.54C11346.5 3817.33 11227.3 3777.33 11103 3777.33ZM11103 4346.83C11056.7 4346.83 11011.3 4335.7 10972.8 4314.84C10934.3 4293.98 10904.2 4264.33 10886.5 4229.65C10868.8 4194.96 10864.1 4156.79 10873.2 4119.97C10882.2 4083.14 10904.5 4049.32 10937.3 4022.77C10970.1 3996.22 11011.8 3978.14 11057.3 3970.81C11102.7 3963.49 11149.9 3967.25 11192.7 3981.62C11235.5 3995.98 11272.1 4020.32 11297.8 4051.53C11323.6 4082.75 11337.3 4119.45 11337.3 4157C11337.3 4207.35 11312.6 4255.63 11268.7 4291.23C11224.8 4326.83 11165.1 4346.83 11103 4346.83Z" fill="black"/>
<path d="M12185.6 3922.55C11941.9 3873.2 11981.7 3889.33 11961.8 3853.26C12079 3703.29 12134.1 3649.19 12055.6 3586.55C11802.5 3381.53 11763.8 3322.68 11664.2 3371.09C11448.6 3475.49 11489.6 3466 11445.1 3449.87C11392.4 3280.92 11388.9 3207.83 11278.7 3207.83C10920.2 3207.83 10841.7 3188.85 10810.1 3279.97C10749.2 3477.39 10769.1 3445.12 10724.6 3461.26C10539.4 3366.34 10472.6 3321.73 10395.3 3385.32C10142.2 3590.34 10069.6 3622.62 10129.3 3702.35C10259.4 3877.94 10246.5 3842.82 10226.6 3879.84C10018 3922.55 9927.82 3925.4 9927.82 4014.62C9927.82 4305.07 9904.38 4368.66 10016.9 4394.29C10260.6 4443.64 10220.7 4427.51 10240.7 4463.58C10123.5 4613.55 10068.4 4667.65 10146.9 4730.29C10400 4935.31 10439.8 4994.16 10538.3 4945.75C10753.8 4841.35 10712.8 4850.84 10757.4 4866.97C10810.1 5035.92 10813.6 5109.01 10923.7 5109.01C11281.1 5109.01 11360.8 5127.99 11392.4 5036.87C11453.3 4839.45 11433.4 4871.72 11477.9 4855.58C11663.1 4950.5 11729.8 4995.11 11807.2 4931.52C12060.3 4726.5 12132.9 4694.22 12073.1 4614.49C11944.3 4439.85 11956 4473.07 11975.9 4437C12184.4 4394.29 12274.7 4391.44 12274.7 4302.22C12274.7 4011.77 12298.1 3945.33 12185.6 3922.55ZM12040.3 4225.34C11844.7 4265.2 11797.8 4264.25 11774.4 4325.95C11705.2 4506.29 11657.2 4414.22 11825.9 4645.82L11708.8 4740.73C11534.2 4655.31 11502.5 4628.73 11432.2 4659.11C11226 4746.43 11269.4 4659.11 11189.7 4914.43H11018.6C10969.4 4755.92 10970.6 4717.95 10894.4 4698.97C10671.8 4642.97 10786.6 4604.05 10499.6 4740.73L10382.4 4645.82C10487.9 4504.39 10520.7 4478.76 10483.2 4421.81C10375.4 4254.76 10483.2 4289.88 10168 4225.34V4088.66C10360.2 4049.74 10409.4 4050.69 10434 3988.04C10503.1 3807.7 10551.1 3900.72 10382.4 3668.18L10499.6 3573.26C10673 3657.73 10705.8 3685.26 10776.1 3654.89C10982.3 3566.61 10939 3654.89 11018.6 3399.56H11187.4C11236.6 3558.07 11235.4 3596.04 11311.6 3615.02C11534.2 3671.02 11419.3 3709.94 11706.4 3573.26L11823.6 3668.18C11721.6 3805.8 11685.3 3833.33 11722.8 3892.18C11830.6 4059.23 11722.8 4024.11 12038 4088.66L12040.3 4225.34Z" fill="black"/>
<defs>
<filter id="filter0_d_411_139" x="7561" y="19268" width="6383" height="2329" filterUnits="userSpaceOnUse" color-interpolation-filters="sRGB">
<feFlood flood-opacity="0" result="BackgroundImageFix"/>
<feColorMatrix in="SourceAlpha" type="matrix" values="0 0 0 0 0 0 0 0 0 0 0 0 0 0 0 0 0 0 127 0" result="hardAlpha"/>
<feOffset dy="4"/>
<feGaussianBlur stdDeviation="2"/>
<feComposite in2="hardAlpha" operator="out"/>
<feColorMatrix type="matrix" values="0 0 0 0 0 0 0 0 0 0 0 0 0 0 0 0 0 0 0.25 0"/>
<feBlend mode="normal" in2="BackgroundImageFix" result="effect1_dropShadow_411_139"/>
<feBlend mode="normal" in="SourceGraphic" in2="effect1_dropShadow_411_139" result="shape"/>
</filter>
<linearGradient id="paint0_linear_411_139" x1="1733.41" y1="-2667.06" x2="1942.16" y2="25150.5" gradientUnits="userSpaceOnUse">
<stop offset="0.431077" stop-color="#001833"/>
<stop offset="1" stop-color="#203956" stop-opacity="0.46"/>
</linearGradient>
</defs>
</svg>
