<svg width="22592" height="24881" viewBox="0 0 22592 24881" fill="none" xmlns="http://www.w3.org/2000/svg">
<path d="M0 899.999C0 402.943 402.944 0 900 0H21692C22189.1 0 22592 402.944 22592 900V23981C22592 24478.1 22189.1 24881 21692 24881H900C402.944 24881 0 24478.1 0 23981V899.999Z" fill="url(#paint0_linear_0_3)" fill-opacity="0.991525"/>
<ellipse cx="20577.4" cy="9630.95" rx="28.3956" ry="22.9524" fill="#D9D9D9"/>
<ellipse cx="20634.4" cy="4694.95" rx="28.3956" ry="22.9524" fill="#D9D9D9"/>
<ellipse cx="19068.4" cy="1224.95" rx="28.3956" ry="22.9524" fill="#D9D9D9"/>
<ellipse cx="17393.4" cy="6411.95" rx="28.3956" ry="22.9524" fill="#D9D9D9"/>
<ellipse cx="1818.4" cy="2518.95" rx="28.3956" ry="22.9524" fill="#D9D9D9"/>
<ellipse cx="1875.4" cy="8684.95" rx="28.3956" ry="22.9524" fill="#D9D9D9"/>
<ellipse cx="7348.31" cy="10290.5" rx="22.3108" ry="23.474" fill="white"/>
<ellipse cx="4418.31" cy="5326.47" rx="22.3108" ry="23.474" fill="white"/>
<ellipse cx="15055.3" cy="1178.47" rx="22.3108" ry="23.474" fill="white"/>
<ellipse cx="6039.31" cy="1130" rx="22.3108" ry="24.9957" fill="white"/>
<rect y="11107" width="22592" height="349" rx="100" fill="#68B19D"/>
<path d="M9765.59 20736L9657.79 20545.6H9611.59V20736H9513.59V20247.4H9696.99C9734.79 20247.4 9766.99 20254.2 9793.59 20267.7C9820.19 20280.8 9840.03 20298.7 9853.09 20321.6C9866.63 20344 9873.39 20369.2 9873.39 20397.2C9873.39 20429.4 9864.06 20458.6 9845.39 20484.7C9826.73 20510.4 9798.96 20528.1 9762.09 20537.9L9878.99 20736H9765.59ZM9611.59 20472.1H9693.49C9720.09 20472.1 9739.93 20465.8 9752.99 20453.2C9766.06 20440.1 9772.59 20422.2 9772.59 20399.3C9772.59 20376.9 9766.06 20359.6 9752.99 20347.5C9739.93 20334.9 9720.09 20328.6 9693.49 20328.6H9611.59V20472.1ZM10110.4 20742.3C10078.7 20742.3 10050.2 20736.7 10025 20725.5C9999.83 20713.8 9979.76 20698.2 9964.83 20678.6C9950.36 20659 9942.43 20637.3 9941.03 20613.5H10039.7C10041.6 20628.4 10048.8 20640.8 10061.4 20650.6C10074.5 20660.4 10090.6 20665.3 10109.7 20665.3C10128.4 20665.3 10142.9 20661.6 10153.1 20654.1C10163.9 20646.6 10169.2 20637.1 10169.2 20625.4C10169.2 20612.8 10162.7 20603.5 10149.6 20597.4C10137 20590.9 10116.7 20583.9 10088.7 20576.4C10059.8 20569.4 10036 20562.2 10017.3 20554.7C9999.13 20547.2 9983.26 20535.8 9969.73 20520.4C9956.66 20505 9950.13 20484.2 9950.13 20458.1C9950.13 20436.6 9956.2 20417 9968.33 20399.3C9980.93 20381.6 9998.66 20367.6 10021.5 20357.3C10044.9 20347 10072.2 20341.9 10103.4 20341.9C10149.6 20341.9 10186.5 20353.6 10214 20376.9C10241.6 20399.8 10256.7 20430.8 10259.5 20470H10165.7C10164.3 20454.6 10157.8 20442.5 10146.1 20433.6C10134.9 20424.3 10119.8 20419.6 10100.6 20419.6C10082.9 20419.6 10069.1 20422.9 10059.3 20429.4C10050 20435.9 10045.3 20445 10045.3 20456.7C10045.3 20469.8 10051.9 20479.8 10064.9 20486.8C10078 20493.3 10098.3 20500.1 10125.8 20507.1C10153.8 20514.1 10176.9 20521.3 10195.1 20528.8C10213.3 20536.3 10229 20547.9 10242 20563.8C10255.6 20579.2 10262.6 20599.7 10263 20625.4C10263 20647.8 10256.7 20667.9 10244.1 20685.6C10232 20703.3 10214.3 20717.3 10190.9 20727.6C10168.1 20737.4 10141.2 20742.3 10110.4 20742.3ZM10487.2 20316V20225.7H10655.9V20736H10555.1V20316H10487.2ZM11017.3 20353.1C11012.6 20333.5 11004.5 20318.8 10992.8 20309C10981.6 20299.2 10965.3 20294.3 10943.8 20294.3C10911.6 20294.3 10887.8 20307.4 10872.4 20333.5C10857.5 20359.2 10849.8 20401.2 10849.3 20459.5C10860.5 20440.8 10876.8 20426.4 10898.3 20416.1C10919.8 20405.4 10943.1 20400 10968.3 20400C10998.6 20400 11025.5 20406.5 11048.8 20419.6C11072.1 20432.7 11090.3 20451.8 11103.4 20477C11116.5 20501.7 11123 20531.6 11123 20566.6C11123 20599.7 11116.2 20629.4 11102.7 20655.5C11089.6 20681.2 11070.3 20701.2 11044.6 20715.7C11018.9 20730.2 10988.4 20737.4 10952.9 20737.4C10904.4 20737.4 10866.1 20726.7 10838.1 20705.2C10810.6 20683.7 10791.2 20653.9 10780 20615.6C10769.3 20576.9 10763.9 20529.3 10763.9 20472.8C10763.9 20387.4 10778.6 20323 10808 20279.6C10837.4 20235.7 10883.8 20213.8 10947.3 20213.8C10996.3 20213.8 11034.3 20227.1 11061.4 20253.7C11088.5 20280.3 11104.1 20313.4 11108.3 20353.1H11017.3ZM10945.9 20480.5C10921.2 20480.5 10900.4 20487.7 10883.6 20502.2C10866.8 20516.7 10858.4 20537.7 10858.4 20565.2C10858.4 20592.7 10866.1 20614.4 10881.5 20630.3C10897.4 20646.2 10919.5 20654.1 10948 20654.1C10973.2 20654.1 10993 20646.4 11007.5 20631C11022.4 20615.6 11029.9 20594.8 11029.9 20568.7C11029.9 20541.6 11022.7 20520.2 11008.2 20504.3C10994.2 20488.4 10973.4 20480.5 10945.9 20480.5ZM11313.8 20592.5C11317.6 20613 11326 20628.9 11339 20640.1C11352.6 20650.8 11370.5 20656.2 11392.9 20656.2C11421.9 20656.2 11442.9 20644.3 11455.9 20620.5C11469 20596.2 11475.5 20555.6 11475.5 20498.7C11464.8 20513.6 11449.6 20525.3 11430 20533.7C11410.9 20542.1 11390.1 20546.3 11367.7 20546.3C11337.9 20546.3 11310.8 20540.2 11286.5 20528.1C11262.7 20515.5 11243.8 20497.1 11229.8 20472.8C11215.8 20448.1 11208.8 20418.2 11208.8 20383.2C11208.8 20331.4 11224.2 20290.3 11255 20260C11285.8 20229.2 11327.8 20213.8 11381 20213.8C11447.3 20213.8 11494 20235 11521 20277.5C11548.6 20320 11562.3 20383.9 11562.3 20469.3C11562.3 20530 11557 20579.7 11546.2 20618.4C11536 20657.1 11518 20686.5 11492.3 20706.6C11467.1 20726.7 11432.6 20736.7 11388.7 20736.7C11354.2 20736.7 11324.8 20730.2 11300.5 20717.1C11276.3 20703.6 11257.6 20686.1 11244.5 20664.6C11231.9 20642.7 11224.7 20618.6 11222.8 20592.5H11313.8ZM11388 20466.5C11412.3 20466.5 11431.4 20459 11445.4 20444.1C11459.4 20429.2 11466.4 20409.1 11466.4 20383.9C11466.4 20356.4 11459 20335.1 11444 20320.2C11429.6 20304.8 11409.7 20297.1 11384.5 20297.1C11359.3 20297.1 11339.3 20305 11324.3 20320.9C11309.9 20336.3 11302.6 20356.8 11302.6 20382.5C11302.6 20407.2 11309.6 20427.5 11323.6 20443.4C11338.1 20458.8 11359.6 20466.5 11388 20466.5ZM11752 20592.5C11755.8 20613 11764.2 20628.9 11777.2 20640.1C11790.8 20650.8 11808.7 20656.2 11831.1 20656.2C11860.1 20656.2 11881.1 20644.3 11894.1 20620.5C11907.2 20596.2 11913.7 20555.6 11913.7 20498.7C11903 20513.6 11887.8 20525.3 11868.2 20533.7C11849.1 20542.1 11828.3 20546.3 11805.9 20546.3C11776.1 20546.3 11749 20540.2 11724.7 20528.1C11700.9 20515.5 11682 20497.1 11668 20472.8C11654 20448.1 11647 20418.2 11647 20383.2C11647 20331.4 11662.4 20290.3 11693.2 20260C11724 20229.2 11766 20213.8 11819.2 20213.8C11885.5 20213.8 11932.2 20235 11959.2 20277.5C11986.8 20320 12000.5 20383.9 12000.5 20469.3C12000.5 20530 11995.2 20579.7 11984.4 20618.4C11974.2 20657.1 11956.2 20686.5 11930.5 20706.6C11905.3 20726.7 11870.8 20736.7 11826.9 20736.7C11792.4 20736.7 11763 20730.2 11738.7 20717.1C11714.5 20703.6 11695.8 20686.1 11682.7 20664.6C11670.1 20642.7 11662.9 20618.6 11661 20592.5H11752ZM11826.2 20466.5C11850.5 20466.5 11869.6 20459 11883.6 20444.1C11897.6 20429.2 11904.6 20409.1 11904.6 20383.9C11904.6 20356.4 11897.2 20335.1 11882.2 20320.2C11867.8 20304.8 11847.9 20297.1 11822.7 20297.1C11797.5 20297.1 11777.5 20305 11762.5 20320.9C11748.1 20336.3 11740.8 20356.8 11740.8 20382.5C11740.8 20407.2 11747.8 20427.5 11761.8 20443.4C11776.3 20458.8 11797.8 20466.5 11826.2 20466.5Z" fill="#DDDDDD"/>
<g filter="url(#filter0_d_0_3)">
<rect x="7577.5" y="19280.5" width="6350" height="2296" rx="512.5" stroke="#DDDDDD" stroke-width="25" shape-rendering="crispEdges"/>
</g>
<path d="M5434.89 14886C5498.89 14832.7 5549.89 14788.3 5587.89 14753C5625.89 14717 5657.56 14679.7 5682.89 14641C5708.23 14602.3 5720.89 14564.3 5720.89 14527C5720.89 14493 5712.89 14466.3 5696.89 14447C5680.89 14427.7 5656.23 14418 5622.89 14418C5589.56 14418 5563.89 14429.3 5545.89 14452C5527.89 14474 5518.56 14504.3 5517.89 14543H5381.89C5384.56 14463 5408.23 14402.3 5452.89 14361C5498.23 14319.7 5555.56 14299 5624.89 14299C5700.89 14299 5759.23 14319.3 5799.89 14360C5840.56 14400 5860.89 14453 5860.89 14519C5860.89 14571 5846.89 14620.7 5818.89 14668C5790.89 14715.3 5758.89 14756.7 5722.89 14792C5686.89 14826.7 5639.89 14868.7 5581.89 14918H5876.89V15034H5382.89V14930L5434.89 14886ZM6505.11 14436H6181.11V14607C6195.11 14589.7 6215.11 14575.7 6241.11 14565C6267.11 14553.7 6294.78 14548 6324.11 14548C6377.45 14548 6421.11 14559.7 6455.11 14583C6489.11 14606.3 6513.78 14636.3 6529.11 14673C6544.45 14709 6552.11 14747.7 6552.11 14789C6552.11 14865.7 6530.11 14927.3 6486.11 14974C6442.78 15020.7 6380.78 15044 6300.11 15044C6224.11 15044 6163.45 15025 6118.11 14987C6072.78 14949 6047.11 14899.3 6041.11 14838H6177.11C6183.11 14864.7 6196.45 14886 6217.11 14902C6238.45 14918 6265.45 14926 6298.11 14926C6337.45 14926 6367.11 14913.7 6387.11 14889C6407.11 14864.3 6417.11 14831.7 6417.11 14791C6417.11 14749.7 6406.78 14718.3 6386.11 14697C6366.11 14675 6336.45 14664 6297.11 14664C6269.11 14664 6245.78 14671 6227.11 14685C6208.45 14699 6195.11 14717.7 6187.11 14741H6053.11V14313H6505.11V14436ZM6708.67 14670C6708.67 14554.7 6729.33 14464.3 6770.67 14399C6812.67 14333.7 6882 14301 6978.67 14301C7075.33 14301 7144.33 14333.7 7185.67 14399C7227.67 14464.3 7248.67 14554.7 7248.67 14670C7248.67 14786 7227.67 14877 7185.67 14943C7144.33 15009 7075.33 15042 6978.67 15042C6882 15042 6812.67 15009 6770.67 14943C6729.33 14877 6708.67 14786 6708.67 14670ZM7110.67 14670C7110.67 14620.7 7107.33 14579.3 7100.67 14546C7094.67 14512 7082 14484.3 7062.67 14463C7044 14441.7 7016 14431 6978.67 14431C6941.33 14431 6913 14441.7 6893.67 14463C6875 14484.3 6862.33 14512 6855.67 14546C6849.67 14579.3 6846.67 14620.7 6846.67 14670C6846.67 14720.7 6849.67 14763.3 6855.67 14798C6861.67 14832 6874.33 14859.7 6893.67 14881C6913 14901.7 6941.33 14912 6978.67 14912C7016 14912 7044.33 14901.7 7063.67 14881C7083 14859.7 7095.67 14832 7101.67 14798C7107.67 14763.3 7110.67 14720.7 7110.67 14670ZM7849.43 14304V15044H7709.43V14304H7849.43ZM8552.75 14755C8552.75 14775 8551.42 14793 8548.75 14809H8143.75C8147.09 14849 8161.09 14880.3 8185.75 14903C8210.42 14925.7 8240.75 14937 8276.75 14937C8328.75 14937 8365.75 14914.7 8387.75 14870H8538.75C8522.75 14923.3 8492.09 14967.3 8446.75 15002C8401.42 15036 8345.75 15053 8279.75 15053C8226.42 15053 8178.42 15041.3 8135.75 15018C8093.75 14994 8060.75 14960.3 8036.75 14917C8013.42 14873.7 8001.75 14823.7 8001.75 14767C8001.75 14709.7 8013.42 14659.3 8036.75 14616C8060.09 14572.7 8092.75 14539.3 8134.75 14516C8176.75 14492.7 8225.09 14481 8279.75 14481C8332.42 14481 8379.42 14492.3 8420.75 14515C8462.75 14537.7 8495.09 14570 8517.75 14612C8541.09 14653.3 8552.75 14701 8552.75 14755ZM8407.75 14715C8407.09 14679 8394.09 14650.3 8368.75 14629C8343.42 14607 8312.42 14596 8275.75 14596C8241.09 14596 8211.75 14606.7 8187.75 14628C8164.42 14648.7 8150.09 14677.7 8144.75 14715H8407.75ZM8916.94 15053C8871.61 15053 8830.94 15045 8794.94 15029C8758.94 15012.3 8730.27 14990 8708.94 14962C8688.27 14934 8676.94 14903 8674.94 14869H8815.94C8818.61 14890.3 8828.94 14908 8846.94 14922C8865.61 14936 8888.61 14943 8915.94 14943C8942.61 14943 8963.27 14937.7 8977.94 14927C8993.27 14916.3 9000.94 14902.7 9000.94 14886C9000.94 14868 8991.61 14854.7 8972.94 14846C8954.94 14836.7 8925.94 14826.7 8885.94 14816C8844.61 14806 8810.61 14795.7 8783.94 14785C8757.94 14774.3 8735.27 14758 8715.94 14736C8697.27 14714 8687.94 14684.3 8687.94 14647C8687.94 14616.3 8696.61 14588.3 8713.94 14563C8731.94 14537.7 8757.27 14517.7 8789.94 14503C8823.27 14488.3 8862.27 14481 8906.94 14481C8972.94 14481 9025.61 14497.7 9064.94 14531C9104.27 14563.7 9125.94 14608 9129.94 14664H8995.94C8993.94 14642 8984.61 14624.7 8967.94 14612C8951.94 14598.7 8930.27 14592 8902.94 14592C8877.61 14592 8857.94 14596.7 8843.94 14606C8830.61 14615.3 8823.94 14628.3 8823.94 14645C8823.94 14663.7 8833.27 14678 8851.94 14688C8870.61 14697.3 8899.61 14707 8938.94 14717C8978.94 14727 9011.94 14737.3 9037.94 14748C9063.94 14758.7 9086.27 14775.3 9104.94 14798C9124.27 14820 9134.27 14849.3 9134.94 14886C9134.94 14918 9125.94 14946.7 9107.94 14972C9090.61 14997.3 9065.27 15017.3 9031.94 15032C8999.27 15046 8960.94 15053 8916.94 15053ZM9511.86 15053C9466.53 15053 9425.86 15045 9389.86 15029C9353.86 15012.3 9325.2 14990 9303.86 14962C9283.2 14934 9271.86 14903 9269.86 14869H9410.86C9413.53 14890.3 9423.86 14908 9441.86 14922C9460.53 14936 9483.53 14943 9510.86 14943C9537.53 14943 9558.2 14937.7 9572.86 14927C9588.2 14916.3 9595.86 14902.7 9595.86 14886C9595.86 14868 9586.53 14854.7 9567.86 14846C9549.86 14836.7 9520.86 14826.7 9480.86 14816C9439.53 14806 9405.53 14795.7 9378.86 14785C9352.86 14774.3 9330.2 14758 9310.86 14736C9292.2 14714 9282.86 14684.3 9282.86 14647C9282.86 14616.3 9291.53 14588.3 9308.86 14563C9326.86 14537.7 9352.2 14517.7 9384.86 14503C9418.2 14488.3 9457.2 14481 9501.86 14481C9567.86 14481 9620.53 14497.7 9659.86 14531C9699.2 14563.7 9720.86 14608 9724.86 14664H9590.86C9588.86 14642 9579.53 14624.7 9562.86 14612C9546.86 14598.7 9525.2 14592 9497.86 14592C9472.53 14592 9452.86 14596.7 9438.86 14606C9425.53 14615.3 9418.86 14628.3 9418.86 14645C9418.86 14663.7 9428.2 14678 9446.86 14688C9465.53 14697.3 9494.53 14707 9533.86 14717C9573.86 14727 9606.86 14737.3 9632.86 14748C9658.86 14758.7 9681.2 14775.3 9699.86 14798C9719.2 14820 9729.2 14849.3 9729.86 14886C9729.86 14918 9720.86 14946.7 9702.86 14972C9685.53 14997.3 9660.2 15017.3 9626.86 15032C9594.2 15046 9555.86 15053 9511.86 15053ZM10140.8 15053C10087.5 15053 10039.5 15041.3 9996.79 15018C9954.12 14994 9920.45 14960.3 9895.79 14917C9871.79 14873.7 9859.79 14823.7 9859.79 14767C9859.79 14710.3 9872.12 14660.3 9896.79 14617C9922.12 14573.7 9956.45 14540.3 9999.79 14517C10043.1 14493 10091.5 14481 10144.8 14481C10198.1 14481 10246.5 14493 10289.8 14517C10333.1 14540.3 10367.1 14573.7 10391.8 14617C10417.1 14660.3 10429.8 14710.3 10429.8 14767C10429.8 14823.7 10416.8 14873.7 10390.8 14917C10365.5 14960.3 10330.8 14994 10286.8 15018C10243.5 15041.3 10194.8 15053 10140.8 15053ZM10140.8 14931C10166.1 14931 10189.8 14925 10211.8 14913C10234.5 14900.3 10252.5 14881.7 10265.8 14857C10279.1 14832.3 10285.8 14802.3 10285.8 14767C10285.8 14714.3 10271.8 14674 10243.8 14646C10216.5 14617.3 10182.8 14603 10142.8 14603C10102.8 14603 10069.1 14617.3 10041.8 14646C10015.1 14674 10001.8 14714.3 10001.8 14767C10001.8 14819.7 10014.8 14860.3 10040.8 14889C10067.5 14917 10100.8 14931 10140.8 14931ZM10889.5 14482C10955.5 14482 11008.8 14503 11049.5 14545C11090.1 14586.3 11110.5 14644.3 11110.5 14719V15044H10970.5V14738C10970.5 14694 10959.5 14660.3 10937.5 14637C10915.5 14613 10885.5 14601 10847.5 14601C10808.8 14601 10778.1 14613 10755.5 14637C10733.5 14660.3 10722.5 14694 10722.5 14738V15044H10582.5V14490H10722.5V14559C10741.1 14535 10764.8 14516.3 10793.5 14503C10822.8 14489 10854.8 14482 10889.5 14482ZM11505.6 15053C11460.3 15053 11419.6 15045 11383.6 15029C11347.6 15012.3 11318.9 14990 11297.6 14962C11276.9 14934 11265.6 14903 11263.6 14869H11404.6C11407.3 14890.3 11417.6 14908 11435.6 14922C11454.3 14936 11477.3 14943 11504.6 14943C11531.3 14943 11551.9 14937.7 11566.6 14927C11581.9 14916.3 11589.6 14902.7 11589.6 14886C11589.6 14868 11580.3 14854.7 11561.6 14846C11543.6 14836.7 11514.6 14826.7 11474.6 14816C11433.3 14806 11399.3 14795.7 11372.6 14785C11346.6 14774.3 11323.9 14758 11304.6 14736C11285.9 14714 11276.6 14684.3 11276.6 14647C11276.6 14616.3 11285.3 14588.3 11302.6 14563C11320.6 14537.7 11345.9 14517.7 11378.6 14503C11411.9 14488.3 11450.9 14481 11495.6 14481C11561.6 14481 11614.3 14497.7 11653.6 14531C11692.9 14563.7 11714.6 14608 11718.6 14664H11584.6C11582.6 14642 11573.3 14624.7 11556.6 14612C11540.6 14598.7 11518.9 14592 11491.6 14592C11466.3 14592 11446.6 14596.7 11432.6 14606C11419.3 14615.3 11412.6 14628.3 11412.6 14645C11412.6 14663.7 11421.9 14678 11440.6 14688C11459.3 14697.3 11488.3 14707 11527.6 14717C11567.6 14727 11600.6 14737.3 11626.6 14748C11652.6 14758.7 11674.9 14775.3 11693.6 14798C11712.9 14820 11722.9 14849.3 11723.6 14886C11723.6 14918 11714.6 14946.7 11696.6 14972C11679.3 14997.3 11653.9 15017.3 11620.6 15032C11587.9 15046 11549.6 15053 11505.6 15053ZM12332.8 15165H12191.8V14236H12332.8V15165ZM12790.7 14444V14315H13031.7V15044H12887.7V14444H12790.7ZM13598 14497C13591.3 14469 13579.7 14448 13563 14434C13547 14420 13523.7 14413 13493 14413C13447 14413 13413 14431.7 13391 14469C13369.7 14505.7 13358.7 14565.7 13358 14649C13374 14622.3 13397.3 14601.7 13428 14587C13458.7 14571.7 13492 14564 13528 14564C13571.3 14564 13609.7 14573.3 13643 14592C13676.3 14610.7 13702.3 14638 13721 14674C13739.7 14709.3 13749 14752 13749 14802C13749 14849.3 13739.3 14891.7 13720 14929C13701.3 14965.7 13673.7 14994.3 13637 15015C13600.3 15035.7 13556.7 15046 13506 15046C13436.7 15046 13382 15030.7 13342 15000C13302.7 14969.3 13275 14926.7 13259 14872C13243.7 14816.7 13236 14748.7 13236 14668C13236 14546 13257 14454 13299 14392C13341 14329.3 13407.3 14298 13498 14298C13568 14298 13622.3 14317 13661 14355C13699.7 14393 13722 14440.3 13728 14497H13598ZM13496 14679C13460.7 14679 13431 14689.3 13407 14710C13383 14730.7 13371 14760.7 13371 14800C13371 14839.3 13382 14870.3 13404 14893C13426.7 14915.7 13458.3 14927 13499 14927C13535 14927 13563.3 14916 13584 14894C13605.3 14872 13616 14842.3 13616 14805C13616 14766.3 13605.7 14735.7 13585 14713C13565 14690.3 13535.3 14679 13496 14679ZM14525.9 14482C14567.9 14482 14605.3 14491.3 14637.9 14510C14670.6 14528 14695.9 14555 14713.9 14591C14732.6 14626.3 14741.9 14669 14741.9 14719V15044H14601.9V14738C14601.9 14694 14590.9 14660.3 14568.9 14637C14546.9 14613 14516.9 14601 14478.9 14601C14440.3 14601 14409.6 14613 14386.9 14637C14364.9 14660.3 14353.9 14694 14353.9 14738V15044H14213.9V14304H14353.9V14559C14371.9 14535 14395.9 14516.3 14425.9 14503C14455.9 14489 14489.3 14482 14525.9 14482ZM15171.1 15053C15117.7 15053 15069.7 15041.3 15027.1 15018C14984.4 14994 14950.7 14960.3 14926.1 14917C14902.1 14873.7 14890.1 14823.7 14890.1 14767C14890.1 14710.3 14902.4 14660.3 14927.1 14617C14952.4 14573.7 14986.7 14540.3 15030.1 14517C15073.4 14493 15121.7 14481 15175.1 14481C15228.4 14481 15276.7 14493 15320.1 14517C15363.4 14540.3 15397.4 14573.7 15422.1 14617C15447.4 14660.3 15460.1 14710.3 15460.1 14767C15460.1 14823.7 15447.1 14873.7 15421.1 14917C15395.7 14960.3 15361.1 14994 15317.1 15018C15273.7 15041.3 15225.1 15053 15171.1 15053ZM15171.1 14931C15196.4 14931 15220.1 14925 15242.1 14913C15264.7 14900.3 15282.7 14881.7 15296.1 14857C15309.4 14832.3 15316.1 14802.3 15316.1 14767C15316.1 14714.3 15302.1 14674 15274.1 14646C15246.7 14617.3 15213.1 14603 15173.1 14603C15133.1 14603 15099.4 14617.3 15072.1 14646C15045.4 14674 15032.1 14714.3 15032.1 14767C15032.1 14819.7 15045.1 14860.3 15071.1 14889C15097.7 14917 15131.1 14931 15171.1 14931ZM16135.8 14490V15044H15994.8V14974C15976.8 14998 15953.1 15017 15923.8 15031C15895.1 15044.3 15863.8 15051 15829.8 15051C15786.4 15051 15748.1 15042 15714.8 15024C15681.4 15005.3 15655.1 14978.3 15635.8 14943C15617.1 14907 15607.8 14864.3 15607.8 14815V14490H15747.8V14795C15747.8 14839 15758.8 14873 15780.8 14897C15802.8 14920.3 15832.8 14932 15870.8 14932C15909.4 14932 15939.8 14920.3 15961.8 14897C15983.8 14873 15994.8 14839 15994.8 14795V14490H16135.8ZM16463.9 14576C16481.9 14546.7 16505.2 14523.7 16533.9 14507C16563.2 14490.3 16596.6 14482 16633.9 14482V14629H16596.9C16552.9 14629 16519.6 14639.3 16496.9 14660C16474.9 14680.7 16463.9 14716.7 16463.9 14768V15044H16323.9V14490H16463.9V14576ZM16990.2 15053C16944.9 15053 16904.2 15045 16868.2 15029C16832.2 15012.3 16803.5 14990 16782.2 14962C16761.5 14934 16750.2 14903 16748.2 14869H16889.2C16891.9 14890.3 16902.2 14908 16920.2 14922C16938.9 14936 16961.9 14943 16989.2 14943C17015.9 14943 17036.5 14937.7 17051.2 14927C17066.5 14916.3 17074.2 14902.7 17074.2 14886C17074.2 14868 17064.9 14854.7 17046.2 14846C17028.2 14836.7 16999.2 14826.7 16959.2 14816C16917.9 14806 16883.9 14795.7 16857.2 14785C16831.2 14774.3 16808.5 14758 16789.2 14736C16770.5 14714 16761.2 14684.3 16761.2 14647C16761.2 14616.3 16769.9 14588.3 16787.2 14563C16805.2 14537.7 16830.5 14517.7 16863.2 14503C16896.5 14488.3 16935.5 14481 16980.2 14481C17046.2 14481 17098.9 14497.7 17138.2 14531C17177.5 14563.7 17199.2 14608 17203.2 14664H17069.2C17067.2 14642 17057.9 14624.7 17041.2 14612C17025.2 14598.7 17003.5 14592 16976.2 14592C16950.9 14592 16931.2 14596.7 16917.2 14606C16903.9 14615.3 16897.2 14628.3 16897.2 14645C16897.2 14663.7 16906.5 14678 16925.2 14688C16943.9 14697.3 16972.9 14707 17012.2 14717C17052.2 14727 17085.2 14737.3 17111.2 14748C17137.2 14758.7 17159.5 14775.3 17178.2 14798C17197.5 14820 17207.5 14849.3 17208.2 14886C17208.2 14918 17199.2 14946.7 17181.2 14972C17163.9 14997.3 17138.5 15017.3 17105.2 15032C17072.5 15046 17034.2 15053 16990.2 15053Z" fill="#DDDDDD"/>
<path d="M7365.86 7870.4C7453.86 7870.4 7531.06 7887.6 7597.46 7922C7664.66 7956.4 7716.26 8005.6 7752.26 8069.6C7789.06 8132.8 7807.46 8206.4 7807.46 8290.4C7807.46 8374.4 7789.06 8448 7752.26 8511.2C7716.26 8573.6 7664.66 8622 7597.46 8656.4C7531.06 8690.8 7453.86 8708 7365.86 8708H7073.06V7870.4H7365.86ZM7359.86 8565.2C7447.86 8565.2 7515.86 8541.2 7563.86 8493.2C7611.86 8445.2 7635.86 8377.6 7635.86 8290.4C7635.86 8203.2 7611.86 8135.2 7563.86 8086.4C7515.86 8036.8 7447.86 8012 7359.86 8012H7241.06V8565.2H7359.86ZM7950.01 8373.2C7950.01 8306 7963.21 8246.4 7989.61 8194.4C8016.81 8142.4 8053.21 8102.4 8098.81 8074.4C8145.21 8046.4 8196.81 8032.4 8253.61 8032.4C8303.21 8032.4 8346.41 8042.4 8383.21 8062.4C8420.81 8082.4 8450.81 8107.6 8473.21 8138V8043.2H8642.41V8708H8473.21V8610.8C8451.61 8642 8421.61 8668 8383.21 8688.8C8345.61 8708.8 8302.01 8718.8 8252.41 8718.8C8196.41 8718.8 8145.21 8704.4 8098.81 8675.6C8053.21 8646.8 8016.81 8606.4 7989.61 8554.4C7963.21 8501.6 7950.01 8441.2 7950.01 8373.2ZM8473.21 8375.6C8473.21 8334.8 8465.21 8300 8449.21 8271.2C8433.21 8241.6 8411.61 8219.2 8384.41 8204C8357.21 8188 8328.01 8180 8296.81 8180C8265.61 8180 8236.81 8187.6 8210.41 8202.8C8184.01 8218 8162.41 8240.4 8145.61 8270C8129.61 8298.8 8121.61 8333.2 8121.61 8373.2C8121.61 8413.2 8129.61 8448.4 8145.61 8478.8C8162.41 8508.4 8184.01 8531.2 8210.41 8547.2C8237.61 8563.2 8266.41 8571.2 8296.81 8571.2C8328.01 8571.2 8357.21 8563.6 8384.41 8548.4C8411.61 8532.4 8433.21 8510 8449.21 8481.2C8465.21 8451.6 8473.21 8416.4 8473.21 8375.6ZM9062.1 8181.2V8502.8C9062.1 8525.2 9067.3 8541.6 9077.7 8552C9088.9 8561.6 9107.3 8566.4 9132.9 8566.4H9210.9V8708H9105.3C8963.7 8708 8892.9 8639.2 8892.9 8501.6V8181.2H8813.7V8043.2H8892.9V7878.8H9062.1V8043.2H9210.9V8181.2H9062.1ZM9348.53 8373.2C9348.53 8306 9361.73 8246.4 9388.13 8194.4C9415.33 8142.4 9451.73 8102.4 9497.33 8074.4C9543.73 8046.4 9595.33 8032.4 9652.13 8032.4C9701.73 8032.4 9744.93 8042.4 9781.73 8062.4C9819.33 8082.4 9849.33 8107.6 9871.73 8138V8043.2H10040.9V8708H9871.73V8610.8C9850.13 8642 9820.13 8668 9781.73 8688.8C9744.13 8708.8 9700.53 8718.8 9650.93 8718.8C9594.93 8718.8 9543.73 8704.4 9497.33 8675.6C9451.73 8646.8 9415.33 8606.4 9388.13 8554.4C9361.73 8501.6 9348.53 8441.2 9348.53 8373.2ZM9871.73 8375.6C9871.73 8334.8 9863.73 8300 9847.73 8271.2C9831.73 8241.6 9810.13 8219.2 9782.93 8204C9755.73 8188 9726.53 8180 9695.33 8180C9664.13 8180 9635.33 8187.6 9608.93 8202.8C9582.53 8218 9560.93 8240.4 9544.13 8270C9528.13 8298.8 9520.13 8333.2 9520.13 8373.2C9520.13 8413.2 9528.13 8448.4 9544.13 8478.8C9560.93 8508.4 9582.53 8531.2 9608.93 8547.2C9636.13 8563.2 9664.93 8571.2 9695.33 8571.2C9726.53 8571.2 9755.73 8563.6 9782.93 8548.4C9810.13 8532.4 9831.73 8510 9847.73 8481.2C9863.73 8451.6 9871.73 8416.4 9871.73 8375.6ZM10900.1 8716.4C10841.7 8716.4 10788.9 8706.4 10741.7 8686.4C10695.3 8666.4 10658.5 8637.6 10631.3 8600C10604.1 8562.4 10590.1 8518 10589.3 8466.8H10769.3C10771.7 8501.2 10783.7 8528.4 10805.3 8548.4C10827.7 8568.4 10858.1 8578.4 10896.5 8578.4C10935.7 8578.4 10966.5 8569.2 10988.9 8550.8C11011.3 8531.6 11022.5 8506.8 11022.5 8476.4C11022.5 8451.6 11014.9 8431.2 10999.7 8415.2C10984.5 8399.2 10965.3 8386.8 10942.1 8378C10919.7 8368.4 10888.5 8358 10848.5 8346.8C10794.1 8330.8 10749.7 8315.2 10715.3 8300C10681.7 8284 10652.5 8260.4 10627.7 8229.2C10603.7 8197.2 10591.7 8154.8 10591.7 8102C10591.7 8052.4 10604.1 8009.2 10628.9 7972.4C10653.7 7935.6 10688.5 7907.6 10733.3 7888.4C10778.1 7868.4 10829.3 7858.4 10886.9 7858.4C10973.3 7858.4 11043.3 7879.6 11096.9 7922C11151.3 7963.6 11181.3 8022 11186.9 8097.2H11002.1C11000.5 8068.4 10988.1 8044.8 10964.9 8026.4C10942.5 8007.2 10912.5 7997.6 10874.9 7997.6C10842.1 7997.6 10815.7 8006 10795.7 8022.8C10776.5 8039.6 10766.9 8064 10766.9 8096C10766.9 8118.4 10774.1 8137.2 10788.5 8152.4C10803.7 8166.8 10822.1 8178.8 10843.7 8188.4C10866.1 8197.2 10897.3 8207.6 10937.3 8219.6C10991.7 8235.6 11036.1 8251.6 11070.5 8267.6C11104.9 8283.6 11134.5 8307.6 11159.3 8339.6C11184.1 8371.6 11196.5 8413.6 11196.5 8465.6C11196.5 8510.4 11184.9 8552 11161.7 8590.4C11138.5 8628.8 11104.5 8659.6 11059.7 8682.8C11014.9 8705.2 10961.7 8716.4 10900.1 8716.4ZM11359 8375.6C11359 8306.8 11373 8246.8 11401 8195.6C11429 8143.6 11467.8 8103.6 11517.4 8075.6C11567 8046.8 11623.8 8032.4 11687.8 8032.4C11770.2 8032.4 11838.2 8053.2 11891.8 8094.8C11946.2 8135.6 11982.6 8193.2 12001 8267.6H11819.8C11810.2 8238.8 11793.8 8216.4 11770.6 8200.4C11748.2 8183.6 11720.2 8175.2 11686.6 8175.2C11638.6 8175.2 11600.6 8192.8 11572.6 8228C11544.6 8262.4 11530.6 8311.6 11530.6 8375.6C11530.6 8438.8 11544.6 8488 11572.6 8523.2C11600.6 8557.6 11638.6 8574.8 11686.6 8574.8C11754.6 8574.8 11799 8544.4 11819.8 8483.6H12001C11982.6 8555.6 11946.2 8612.8 11891.8 8655.2C11837.4 8697.6 11769.4 8718.8 11687.8 8718.8C11623.8 8718.8 11567 8704.8 11517.4 8676.8C11467.8 8648 11429 8608 11401 8556.8C11373 8504.8 11359 8444.4 11359 8375.6ZM12269.3 7964C12239.7 7964 12214.9 7954.8 12194.9 7936.4C12175.7 7917.2 12166.1 7893.6 12166.1 7865.6C12166.1 7837.6 12175.7 7814.4 12194.9 7796C12214.9 7776.8 12239.7 7767.2 12269.3 7767.2C12298.9 7767.2 12323.3 7776.8 12342.5 7796C12362.5 7814.4 12372.5 7837.6 12372.5 7865.6C12372.5 7893.6 12362.5 7917.2 12342.5 7936.4C12323.3 7954.8 12298.9 7964 12269.3 7964ZM12352.1 8043.2V8708H12184.1V8043.2H12352.1ZM13196.1 8361.2C13196.1 8385.2 13194.5 8406.8 13191.3 8426H12705.3C12709.3 8474 12726.1 8511.6 12755.7 8538.8C12785.3 8566 12821.7 8579.6 12864.9 8579.6C12927.3 8579.6 12971.7 8552.8 12998.1 8499.2H13179.3C13160.1 8563.2 13123.3 8616 13068.9 8657.6C13014.5 8698.4 12947.7 8718.8 12868.5 8718.8C12804.5 8718.8 12746.9 8704.8 12695.7 8676.8C12645.3 8648 12605.7 8607.6 12576.9 8555.6C12548.9 8503.6 12534.9 8443.6 12534.9 8375.6C12534.9 8306.8 12548.9 8246.4 12576.9 8194.4C12604.9 8142.4 12644.1 8102.4 12694.5 8074.4C12744.9 8046.4 12802.9 8032.4 12868.5 8032.4C12931.7 8032.4 12988.1 8046 13037.7 8073.2C13088.1 8100.4 13126.9 8139.2 13154.1 8189.6C13182.1 8239.2 13196.1 8296.4 13196.1 8361.2ZM13022.1 8313.2C13021.3 8270 13005.7 8235.6 12975.3 8210C12944.9 8183.6 12907.7 8170.4 12863.7 8170.4C12822.1 8170.4 12786.9 8183.2 12758.1 8208.8C12730.1 8233.6 12712.9 8268.4 12706.5 8313.2H13022.1ZM13747.1 8033.6C13826.3 8033.6 13890.3 8058.8 13939.1 8109.2C13987.9 8158.8 14012.3 8228.4 14012.3 8318V8708H13844.3V8340.8C13844.3 8288 13831.1 8247.6 13804.7 8219.6C13778.3 8190.8 13742.3 8176.4 13696.7 8176.4C13650.3 8176.4 13613.5 8190.8 13586.3 8219.6C13559.9 8247.6 13546.7 8288 13546.7 8340.8V8708H13378.7V8043.2H13546.7V8126C13569.1 8097.2 13597.5 8074.8 13631.9 8058.8C13667.1 8042 13705.5 8033.6 13747.1 8033.6ZM14188.8 8375.6C14188.8 8306.8 14202.8 8246.8 14230.8 8195.6C14258.8 8143.6 14297.6 8103.6 14347.2 8075.6C14396.8 8046.8 14453.6 8032.4 14517.6 8032.4C14600 8032.4 14668 8053.2 14721.6 8094.8C14776 8135.6 14812.4 8193.2 14830.8 8267.6H14649.6C14640 8238.8 14623.6 8216.4 14600.4 8200.4C14578 8183.6 14550 8175.2 14516.4 8175.2C14468.4 8175.2 14430.4 8192.8 14402.4 8228C14374.4 8262.4 14360.4 8311.6 14360.4 8375.6C14360.4 8438.8 14374.4 8488 14402.4 8523.2C14430.4 8557.6 14468.4 8574.8 14516.4 8574.8C14584.4 8574.8 14628.8 8544.4 14649.6 8483.6H14830.8C14812.4 8555.6 14776 8612.8 14721.6 8655.2C14667.2 8697.6 14599.2 8718.8 14517.6 8718.8C14453.6 8718.8 14396.8 8704.8 14347.2 8676.8C14297.6 8648 14258.8 8608 14230.8 8556.8C14202.8 8504.8 14188.8 8444.4 14188.8 8375.6ZM15631.9 8361.2C15631.9 8385.2 15630.3 8406.8 15627.1 8426H15141.1C15145.1 8474 15161.9 8511.6 15191.5 8538.8C15221.1 8566 15257.5 8579.6 15300.7 8579.6C15363.1 8579.6 15407.5 8552.8 15433.9 8499.2H15615.1C15595.9 8563.2 15559.1 8616 15504.7 8657.6C15450.3 8698.4 15383.5 8718.8 15304.3 8718.8C15240.3 8718.8 15182.7 8704.8 15131.5 8676.8C15081.1 8648 15041.5 8607.6 15012.7 8555.6C14984.7 8503.6 14970.7 8443.6 14970.7 8375.6C14970.7 8306.8 14984.7 8246.4 15012.7 8194.4C15040.7 8142.4 15079.9 8102.4 15130.3 8074.4C15180.7 8046.4 15238.7 8032.4 15304.3 8032.4C15367.5 8032.4 15423.9 8046 15473.5 8073.2C15523.9 8100.4 15562.7 8139.2 15589.9 8189.6C15617.9 8239.2 15631.9 8296.4 15631.9 8361.2ZM15457.9 8313.2C15457.1 8270 15441.5 8235.6 15411.1 8210C15380.7 8183.6 15343.5 8170.4 15299.5 8170.4C15257.9 8170.4 15222.7 8183.2 15193.9 8208.8C15165.9 8233.6 15148.7 8268.4 15142.3 8313.2H15457.9Z" fill="white"/>
<path d="M8939.36 5569.97C8909.2 5569.97 8879.05 5560.99 8855.99 5543.04C8844.86 5534.54 8836 5524.41 8829.92 5513.24C8823.85 5502.06 8820.67 5490.06 8820.59 5477.92C8820.51 5465.78 8823.52 5453.75 8829.44 5442.52C8835.36 5431.3 8844.09 5421.1 8855.1 5412.51L10469.2 4139C10480.2 4130.3 10493.3 4123.38 10507.7 4118.63C10522.1 4113.89 10537.6 4111.41 10553.3 4111.35C10568.9 4111.28 10584.5 4113.63 10599 4118.26C10613.5 4122.88 10626.6 4129.7 10637.7 4138.31L11816.4 5063.05L13376.4 3867.58C13423.4 3831.67 13497.9 3832.36 13544 3868.96C13590.1 3905.57 13589.2 3963.58 13542.2 3999.49L11898.9 5259.88C11852.7 5295.79 11777.4 5295.1 11731.2 5259.19L10554.4 4335.13L9023.61 5542.35C9000.55 5560.99 8970.4 5569.97 8939.36 5569.97Z" fill="#5E5E61"/>
<path d="M9517.6 5477.43C9517.6 5566.35 9483.74 5653.28 9420.3 5727.21C9356.86 5801.15 9266.69 5858.77 9161.19 5892.8C9055.69 5926.83 8939.6 5935.73 8827.61 5918.39C8715.61 5901.04 8612.74 5858.22 8531.99 5795.34C8451.25 5732.46 8396.26 5652.35 8373.98 5565.14C8351.7 5477.93 8363.14 5387.53 8406.84 5305.38C8450.53 5223.22 8524.54 5153 8619.48 5103.6C8714.43 5054.2 8826.05 5027.83 8940.24 5027.83C9258.63 5027.83 9517.6 5229.49 9517.6 5477.43Z" fill="#DA4765"/>
<path d="M11132.6 4206.68C11132.6 4295.6 11098.7 4382.53 11035.3 4456.46C10971.9 4530.4 10881.7 4588.02 10776.2 4622.05C10670.7 4656.08 10554.6 4664.98 10442.6 4647.64C10330.6 4630.29 10227.7 4587.47 10147 4524.59C10066.2 4461.71 10011.3 4381.6 9988.98 4294.39C9966.7 4207.18 9978.14 4116.78 10021.8 4034.63C10065.5 3952.47 10139.5 3882.25 10234.5 3832.85C10329.4 3783.45 10441.1 3757.08 10555.2 3757.08C10873.6 3756.39 11132.6 3958.05 11132.6 4206.68Z" fill="#68B19D"/>
<path d="M12393.7 5193.58C12393.7 5312.83 12332.9 5427.19 12224.6 5511.51C12116.3 5595.82 11969.4 5643.19 11816.3 5643.18C11663.2 5643.17 11516.3 5595.79 11408 5511.46C11299.7 5427.13 11238.9 5312.76 11238.9 5193.51C11238.9 5074.26 11299.8 4959.9 11408.1 4875.58C11461.7 4833.84 11525.4 4800.72 11595.4 4778.13C11665.5 4755.54 11740.6 4743.91 11816.4 4743.92C11892.2 4743.92 11967.3 4755.55 12037.3 4778.15C12107.4 4800.75 12171 4833.88 12224.6 4875.63C12278.3 4917.39 12320.8 4966.96 12349.8 5021.51C12378.8 5076.07 12393.7 5134.53 12393.7 5193.58Z" fill="#6590AB"/>
<path d="M13460.6 4384.17C13779.5 4384.17 14038 4182.88 14038 3934.57C14038 3686.27 13779.5 3484.97 13460.6 3484.97C13141.8 3484.97 12883.3 3686.27 12883.3 3934.57C12883.3 4182.88 13141.8 4384.17 13460.6 4384.17Z" fill="#DA4765"/>
<path d="M13384.4 3754.32C13384.4 3811.64 13325 3857.91 13251.3 3857.91C13177.7 3857.91 13118.3 3811.64 13118.3 3754.32C13118.3 3697 13177.7 3650.72 13251.3 3650.72C13325 3650.72 13384.4 3697 13384.4 3754.32ZM11746.3 5027.83C11746.3 5085.15 11686.9 5131.42 11613.3 5131.42C11539.7 5131.42 11480.3 5085.15 11480.3 5027.83C11480.3 4970.51 11539.7 4924.24 11613.3 4924.24C11686.9 4924.24 11746.3 4970.51 11746.3 5027.83ZM10515.3 4037.47C10515.3 4094.8 10455.9 4141.07 10382.3 4141.07C10308.7 4141.07 10249.3 4094.8 10249.3 4037.47C10249.3 3980.15 10308.7 3933.88 10382.3 3933.88C10455.9 3934.57 10515.3 3980.84 10515.3 4037.47ZM8918.96 5297.17C8918.96 5354.5 8859.54 5400.77 8785.93 5400.77C8712.32 5400.77 8652.9 5354.5 8652.9 5297.17C8652.9 5239.85 8712.32 5193.58 8785.93 5193.58C8859.54 5193.58 8918.96 5240.54 8918.96 5297.17Z" fill="#F9F9F9"/>
<defs>
<filter id="filter0_d_0_3" x="7561" y="19268" width="6383" height="2329" filterUnits="userSpaceOnUse" color-interpolation-filters="sRGB">
<feFlood flood-opacity="0" result="BackgroundImageFix"/>
<feColorMatrix in="SourceAlpha" type="matrix" values="0 0 0 0 0 0 0 0 0 0 0 0 0 0 0 0 0 0 127 0" result="hardAlpha"/>
<feOffset dy="4"/>
<feGaussianBlur stdDeviation="2"/>
<feComposite in2="hardAlpha" operator="out"/>
<feColorMatrix type="matrix" values="0 0 0 0 0 0 0 0 0 0 0 0 0 0 0 0 0 0 0.25 0"/>
<feBlend mode="normal" in2="BackgroundImageFix" result="effect1_dropShadow_0_3"/>
<feBlend mode="normal" in="SourceGraphic" in2="effect1_dropShadow_0_3" result="shape"/>
</filter>
<linearGradient id="paint0_linear_0_3" x1="1733.41" y1="-2667.06" x2="1942.16" y2="25150.5" gradientUnits="userSpaceOnUse">
<stop offset="0.431077" stop-color="#001833"/>
<stop offset="1" stop-color="#203956" stop-opacity="0.46"/>
</linearGradient>
</defs>
</svg>
