<svg width="22592" height="24881" viewBox="0 0 22592 24881" fill="none" xmlns="http://www.w3.org/2000/svg">
<g clip-path="url(#clip0_3_249)">
<path d="M0 899.999C0 402.943 402.944 0 900 0H21692C22189.1 0 22592 402.944 22592 900V23981C22592 24478.1 22189.1 24881 21692 24881H900C402.944 24881 0 24478.1 0 23981V899.999Z" fill="url(#paint0_linear_3_249)" fill-opacity="0.991525"/>
<path d="M20577.4 9653.9C20593.1 9653.9 20605.8 9643.63 20605.8 9630.95C20605.8 9618.28 20593.1 9608 20577.4 9608C20561.7 9608 20549 9618.28 20549 9630.95C20549 9643.63 20561.7 9653.9 20577.4 9653.9Z" fill="#D9D9D9"/>
<path d="M20634.4 4717.9C20650.1 4717.9 20662.8 4707.62 20662.8 4694.95C20662.8 4682.27 20650.1 4672 20634.4 4672C20618.7 4672 20606 4682.27 20606 4694.95C20606 4707.62 20618.7 4717.9 20634.4 4717.9Z" fill="#D9D9D9"/>
<path d="M19068.4 1247.9C19084.1 1247.9 19096.8 1237.63 19096.8 1224.95C19096.8 1212.27 19084.1 1202 19068.4 1202C19052.7 1202 19040 1212.27 19040 1224.95C19040 1237.63 19052.7 1247.9 19068.4 1247.9Z" fill="#D9D9D9"/>
<path d="M17393.4 6434.9C17409.1 6434.9 17421.8 6424.62 17421.8 6411.95C17421.8 6399.27 17409.1 6389 17393.4 6389C17377.7 6389 17365 6399.27 17365 6411.95C17365 6424.62 17377.7 6434.9 17393.4 6434.9Z" fill="#D9D9D9"/>
<path d="M1818.4 2541.9C1834.08 2541.9 1846.8 2531.62 1846.8 2518.95C1846.8 2506.27 1834.08 2496 1818.4 2496C1802.72 2496 1790 2506.27 1790 2518.95C1790 2531.62 1802.72 2541.9 1818.4 2541.9Z" fill="#D9D9D9"/>
<path d="M1875.4 8707.9C1891.08 8707.9 1903.8 8697.63 1903.8 8684.95C1903.8 8672.28 1891.08 8662 1875.4 8662C1859.72 8662 1847 8672.28 1847 8684.95C1847 8697.63 1859.72 8707.9 1875.4 8707.9Z" fill="#D9D9D9"/>
<path d="M7348.31 10314C7360.63 10314 7370.62 10303.5 7370.62 10290.5C7370.62 10277.5 7360.63 10267 7348.31 10267C7335.99 10267 7326 10277.5 7326 10290.5C7326 10303.5 7335.99 10314 7348.31 10314Z" fill="white"/>
<path d="M4418.31 5349.94C4430.63 5349.94 4440.62 5339.43 4440.62 5326.47C4440.62 5313.51 4430.63 5303 4418.31 5303C4405.99 5303 4396 5313.51 4396 5326.47C4396 5339.43 4405.99 5349.94 4418.31 5349.94Z" fill="white"/>
<path d="M15055.3 1201.94C15067.6 1201.94 15077.6 1191.43 15077.6 1178.47C15077.6 1165.51 15067.6 1155 15055.3 1155C15043 1155 15033 1165.51 15033 1178.47C15033 1191.43 15043 1201.94 15055.3 1201.94Z" fill="white"/>
<path d="M6039.31 1155C6051.63 1155 6061.62 1143.8 6061.62 1130C6061.62 1116.19 6051.63 1105 6039.31 1105C6026.99 1105 6017 1116.19 6017 1130C6017 1143.8 6026.99 1155 6039.31 1155Z" fill="white"/>
<path d="M22492 11107H100C44.7715 11107 0 11151.8 0 11207V11356C0 11411.2 44.7715 11456 100 11456H22492C22547.2 11456 22592 11411.2 22592 11356V11207C22592 11151.8 22547.2 11107 22492 11107Z" fill="#D9D350"/>
<g filter="url(#filter0_d_3_249)">
<path d="M13415 19280.5H8090C7806.95 19280.5 7577.5 19510 7577.5 19793V21064C7577.5 21347 7806.95 21576.5 8090 21576.5H13415C13698 21576.5 13927.5 21347 13927.5 21064V19793C13927.5 19510 13698 19280.5 13415 19280.5Z" stroke="#DDDDDD" stroke-width="25"/>
</g>
<path d="M5434.89 14886C5498.89 14832.7 5549.89 14788.3 5587.89 14753C5625.89 14717 5657.56 14679.7 5682.89 14641C5708.23 14602.3 5720.89 14564.3 5720.89 14527C5720.89 14493 5712.89 14466.3 5696.89 14447C5680.89 14427.7 5656.23 14418 5622.89 14418C5589.56 14418 5563.89 14429.3 5545.89 14452C5527.89 14474 5518.56 14504.3 5517.89 14543H5381.89C5384.56 14463 5408.23 14402.3 5452.89 14361C5498.23 14319.7 5555.56 14299 5624.89 14299C5700.89 14299 5759.23 14319.3 5799.89 14360C5840.56 14400 5860.89 14453 5860.89 14519C5860.89 14571 5846.89 14620.7 5818.89 14668C5790.89 14715.3 5758.89 14756.7 5722.89 14792C5686.89 14826.7 5639.89 14868.7 5581.89 14918H5876.89V15034H5382.89V14930L5434.89 14886ZM6505.11 14436H6181.11V14607C6195.11 14589.7 6215.11 14575.7 6241.11 14565C6267.11 14553.7 6294.78 14548 6324.11 14548C6377.45 14548 6421.11 14559.7 6455.11 14583C6489.11 14606.3 6513.78 14636.3 6529.11 14673C6544.45 14709 6552.11 14747.7 6552.11 14789C6552.11 14865.7 6530.11 14927.3 6486.11 14974C6442.78 15020.7 6380.78 15044 6300.11 15044C6224.11 15044 6163.45 15025 6118.11 14987C6072.78 14949 6047.11 14899.3 6041.11 14838H6177.11C6183.11 14864.7 6196.45 14886 6217.11 14902C6238.45 14918 6265.45 14926 6298.11 14926C6337.45 14926 6367.11 14913.7 6387.11 14889C6407.11 14864.3 6417.11 14831.7 6417.11 14791C6417.11 14749.7 6406.78 14718.3 6386.11 14697C6366.11 14675 6336.45 14664 6297.11 14664C6269.11 14664 6245.78 14671 6227.11 14685C6208.45 14699 6195.11 14717.7 6187.11 14741H6053.11V14313H6505.11V14436ZM6708.67 14670C6708.67 14554.7 6729.33 14464.3 6770.67 14399C6812.67 14333.7 6882 14301 6978.67 14301C7075.33 14301 7144.33 14333.7 7185.67 14399C7227.67 14464.3 7248.67 14554.7 7248.67 14670C7248.67 14786 7227.67 14877 7185.67 14943C7144.33 15009 7075.33 15042 6978.67 15042C6882 15042 6812.67 15009 6770.67 14943C6729.33 14877 6708.67 14786 6708.67 14670ZM7110.67 14670C7110.67 14620.7 7107.33 14579.3 7100.67 14546C7094.67 14512 7082 14484.3 7062.67 14463C7044 14441.7 7016 14431 6978.67 14431C6941.33 14431 6913 14441.7 6893.67 14463C6875 14484.3 6862.33 14512 6855.67 14546C6849.67 14579.3 6846.67 14620.7 6846.67 14670C6846.67 14720.7 6849.67 14763.3 6855.67 14798C6861.67 14832 6874.33 14859.7 6893.67 14881C6913 14901.7 6941.33 14912 6978.67 14912C7016 14912 7044.33 14901.7 7063.67 14881C7083 14859.7 7095.67 14832 7101.67 14798C7107.67 14763.3 7110.67 14720.7 7110.67 14670ZM7849.43 14304V15044H7709.43V14304H7849.43ZM8552.75 14755C8552.75 14775 8551.42 14793 8548.75 14809H8143.75C8147.09 14849 8161.09 14880.3 8185.75 14903C8210.42 14925.7 8240.75 14937 8276.75 14937C8328.75 14937 8365.75 14914.7 8387.75 14870H8538.75C8522.75 14923.3 8492.09 14967.3 8446.75 15002C8401.42 15036 8345.75 15053 8279.75 15053C8226.42 15053 8178.42 15041.3 8135.75 15018C8093.75 14994 8060.75 14960.3 8036.75 14917C8013.42 14873.7 8001.75 14823.7 8001.75 14767C8001.75 14709.7 8013.42 14659.3 8036.75 14616C8060.09 14572.7 8092.75 14539.3 8134.75 14516C8176.75 14492.7 8225.09 14481 8279.75 14481C8332.42 14481 8379.42 14492.3 8420.75 14515C8462.75 14537.7 8495.09 14570 8517.75 14612C8541.09 14653.3 8552.75 14701 8552.75 14755ZM8407.75 14715C8407.09 14679 8394.09 14650.3 8368.75 14629C8343.42 14607 8312.42 14596 8275.75 14596C8241.09 14596 8211.75 14606.7 8187.75 14628C8164.42 14648.7 8150.09 14677.7 8144.75 14715H8407.75ZM8916.94 15053C8871.61 15053 8830.94 15045 8794.94 15029C8758.94 15012.3 8730.27 14990 8708.94 14962C8688.27 14934 8676.94 14903 8674.94 14869H8815.94C8818.61 14890.3 8828.94 14908 8846.94 14922C8865.61 14936 8888.61 14943 8915.94 14943C8942.61 14943 8963.27 14937.7 8977.94 14927C8993.27 14916.3 9000.94 14902.7 9000.94 14886C9000.94 14868 8991.61 14854.7 8972.94 14846C8954.94 14836.7 8925.94 14826.7 8885.94 14816C8844.61 14806 8810.61 14795.7 8783.94 14785C8757.94 14774.3 8735.27 14758 8715.94 14736C8697.27 14714 8687.94 14684.3 8687.94 14647C8687.94 14616.3 8696.61 14588.3 8713.94 14563C8731.94 14537.7 8757.27 14517.7 8789.94 14503C8823.27 14488.3 8862.27 14481 8906.94 14481C8972.94 14481 9025.61 14497.7 9064.94 14531C9104.27 14563.7 9125.94 14608 9129.94 14664H8995.94C8993.94 14642 8984.61 14624.7 8967.94 14612C8951.94 14598.7 8930.27 14592 8902.94 14592C8877.61 14592 8857.94 14596.7 8843.94 14606C8830.61 14615.3 8823.94 14628.3 8823.94 14645C8823.94 14663.7 8833.27 14678 8851.94 14688C8870.61 14697.3 8899.61 14707 8938.94 14717C8978.94 14727 9011.94 14737.3 9037.94 14748C9063.94 14758.7 9086.27 14775.3 9104.94 14798C9124.27 14820 9134.27 14849.3 9134.94 14886C9134.94 14918 9125.94 14946.7 9107.94 14972C9090.61 14997.3 9065.27 15017.3 9031.94 15032C8999.27 15046 8960.94 15053 8916.94 15053ZM9511.86 15053C9466.53 15053 9425.86 15045 9389.86 15029C9353.86 15012.3 9325.2 14990 9303.86 14962C9283.2 14934 9271.86 14903 9269.86 14869H9410.86C9413.53 14890.3 9423.86 14908 9441.86 14922C9460.53 14936 9483.53 14943 9510.86 14943C9537.53 14943 9558.2 14937.7 9572.86 14927C9588.2 14916.3 9595.86 14902.7 9595.86 14886C9595.86 14868 9586.53 14854.7 9567.86 14846C9549.86 14836.7 9520.86 14826.7 9480.86 14816C9439.53 14806 9405.53 14795.7 9378.86 14785C9352.86 14774.3 9330.2 14758 9310.86 14736C9292.2 14714 9282.86 14684.3 9282.86 14647C9282.86 14616.3 9291.53 14588.3 9308.86 14563C9326.86 14537.7 9352.2 14517.7 9384.86 14503C9418.2 14488.3 9457.2 14481 9501.86 14481C9567.86 14481 9620.53 14497.7 9659.86 14531C9699.2 14563.7 9720.86 14608 9724.86 14664H9590.86C9588.86 14642 9579.53 14624.7 9562.86 14612C9546.86 14598.7 9525.2 14592 9497.86 14592C9472.53 14592 9452.86 14596.7 9438.86 14606C9425.53 14615.3 9418.86 14628.3 9418.86 14645C9418.86 14663.7 9428.2 14678 9446.86 14688C9465.53 14697.3 9494.53 14707 9533.86 14717C9573.86 14727 9606.86 14737.3 9632.86 14748C9658.86 14758.7 9681.2 14775.3 9699.86 14798C9719.2 14820 9729.2 14849.3 9729.86 14886C9729.86 14918 9720.86 14946.7 9702.86 14972C9685.53 14997.3 9660.2 15017.3 9626.86 15032C9594.2 15046 9555.86 15053 9511.86 15053ZM10140.8 15053C10087.5 15053 10039.5 15041.3 9996.79 15018C9954.12 14994 9920.45 14960.3 9895.79 14917C9871.79 14873.7 9859.79 14823.7 9859.79 14767C9859.79 14710.3 9872.12 14660.3 9896.79 14617C9922.12 14573.7 9956.45 14540.3 9999.79 14517C10043.1 14493 10091.5 14481 10144.8 14481C10198.1 14481 10246.5 14493 10289.8 14517C10333.1 14540.3 10367.1 14573.7 10391.8 14617C10417.1 14660.3 10429.8 14710.3 10429.8 14767C10429.8 14823.7 10416.8 14873.7 10390.8 14917C10365.5 14960.3 10330.8 14994 10286.8 15018C10243.5 15041.3 10194.8 15053 10140.8 15053ZM10140.8 14931C10166.1 14931 10189.8 14925 10211.8 14913C10234.5 14900.3 10252.5 14881.7 10265.8 14857C10279.1 14832.3 10285.8 14802.3 10285.8 14767C10285.8 14714.3 10271.8 14674 10243.8 14646C10216.5 14617.3 10182.8 14603 10142.8 14603C10102.8 14603 10069.1 14617.3 10041.8 14646C10015.1 14674 10001.8 14714.3 10001.8 14767C10001.8 14819.7 10014.8 14860.3 10040.8 14889C10067.5 14917 10100.8 14931 10140.8 14931ZM10889.5 14482C10955.5 14482 11008.8 14503 11049.5 14545C11090.1 14586.3 11110.5 14644.3 11110.5 14719V15044H10970.5V14738C10970.5 14694 10959.5 14660.3 10937.5 14637C10915.5 14613 10885.5 14601 10847.5 14601C10808.8 14601 10778.1 14613 10755.5 14637C10733.5 14660.3 10722.5 14694 10722.5 14738V15044H10582.5V14490H10722.5V14559C10741.1 14535 10764.8 14516.3 10793.5 14503C10822.8 14489 10854.8 14482 10889.5 14482ZM11505.6 15053C11460.3 15053 11419.6 15045 11383.6 15029C11347.6 15012.3 11318.9 14990 11297.6 14962C11276.9 14934 11265.6 14903 11263.6 14869H11404.6C11407.3 14890.3 11417.6 14908 11435.6 14922C11454.3 14936 11477.3 14943 11504.6 14943C11531.3 14943 11551.9 14937.7 11566.6 14927C11581.9 14916.3 11589.6 14902.7 11589.6 14886C11589.6 14868 11580.3 14854.7 11561.6 14846C11543.6 14836.7 11514.6 14826.7 11474.6 14816C11433.3 14806 11399.3 14795.7 11372.6 14785C11346.6 14774.3 11323.9 14758 11304.6 14736C11285.9 14714 11276.6 14684.3 11276.6 14647C11276.6 14616.3 11285.3 14588.3 11302.6 14563C11320.6 14537.7 11345.9 14517.7 11378.6 14503C11411.9 14488.3 11450.9 14481 11495.6 14481C11561.6 14481 11614.3 14497.7 11653.6 14531C11692.9 14563.7 11714.6 14608 11718.6 14664H11584.6C11582.6 14642 11573.3 14624.7 11556.6 14612C11540.6 14598.7 11518.9 14592 11491.6 14592C11466.3 14592 11446.6 14596.7 11432.6 14606C11419.3 14615.3 11412.6 14628.3 11412.6 14645C11412.6 14663.7 11421.9 14678 11440.6 14688C11459.3 14697.3 11488.3 14707 11527.6 14717C11567.6 14727 11600.6 14737.3 11626.6 14748C11652.6 14758.7 11674.9 14775.3 11693.6 14798C11712.9 14820 11722.9 14849.3 11723.6 14886C11723.6 14918 11714.6 14946.7 11696.6 14972C11679.3 14997.3 11653.9 15017.3 11620.6 15032C11587.9 15046 11549.6 15053 11505.6 15053ZM12332.8 15165H12191.8V14236H12332.8V15165ZM12790.7 14444V14315H13031.7V15044H12887.7V14444H12790.7ZM13598 14497C13591.3 14469 13579.7 14448 13563 14434C13547 14420 13523.7 14413 13493 14413C13447 14413 13413 14431.7 13391 14469C13369.7 14505.7 13358.7 14565.7 13358 14649C13374 14622.3 13397.3 14601.7 13428 14587C13458.7 14571.7 13492 14564 13528 14564C13571.3 14564 13609.7 14573.3 13643 14592C13676.3 14610.7 13702.3 14638 13721 14674C13739.7 14709.3 13749 14752 13749 14802C13749 14849.3 13739.3 14891.7 13720 14929C13701.3 14965.7 13673.7 14994.3 13637 15015C13600.3 15035.7 13556.7 15046 13506 15046C13436.7 15046 13382 15030.7 13342 15000C13302.7 14969.3 13275 14926.7 13259 14872C13243.7 14816.7 13236 14748.7 13236 14668C13236 14546 13257 14454 13299 14392C13341 14329.3 13407.3 14298 13498 14298C13568 14298 13622.3 14317 13661 14355C13699.7 14393 13722 14440.3 13728 14497H13598ZM13496 14679C13460.7 14679 13431 14689.3 13407 14710C13383 14730.7 13371 14760.7 13371 14800C13371 14839.3 13382 14870.3 13404 14893C13426.7 14915.7 13458.3 14927 13499 14927C13535 14927 13563.3 14916 13584 14894C13605.3 14872 13616 14842.3 13616 14805C13616 14766.3 13605.7 14735.7 13585 14713C13565 14690.3 13535.3 14679 13496 14679ZM14525.9 14482C14567.9 14482 14605.3 14491.3 14637.9 14510C14670.6 14528 14695.9 14555 14713.9 14591C14732.6 14626.3 14741.9 14669 14741.9 14719V15044H14601.9V14738C14601.9 14694 14590.9 14660.3 14568.9 14637C14546.9 14613 14516.9 14601 14478.9 14601C14440.3 14601 14409.6 14613 14386.9 14637C14364.9 14660.3 14353.9 14694 14353.9 14738V15044H14213.9V14304H14353.9V14559C14371.9 14535 14395.9 14516.3 14425.9 14503C14455.9 14489 14489.3 14482 14525.9 14482ZM15171.1 15053C15117.7 15053 15069.7 15041.3 15027.1 15018C14984.4 14994 14950.7 14960.3 14926.1 14917C14902.1 14873.7 14890.1 14823.7 14890.1 14767C14890.1 14710.3 14902.4 14660.3 14927.1 14617C14952.4 14573.7 14986.7 14540.3 15030.1 14517C15073.4 14493 15121.7 14481 15175.1 14481C15228.4 14481 15276.7 14493 15320.1 14517C15363.4 14540.3 15397.4 14573.7 15422.1 14617C15447.4 14660.3 15460.1 14710.3 15460.1 14767C15460.1 14823.7 15447.1 14873.7 15421.1 14917C15395.7 14960.3 15361.1 14994 15317.1 15018C15273.7 15041.3 15225.1 15053 15171.1 15053ZM15171.1 14931C15196.4 14931 15220.1 14925 15242.1 14913C15264.7 14900.3 15282.7 14881.7 15296.1 14857C15309.4 14832.3 15316.1 14802.3 15316.1 14767C15316.1 14714.3 15302.1 14674 15274.1 14646C15246.7 14617.3 15213.1 14603 15173.1 14603C15133.1 14603 15099.4 14617.3 15072.1 14646C15045.4 14674 15032.1 14714.3 15032.1 14767C15032.1 14819.7 15045.1 14860.3 15071.1 14889C15097.7 14917 15131.1 14931 15171.1 14931ZM16135.8 14490V15044H15994.8V14974C15976.8 14998 15953.1 15017 15923.8 15031C15895.1 15044.3 15863.8 15051 15829.8 15051C15786.4 15051 15748.1 15042 15714.8 15024C15681.4 15005.3 15655.1 14978.3 15635.8 14943C15617.1 14907 15607.8 14864.3 15607.8 14815V14490H15747.8V14795C15747.8 14839 15758.8 14873 15780.8 14897C15802.8 14920.3 15832.8 14932 15870.8 14932C15909.4 14932 15939.8 14920.3 15961.8 14897C15983.8 14873 15994.8 14839 15994.8 14795V14490H16135.8ZM16463.9 14576C16481.9 14546.7 16505.2 14523.7 16533.9 14507C16563.2 14490.3 16596.6 14482 16633.9 14482V14629H16596.9C16552.9 14629 16519.6 14639.3 16496.9 14660C16474.9 14680.7 16463.9 14716.7 16463.9 14768V15044H16323.9V14490H16463.9V14576ZM16990.2 15053C16944.9 15053 16904.2 15045 16868.2 15029C16832.2 15012.3 16803.5 14990 16782.2 14962C16761.5 14934 16750.2 14903 16748.2 14869H16889.2C16891.9 14890.3 16902.2 14908 16920.2 14922C16938.9 14936 16961.9 14943 16989.2 14943C17015.9 14943 17036.5 14937.7 17051.2 14927C17066.5 14916.3 17074.2 14902.7 17074.2 14886C17074.2 14868 17064.9 14854.7 17046.2 14846C17028.2 14836.7 16999.2 14826.7 16959.2 14816C16917.9 14806 16883.9 14795.7 16857.2 14785C16831.2 14774.3 16808.5 14758 16789.2 14736C16770.5 14714 16761.2 14684.3 16761.2 14647C16761.2 14616.3 16769.9 14588.3 16787.2 14563C16805.2 14537.7 16830.5 14517.7 16863.2 14503C16896.5 14488.3 16935.5 14481 16980.2 14481C17046.2 14481 17098.9 14497.7 17138.2 14531C17177.5 14563.7 17199.2 14608 17203.2 14664H17069.2C17067.2 14642 17057.9 14624.7 17041.2 14612C17025.2 14598.7 17003.5 14592 16976.2 14592C16950.9 14592 16931.2 14596.7 16917.2 14606C16903.9 14615.3 16897.2 14628.3 16897.2 14645C16897.2 14663.7 16906.5 14678 16925.2 14688C16943.9 14697.3 16972.9 14707 17012.2 14717C17052.2 14727 17085.2 14737.3 17111.2 14748C17137.2 14758.7 17159.5 14775.3 17178.2 14798C17197.5 14820 17207.5 14849.3 17208.2 14886C17208.2 14918 17199.2 14946.7 17181.2 14972C17163.9 14997.3 17138.5 15017.3 17105.2 15032C17072.5 15046 17034.2 15053 16990.2 15053Z" fill="#DDDDDD"/>
<path d="M6847.07 7870.4C6935.07 7870.4 7012.27 7887.6 7078.67 7922C7145.87 7956.4 7197.47 8005.6 7233.47 8069.6C7270.27 8132.8 7288.67 8206.4 7288.67 8290.4C7288.67 8374.4 7270.27 8448 7233.47 8511.2C7197.47 8573.6 7145.87 8622 7078.67 8656.4C7012.27 8690.8 6935.07 8708 6847.07 8708H6554.27V7870.4H6847.07ZM6841.07 8565.2C6929.07 8565.2 6997.07 8541.2 7045.07 8493.2C7093.07 8445.2 7117.07 8377.6 7117.07 8290.4C7117.07 8203.2 7093.07 8135.2 7045.07 8086.4C6997.07 8036.8 6929.07 8012 6841.07 8012H6722.27V8565.2H6841.07ZM7431.22 8373.2C7431.22 8306 7444.42 8246.4 7470.82 8194.4C7498.03 8142.4 7534.43 8102.4 7580.03 8074.4C7626.43 8046.4 7678.03 8032.4 7734.83 8032.4C7784.43 8032.4 7827.63 8042.4 7864.43 8062.4C7902.03 8082.4 7932.03 8107.6 7954.43 8138V8043.2H8123.63V8708H7954.43V8610.8C7932.83 8642 7902.83 8668 7864.43 8688.8C7826.83 8708.8 7783.23 8718.8 7733.63 8718.8C7677.63 8718.8 7626.43 8704.4 7580.03 8675.6C7534.43 8646.8 7498.03 8606.4 7470.82 8554.4C7444.42 8501.6 7431.22 8441.2 7431.22 8373.2ZM7954.43 8375.6C7954.43 8334.8 7946.43 8300 7930.43 8271.2C7914.43 8241.6 7892.83 8219.2 7865.63 8204C7838.43 8188 7809.23 8180 7778.03 8180C7746.83 8180 7718.03 8187.6 7691.62 8202.8C7665.23 8218 7643.63 8240.4 7626.83 8270C7610.83 8298.8 7602.83 8333.2 7602.83 8373.2C7602.83 8413.2 7610.83 8448.4 7626.83 8478.8C7643.63 8508.4 7665.23 8531.2 7691.62 8547.2C7718.83 8563.2 7747.63 8571.2 7778.03 8571.2C7809.23 8571.2 7838.43 8563.6 7865.63 8548.4C7892.83 8532.4 7914.43 8510 7930.43 8481.2C7946.43 8451.6 7954.43 8416.4 7954.43 8375.6ZM8543.31 8181.2V8502.8C8543.31 8525.2 8548.51 8541.6 8558.91 8552C8570.11 8561.6 8588.51 8566.4 8614.11 8566.4H8692.11V8708H8586.51C8444.91 8708 8374.11 8639.2 8374.11 8501.6V8181.2H8294.91V8043.2H8374.11V7878.8H8543.31V8043.2H8692.11V8181.2H8543.31ZM8829.74 8373.2C8829.74 8306 8842.94 8246.4 8869.34 8194.4C8896.54 8142.4 8932.94 8102.4 8978.54 8074.4C9024.94 8046.4 9076.54 8032.4 9133.34 8032.4C9182.94 8032.4 9226.14 8042.4 9262.94 8062.4C9300.54 8082.4 9330.54 8107.6 9352.94 8138V8043.2H9522.14V8708H9352.94V8610.8C9331.34 8642 9301.34 8668 9262.94 8688.8C9225.34 8708.8 9181.74 8718.8 9132.14 8718.8C9076.14 8718.8 9024.94 8704.4 8978.54 8675.6C8932.94 8646.8 8896.54 8606.4 8869.34 8554.4C8842.94 8501.6 8829.74 8441.2 8829.74 8373.2ZM9352.94 8375.6C9352.94 8334.8 9344.94 8300 9328.94 8271.2C9312.94 8241.6 9291.34 8219.2 9264.14 8204C9236.94 8188 9207.74 8180 9176.54 8180C9145.34 8180 9116.54 8187.6 9090.14 8202.8C9063.74 8218 9042.14 8240.4 9025.34 8270C9009.34 8298.8 9001.34 8333.2 9001.34 8373.2C9001.34 8413.2 9009.34 8448.4 9025.34 8478.8C9042.14 8508.4 9063.74 8531.2 9090.14 8547.2C9117.34 8563.2 9146.14 8571.2 9176.54 8571.2C9207.74 8571.2 9236.94 8563.6 9264.14 8548.4C9291.34 8532.4 9312.94 8510 9328.94 8481.2C9344.94 8451.6 9352.94 8416.4 9352.94 8375.6ZM10605.8 8548.4H10272.2L10217 8708H10040.6L10341.8 7869.2H10537.4L10838.6 8708H10661L10605.8 8548.4ZM10560.2 8414L10439 8063.6L10317.8 8414H10560.2ZM11379.5 8033.6C11458.7 8033.6 11522.7 8058.8 11571.5 8109.2C11620.3 8158.8 11644.7 8228.4 11644.7 8318V8708H11476.7V8340.8C11476.7 8288 11463.5 8247.6 11437.1 8219.6C11410.7 8190.8 11374.7 8176.4 11329.1 8176.4C11282.7 8176.4 11245.9 8190.8 11218.7 8219.6C11192.3 8247.6 11179.1 8288 11179.1 8340.8V8708H11011.1V8043.2H11179.1V8126C11201.5 8097.2 11229.9 8074.8 11264.3 8058.8C11299.5 8042 11337.9 8033.6 11379.5 8033.6ZM11821.3 8373.2C11821.3 8306 11834.5 8246.4 11860.9 8194.4C11888.1 8142.4 11924.5 8102.4 11970.1 8074.4C12016.5 8046.4 12068.1 8032.4 12124.9 8032.4C12174.5 8032.4 12217.7 8042.4 12254.5 8062.4C12292.1 8082.4 12322.1 8107.6 12344.5 8138V8043.2H12513.7V8708H12344.5V8610.8C12322.9 8642 12292.9 8668 12254.5 8688.8C12216.9 8708.8 12173.3 8718.8 12123.7 8718.8C12067.7 8718.8 12016.5 8704.4 11970.1 8675.6C11924.5 8646.8 11888.1 8606.4 11860.9 8554.4C11834.5 8501.6 11821.3 8441.2 11821.3 8373.2ZM12344.5 8375.6C12344.5 8334.8 12336.5 8300 12320.5 8271.2C12304.5 8241.6 12282.9 8219.2 12255.7 8204C12228.5 8188 12199.3 8180 12168.1 8180C12136.9 8180 12108.1 8187.6 12081.7 8202.8C12055.3 8218 12033.7 8240.4 12016.9 8270C12000.9 8298.8 11992.9 8333.2 11992.9 8373.2C11992.9 8413.2 12000.9 8448.4 12016.9 8478.8C12033.7 8508.4 12055.3 8531.2 12081.7 8547.2C12108.9 8563.2 12137.7 8571.2 12168.1 8571.2C12199.3 8571.2 12228.5 8563.6 12255.7 8548.4C12282.9 8532.4 12304.5 8510 12320.5 8481.2C12336.5 8451.6 12344.5 8416.4 12344.5 8375.6ZM12905.8 7820V8708H12737.8V7820H12905.8ZM13767.8 8043.2L13356.2 9022.4H13177.4L13321.4 8691.2L13055 8043.2H13243.4L13415 8507.6L13589 8043.2H13767.8ZM14113.9 8181.2V8502.8C14113.9 8525.2 14119.1 8541.6 14129.5 8552C14140.7 8561.6 14159.1 8566.4 14184.7 8566.4H14262.7V8708H14157.1C14015.5 8708 13944.7 8639.2 13944.7 8501.6V8181.2H13865.5V8043.2H13944.7V7878.8H14113.9V8043.2H14262.7V8181.2H14113.9ZM14528.8 7964C14499.2 7964 14474.4 7954.8 14454.4 7936.4C14435.2 7917.2 14425.6 7893.6 14425.6 7865.6C14425.6 7837.6 14435.2 7814.4 14454.4 7796C14474.4 7776.8 14499.2 7767.2 14528.8 7767.2C14558.4 7767.2 14582.8 7776.8 14602 7796C14622 7814.4 14632 7837.6 14632 7865.6C14632 7893.6 14622 7917.2 14602 7936.4C14582.8 7954.8 14558.4 7964 14528.8 7964ZM14611.6 8043.2V8708H14443.6V8043.2H14611.6ZM14794.3 8375.6C14794.3 8306.8 14808.4 8246.8 14836.4 8195.6C14864.4 8143.6 14903.2 8103.6 14952.8 8075.6C15002.4 8046.8 15059.2 8032.4 15123.2 8032.4C15205.6 8032.4 15273.6 8053.2 15327.2 8094.8C15381.6 8135.6 15418 8193.2 15436.4 8267.6H15255.2C15245.6 8238.8 15229.2 8216.4 15206 8200.4C15183.6 8183.6 15155.6 8175.2 15122 8175.2C15074 8175.2 15036 8192.8 15008 8228C14980 8262.4 14966 8311.6 14966 8375.6C14966 8438.8 14980 8488 15008 8523.2C15036 8557.6 15074 8574.8 15122 8574.8C15190 8574.8 15234.4 8544.4 15255.2 8483.6H15436.4C15418 8555.6 15381.6 8612.8 15327.2 8655.2C15272.8 8697.6 15204.8 8718.8 15123.2 8718.8C15059.2 8718.8 15002.4 8704.8 14952.8 8676.8C14903.2 8648 14864.4 8608 14836.4 8556.8C14808.4 8504.8 14794.3 8444.4 14794.3 8375.6ZM15873.8 8718.8C15819.4 8718.8 15770.6 8709.2 15727.4 8690C15684.2 8670 15649.8 8643.2 15624.2 8609.6C15599.4 8576 15585.8 8538.8 15583.4 8498H15752.6C15755.8 8523.6 15768.2 8544.8 15789.8 8561.6C15812.2 8578.4 15839.8 8586.8 15872.6 8586.8C15904.6 8586.8 15929.4 8580.4 15947 8567.6C15965.4 8554.8 15974.6 8538.4 15974.6 8518.4C15974.6 8496.8 15963.4 8480.8 15941 8470.4C15919.4 8459.2 15884.6 8447.2 15836.6 8434.4C15787 8422.4 15746.2 8410 15714.2 8397.2C15683 8384.4 15655.8 8364.8 15632.6 8338.4C15610.2 8312 15599 8276.4 15599 8231.6C15599 8194.8 15609.4 8161.2 15630.2 8130.8C15651.8 8100.4 15682.2 8076.4 15721.4 8058.8C15761.4 8041.2 15808.2 8032.4 15861.8 8032.4C15941 8032.4 16004.2 8052.4 16051.4 8092.4C16098.6 8131.6 16124.6 8184.8 16129.4 8252H15968.6C15966.2 8225.6 15955 8204.8 15935 8189.6C15915.8 8173.6 15889.8 8165.6 15857 8165.6C15826.6 8165.6 15803 8171.2 15786.2 8182.4C15770.2 8193.6 15762.2 8209.2 15762.2 8229.2C15762.2 8251.6 15773.4 8268.8 15795.8 8280.8C15818.2 8292 15853 8303.6 15900.2 8315.6C15948.2 8327.6 15987.8 8340 16019 8352.8C16050.2 8365.6 16077 8385.6 16099.4 8412.8C16122.6 8439.2 16134.6 8474.4 16135.4 8518.4C16135.4 8556.8 16124.6 8591.2 16103 8621.6C16082.2 8652 16051.8 8676 16011.8 8693.6C15972.6 8710.4 15926.6 8718.8 15873.8 8718.8Z" fill="white"/>
<mask id="mask0_3_249" style="mask-type:luminance" maskUnits="userSpaceOnUse" x="9156" y="2209" width="5016" height="4678">
<path d="M14172 2209H9156V6887H14172V2209Z" fill="white"/>
</mask>
<g mask="url(#mask0_3_249)">
<path d="M11617 4723.43C11577.8 4774.59 11530.8 4833.07 11475.9 4876.92C11421 4928.09 11366.2 4971.95 11311.3 5008.49C10778.4 5366.65 10033.8 5322.8 9555.71 4876.92C9461.66 4789.21 9383.29 4694.19 9320.59 4591.86C9038.44 4109.44 9116.81 3495.45 9555.71 3086.13C10041.6 2632.95 10801.9 2596.4 11334.8 2969.18C11389.7 3005.72 11436.7 3042.27 11483.7 3086.13C11954 3532 12001 4226.39 11617 4723.43Z" fill="#445C6C"/>
<path d="M11891.3 4971.94L11577.8 5257.01L11311.3 5008.49C11366.2 4964.63 11428.9 4920.77 11475.9 4876.92C11530.8 4825.75 11577.8 4774.59 11617 4723.42L11891.3 4971.94Z" fill="#2E435A"/>
<path d="M12965 6265.7C12800.4 6419.2 12541.8 6419.2 12377.2 6265.7L11381.8 5344.72L11522.9 5213.15L11836.4 4928.08L11977.5 4796.52L12965 5717.5C13129.6 5870.99 13129.6 6112.2 12965 6265.7Z" fill="#34AFAA"/>
<path d="M13748.8 4021.73H14078V4650.33H13748.8V4021.73Z" fill="#51BF9F"/>
<path d="M13247.2 4182.53H13576.4V4643.02H13247.2V4182.53Z" fill="#F26E61"/>
<path d="M12745.6 3941.32H13074.7V4643.02H12745.6V3941.32Z" fill="#4EBDE5"/>
<path d="M12236.1 4116.75H12565.3V4650.33H12236.1V4116.75Z" fill="#ECC25D"/>
<path d="M14172 3466.21V3458.91C14172 3451.6 14172 3451.6 14164.2 3444.29V3429.67C14156.3 3415.05 14140.7 3407.74 14132.8 3400.43L14125 3393.12L13913.4 3341.96C13874.2 3334.65 13835 3356.57 13827.2 3393.12C13819.3 3429.67 13842.8 3466.21 13882 3473.52L13921.2 3480.83L13388.3 3758.59L12839.6 3422.36C12816.1 3407.74 12784.8 3407.74 12761.3 3422.36L12173.4 3722.04C12134.3 3736.66 12126.4 3780.52 12142.1 3817.06C12165.6 3853.61 12204.8 3860.92 12244 3846.3L12792.6 3568.55L13341.2 3904.78C13356.9 3912.09 13364.7 3919.4 13380.4 3919.4C13396.1 3919.4 13403.9 3919.4 13419.6 3912.09L13968.2 3627.02L13960.4 3656.26C13944.7 3692.81 13968.2 3729.35 14007.4 3743.97H14030.9C14062.3 3743.97 14093.6 3729.35 14101.5 3700.11L14172 3502.76V3466.21Z" fill="#A72A45"/>
<path d="M11609.1 3985.17C11609.1 4548 11123.2 5008.49 10511.9 5008.49C9971.1 5008.49 9524.36 4643.02 9430.31 4160.6C9422.47 4102.13 9414.64 4043.65 9414.64 3985.17C9414.64 3795.13 9469.5 3612.4 9571.39 3458.9C9688.95 3283.47 9853.54 3144.6 10057.3 3056.88C10174.9 3005.72 10308.1 2976.48 10449.2 2969.17H10511.9C11123.2 2961.86 11609.1 3422.35 11609.1 3985.17Z" fill="#FFDE17"/>
<path d="M10519.7 4825.76C11017.5 4825.76 11421 4449.42 11421 3985.18C11421 3520.94 11017.5 3144.6 10519.7 3144.6C10021.9 3144.6 9618.41 3520.94 9618.41 3985.18C9618.41 4449.42 10021.9 4825.76 10519.7 4825.76Z" fill="#E38900"/>
<path d="M10786.2 3948.63C10833.2 3904.77 10856.7 3846.3 10856.7 3787.82C10856.7 3707.42 10817.5 3641.64 10762.7 3597.78C10715.7 3561.23 10660.8 3539.3 10582.4 3532V3466.21C10582.4 3429.66 10551.1 3393.12 10504 3393.12C10464.9 3393.12 10425.7 3422.35 10425.7 3466.21V3524.69C10363 3524.69 10308.1 3532 10268.9 3539.3C10237.6 3546.61 10206.2 3575.85 10206.2 3605.09V4365.26C10206.2 4401.81 10237.6 4431.05 10268.9 4431.05C10292.4 4431.05 10347.3 4438.36 10425.7 4438.36V4504.14C10425.7 4540.69 10457 4577.24 10504 4577.24C10543.2 4577.24 10582.4 4548 10582.4 4504.14V4431.05C10676.5 4416.43 10739.2 4394.5 10794 4343.34C10856.7 4284.86 10888.1 4219.08 10888.1 4138.67C10888.1 4058.27 10848.9 3992.49 10786.2 3948.63ZM10363 3663.56C10402.2 3656.25 10441.3 3656.25 10480.5 3656.25C10566.7 3656.25 10621.6 3670.87 10660.8 3700.11C10684.3 3714.73 10700 3743.97 10700 3780.51C10700 3824.37 10668.6 3860.92 10613.8 3882.85H10355.1V3663.56H10363ZM10692.1 4255.62C10653 4292.17 10574.6 4306.79 10457 4306.79H10363V4021.72H10621.6C10645.1 4029.03 10739.2 4058.27 10739.2 4145.98C10739.2 4189.84 10723.5 4226.39 10692.1 4255.62Z" fill="#FFDE17"/>
</g>
<path d="M9777.59 20714L9669.79 20523.6H9623.59V20714H9525.59V20225.4H9708.99C9746.79 20225.4 9778.99 20232.2 9805.59 20245.7C9832.19 20258.8 9852.03 20276.7 9865.09 20299.6C9878.63 20322 9885.39 20347.2 9885.39 20375.2C9885.39 20407.4 9876.06 20436.6 9857.39 20462.7C9838.73 20488.4 9810.96 20506.1 9774.09 20515.9L9890.99 20714H9777.59ZM9623.59 20450.1H9705.49C9732.09 20450.1 9751.93 20443.8 9764.99 20431.2C9778.06 20418.1 9784.59 20400.2 9784.59 20377.3C9784.59 20354.9 9778.06 20337.6 9764.99 20325.5C9751.93 20312.9 9732.09 20306.6 9705.49 20306.6H9623.59V20450.1ZM10122.4 20720.3C10090.7 20720.3 10062.2 20714.7 10037 20703.5C10011.8 20691.8 9991.76 20676.2 9976.83 20656.6C9962.36 20637 9954.43 20615.3 9953.03 20591.5H10051.7C10053.6 20606.4 10060.8 20618.8 10073.4 20628.6C10086.5 20638.4 10102.6 20643.3 10121.7 20643.3C10140.4 20643.3 10154.9 20639.6 10165.1 20632.1C10175.9 20624.6 10181.2 20615.1 10181.2 20603.4C10181.2 20590.8 10174.7 20581.5 10161.6 20575.4C10149 20568.9 10128.7 20561.9 10100.7 20554.4C10071.8 20547.4 10048 20540.2 10029.3 20532.7C10011.1 20525.2 9995.26 20513.8 9981.73 20498.4C9968.66 20483 9962.13 20462.2 9962.13 20436.1C9962.13 20414.6 9968.2 20395 9980.33 20377.3C9992.93 20359.6 10010.7 20345.6 10033.5 20335.3C10056.9 20325 10084.2 20319.9 10115.4 20319.9C10161.6 20319.9 10198.5 20331.6 10226 20354.9C10253.6 20377.8 10268.7 20408.8 10271.5 20448H10177.7C10176.3 20432.6 10169.8 20420.5 10158.1 20411.6C10146.9 20402.3 10131.8 20397.6 10112.6 20397.6C10094.9 20397.6 10081.1 20400.9 10071.3 20407.4C10062 20413.9 10057.3 20423 10057.3 20434.7C10057.3 20447.8 10063.9 20457.8 10076.9 20464.8C10090 20471.3 10110.3 20478.1 10137.8 20485.1C10165.8 20492.1 10188.9 20499.3 10207.1 20506.8C10225.3 20514.3 10241 20525.9 10254 20541.8C10267.6 20557.2 10274.6 20577.7 10275 20603.4C10275 20625.8 10268.7 20645.9 10256.1 20663.6C10244 20681.3 10226.3 20695.3 10202.9 20705.6C10180.1 20715.4 10153.2 20720.3 10122.4 20720.3ZM10499.2 20294V20203.7H10667.9V20714H10567.1V20294H10499.2ZM11029.3 20331.1C11024.6 20311.5 11016.5 20296.8 11004.8 20287C10993.6 20277.2 10977.3 20272.3 10955.8 20272.3C10923.6 20272.3 10899.8 20285.4 10884.4 20311.5C10869.5 20337.2 10861.8 20379.2 10861.3 20437.5C10872.5 20418.8 10888.8 20404.4 10910.3 20394.1C10931.8 20383.4 10955.1 20378 10980.3 20378C11010.6 20378 11037.5 20384.5 11060.8 20397.6C11084.1 20410.7 11102.3 20429.8 11115.4 20455C11128.5 20479.7 11135 20509.6 11135 20544.6C11135 20577.7 11128.2 20607.4 11114.7 20633.5C11101.6 20659.2 11082.3 20679.2 11056.6 20693.7C11030.9 20708.2 11000.4 20715.4 10964.9 20715.4C10916.4 20715.4 10878.1 20704.7 10850.1 20683.2C10822.6 20661.7 10803.2 20631.9 10792 20593.6C10781.3 20554.9 10775.9 20507.3 10775.9 20450.8C10775.9 20365.4 10790.6 20301 10820 20257.6C10849.4 20213.7 10895.8 20191.8 10959.3 20191.8C11008.3 20191.8 11046.3 20205.1 11073.4 20231.7C11100.5 20258.3 11116.1 20291.4 11120.3 20331.1H11029.3ZM10957.9 20458.5C10933.2 20458.5 10912.4 20465.7 10895.6 20480.2C10878.8 20494.7 10870.4 20515.7 10870.4 20543.2C10870.4 20570.7 10878.1 20592.4 10893.5 20608.3C10909.4 20624.2 10931.5 20632.1 10960 20632.1C10985.2 20632.1 11005 20624.4 11019.5 20609C11034.4 20593.6 11041.9 20572.8 11041.9 20546.7C11041.9 20519.6 11034.7 20498.2 11020.2 20482.3C11006.2 20466.4 10985.4 20458.5 10957.9 20458.5ZM11325.8 20570.5C11329.6 20591 11338 20606.9 11351 20618.1C11364.6 20628.8 11382.5 20634.2 11404.9 20634.2C11433.9 20634.2 11454.9 20622.3 11467.9 20598.5C11481 20574.2 11487.5 20533.6 11487.5 20476.7C11476.8 20491.6 11461.6 20503.3 11442 20511.7C11422.9 20520.1 11402.1 20524.3 11379.7 20524.3C11349.9 20524.3 11322.8 20518.2 11298.5 20506.1C11274.7 20493.5 11255.8 20475.1 11241.8 20450.8C11227.8 20426.1 11220.8 20396.2 11220.8 20361.2C11220.8 20309.4 11236.2 20268.3 11267 20238C11297.8 20207.2 11339.8 20191.8 11393 20191.8C11459.3 20191.8 11506 20213 11533 20255.5C11560.6 20298 11574.3 20361.9 11574.3 20447.3C11574.3 20508 11569 20557.7 11558.2 20596.4C11548 20635.1 11530 20664.5 11504.3 20684.6C11479.1 20704.7 11444.6 20714.7 11400.7 20714.7C11366.2 20714.7 11336.8 20708.2 11312.5 20695.1C11288.3 20681.6 11269.6 20664.1 11256.5 20642.6C11243.9 20620.7 11236.7 20596.6 11234.8 20570.5H11325.8ZM11400 20444.5C11424.3 20444.5 11443.4 20437 11457.4 20422.1C11471.4 20407.2 11478.4 20387.1 11478.4 20361.9C11478.4 20334.4 11471 20313.1 11456 20298.2C11441.6 20282.8 11421.7 20275.1 11396.5 20275.1C11371.3 20275.1 11351.3 20283 11336.3 20298.9C11321.9 20314.3 11314.6 20334.8 11314.6 20360.5C11314.6 20385.2 11321.6 20405.5 11335.6 20421.4C11350.1 20436.8 11371.6 20444.5 11400 20444.5ZM11764 20570.5C11767.8 20591 11776.2 20606.9 11789.2 20618.1C11802.8 20628.8 11820.7 20634.2 11843.1 20634.2C11872.1 20634.2 11893.1 20622.3 11906.1 20598.5C11919.2 20574.2 11925.7 20533.6 11925.7 20476.7C11915 20491.6 11899.8 20503.3 11880.2 20511.7C11861.1 20520.1 11840.3 20524.3 11817.9 20524.3C11788.1 20524.3 11761 20518.2 11736.7 20506.1C11712.9 20493.5 11694 20475.1 11680 20450.8C11666 20426.1 11659 20396.2 11659 20361.2C11659 20309.4 11674.4 20268.3 11705.2 20238C11736 20207.2 11778 20191.8 11831.2 20191.8C11897.5 20191.8 11944.2 20213 11971.2 20255.5C11998.8 20298 12012.5 20361.9 12012.5 20447.3C12012.5 20508 12007.2 20557.7 11996.4 20596.4C11986.2 20635.1 11968.2 20664.5 11942.5 20684.6C11917.3 20704.7 11882.8 20714.7 11838.9 20714.7C11804.4 20714.7 11775 20708.2 11750.7 20695.1C11726.5 20681.6 11707.8 20664.1 11694.7 20642.6C11682.1 20620.7 11674.9 20596.6 11673 20570.5H11764ZM11838.2 20444.5C11862.5 20444.5 11881.6 20437 11895.6 20422.1C11909.6 20407.2 11916.6 20387.1 11916.6 20361.9C11916.6 20334.4 11909.2 20313.1 11894.2 20298.2C11879.8 20282.8 11859.9 20275.1 11834.7 20275.1C11809.5 20275.1 11789.5 20283 11774.5 20298.9C11760.1 20314.3 11752.8 20334.8 11752.8 20360.5C11752.8 20385.2 11759.8 20405.5 11773.8 20421.4C11788.3 20436.8 11809.8 20444.5 11838.2 20444.5Z" fill="#DDDDDD"/>
</g>
<defs>
<filter id="filter0_d_3_249" x="7561" y="19268" width="6383" height="2329" filterUnits="userSpaceOnUse" color-interpolation-filters="sRGB">
<feFlood flood-opacity="0" result="BackgroundImageFix"/>
<feColorMatrix in="SourceAlpha" type="matrix" values="0 0 0 0 0 0 0 0 0 0 0 0 0 0 0 0 0 0 127 0" result="hardAlpha"/>
<feOffset dy="4"/>
<feGaussianBlur stdDeviation="2"/>
<feComposite in2="hardAlpha" operator="out"/>
<feColorMatrix type="matrix" values="0 0 0 0 0 0 0 0 0 0 0 0 0 0 0 0 0 0 0.25 0"/>
<feBlend mode="normal" in2="BackgroundImageFix" result="effect1_dropShadow_3_249"/>
<feBlend mode="normal" in="SourceGraphic" in2="effect1_dropShadow_3_249" result="shape"/>
</filter>
<linearGradient id="paint0_linear_3_249" x1="1733.41" y1="-2667.06" x2="1942.16" y2="25150.5" gradientUnits="userSpaceOnUse">
<stop offset="0.431077" stop-color="#001833"/>
<stop offset="1" stop-color="#203956" stop-opacity="0.46"/>
</linearGradient>
<clipPath id="clip0_3_249">
<rect width="22592" height="24881" fill="white"/>
</clipPath>
</defs>
</svg>
