<svg id="Layer_1" data-name="Layer 1" xmlns="http://www.w3.org/2000/svg" viewBox="0 0 984 982"><defs><style>.cls-1{fill:#948078;}</style></defs><title>WhatsApp-Image-2023-09-08-at-10.39.45-PM</title><path class="cls-1" d="M445,49.1c-12.9.4-61.7,1.7-108.5,2.9s-92.3,2.3-101.3,2.7l-16.3.6-85.2,84.2C52.8,219.4,17,255.8,17,258.1a21,21,0,0,0,2,4.9l2,4,13.8-.6c7.5-.3,65.5-1.8,128.7-3.4,111.4-2.9,129.1-3.5,138.4-4.6,4.1-.5,5.9-2.1,40-35.3,47.7-46.6,153.2-152,160.4-160.3l5.8-6.7-1.5-3a12.27,12.27,0,0,0-3.5-4.1C500.9,47.9,480.6,47.9,445,49.1Z"/><path class="cls-1" d="M512.4,89.2c-7.1,6.7-48,46.8-90.9,89.2-92.9,91.7-101.7,99.9-108,101.5S237,283.7,87,287c-49.7,1.1-62,1.7-62,2.9,0,2.2,6.5,10.2,8.8,10.8,1.4.3,15.3.3,30.9-.1l28.3-.7-.1,150.8c0,82.9-.3,154-.7,157.9-.7,6.1-1.2,7.6-4.3,11.3-9.6,11.1-12.7,40.8-6.4,59.8,2.9,8.6,17.6,39.3,19.7,41.1,1,.8,3.1-2.8,10.1-17.4,13-27.4,14.1-31.1,14.2-46.9,0-7.9-.5-15.2-1.4-18.5-2.1-8.5-6.5-17.1-10.5-20.9l-3.6-3.5V457.3c0-131.9.2-156.4,1.4-156.9.7-.3,8-.6,16.2-.7l14.9-.2,2.9,6c1.5,3.3,7.1,15.8,12.3,27.9,13.5,31.4,19.4,42.6,23.7,45.4,17.5,11.7,57.9,15.9,100.9,10.6a267.54,267.54,0,0,0,134.2-57.1c5.5-4.4,16.6-14.8,24.6-23,15.8-16.2,24.6-28.3,32-43.6,7.2-15.1,6.9-16.7-12.8-63.1-6.3-14.8-11.7-28.2-12-29.8-.5-2.6,2.3-5.6,40.2-43.2l40.7-40.3-1.3-6.1c-.6-3.4-1.5-6.2-1.9-6.2S519.5,82.5,512.4,89.2Z"/><path class="cls-1" d="M526,201.5V216H916.2l-.4,324.2c-.2,220.5-.7,324.9-1.4,326.1-.9,1.6-3.4-.3-21-15.5-11-9.5-29.6-25.6-41.4-35.8s-32.3-27.9-45.5-39.4c-22.2-19.3-57.5-49.9-61.9-53.5-1.6-1.4-27.3-1.6-262.6-2.1-143.5-.3-261.1-.8-261.5-1.2s-1-58.8-1.3-130l-.7-129.3-14.2-.3-14.3-.3V750l271.3-.7,271.2-.6L774,785c22.8,20,48.3,42.2,56.6,49.4s19.1,16.7,24.1,21.1,13.6,12,19.3,17,21.6,18.8,35.4,30.9,27.2,23.6,29.7,25.7l4.6,3.8.6-33.7c.4-18.5.7-186.4.7-373V187H526Z"/><path class="cls-1" d="M271.2,450.1l-7.2,4,.2,37.2.3,37.2,7.5,4.2,7.5,4.3h35l7.8-4.6,7.7-4.5V510H312v11H282V461h30v12.1l8.8-.3,8.7-.3.3-9,.3-9.1-7.4-4.2-7.5-4.2H278.5Z"/><path class="cls-1" d="M357.3,450.2l-7.3,4.2v73.4l7.8,4.6,7.9,4.6h38.8l7.8-4.5L420,528V454.1l-7.4-4-7.3-4.1H384.9l-20.4.1ZM402,491v30H368V461h34Z"/><path class="cls-1" d="M442,491v45h18V502h10.6l9.8,17,9.8,17h9.4c5.2,0,9.4-.3,9.4-.6s-4.1-7.8-9.1-16.5-8.8-16.2-8.5-16.8,3.5-2.6,7.1-4.6l6.5-3.6V455l-7.7-4.5-7.8-4.5H442Zm45-16.5V487H460V462h27Z"/><path class="cls-1" d="M527,491v45h54l-.2-7.5-.2-7.5H545V498h28V482H545V462l17.7-.2,17.7-.3.1-7.5v-7.5l-26.7-.3L527,446Z"/><path class="cls-1" d="M604.3,450.1l-7.3,4.1v36.3l7.4,4.2,7.3,4.3H641v22H614V511H595.9l.3,8.7.3,8.7,7.5,4.3,7.5,4.3h31.7l7.9-4.3,7.9-4.2V491.1l-7.2-4.2c-8.4-4.9-7.4-4.7-24-4.8L615,482V461h26v10h18V454.3l-7.1-4.2-7.2-4.1H611.5Z"/><path class="cls-1" d="M681,491v45h18V498h35v38h18V446H734v36H699V446H681Z"/><path class="cls-1" d="M774,491v45h18l-.2-44.8-.3-44.7-8.7-.3-8.8-.3Z"/><path class="cls-1" d="M813.7,446.7c-.4.3-.7,20.6-.7,45V536h18V504l12.3-.1c16-.1,16.9-.3,25.3-5.1l7.1-4,.2-19.2c.1-10.5-.2-19.6-.6-20.2a74.55,74.55,0,0,0-8.1-5.2l-7.4-4.2H837.1C824.6,446,814,446.3,813.7,446.7ZM857.9,475l.2,13H831V462h26.8Z"/></svg>