<svg xmlns="http://www.w3.org/2000/svg" enable-background="new 0 0 1600 1200" viewBox="0 0 1600 1200" id="ideas"><path fill="#ff4f03" d="M325.8 100.4c2.6 140 3.6 280 2.8 420-.9 166.3-4.2 332.6-10 498.9l672.6-2.1c-4.6-114.9-6.3-235.5-4.5-361.3 1.6-102.9 5.5-202.2 11.2-297.6-7.7-8.9-15.4-17.8-23.1-26.8H669.3V98.9c-55.5 6.1-117.4 10.1-184.9 9.8-57.2-.1-110.3-3.3-158.6-8.3z"></path><path fill="#fffaf8" d="M667.7 150.6c-25.7 3.7-68.8 13.3-114.3 41.5-23.4 14.5-68.5 42.2-95.2 96.3-14 28.3-19.1 56-21.7 70.2-2.8 15.3-7.5 40.2-5 66.8 3 32 16.2 44.4 44.1 102.1 36.1 74.8 45.1 87.3 52.2 117.2 9.9 41.3 7.2 77.4 3.5 101 28.9 11.9 34.3 18.3 33.7 22.1-.6 3.5-6.5 3.4-9.3 9.3-3.3 6.9-.2 17.3 5.8 23.2 5.9 5.7 11.2 3.9 13.9 9.3 2.8 5.4-2 8.4 0 15.1 2.6 8.6 11.8 7.8 15.1 17.4 1.7 4.8-.5 5.4 1.2 11.6 2.3 8.8 8.4 14.4 10.4 16.3 9.2 8.3 15.3 5.4 18.6 11.6 3.6 6.8-2.5 12.8 1.2 18.6 1.2 1.9 4.6 5.7 17.4 5.8 8.5.1 45.6.3 63.8-25.5 16.3-23-3.1-37.6 13.9-69.6 14.7-27.7 34.8-40.6 34.8-40.6 9.6-6.1 19.4-9.7 25.5-20.9 4.8-8.7 4.7-17.1 4.6-23.2 0-5.7 0-51.8 7-78.9 4.3-16.8 11.3-26.6 22.1-42.9 30.4-46.4 61.7-101.4 73.1-127.7 13.1-30.1 24.1-76.2 11.3-144-75.7-.6-151.4-1.1-227-1.7-.1-60.3-.4-120.3-.7-180.4z"></path><path fill="#ff4f03" d="M726.6 46.8c-1.7 5.6-1.7 225.3-1.7 225.3l219.7 7.3h53.6l4.5-232.6H726.6z"></path><path fill="#fffaf8" d="M729.2 69c17.6-.3 47.5 1.4 80.7 15.5 15.1 6.4 69.5 30.6 97.6 91.8 19.4 42.3 16.6 81.4 14 100-34.7-3.2-71-5.7-108.7-7.2-29.5-1.2-58.2-1.8-86-1.9-.3-31.9-.6-63.8-1-95.6 1.2-34.4 2.3-68.5 3.4-102.6z"></path><path fill="#dba98a" d="M903.1 220.5c2.3 3 5.9 7.7 11 12.8 14.1 14.6 23.1 17 32.9 28.7 5.5 6.6 6.7 10.6 12.5 22.3 6.1 12.3 15.4 29.4 29.5 49.5 6.2-5.8 12.3-11.6 18.5-17.4-1.8-2.7-4.8-7-8.7-12.1-13.4-17.6-19.3-21.2-26.4-32.5-2.6-4.1-8.4-13.5-11.3-26.8-3.1-14-1.2-24.6-8.3-40.4-1.4-3.1-3.9-8.7-6-8.3-2.7.5-3.3 10.7-3.4 19.6.4-1.6.8-3.3 1.1-4.9-11.4-9.4-19.9-17-25.7-22.3-3.7-3.4-7.7-7.2-10.6-6-3.3 1.4-3.1 8.6-3 13.2.1 3.7.8 14.7 8.3 26.8 2 3.2 3.9 5.6 5.3 7.2-5.4-3.1-10.6-6.3-15.7-9.4zM1038.6 258.2c-2.1.4-1.2 14.4 1.1 27.2 2.2 11.9 4.5 17.1 7.2 21.1 1.3 2 6.8 10.5 10.2 9.4 4.4-1.4 3.5-17.3 1.9-26.8s-4.7-16.9-7.2-21.9c-2.1-.3-4.9-1.1-7.6-3-3.9-2.8-4.5-6.2-5.6-6zM1004.3 203.1c8.6 5.3 16.1 10.1 22.7 14.3 2.3 1.5 5.9 3.9 6.8 7.9.6 2.5-.5 3.2-.8 6.8-.5 6.6 2.5 8.8 2.6 15.1 0 2.3-.3 5.7-2.3 9.8-4.3-3.9-8.8-7.8-13.6-11.7-6-5-12-9.6-17.7-14 .8-9.3 1.5-18.8 2.3-28.2zM1177.3 781.1c-.7 8.1-1.2 20 .5 34.2 2.3 19.8 7 28.7 12.4 48.1 8.5 30.2 3 29.4 11.4 65.7 6.3 27.4 9.7 28.8 15.5 58 3.3 16.4 5 30 4.1 46.1-.6 10.7-2.2 19.6-3.6 25.9.8 0 7.6-.1 11.9-5.7 3.4-4.5 3.8-10.8 1-16 .5-9.9 2.3-21.7 6.7-34.2 1-2.7 2-5.3 3.1-7.8-2.7-5.2-6.3-12.9-9.3-22.8-5.9-19.4-4-29.2-5.2-60-1.4-34.4-2-51.7-7.2-67.8-3.3-10.3-6.9-17.2-7.8-30-.8-10.7.9-16.7.5-32.6-.2-8.9-1-16.2-1.6-20.7-10.7 6.5-21.5 13-32.4 19.6zM1256 719c3.4 5.2 8.2 12.5 14 21.2 11 16.5 19.5 29.4 29 43 12.8 18.4 23.2 32 30 40.9 23.8 31.2 26.5 31.8 38.3 49.7 9.6 14.4 15.5 23.3 22.3 36.8 2.4 4.8 10.2 20.6 23.8 38.3 3.9 5.1 7.2 8.9 8.3 8.3 1.9-1-4.3-14-8.3-28-3-10.4-6-26.2-4.7-47.1-4.7-2.9-11.5-7.5-18.6-14.5-15.9-15.5-20.7-30.2-29-47.6-16.4-34.7-37.5-61.7-43.5-69.4-8.4-10.7-19.4-23.3-28.5-44.5-3.4-7.9-5.5-14.6-6.7-19.2L1256 719z"></path><path fill="#ff4f03" d="M1142.8 570.8c-3.8 1.9-6.7 3.8-8.5 5 .1 15.2.4 30.5.7 46 .9 37.6 2.3 58 4.2 105.4.6 13.8 1.3 34 2.1 58.7 4.1-.9 10.3-2.5 17.7-5 23.4-7.9 39.8-18.9 58.7-31.8 11.6-7.9 18.2-12.4 26.9-19.8 18.4-15.6 30.9-31.2 38.9-42.4 1.4-2.4 2.8-4.7 4.2-7.1-6.4-19.6-14.1-40.5-23.3-62.2-7.3-17.3-14.9-33.5-22.5-48.5-4.8-7.4-9.7-15.3-14.5-23.8-3-5.2-5.7-10.4-8.3-15.4-2.8-1.2-5.7-2.4-8.5-3.5-3.3 3.5-8.1 8.7-14.1 14.9-10.6 10.8-15.8 16.2-18.4 17.7-11.7 6.8-18.4 3.1-35.3 11.8zM1008.6 317.1c-2.9.3-6.2 1.8-6.4 3.5-.2 2.6 7.2 3.4 8.1 7.5.9 4-5.3 6.6-9.3 14.5-2.4 4.8-2.9 9.4-2.9 12.7 25.8 21.2 41.5 35.3 50.9 43.9 0 0 11.9 11 10.4 12.7-.9 1.1-6.1-.5-9.8-2.3-2.6-1.3-3.9-2.5-4.8-2-1.2.7-.5 4 .2 6.6-.2 2.7-.3 5.4-.5 8 4.9-.5 14.3-2.2 23.1-9.2 10.4-8.3 13.7-19.2 15.6-25.4 1.8-5.9 3.2-10.7 2.3-16.8-2-13.5-13.7-21.3-16.8-23.1-3.9-.4-7.7-.8-11.6-1.2-11.8-3.9-19.8-9.2-24.9-13.3-9.9-8.1-15.2-17-23.6-16.1zM1204 1079.2c.9-1.5 2.4-3.6 4.6-5.8 7.7-7.4 14.2-5.2 19.7-9.8 3.4-2.9 3.4-5.8 6.9-31.2 2.4-17 3.2-21.5 6.4-22.6 3.7-1.3 9.3 2.4 11 6.9 1.2 3.1.2 5.7-1.7 11.6-2.8 8.3-5.5 16.5-6.9 23.1-2.7 12 0 12.7-2.9 17.3-5.6 8.8-18.2 10.4-22.6 11-6 .9-11.1.2-14.5-.5zM1410.5 881.5c3.7 1.1 9 3.3 13.3 8.1 6.8 7.6 3.5 13.7 8.1 38.7 4.1 22.5 6.9 32.4 6.9 32.4 1.2 4.3 2.4 7.8 1.7 8.1-1.3.6-9.6-13.7-15.6-26.6-4.5-9.7-9.3-20.1-12.1-34.7-2.1-10.7-2.4-19.7-2.3-26z"></path><path d="M1043.9 260.6c-1.2-2.3-9-17.9-1.9-34.1 5-11.4 14.6-16.5 18.6-18.6 17-9.1 34.3-4.5 39.7-3.1 3.5.9 22.6 6.3 34.7 23.6 12.7 18.1 3.9 29.8 8.7 68.8 3.8 30.8 13.9 61.3 19.2 77.5 9 27.2 16.1 41 8.7 52.1-5.8 8.6-17.8 11.7-26.7 11.2-12-.7-21.1-8.2-32.9-21.7-20.8-23.9-40.2-46.1-47.7-80.6-7-31.8-12.9-58.9-12.4-65.7 0-.6.3-3.3-1.2-5.6-1.6-2.5-4.4-3.4-6.8-3.8z"></path><path stroke="#000" stroke-miterlimit="10" d="M1177 424.7c-.5-.1.1-3.1.5-7.8 0-.6.1-1.2.2-1.9.1-.6.1-1.3.1-2 .1-1.4 0-2.9.1-4.4-.1-3.1-.4-6.5-.9-10.1-.6-3.5-1.5-6.8-2.4-9.8-.5-1.5-1-2.9-1.5-4.2-.3-.6-.5-1.3-.7-1.9-.3-.6-.5-1.2-.8-1.7-1.9-4.3-3.4-6.9-3-7.2.3-.2 2.5 1.9 5.1 6.1.3.5.6 1.1 1 1.7.3.6.6 1.2.9 1.9.7 1.3 1.2 2.7 1.9 4.3 1.1 3.1 2.1 6.5 2.8 10.3.6 3.7.8 7.4.7 10.6-.1 1.6-.1 3.2-.4 4.6l-.3 2.1c-.1.7-.3 1.3-.4 1.9-1.1 4.9-2.5 7.6-2.9 7.5z"></path><path fill="#fcfcfc" stroke="#fcfcfc" stroke-miterlimit="10" d="M1125.7 413.4c-.3.3-2.9-1.2-6.7-4.5-1.9-1.6-4.1-3.6-6.3-6s-4.6-5.2-6.9-8.2c-2.3-3.1-4.2-6.1-5.8-9-1.6-2.9-2.9-5.5-3.9-7.8-1.9-4.6-2.7-7.6-2.3-7.8.9-.4 5.8 10.8 14.6 22.6 8.7 12 17.9 20 17.3 20.7zM1139.2 416.8c-.5.7-6.9-3.1-13.1-9.8-6.2-6.7-9.4-13.4-8.7-13.8.8-.5 5.1 5.2 11.1 11.6 5.9 6.5 11.2 11.3 10.7 12z"></path><path d="M772 755c-44.8 12.5-99.8 21.9-162.3 19.9-13.8-.4-27.2-1.4-39.9-2.8-2.1 4-7 14.7-2.8 24.8 2.8 6.7 8.5 10.2 11 11.7 5 3 11.1 4.7 18.1 5.4-4 2.9-7.8 6.9-8.4 12.5-1.1 9.3 7.5 16.7 8.9 17.9l7.6 4.8c-2.6 7.3-4.4 16.4 0 22.7 4.1 5.8 12.7 8.3 19 9.1-.3 4.2 2.8 13.2 7.8 24.6 16 2.3 36.6 3.4 59.9-.2 8.7-1.4 16.7-3.2 24-5.3.9-4.1 1.8-8.3 2.8-12.4-5.2-11.5-4.1-16.7-2.1-19.3 1.3-1.6 2.8-2.1 4.6-2.8 1.1 0 2.3-.5 3.3-1.6.2-.2.4-.4.5-.6.4-.3.8-.7 1.2-1.1.6-.7 3.7-3.9 4.7-8.8 1.9-5.1 2.5-10.6 1.8-16 3.9-2.6 8.8-7 11.3-13.7.7-1.8 1.8-4.8 1.8-8.4.2-.7.4-1.4.6-2.2.9-4.2 1.1-9.3-.3-13.5 6.9-1.6 13.4-4.5 18.5-10.3 9.5-10.7 9.3-25.6 8.4-34.4zm-95.5 51.3c14.7-2 30.5-3.7 47.4-4.5 3.5-.2 7.2-.3 10.9-.6.1.1.2.1.2.2.5.8.8 1.6 1.1 2.5-23.8 3.1-43.8 3.3-59.6 2.4z"></path><path fill="#fff" stroke="#fff" stroke-miterlimit="10" d="M1057.7 314.9c-.1.2-1.2 0-3-.7s-4.4-2-7.2-4.2-5.8-5.3-7.9-9.6c-1.1-2.1-1.9-4.4-2.7-6.8-.7-2.4-1.4-4.8-2-7.4-1.1-5.2-1.6-10.3-1.7-14.8-.1-4.6.3-8.7.6-12.1.7-6.9 1.9-11 2.3-10.9.5.1.1 4.3 0 11-.1 6.8-.3 16.1 2 26.1.5 2.5 1.2 4.9 1.9 7.2s1.4 4.5 2.3 6.4c1.8 3.9 4.4 6.9 6.7 9.1 2.4 2.3 4.7 3.8 6.2 4.8 1.7 1.1 2.6 1.7 2.5 1.9z"></path><path stroke="#000" stroke-miterlimit="10" d="M1134 433.9c-.1.1-.8-.3-2.1-1-.6-.4-1.4-.9-2.4-1.4l-1.5-.9c-.5-.4-1.1-.7-1.7-1.1-1.2-.8-2.5-1.7-3.9-2.7-1.4-1-2.8-2.2-4.4-3.5-1.6-1.2-3.2-2.7-4.9-4.2-1.8-1.5-3.4-3.2-5.3-5-.5-.4-.9-.9-1.4-1.4-.4-.5-.9-1-1.4-1.4-.9-1-1.8-2-2.8-3-1-1-1.8-2.1-2.8-3.2-.9-1.1-1.9-2.2-2.8-3.4-1.8-2.4-3.8-4.8-5.6-7.4-.9-1.3-1.9-2.6-2.8-4l-2.7-4.2c-3.6-5.7-7.2-11.9-10.3-18.5-3.2-6.6-6.2-13.6-8.9-20.9-5.2-14.7-8.8-29.1-11.1-42.4-2.4-13.3-3.7-25.3-4.5-35.4-.8-10.1-1.1-18.3-1.2-24-.1-5.7 0-8.8.2-8.8s.6 3.1 1.1 8.8c.5 5.6 1.2 13.8 2.3 23.9 1.1 10.1 2.7 22 5.2 35.1 2.5 13.1 6.1 27.3 11.3 41.8 2.6 7.2 5.5 14.1 8.7 20.7 3.1 6.5 6.6 12.6 10 18.3.9 1.4 1.8 2.8 2.6 4.2.9 1.4 1.8 2.7 2.7 4 1.7 2.6 3.6 5 5.4 7.4.9 1.2 1.8 2.3 2.7 3.4.9 1.1 1.8 2.2 2.7 3.2l2.7 3c.4.5.9 1 1.3 1.5s.9.9 1.3 1.4c1.8 1.8 3.4 3.6 5 5.1 1.7 1.5 3.1 3.1 4.7 4.4 1.5 1.3 2.9 2.5 4.2 3.7 1.3 1.1 2.6 2.1 3.7 2.9.5.4 1.1.9 1.6 1.3s1 .7 1.4 1c.9.7 1.6 1.2 2.2 1.7 1 .4 1.6.9 1.5 1zM1060.7 204.3c0 .5-3 .8-7.4 2.4-2.2.8-4.8 1.9-7.3 3.6-2.6 1.7-5.1 3.9-7.2 6.6-2 2.8-3.4 5.8-4 8.8-.3 1.5-.5 2.9-.5 4.2 0 1.3 0 2.6.1 3.8.5 4.6 1.7 7.5 1.2 7.7-.2.1-.7-.5-1.4-1.7s-1.5-3.1-2.1-5.6c-.3-1.2-.5-2.6-.6-4.1-.1-1.5 0-3.1.3-4.8.5-3.4 2-7 4.3-10.2 2.4-3.2 5.3-5.6 8.2-7.3 2.9-1.7 5.8-2.7 8.3-3.2 4.9-1.1 8.1-.6 8.1-.2zM1166.6 437.3c-.1-.1.5-1 1.4-2.7.9-1.7 2.1-4.4 3-8 .9-3.6 1.5-8.1 1.2-13.4-.3-5.3-1.5-11.2-3.5-17.5-2-6.4-4.6-13.3-7.5-20.6-2.8-7.4-6-15.3-8.7-23.8-2.8-8.5-4.9-17.8-6.4-27.4-1.5-9.7-2.3-19.7-2.9-30-.7-10.3-1.2-20.3-2.1-29.9-.5-4.8-1-9.5-1.7-14.1s-1.4-9-2.6-13.2c-.6-2.1-1.2-4.1-2-6.1-.4-1-.9-1.9-1.3-2.8-.4-.9-1-1.8-1.5-2.7-2.1-3.5-4.8-6.5-7.6-9.1-5.7-5.2-12.3-8.5-18.5-10.6-6.3-2-12.3-2.7-17.6-2.9-5.3-.1-9.9.3-13.6.8-7.4 1-11.4 2.2-11.5 1.9 0-.1.9-.5 2.8-1.1 1.9-.6 4.7-1.4 8.5-2.1 3.7-.7 8.4-1.3 13.8-1.3s11.6.5 18.2 2.5 13.5 5.4 19.7 10.8c3 2.7 5.9 5.9 8.3 9.6.6.9 1.2 1.9 1.7 2.9l1.5 3c.9 2.1 1.6 4.2 2.2 6.4 4.5 17.6 5.4 37.3 6.7 57.8.7 10.2 1.5 20.2 2.8 29.7 1.4 9.5 3.4 18.6 6.1 27 2.6 8.4 5.7 16.3 8.4 23.8 2.7 7.4 5.2 14.4 7.1 20.9 1.9 6.5 3 12.7 3.1 18.1.2 5.5-.6 10.1-1.8 13.8-1.1 3.7-2.6 6.3-3.7 8-1.2 1.6-2 2.4-2 2.3zM1073.4 477.3c-.1.2-1.2-.2-3-1.2s-4.2-2.7-6.9-5.2-5.5-5.8-8.2-9.9c-2.6-4.1-5-8.9-6.8-14.1-1.9-5.2-3.1-10.4-4-15.1-.9-4.7-1.5-8.9-1.7-12.6-.2-3.7.3-6.7.9-8.7.6-2 1.2-2.9 1.4-2.9.5.2-1 4.4 0 11.3.4 3.5 1.3 7.6 2.3 12.2 1.1 4.6 2.4 9.5 4.2 14.6 1.8 5 4 9.7 6.3 13.6 2.4 4 4.9 7.3 7.2 9.9 4.8 5.3 8.6 7.7 8.3 8.1zM1118.1 554.9c-.3.3-4.2-2.6-9.7-8.1-.7-.7-1.4-1.4-2.1-2.2-.7-.8-1.5-1.6-2.2-2.5-1.6-1.7-3.1-3.6-4.8-5.6-3.2-4.1-6.6-8.7-9.8-13.7-3.2-5.1-5.8-10.1-8.1-14.8-1.1-2.4-2.1-4.6-2.9-6.7-.4-1.1-.9-2.1-1.2-3.1-.4-1-.7-2-1-2.9-2.6-7.4-3.4-12.2-3.1-12.3.5-.1 2.1 4.4 5.2 11.5.4.9.8 1.8 1.2 2.8.4 1 .9 1.9 1.4 3 .9 2.1 2 4.2 3.2 6.5 2.3 4.5 5 9.4 8.1 14.4 3.1 5 6.3 9.5 9.4 13.6 1.6 2 3 4 4.5 5.7.7.9 1.4 1.7 2.1 2.5.7.8 1.3 1.6 2 2.3 4.8 5.7 8.1 9.2 7.8 9.6zM1199 512.5c-.3.2-3.6-3.1-8-9.3-.5-.8-1.1-1.6-1.7-2.5-.6-.9-1.1-1.8-1.7-2.8-1.2-1.9-2.3-4-3.6-6.2-2.3-4.5-4.6-9.5-6.7-15-2-5.5-3.4-10.9-4.5-15.8-.5-2.5-1-4.8-1.3-7.1-.2-1.1-.3-2.2-.4-3.2l-.3-3c-.6-7.6-.2-12.3.2-12.3.5 0 .9 4.6 2.1 12 .2.9.3 1.9.5 2.9s.4 2 .6 3.1c.4 2.2 1 4.4 1.5 6.8 1.2 4.8 2.7 10 4.7 15.4 2 5.3 4.1 10.3 6.3 14.8 1.1 2.2 2.1 4.3 3.2 6.2.5 1 1 1.9 1.5 2.8.5.9 1 1.7 1.5 2.5 3.8 6.5 6.5 10.3 6.1 10.7zM1134.9 786.4c-.1 0-.5-.7-1-2-.3-.7-.6-1.6-1-2.6s-.8-2.2-1.2-3.6c-1.7-5.4-3.7-13.5-4.8-23.6-1.2-10.1-1.5-22.2-1.4-35.6 0-6.7.1-13.7-.1-20.9-.2-7.2-.4-14.7-.9-22.4-1-15.3-2.4-30-3.6-43.3-1.2-13.3-2.1-25.3-2.5-35.5-.5-10.1-.4-18.3-.2-24 .2-5.7.5-8.8.7-8.8.2 0 .4 3.1.5 8.8.2 5.6.5 13.8 1.3 23.9.7 10.1 1.9 22 3.2 35.3 1.3 13.3 2.9 27.9 3.9 43.3.5 7.7.8 15.3.9 22.6.1 7.3 0 14.3-.1 21-.2 13.3-.1 25.3.7 35.3.8 10 2.4 18 3.7 23.5.4 1.4.6 2.6.9 3.6.3 1 .5 1.9.7 2.6.2 1.5.4 2.3.3 2.4zM1204.4 533.7c.3.2-2.6 4.7-8.7 10.9-3 3.1-6.9 6.5-11.5 9.9-4.6 3.4-10.1 6.6-16.2 9.2-6.1 2.6-12.3 4.1-18.1 4.9-5.7.7-10.9.7-15.3.1-4.3-.6-7.7-1.5-10-2.3-2.3-.8-3.4-1.5-3.4-1.7.2-.5 5.2 1.2 13.6 1.7 4.2.3 9.2.1 14.6-.8 5.5-.9 11.3-2.5 17.2-4.9 11.8-5 21.1-12.2 27.4-17.8 6.5-5.6 10-9.6 10.4-9.2zM1207.5 529.8c-.4-.3 0-1.4.6-3 .6-1.5 1.4-3.8.7-5.4-.6-1.7-2.8-2.8-4.2-3.8-1.5-1.1-2.3-2.1-2-2.5.3-.3 1.3-.1 3 .4.8.3 1.9.6 3 1.2s2.5 1.7 3.2 3.5c.3.8.5 1.7.4 2.6 0 .8-.2 1.6-.4 2.2-.5 1.3-1.1 2.3-1.7 3-1.2 1.4-2.2 2-2.6 1.8zM1286.5 680.1c-.5.1-3.3-8.6-8.2-22.4-1.2-3.5-2.6-7.3-4.1-11.3-1.5-4.1-3.2-8.4-4.9-12.9-3.6-9.1-7.7-18.9-12.2-29.2-4.6-10.3-9.2-19.9-13.6-28.6-2.2-4.3-4.3-8.5-6.3-12.3-2-3.8-3.9-7.4-5.7-10.6-7-13-11.6-20.9-11.2-21.1.2-.1 1.6 1.7 3.9 5.1 1.2 1.7 2.6 3.8 4.1 6.3 1.6 2.5 3.4 5.3 5.2 8.5 1.9 3.2 3.9 6.7 6 10.5 2.2 3.8 4.3 7.9 6.6 12.2 4.5 8.7 9.2 18.4 13.9 28.7 4.6 10.3 8.6 20.3 12.1 29.5 1.7 4.6 3.3 9 4.7 13.1 1.4 4.1 2.7 8 3.8 11.5 1.1 3.5 2 6.7 2.9 9.6.8 2.8 1.5 5.3 2 7.3.7 3.8 1.2 6 1 6.1zM1286.3 681.6c.2.1-1.2 2.5-3.9 6.6-.7 1-1.4 2.2-2.3 3.4-.9 1.2-1.8 2.5-2.8 4-2.1 2.8-4.4 6.1-7.2 9.5-1.4 1.7-2.8 3.5-4.3 5.4-1.5 1.9-3.2 3.7-4.9 5.7-.8 1-1.7 2-2.6 3-.4.5-.9 1-1.3 1.5-.5.5-.9 1-1.4 1.5-1.9 2-3.8 4.1-5.8 6.2-8.1 8.4-17.5 17.2-28 25.6-10.6 8.4-21.3 15.5-31.3 21.5-5.1 2.8-9.9 5.6-14.7 7.7-2.3 1.1-4.6 2.2-6.8 3.2-2.2.9-4.4 1.8-6.4 2.6-4 1.8-7.9 2.9-11.2 4.1-1.7.6-3.2 1.1-4.6 1.5-1.5.4-2.8.7-4 1-4.8 1.2-7.4 1.8-7.5 1.6-.1-.2 2.5-1.2 7.1-2.8l3.9-1.3c1.4-.5 2.9-1.1 4.5-1.8 3.2-1.3 7-2.6 10.9-4.5 2-.9 4.1-1.8 6.3-2.8 2.2-1 4.3-2.2 6.6-3.3 4.6-2.2 9.3-5.1 14.4-7.9 9.9-6 20.4-13.1 30.8-21.4 10.4-8.3 19.7-17 27.9-25.2 2-2.1 4-4.1 5.9-6.1.5-.5.9-1 1.4-1.5.5-.5.9-1 1.3-1.5.9-1 1.8-2 2.6-2.9 1.7-1.9 3.4-3.7 5-5.5 1.5-1.8 3-3.6 4.4-5.2 2.9-3.3 5.3-6.4 7.5-9.1 1.1-1.4 2.1-2.6 3-3.8.9-1.2 1.7-2.3 2.5-3.2 3-3.8 4.8-5.9 5-5.8zM1189.4 719.2c-.4-.1.3-6.5 2.5-16.7.6-2.6 1.2-5.3 2-8.3.7-3 1.6-6.1 2.6-9.5 2-6.6 4.4-13.8 7.3-21.3 2.9-7.4 6-14.4 9-20.6 1.5-3.1 3-6 4.5-8.7 1.4-2.7 2.9-5.2 4.2-7.5 5.3-9 9.1-14.2 9.5-14 .4.3-2.7 5.9-7.4 15.1-1.2 2.3-2.5 4.8-3.8 7.6-1.4 2.7-2.7 5.7-4.2 8.8-2.8 6.2-5.8 13.1-8.7 20.5-2.8 7.4-5.3 14.5-7.5 21-1 3.3-2 6.4-2.9 9.3-.9 2.9-1.6 5.6-2.3 8.1-2.8 10-4.3 16.3-4.8 16.2z"></path><path stroke="#000" stroke-miterlimit="10" d="M1236.5 986.6c-.2.1-1.4-2.9-3-8.4-1.7-5.5-3.8-13.6-5.6-23.7-1.9-10.1-3.3-22.4-3.8-36-.3-6.8-.4-13.9-.7-21.3-.3-7.4-.9-14.9-1.9-22.6-2-15.5-5.1-30-7.9-43.3-1.4-6.7-2.5-13.1-3-19.2-.6-6.1-.5-11.8-.2-17 .3-5.2.6-9.8.8-13.8.2-4.1.1-7.5-.1-10.4-.4-5.7-1.3-8.8-1-8.8.1 0 .4.7.9 2.2.2.7.4 1.6.7 2.7.2 1.1.5 2.4.7 3.8.4 2.9.7 6.4.7 10.5s-.2 8.8-.3 13.9c-.1 5.1-.1 10.7.6 16.6.7 5.9 1.9 12.2 3.3 18.8 2.9 13.2 6.2 27.9 8.2 43.5 1 7.8 1.6 15.5 1.9 22.9.3 7.4.3 14.5.5 21.3.3 13.5 1.6 25.6 3.1 35.7 1.5 10.1 3.3 18.2 4.6 23.8 1 5.7 1.7 8.7 1.5 8.8zM1216.3 1056.6c-.1 0-.2-.9-.4-2.8-.1-.9-.1-2-.2-3.3-.1-1.3-.2-2.8-.4-4.5-.6-6.8-1.6-16.7-3.7-28.8-2.1-12.1-5.3-26.3-9.1-42.1-3.9-15.8-8.2-33.2-12.3-51.5-8.2-36.7-14.2-70.2-18-94.5-1.9-12.2-3.3-22-4.1-28.9-.8-6.8-1.2-10.6-1-10.7.2 0 1 3.7 2.2 10.5 1.2 6.8 3 16.6 5.1 28.7 4.4 24.2 10.8 57.5 18.9 94.1 4.1 18.3 8.3 35.7 12 51.5 3.7 15.8 6.7 30.2 8.5 42.4 1.8 12.2 2.5 22.2 2.7 29.1 0 1.7.1 3.3.1 4.6 0 1.3-.1 2.5-.1 3.4 0 1.9-.1 2.8-.2 2.8zM1241.4 1069.1c-.4 0-.7-4.7.1-12.1.8-7.4 2.9-17.7 7.1-28.4 1-2.7 2.3-5.2 3-7.6.4-1.2.6-2.3.7-3.5.1-1.1 0-2.2-.3-3.3-.5-2.2-1.4-4.2-2.5-6-1.1-1.8-2.2-3.5-3.3-4.9-2.2-2.9-4.1-5.1-5.5-6.7-1.4-1.5-2.1-2.4-2-2.6.1-.2 1.2.4 2.9 1.7 1.7 1.3 4 3.3 6.4 6.2 1.2 1.4 2.5 3.1 3.8 5 1.2 1.9 2.4 4.1 3.1 6.7.3 1.3.5 2.7.4 4.2-.1 1.4-.4 2.9-.8 4.2-.8 2.7-2 5.2-3 7.8-4.1 10.4-6.5 20.3-7.9 27.5-1.2 7.2-1.7 11.8-2.2 11.8z"></path><path stroke="#000" stroke-miterlimit="10" d="M1230.8 1047.2c-.4 0-1.1-2.7-1.3-7.2-.1-2.2-.1-4.9 0-7.9.2-3 .5-6.2 1.1-9.6.6-3.4 1.4-6.5 2.2-9.4.9-2.8 1.8-5.3 2.7-7.4 1.8-4.1 3.3-6.4 3.7-6.3.9.4-3.1 10.5-5.4 23.6-2.3 13.2-2 24.1-3 24.2zM1227.1 1059.4c.1.9-3.3 2.2-7.6 3.4-4.3 1.2-7.9 1.9-8.2 1.1-.3-.8 2.9-3 7.3-4.2 4.5-1.3 8.4-1.2 8.5-.3zM1186.3 1076.1c-.4-.2-.1-1.7 1.4-3.5.7-.9 1.7-1.8 2.8-2.8 1.1-.9 2.3-1.9 3.8-2.9 2.8-1.9 5.9-3.2 8.3-3.3 2.4-.2 3.8.5 3.7.9 0 .5-1.4.7-3.2 1.4-1.9.7-4.3 2-6.9 3.8-2.7 1.8-5.1 3.4-6.8 4.6-1.8 1.1-2.7 2-3.1 1.8zM1242.2 1066.9c.1 0 .1.3 0 .7-.1.4-.3 1-.6 1.7-.7 1.4-2 3.3-4.2 5-2.2 1.7-5.1 3.3-8.5 4.5-3.4 1.2-7.2 2-11.2 2.7-8.1 1.3-15.5 1.4-20.8.9-5.3-.5-8.5-1.4-8.5-1.8.1-1 13.1.4 28.7-2.3 3.9-.7 7.6-1.4 10.8-2.4 3.2-1 6-2.2 8.1-3.5 4.3-2.8 5.7-5.8 6.2-5.5zM1386.8 909.8c-.2.1-1.7-2.7-4.4-7.8-2.9-5-7.2-12.1-13.4-20.3-6.2-8.2-14.4-17.3-23.8-27.1-9.4-9.9-20.1-20.4-30.5-32.4-.7-.7-1.3-1.5-1.9-2.2-.6-.8-1.3-1.5-1.9-2.3-1.2-1.5-2.5-3-3.7-4.5-2.3-3.1-4.7-6.1-6.8-9.2-4.3-6.1-8-12.3-11.3-18.4-3.2-6.1-6-11.9-8.9-17.2-2.9-5.3-5.8-10-8.9-14.1-6.2-8.1-12.4-13.7-16.8-17.4-4.4-3.6-7.1-5.4-7-5.6.1-.2 3 1.2 7.8 4.6 4.7 3.4 11.3 8.8 17.9 17 3.3 4.1 6.5 8.9 9.5 14.2 3 5.3 5.9 11.1 9.2 17.1 3.3 5.9 7 12 11.3 18 2.1 3 4.5 5.9 6.8 9 1.2 1.5 2.4 3 3.7 4.4.6.7 1.2 1.5 1.9 2.2.6.7 1.3 1.5 1.9 2.2 10.3 11.8 20.9 22.4 30.2 32.5 9.4 10 17.4 19.4 23.5 27.8 6.1 8.4 10.1 15.8 12.7 21 2 5.4 3.1 8.4 2.9 8.5zM1408.7 877.6c0 .1-.8-.1-2.2-.6-1.4-.5-3.5-1.5-6-2.9-2.5-1.5-5.4-3.5-8.5-6.2-3.1-2.7-6.3-6.1-9.6-10.1-6.5-8-12.8-18.6-19.4-30.4-6.6-11.8-13.2-25.1-20.8-38.6-3.8-6.8-7.7-13.3-11.7-19.3-4-6.1-8.2-11.7-12.3-17.1-4-5.4-8-10.5-11.5-15.4s-6.7-9.5-9.4-13.9c-5.4-8.7-8.9-16.4-10.7-21.8-.5-1.4-.9-2.6-1.2-3.6-.3-1.1-.5-2-.7-2.7-.3-1.5-.5-2.3-.4-2.3.1 0 .4.7 1 2.1.3.7.6 1.6 1 2.6s.9 2.2 1.5 3.5c2.2 5.2 5.9 12.6 11.5 21 2.8 4.2 6.1 8.7 9.6 13.5 3.6 4.8 7.6 9.8 11.7 15.1 4.1 5.3 8.4 11 12.5 17.2 4.1 6.1 8.1 12.7 11.9 19.5 7.6 13.6 14.2 27 20.6 38.8 6.4 11.8 12.4 22.4 18.5 30.4 3.1 4 6.1 7.4 9 10.2 2.9 2.8 5.6 4.9 7.9 6.5 4.9 3 7.8 4.2 7.7 4.5zM1442.2 969.5c-.4.1-2.8-5.1-5.7-13.9-2.8-8.9-5.9-21.4-7.4-35.6-.4-3.5-.7-7-.8-10.3-.2-3.3-.4-6.5-.9-9.4-.5-2.9-1.3-5.6-2.4-7.9-1.1-2.3-2.5-4.3-4-6-2.9-3.3-6.1-5.3-8.3-6.5-2.2-1.2-3.6-1.7-3.5-1.9 0-.2 1.5-.1 4 .8s6 2.7 9.4 6.1c1.7 1.7 3.4 3.8 4.7 6.3 1.4 2.5 2.4 5.5 3 8.6.6 3.1.9 6.4 1.2 9.7.2 3.3.5 6.7.9 10.2 1.5 13.9 4.2 26.4 6.4 35.3 2.2 8.9 3.9 14.3 3.4 14.5zM1434.3 971.7c-.2.2-1.2-.7-3-2.4-1.7-1.8-4.1-4.4-6.6-8.1-2.5-3.7-5-8.3-7.2-13.7-2.2-5.4-4.1-11.5-5.6-18.1-2.9-13.1-3.8-25.2-4-33.9-.2-8.7.4-14.1.8-14.1.5 0 .7 5.4 1.5 14s2.1 20.5 4.9 33.3c1.4 6.4 3.2 12.4 5.2 17.7 2 5.3 4.2 9.9 6.4 13.6 2.1 3.7 4.2 6.5 5.6 8.5 1.4 1.9 2.1 3 2 3.2z"></path><path stroke="#000" stroke-miterlimit="10" d="M1431.4 969c-.3.3-3.3-2-7.7-6.4-2.2-2.2-4.7-4.8-7.3-7.9-2.6-3.1-5.4-6.6-8.1-10.4-2.7-3.8-5.1-7.6-7.2-11.1-2-3.5-3.7-6.7-5.1-9.5-2.6-5.5-3.8-9.2-3.4-9.3.9-.4 7.6 13 18.3 28.1 10.7 15 21.1 25.8 20.5 26.5zM1058.2 412.7c-.1.2-2.7-.5-7-2.5-4.3-2.1-10.4-5.7-16.9-11.2-6.6-5.5-13.8-12.8-21.3-21.2-7.5-8.4-15.4-18.1-22.8-28.8s-13.8-21.4-19.1-31.4c-5.2-10-9.4-19.3-12.6-27.2-.8-2-1.5-3.9-2.2-5.7-.7-1.8-1.3-3.5-1.8-5.1-1.1-3.2-2-6-2.7-8.3-1.3-4.6-1.9-7.2-1.7-7.2.2-.1 1.2 2.4 2.9 6.8.8 2.2 2 4.9 3.2 8 .6 1.6 1.3 3.2 2.1 5 .7 1.8 1.5 3.6 2.4 5.6 3.4 7.8 7.7 16.9 13.1 26.7 5.3 9.8 11.7 20.4 19.1 31 7.4 10.6 15 20.3 22.4 28.7 7.4 8.4 14.3 15.8 20.6 21.4 6.3 5.7 11.9 9.5 16 11.9 4 2.2 6.4 3.2 6.3 3.5zM1063.2 347c-.1.2-1.9-.1-5.2-1-3.3-.9-7.9-2.5-13.4-5s-11.9-6-18.6-10.5c-6.7-4.5-13.6-10-20.3-16.4-13.4-12.8-23.5-26.3-30.3-36.2-6.8-10-10.3-16.6-10-16.8.4-.3 4.7 5.8 11.9 15.4 7.2 9.6 17.4 22.6 30.6 35.2 6.6 6.2 13.3 11.7 19.8 16.3 6.4 4.5 12.6 8.2 17.9 10.9 10.6 5.4 17.8 7.5 17.6 8.1zM897.9 212.2c.5-.1 1.4 4 4.4 9.9 1.5 2.9 3.5 6.3 6.2 9.7 2.6 3.4 5.9 7 9.6 10.3 7.5 6.7 15.4 11.6 21 15.3 5.6 3.6 9.1 6 8.9 6.4-.2.4-4.1-1.3-10-4.4-5.9-3.2-14.1-7.9-22-14.9-3.9-3.5-7.2-7.3-9.9-11-2.6-3.7-4.6-7.4-5.9-10.6-2.6-6.3-2.6-10.7-2.3-10.7z"></path><path stroke="#000" stroke-miterlimit="10" d="M919.8 232.1c-.4.8-6.5-2-12.5-7.5s-9.2-11.4-8.5-11.9c.8-.5 5 4.2 10.7 9.5 5.7 5.2 10.7 9.1 10.3 9.9zM904.1 186.4c.5 0 .7 2.6 1.2 6.7.1 1 .3 2.1.5 3.3.2 1.2.5 2.5.7 3.8.6 2.7 1.4 5.5 2.4 8.5s2.2 5.7 3.4 8.2c.6 1.2 1.2 2.4 1.8 3.4.6 1.1 1.1 2 1.7 2.9 2.1 3.6 3.6 5.7 3.2 6-.3.3-2.4-1.4-5.1-4.7-.7-.8-1.4-1.8-2.1-2.8-.7-1-1.4-2.2-2.1-3.4-1.4-2.5-2.7-5.4-3.8-8.5-1.1-3.1-1.8-6.2-2.2-9-.2-1.4-.4-2.8-.5-4-.1-1.3-.1-2.4-.1-3.5 0-4.3.6-6.9 1-6.9z"></path><path stroke="#000" stroke-miterlimit="10" d="M932.4 229.9c-.3.3-2.7-1.4-6-4.7-3.4-3.3-7.6-8.2-11.6-14.2s-6.9-11.8-8.6-16.2c-1.7-4.4-2.4-7.2-2-7.4.9-.4 5.5 10.1 13.3 21.7 7.7 11.8 15.6 20.1 14.9 20.8z"></path><path stroke="#000" stroke-miterlimit="10" d="M939.7 228c-.8.5-9-13.2-20.6-29-2.9-4-5.7-7.7-8.3-11-.7-.8-1.3-1.7-1.9-2.4l-.2-.3-.1-.1v-.1l-.1-.2c-.1-.2-.2-.3-.3-.4-.1-.2-.2-.3-.3-.5l-.2-.3c-.1 0-.1.1-.1.2l-.3.9c-.2.4-.4 2.2-.4 3.3-.1 1.2 0 2.3 0 3.2.1 1.8.2 2.8 0 2.8-.2.1-.7-.8-1.2-2.6-.2-.9-.5-2-.6-3.3-.1-.7-.1-1.4-.1-2.1v-1.4c.1-.6.1-1.2.2-1.8.2-1.2.5-2.4.8-3.7l.1-.5.1-.3v-.1s.1 0 .1.1c.2.2.4.5.7.7.5.5.9 1 1.4 1.5.5.5 1 1.1 1.5 1.6s.9 1.1 1.4 1.6c.7.8 1.3 1.6 2 2.4 2.8 3.3 5.7 7 8.6 11 11.6 15.9 18.6 30.5 17.8 30.8z"></path><path stroke="#000" stroke-miterlimit="10" d="M943.4 215.6c-.4.2-2-1.9-4.5-5.3s-6-8-10.5-12.5c-3.1-3.1-6.4-5.7-9.3-7.6-2.9-1.9-5.5-3.1-7.3-4l.8-1.2c.9 1.4 1.3 2.3 1.1 2.5-.2.2-1-.4-2.2-1.6l-1.9-1.8 2.7.6c2 .4 4.9 1.3 8.2 3 3.3 1.7 6.9 4.4 10.2 7.7 4.7 4.7 8 9.8 10.1 13.6 2.1 3.8 3 6.4 2.6 6.6zM946.7 194.2c.8.4-.5 4.5-1 9.5s0 9.3-.9 9.5c-.4.1-1.1-.8-1.7-2.6-.6-1.8-.9-4.4-.7-7.2.3-2.8 1.1-5.3 2-7 1-1.6 1.9-2.4 2.3-2.2zM967.1 262.1c-.3.2-2.5-3.1-4.8-9-.3-.7-.6-1.5-.9-2.3-.3-.8-.5-1.7-.8-2.5-.6-1.8-1.1-3.7-1.6-5.7-1-4-1.9-8.4-2.8-13.1-.9-4.6-1.7-9-2.5-13-.4-2-.8-3.9-1.2-5.6-.2-.9-.4-1.7-.6-2.5-.2-.8-.4-1.6-.6-2.3-1.6-5.9-2.9-9.5-2.5-9.7.4-.2 2.5 3.1 4.7 9 .3.7.5 1.5.8 2.3.3.8.5 1.7.8 2.5.6 1.8 1 3.7 1.6 5.7 1 4 1.9 8.4 2.8 13.1.9 4.6 1.7 9 2.5 13 .4 2 .8 3.9 1.3 5.6.2.9.4 1.7.6 2.5.2.8.4 1.6.6 2.3 1.6 5.9 3 9.4 2.6 9.7zM1029.8 262c-.7.6-6.8-5.5-14.5-12.6-7.7-7.2-14.2-12.8-13.6-13.6.5-.7 8 3.8 15.8 11.2 8 7.3 13 14.4 12.3 15zM1033.3 224.2c-.5.7-7.8-3.9-16.2-10.4-5.8-4.5-10.7-8.7-12.9-11l1-1.1c.9 1.1 1.2 1.9 1.1 2.1-.2.2-.9-.2-2.1-1l1-1.1c2.9 1.5 8.1 5.2 14 9.7 8.3 6.3 14.7 12.1 14.1 12.8z"></path><ellipse cx="1001.2" cy="166.2" stroke="#000" stroke-miterlimit="10" stroke-width="2" rx="3.3" ry="106.4"></ellipse><ellipse cx="724.9" cy="162.3" stroke="#000" stroke-miterlimit="10" stroke-width="2" rx="3.3" ry="109.7"></ellipse><ellipse cx="837" cy="279.4" stroke="#000" stroke-miterlimit="10" stroke-width="2" rx="107.5" ry="3.3"></ellipse><ellipse cx="858.9" cy="46.8" stroke="#000" stroke-miterlimit="10" stroke-width="2" rx="132.1" ry="3.3"></ellipse><path stroke="#000" stroke-miterlimit="10" stroke-width="2" d="M907.2 175.3c-1 .5-6.4-10.4-18-25.8-5.8-7.7-13.2-16.5-22.4-25.3-1.1-1.1-2.3-2.2-3.5-3.3-1.2-1.1-2.5-2.1-3.7-3.2-1.3-1.1-2.5-2.2-3.8-3.3-1.3-1.1-2.7-2.1-4-3.2-.7-.5-1.3-1.1-2-1.6l-2.1-1.5c-1.4-1-2.9-2.1-4.3-3.1-1.5-1-3-2-4.5-2.9-1.5-1-3-2-4.6-2.9-12.5-7.5-25.4-13-37.5-16.7-12.2-3.7-23.5-6-33-8-4.8-1-9.1-1.9-12.9-2.7-3.8-.8-7-1.3-9.7-1.6-5.3-.6-8.3-.5-8.4-1-.1-.4 2.9-1.4 8.5-1.6 2.8-.1 6.2.1 10.1.5 3.9.4 8.3 1.1 13.1 1.8 9.7 1.5 21.2 3.3 33.9 6.8 12.6 3.5 26.2 9.1 39.2 16.9 1.7.9 3.2 2 4.8 3 1.6 1 3.1 2 4.7 3.1 1.5 1.1 3 2.2 4.4 3.3.7.5 1.5 1.1 2.2 1.6.7.6 1.4 1.1 2.1 1.7 1.4 1.1 2.8 2.3 4.1 3.4 1.4 1.1 2.6 2.3 3.9 3.5 1.3 1.2 2.5 2.3 3.8 3.4l3.5 3.5c9.2 9.3 16.5 18.7 21.9 26.9 10.9 16.3 14.8 28 14.2 28.3z"></path><path stroke="#000" stroke-miterlimit="10" d="M920.5 277.7c-.9 0-1.3-6.6-1.9-14.5-.6-8-1.1-14.5-.2-14.6.9-.2 2.8 6.2 3.4 14.4.6 8.2-.4 14.8-1.3 14.7zM891.4 59.8c.5.7-6.7 7.1-15.9 14.5s-17 13.1-17.6 12.4c-.6-.7 6.3-7.5 15.6-15 9.2-7.4 17.3-12.6 17.9-11.9zM983.2 52.4c.2.4-4.5 3.7-12.3 9-7.8 5.2-18.6 12.4-30.5 20.3-11.9 8-22.6 15.2-30.4 20.5-7.8 5.2-12.7 8.4-13 8-.3-.4 4.2-4.1 11.6-9.9 7.5-5.7 18-13.3 29.9-21.3 11.9-8 23-14.8 31.1-19.6 8.1-4.8 13.3-7.4 13.6-7zM950.7 131.5c.5.8-6.7 6.2-16.2 12.1-9.4 5.9-17.4 10.1-17.9 9.3-.5-.8 6.8-6.2 16.2-12.1 9.4-5.9 17.4-10.1 17.9-9.3z"></path><ellipse cx="669.3" cy="213.6" stroke="#000" stroke-miterlimit="10" stroke-width="2" rx="3.3" ry="114.4"></ellipse><ellipse cx="823.5" cy="331.7" stroke="#000" stroke-miterlimit="10" stroke-width="2" rx="151.2" ry="3.3"></ellipse><ellipse cx="998" cy="685.8" stroke="#000" stroke-miterlimit="10" rx="1.6" ry="326.9"></ellipse><ellipse cx="312" cy="1022.8" stroke="#000" stroke-miterlimit="10" rx="1.6" ry=".5"></ellipse><ellipse cx="648.1" cy="1021.4" stroke="#000" stroke-miterlimit="10" stroke-width="2" rx="339.4" ry="3.3"></ellipse><ellipse cx="306" cy="560.6" stroke="#000" stroke-miterlimit="10" stroke-width="2" rx="3.3" ry="453"></ellipse><ellipse cx="489.8" cy="97.3" stroke="#000" stroke-miterlimit="10" stroke-width="2" rx="173.8" ry="3.3"></ellipse><path stroke="#000" stroke-miterlimit="10" stroke-width="2" d="M534.5 720.1c-.5 0-.9-5.6-1.6-15.6-.7-10-1.8-24.5-4.8-42.1-1.5-8.8-3.6-18.3-6.5-28.4-1.4-5-3.3-10.1-5.1-15.4-.2-.7-.5-1.3-.7-2-.3-.7-.5-1.3-.8-2-.5-1.3-1.1-2.6-1.6-4-1.1-2.6-2.1-5.4-3.4-8-1.2-2.7-2.5-5.4-3.7-8.1-1.3-2.7-2.7-5.5-4-8.2l-2.1-4.2c-.7-1.4-1.5-2.8-2.2-4.2-1.5-2.8-2.9-5.6-4.5-8.4-6.2-11.3-12.9-22.9-19.6-34.9-6.8-11.9-13.2-23.8-18.9-35.5-.7-1.5-1.4-2.9-2.1-4.4-.4-.7-.7-1.5-1.1-2.2-.3-.7-.6-1.5-1-2.2-1.3-2.9-2.6-5.8-3.8-8.7-1.2-2.9-2.3-5.8-3.4-8.7-.5-1.4-1.1-2.9-1.6-4.3s-.9-2.9-1.4-4.3c-.9-2.9-1.9-5.7-2.7-8.5-.7-2.8-1.5-5.7-2.2-8.4-1.5-5.5-2.4-11-3.3-16.3-1.6-10.6-2.1-20.6-2-29.7.1-9.1.9-17.3 2-24.4 1.1-7.1 2.4-13.2 3.7-18.1 2.6-9.8 4.9-14.9 5.3-14.8.5.2-1 5.5-2.8 15.4-.9 4.9-1.9 11-2.6 18-.7 7-1.2 15.1-1 24 .2 8.9 1 18.6 2.7 28.9.9 5.1 1.9 10.4 3.5 15.8.7 2.7 1.5 5.4 2.3 8.1.8 2.7 1.8 5.5 2.8 8.2.5 1.4.9 2.8 1.4 4.2.5 1.4 1.1 2.8 1.7 4.2 1.1 2.8 2.2 5.6 3.4 8.5 1.3 2.8 2.5 5.7 3.8 8.5.3.7.6 1.4 1 2.2.3.7.7 1.4 1.1 2.1.7 1.4 1.4 2.9 2.1 4.3 5.7 11.5 12.1 23.2 18.9 35.1 6.7 11.9 13.4 23.6 19.6 35 1.6 2.8 3 5.7 4.5 8.6.7 1.4 1.5 2.8 2.2 4.2.7 1.4 1.4 2.8 2.1 4.3 1.4 2.8 2.7 5.6 4 8.4 1.2 2.8 2.5 5.6 3.7 8.3 1.3 2.7 2.2 5.5 3.3 8.3.5 1.4 1.1 2.7 1.6 4.1.3.7.5 1.3.8 2 .2.7.5 1.4.7 2 1.8 5.4 3.6 10.7 4.9 15.8 2.7 10.4 4.6 20.1 5.8 29.1 2.4 18 2.8 32.6 2.8 42.7-.3 10.1-.8 15.7-1.2 15.7z"></path><path stroke="#000" stroke-miterlimit="10" stroke-width="2" d="M660.6 151.1c.1.5-4.4 1.4-12.3 3.3s-19.4 4.7-33.1 9.4c-13.8 4.7-29.9 11-46.8 20-8.4 4.5-17.1 9.7-25.7 15.5-8.6 5.9-17.1 12.5-25.3 19.8-2 1.9-4.1 3.7-6 5.6l-5.7 5.7-2.8 2.8-2.7 3c-1.8 2-3.5 3.9-5.3 5.8-1.7 2-3.3 4-4.9 6-1.6 2-3.2 3.9-4.7 6-1.5 2-2.9 4-4.4 6l-1.1 1.5-1 1.5c-.7 1-1.3 2-2 3-1.3 2-2.7 3.9-3.9 5.9-1.2 2-2.4 4-3.6 5.9-.6 1-1.2 1.9-1.7 2.9s-1.1 1.9-1.6 2.9c-1.1 1.9-2.1 3.8-3.1 5.7-1 1.9-1.9 3.8-2.8 5.6-.9 1.8-1.9 3.6-2.7 5.4-1.6 3.6-3.3 7-4.6 10.4-5.7 13.4-9.3 24.6-11.7 32.4-2.4 7.8-3.6 12.2-4.1 12.1-.4-.1 0-4.6 1.6-12.7 1.7-8.1 4.7-19.6 9.9-33.5 1.2-3.5 2.8-7 4.3-10.8.7-1.9 1.7-3.7 2.5-5.6.9-1.9 1.8-3.8 2.7-5.8 1-1.9 2-3.9 3.1-5.9.5-1 1-2 1.6-3 .5-1 1.1-2 1.7-3 1.2-2 2.3-4 3.5-6.1 1.2-2.1 2.6-4.1 3.9-6.1.7-1 1.3-2.1 2-3.1l1-1.6 1.1-1.5c1.5-2 2.9-4.1 4.4-6.2 1.4-2.1 3.1-4.1 4.7-6.2 1.6-2 3.2-4.1 5-6.2l5.4-6c.9-1 1.8-2 2.7-3.1l2.9-2.9c1.9-2 3.9-3.9 5.9-5.9 2-1.9 4.1-3.8 6.2-5.7 8.5-7.5 17.2-14.3 26-20.3 8.9-5.9 17.8-11.1 26.5-15.6 17.4-8.9 34.1-14.9 48.2-19.1 14.2-4.2 25.9-6.4 34.1-7.5 8.1-1 12.6-1.1 12.7-.7zM784.4 730.5c-.2 0-.7-1.3-1.3-4-.2-.7-.3-1.4-.5-2.3-.2-.8-.4-1.8-.5-2.8-.3-2-.6-4.3-1-7-.2-2.6-.4-5.6-.6-8.8v-7.8c0-.9.1-1.8.1-2.8.1-1.9.2-3.8.3-5.8.2-2 .5-4.1.7-6.2.2-2.1.6-4.3 1-6.5.2-1.1.4-2.2.6-3.4.2-1.1.5-2.3.7-3.4 3.8-18.6 11.5-40.1 23-62.3 5.7-11.1 12.3-22.5 19.4-34 7.1-11.5 14.4-23.4 21.9-35.6 7.4-12.2 14.3-24.3 20.4-36.2 6.1-11.9 11.1-23.8 15.1-35.4 4-11.6 7-22.9 9.3-33.6 2.2-10.7 3.6-20.8 4.6-30.1 1.9-18.5 1.5-33.7 1-44.1-.1-2.6-.2-4.9-.4-6.9-.1-2-.3-3.7-.3-5.1-.1-2.8-.1-4.2.1-4.3.2 0 .6 1.4 1.2 4.1.3 1.4.6 3 1 5.1.3 2 .6 4.3 1 6.9 1.2 10.5 2.3 25.8 1 44.7-.6 9.4-1.8 19.8-3.8 30.7-2.1 11-4.9 22.5-8.9 34.5-3.9 11.9-9 24.2-15.1 36.3-6.1 12.2-13 24.5-20.5 36.7-7.5 12.3-15 24.1-22.1 35.5-7.1 11.5-13.7 22.6-19.5 33.5-11.6 21.7-19.6 42.5-23.8 60.6-.3 1.1-.6 2.2-.8 3.3-.2 1.1-.4 2.2-.7 3.3-.4 2.2-.9 4.3-1.2 6.3-.3 2.1-.6 4.1-.9 6-.2 2-.4 3.9-.6 5.7l-.3 2.7c0 .9-.1 1.8-.1 2.6-.1 1.7-.2 3.4-.2 4.9v8.6c.1 2.6.3 4.9.4 6.9 0 1 .1 1.9.2 2.8.1.8.2 1.6.2 2.3.1 2.9.1 4.4-.1 4.4z"></path><path stroke="#000" stroke-miterlimit="10" stroke-width="4" d="M631.1 761.3c-.9 0-1.5-5.6-1.7-15.6-.3-10-.2-24.5-.3-42.3-.1-17.8-.2-39-1.6-62.4-.1-1.5-.2-2.9-.2-4.4l-.3-4.5c-.2-3-.5-6-.7-9.1-.3-3-.6-6.1-.9-9.2-.3-3.1-.7-6.2-1.1-9.4-1.6-12.6-3.5-25.6-6.4-38.7-5.5-26.3-13.6-50.6-22.6-72.1-2.3-5.4-4.6-10.5-7-15.5-2.4-5-4.7-9.8-7.2-14.2-2.5-4.5-5-8.7-7.6-12.6-2.6-3.9-5.4-7.6-8.1-11.2-5.4-7.1-10.3-13.7-14.1-19.9-3.9-6.2-6.6-12-8.2-17-.9-2.5-1.3-4.8-1.7-6.7-.2-2-.4-3.7-.5-5 .1-2.8.3-4.2.8-4.2.4 0 1.1 1.3 1.8 3.8.4 1.2 1 2.7 1.6 4.5.8 1.7 1.5 3.7 2.7 5.8 2.1 4.3 5.3 9.3 9.5 14.8s9.4 11.5 15.3 18.3c2.9 3.4 6 7 9.1 11.1 3.1 4 6 8.4 8.8 13 2.8 4.6 5.5 9.5 8.1 14.6 2.6 5 5.2 10.3 7.7 15.8 10 21.9 18.7 47 24.4 74.2 2.9 13.6 4.9 27 6.3 40 .3 3.2.7 6.5.9 9.6.2 3.2.5 6.3.7 9.5.2 3.1.3 6.2.5 9.3.1 1.5.1 3 .2 4.6 0 1.5.1 3 .1 4.5.7 23.9-.1 45.3-1.2 63.2-1.1 17.9-2.6 32.4-3.9 42.3-1.2 9.6-2.3 15.1-3.2 15.1z"></path><path stroke="#000" stroke-miterlimit="10" stroke-width="4" d="M691.1 745.2c-.9 0-1-14-.3-39.2.7-25.3 2.3-61.9 5.2-107.2.8-11.3 1.3-23.2 3-35.9.8-6.3 2-12.7 3.6-19.2 1.7-6.5 3.9-12.9 6.4-19.3 2.5-6.4 5.3-12.7 8.3-19 2.9-6.3 6-12.7 9.1-19.2 3.1-6.5 6.4-13 9.8-19.6 3.4-6.6 7-13.1 9.8-19.7 1.4-3.3 2.6-6.6 3.5-9.9.8-3.3 1.3-6.6 1.4-10 .1-3.5-.3-7.4-.2-11.8.1-4.4.8-8.8 1.9-13.1 1.1-4.3 2.7-8.5 4.9-12.4.3-.5.5-1 .8-1.5l.2-.4.1-.2.1-.2c.2-.3.4-.6.6-1 .9-1.2 1.9-2.4 3.3-3.6.7-.6 1.6-1.1 2.7-1.6s2.5-.8 4-.8c.4 0 .8 0 1.2.1.5.1 1 .2 1.5.4.3.1.5.2.5.2l.2.1.2.1c.9.4.5.3.9.4 1.3.8 2.5 1.9 3.2 3 1.4 2.3 1.7 4.2 1.8 5.8.1.8.1 1.5.1 2.2l-.1 1.7c0 1.1-.1 2.2-.2 3.3-.1 1.1-.2 2.2-.4 3.3-.6 4.4-1.7 8.9-3.3 13.2-1.6 4.4-3.9 8.7-6.9 12.6-3 3.9-6.9 7.4-11.5 9.8-4.7 2.4-9.9 3.7-15 3.8-2.6.1-5.2-.2-7.7-.7l-1.9-.4-.9-.2-.9-.3-1.8-.6-1.8-.7c-4.8-2-9.2-5.3-12.7-9.5-1.7-2.1-3.2-4.4-4.2-6.9-.6-1.2-1-2.5-1.5-3.7-.2-.6-.4-1.3-.5-1.9-.2-.6-.4-1.3-.5-1.9l-.3-2c-.1-.7-.1-1.3-.2-2-.2-1.3-.1-2.6-.2-4 .1-2.6.4-5.3 1-7.9 1.2-5.2 3.8-10.2 7.4-14.4l9.9-11.4 1.5 15.1c.7 7 0 14.2-2 21-1 3.4-2.3 6.7-4 9.9-.4.8-.9 1.6-1.3 2.4-.5.8-.9 1.5-1.4 2.3-1 1.6-2.2 3.1-3.5 4.5-2.6 2.9-5.7 5.6-9.9 7.4-2.1.9-4.4 1.5-6.8 1.6-2.4.1-4.9-.2-7.2-1s-4.3-2-6.1-3.3c-1.8-1.4-3.2-2.9-4.4-4.5-1.3-1.6-2.3-3.3-3.2-4.9-.9-1.7-1.6-3.4-2.3-5.1-.3-.9-.6-1.7-.9-2.6l-.7-2.5c-.4-1.7-.8-3.4-1.1-5.2-.6-3.5-.8-7.1-.7-10.8.2-3.7.8-7.4 2.1-11 1.3-3.6 3.3-7.2 6-10.1l2.4-2.7 3.3.6c.5.1 1.1.2 1.6.4s1.1.4 1.6.7c.5.3 1 .6 1.4 1l1.2 1.2c1.4 1.6 1.9 3.2 2.2 4.5.6 2.6.5 4.6.3 6.6l-.1.8-.1.5-.2 1-.4 2.1c-.2 1.4-.5 2.7-.7 4.1-1 5.5-2 10.9-3 16.4-.5 2.8-1.2 5.8-2.2 8.8-1 3-2.5 6.1-4.6 9-2.1 2.8-4.8 5.3-8.2 7.1-1.7.9-3.6 1.6-5.6 1.9-2 .4-4.1.4-6 .2-3.9-.5-7.2-2.1-10-3.8-1.4-.9-2.7-1.9-3.9-2.9l-1.7-1.6c-.6-.5-1.1-1-1.6-1.6-4.2-4.4-7.6-9.6-9.8-15.1-2.2-5.5-3.5-11.4-3.7-17.3-.2-5.9.7-11.8 2.7-17.4l1.8-5.2 5.1 1.3 2.1.6c.7.3 1.4.7 2 1.1 1.3.9 2.3 2 3.1 3.2 1.5 2.3 2 4.5 2.2 6.5.2 2 .2 3.7 0 5.4-.2 1.7-.5 3.3-1 5-1.6 5.3-3.1 10.8-5.7 16.2-1.3 2.7-2.8 5.4-4.8 7.8-1.9 2.4-4.3 4.9-7 6.7-2.7 1.8-5.6 3.2-8.8 4.1-3.2.9-6.6 1.2-10.1.6-1.7-.3-3.4-.8-5.1-1.5-.8-.4-1.6-.8-2.4-1.3l-2.1-1.5c-2.7-2.2-4.6-4.8-6.1-7.3s-2.6-5-3.7-7.3c-1-2.4-2-4.8-2.9-7.3-1.7-5-3-10.3-3-16 0-2.8.4-5.8 1.4-8.7 1-2.9 2.6-5.6 4.6-7.9l5.5-6.3 3.1 7.7c3.2 8 3.8 16.5 2.2 24.4-.8 4-2.2 7.8-4 11.3-1 1.7-2 3.5-3.3 5.1-1.3 1.6-2.8 3.2-4.7 4.5-.9.7-2 1.3-3.1 1.7-1.1.5-2.3.8-3.4 1-2.4.5-4.8.3-6.9-.2-2.2-.5-4.1-1.4-5.8-2.4-1.7-1-3.2-2.2-4.6-3.5-1.4-1.3-2.6-2.6-3.8-4-1.1-1.4-2.2-2.9-3-4.3-1.8-2.8-3.3-5.4-4.9-7.8-1.6-2.4-3.2-4.5-5.1-6-.9-.8-1.9-1.4-2.8-2-.4-.2-.7-.3-.8-.3v-1c0-.2-.1-.3-.1-.3 1.3 2.3.1.8.4 1.2h-.1c-.7.4-.8 1.3-.8 2 0 .8.3 1.5.5 2.2.4 1.4.9 2.9 1.5 4.3 1.2 2.8 2.7 5.7 5 7.9 1.1 1.1 2.5 2 4 2.6.7.3 1.5.5 2.3.7 0-.6-.1-1.3-.1-1.9-.4-3.8-1.3-7.5-2.6-11.1-.7-1.8-1.4-3.5-2.3-5.2-.1-.2-.2-.4-.3-.7l-.5-.8c-.3-.5-.6-1.1-.9-1.6-.6-1.1-1.2-2.1-1.9-3.1-.6-1-1.3-1.9-1.9-2.8-.6-.9-1.3-1.7-1.9-2.3-.6-.7-1.3-1.2-1.9-1.5-.2-.1-.3-.1-.5-.2-.1 0-.1 0-.2-.1h-.6.1-.7c-1.3.1-2.5.9-3.4 2-.9 1.1-1.4 2.3-1.6 3.4-.2 1.5-.1 2.9.1 4.2.2 1.2.5 2.3.7 3.1.4 1.7.6 2.6.4 2.7-.2.1-.8-.6-1.6-2.2-.4-.8-.9-1.8-1.4-3.1-.4-1.3-.8-2.9-.7-4.9.1-1.6.6-3.4 1.7-5 .5-.8 1.2-1.6 2.1-2.3.9-.7 2-1.2 3.3-1.4.6-.1 1.3-.1 1.9 0h.5c.2 0 .4.1.5.1l.9.3c1.2.5 2.3 1.2 3.2 2.1.9.8 1.8 1.7 2.5 2.7.7.9 1.5 1.9 2.2 2.9.8 1 1.5 2 2.2 3.1.4.5.7 1.1 1.1 1.7l.5.9c.2.3.4.7.6 1.1 1.7 2.9 3.3 6.2 4.7 9.6 1.4 3.4 2.5 7 3.4 10.6.9 3.6 1.6 7.3 2.2 11.4-.3.7-.6 1.4-.9 2-1.3-.2-2.7-.4-3.9-.7-2.5-.6-4.7-1.4-6.7-2.6-2-1.2-3.8-2.7-5.6-4.6-.4-.5-.9-.9-1.3-1.5-.5-.6-.9-1-1.4-1.6-.5-.6-.9-1.3-1.4-1.9-.5-.8-1-1.5-1.5-2.3-.2-.3-.5-.9-.8-1.3l-.8-1.4c-.5-.9-1-2.1-1.5-3.2l-.8-1.7-.7-1.9c-.5-1.3-1-2.5-1.2-3.8l-.5-1.9c-.1-.3-.2-.6-.2-1 0-.3-.1-.6-.1-.9-.1-1.2 0-2.2.2-3.2s.5-1.9 1-2.7c.5-.8 1.2-1.6 2.2-2.1l.2-.1c.1-.1-.2.1-.1.1l.2-.1.6-.3c.4-.2.8-.3 1.3-.3.8-.1 1.6-.1 2.3 0 1.4.2 2.4.6 3.3 1 1.6.8 3.2 1.8 4.5 2.9 2.8 2.2 4.9 4.9 6.8 7.6 1.9 2.7 3.5 5.4 5.2 7.9.9 1.3 1.6 2.4 2.5 3.4.9 1 1.9 2 2.9 2.9 1 .9 2.1 1.7 3.2 2.3 1.1.6 2.2 1.1 3.3 1.3 2.2.5 4 .1 5.8-1.2 1.8-1.3 3.5-3.7 4.9-6.4 1.4-2.7 2.3-5.6 2.9-8.7.6-3 .7-6.2.4-9.4-.3-3.1-1.1-6.2-2.4-9.1l8.7 1.4c-2.1 2.5-3.2 5.7-3.1 9.7 0 3.9 1.1 8.2 2.6 12.5.8 2.1 1.7 4.3 2.6 6.4 1 2.2 2 4.3 3.1 6.1 1.1 1.8 2.3 3.3 3.6 4.3 1.3 1 2.7 1.6 4.3 1.8 3.2.5 7.3-.7 10.5-3 1.7-1.2 3-2.5 4.3-4.3 1.3-1.7 2.4-3.7 3.4-5.8 2-4.2 3.4-9.2 4.9-14.3.5-2 .8-4.2.6-5.8 0-.2 0-.4-.1-.5v-.2l-.1-.2v-.2s0-.1-.1-.1v-.1s.1-.1.2-.1c.1-.1.1-.1.2-.1.1-.1.2-.1.3-.2l.1-.1.1-.1v.1c0 .1 0 .1-.1.1-.1.2-.2.7-.2.8l6.9-3.9c-1.4 4-2 8.4-1.8 12.8.2 4.4 1.2 8.9 2.9 13 1.7 4.2 4.3 8 7.3 11.2 3.1 3.2 7 5.8 9.9 6.1.7.1 1.4.1 2-.1.7-.1 1.3-.4 2-.7 1.4-.7 2.8-2 3.9-3.5s2-3.4 2.7-5.5c.7-2.1 1.3-4.5 1.7-7.1 1-5.4 1.9-10.8 2.9-16.2.5-2.6.9-5.3 1.4-8 .1-.7 0-1.6 0-1.7s0 0 .1 0c.2-.1.4-.1.6-.2.4-.1.6-.2 1-.4.3-.1.5-.2.8-.4.2-.1.4-.2.5-.4l.3-.3s0-.1.1-.1c0 .1 0 .1-.1.2-.1.2-.1.3-.1.4l5.3 1c-2.9 3.3-4.5 7.9-4.7 13.1-.1 2.6.1 5.3.5 8 .2 1.4.5 2.7.9 4l.6 2c.2.6.4 1.3.6 1.9.9 2.5 2.1 4.8 3.5 6.6.7.9 1.4 1.7 2.2 2.3.8.6 1.5 1 2.2 1.2 1.5.5 2.9.4 4.7-.3 1.7-.7 3.6-2.2 5.3-4.1.8-.9 1.6-1.9 2.3-3 .4-.6.7-1.1 1.1-1.7.3-.6.7-1.2 1-1.8 1.2-2.4 2.3-5 3-7.6 1.5-5.2 2-10.7 1.5-16.1l11.3 3.7c-4.3 4.8-6.1 12.3-4.7 18.9l.3 1.2.3 1.2c.3.8.5 1.6.9 2.3.6 1.5 1.6 2.9 2.5 4.1 2 2.4 4.7 4.5 7.8 5.8l1.2.5 1.2.4.6.2.6.1 1.2.3c1.7.3 3.3.5 5 .4 3.3 0 6.5-.8 9.3-2.3 5.8-3 10-8.8 12.6-15.5 1.3-3.4 2.1-7 2.7-10.6.1-.9.3-1.8.3-2.8.1-.9.2-1.8.2-2.8l.1-1.3v-1.3h.2c.1 0 .3-.1.4-.1.3-.1.5-.2.7-.3l1-.5c.5-.3.6-.5.5-.4.1.1-.2-.2.1.2l-.1-.2-.1-.2c-.1-.1 0-.1 0-.1h.2v.1c0 .2.1.8.4 1.5.2.4.4.7.6 1.2 0 .1.2.3.1.2-.1.1-.5.5-.8.9-.1.1-.1.2-.2.3l-.1.1-.1.1-.2.3-.6 1.2c-1.7 3.1-3 6.4-3.9 9.8-.9 3.4-1.5 6.8-1.6 10.3-.1 3.5.1 7.3.1 11.6-.1 4.3-.8 8.7-1.9 12.8-1.1 4.1-2.6 7.9-4.2 11.6-3.3 7.3-7 13.8-10.4 20.3-3.4 6.5-6.7 12.9-10 19.2-3.2 6.3-6.3 12.6-9.3 18.8-3 6.2-5.8 12.3-8.3 18.3-2.5 6-4.7 12-6.3 18-1.7 6-2.9 12-3.8 18-1.8 12-2.7 23.8-3.7 35.2-3.9 45.2-7.1 81.7-9.2 106.8-2.5 25.3-4 39.2-4.9 39.1z"></path><path stroke="#000" stroke-miterlimit="10" stroke-width="2" d="M777.5 750.8c.3.7-12.7 7-34.9 13.8-11.1 3.4-24.5 6.9-39.6 9.8-15.1 2.9-31.9 5.1-49.6 6.2-8.9.6-17.6.8-26 .5-8.4-.2-16.5-.8-24.2-1.9-1-.1-1.9-.2-2.9-.4-.9-.2-1.9-.3-2.8-.5-1.9-.3-3.7-.6-5.5-1-3.6-.8-7.1-1.5-10.4-2.5-.8-.2-1.7-.5-2.5-.7l-1.2-.3c-.4-.1-.8-.3-1.2-.4-1.6-.5-3.1-1.1-4.7-1.6-1.5-.5-3-1.1-4.4-1.7-1.4-.6-2.8-1.1-4.2-1.7-10.8-4.8-18.7-10.2-23.6-14.6l-1.8-1.5c-.5-.5-1-1-1.5-1.4-.9-.9-1.6-1.7-2.2-2.3-1.2-1.3-1.7-2-1.5-2.2.2-.2 1 .3 2.4 1.2.7.5 1.6 1.1 2.6 1.8.5.4 1 .8 1.6 1.2.6.4 1.2.8 1.9 1.2 5.3 3.6 13.3 8.2 23.8 12.3 1.3.5 2.7.9 4.1 1.4 1.4.5 2.8 1 4.3 1.4 1.5.4 3 .9 4.5 1.3l1.2.3 1.2.3 2.4.6c3.2.8 6.6 1.4 10.1 2.1 1.7.3 3.5.5 5.4.8.9.1 1.8.3 2.7.4.9.1 1.9.2 2.8.3 7.5.9 15.4 1.3 23.6 1.5 8.2.1 16.7-.1 25.4-.6 34.9-2 66.2-8.2 88.4-13.9 22.4-5.5 36-10.2 36.3-9.2z"></path><path stroke="#000" stroke-miterlimit="10" stroke-width="2" d="M765.5 773.3c.1 0 .3.1.5.5.1.2.3.4.4.7.1.3.2.7.4 1.1.5 1.7.8 4.4 0 7.6-.8 3.3-2.7 7.1-6.2 10.4-3.6 3.4-8.5 5.8-14.2 7.3-5.7 1.5-11.9 2.2-18.4 3.1-6.6.9-13.6 1.6-21 2.4-14.8 1.5-31.2 2.7-48.3 3.6-17.2.9-33.5 1.4-48.4 1.8-7.4.1-14.5.3-21.1.4-6.6.1-13.2.2-19.1-2-2.9-1.1-5.5-2.7-7.5-4.7s-3.4-4.3-4.4-6.5c-1.9-4.5-2.2-8.5-2.4-11.7-.1-3.2.2-5.7.4-7.4.3-1.7.6-2.5.8-2.5.2 0 .4.9.5 2.5.2 1.6.3 4.1.8 7.1s1.2 6.7 3.1 10.4c1 1.8 2.2 3.6 3.9 5.1 1.7 1.5 3.7 2.6 6.2 3.4 2.4.7 5.1 1.1 8 1.2 2.9.1 6-.1 9.3-.3 6.6-.3 13.6-.7 21.1-1 14.8-.7 31.1-1.4 48.2-2.3 17.1-.9 33.4-1.9 48.1-3.1 7.4-.6 14.4-1.2 21-1.8 6.6-.6 12.7-1.1 17.9-2.2 2.6-.6 5.1-1.3 7.2-2.3 2.2-1 4.1-2.1 5.7-3.3 3.2-2.6 5.2-5.7 6.2-8.4 1.1-2.7 1.2-5.1 1.1-6.7v-1.1c0-.3-.1-.6-.1-.8.2-.2.2-.4.3-.5z"></path><path stroke="#000" stroke-miterlimit="10" stroke-width="2" d="M743.7 809.4c.1 0 .3.1.5.4.2.3.5.8.7 1.5.5 1.4.9 3.6.5 6.5-.4 2.8-1.5 6.2-3.7 9.6-1.1 1.7-2.5 3.4-4.3 4.9-1.7 1.5-3.7 2.9-5.9 4.2-4.4 2.5-9.6 4.3-15.1 5.7-5.5 1.4-11.4 2.7-17.6 4-12.5 2.5-26.3 4.5-41 5.6-14.7 1.1-28.7 1-41.4.1-6.4-.5-12.6-1.4-18.2-3.2-5.6-1.8-10.6-4.4-14.5-7.9-3.8-3.5-6.3-7.6-7.7-11.3-1.4-3.8-1.8-7.4-1.5-10.2.3-2.8 1.1-4.9 1.8-6.2.8-1.3 1.3-1.8 1.5-1.7.2.1.1.9-.3 2.2-.2 1.3-.6 3.3-.5 5.8.1 2.5.8 5.5 2.3 8.7 1.5 3.2 3.9 6.5 7.3 9.3 3.4 2.7 7.9 4.9 13 6.2 5.1 1.4 10.9 2.1 17.1 2.4 12.4.6 26.2.5 40.6-.6 14.4-1 28-2.8 40.4-5 6.2-1.1 12-2.2 17.4-3.3 5.4-1.2 10.2-2.5 14.2-4.5 2-1 3.8-2.1 5.4-3.3 1.6-1.2 2.9-2.5 4-3.9 2.2-2.7 3.5-5.6 4.2-7.9.7-2.4.7-4.4.7-5.7v-1.6c-.1-.6 0-.8.1-.8z"></path><path stroke="#000" stroke-miterlimit="10" stroke-width="2" d="M731.3 846.9c.2 0 .5.6.6 1.8.1 1.2.1 3.1-.4 5.4-.6 2.3-1.7 5-3.7 7.7-2 2.8-4.8 5.5-8.3 7.7-3.5 2.3-7.7 4.2-12.2 5.8-4.5 1.6-9.4 3-14.6 4.1-10.5 2.3-22.2 3.3-34.4 3.3-6.1 0-12.1-.1-17.8-.4-5.7-.3-11.2-.5-16.6-1.2-5.4-.6-10.5-1.7-15.2-3.7-2.3-1-4.4-2.2-6.3-3.6-1.9-1.4-3.6-3-4.9-4.7-2.7-3.4-4.3-7-5.2-10.2-.8-3.3-1-6.2-.8-8.5.4-4.7 1.8-6.9 2.1-6.8.5.1 0 2.6.4 6.8.2 2.1.7 4.6 1.8 7.4 1.1 2.7 2.7 5.7 5.2 8.3 2.4 2.6 5.8 4.8 9.8 6.3 4 1.5 8.7 2.3 13.7 2.8 5 .4 10.6.6 16.2.8 5.7.2 11.5.3 17.5.3 11.9-.1 23.2-.9 33.3-2.7 10-1.9 19.1-4.4 25.6-7.9 3.3-1.8 5.9-3.9 7.8-6.1 2-2.2 3.3-4.4 4.1-6.3 1.8-3.8 1.8-6.3 2.3-6.4z"></path><path stroke="#000" stroke-miterlimit="10" stroke-width="2" d="M714.7 900.2c.2.4-1.1 1.7-3.9 3.2-2.9 1.5-7.4 3.1-13 4-2.8.5-5.9.9-9.2 1.2-3.3.4-6.7.7-10.4 1-7.3.7-15.4 1.4-23.9 2-4.2.3-8.4.6-12.5.7-4.2 0-8.3-.2-12.3-1.3-2-.5-3.9-1.3-5.6-2.2-.9-.5-1.7-.9-2.7-1.7-1.1-.9-1.9-2.1-2.2-3.4-.3-1.2-.4-2.1-.4-2.9-.1-.8-.1-1.6-.2-2.3-.1-1.5-.2-3-.3-4.4-.7-11.1-.6-18.1.3-18.2.9-.1 2.5 6.7 4.3 17.7.2 1.4.5 2.8.7 4.3.1.8.2 1.5.4 2.3.1.8.2 1.4.4 1.8.1.3.3.5.6.7.3.2 1.1.6 1.8.9 1.4.6 2.9 1.1 4.5 1.5 6.5 1.5 14.4.5 22.9-.1 8.5-.6 16.6-1.1 23.9-1.5 7.4-.4 14-.5 19.5-.8 5.4-.3 9.7-1.1 12.7-1.8 2.7-.5 4.4-1.1 4.6-.7z"></path><path stroke="#000" stroke-miterlimit="10" stroke-width="2" d="M717.2 903.1c-1.8.2-4-7.4-4.3-17-.3-9.6 1.5-17.3 3.3-17.2 1.8.1 2.9 7.7 3.2 17.1.3 9.3-.4 17-2.2 17.1z"></path><ellipse cx="377.9" cy="282.4" stroke="#000" stroke-miterlimit="10" rx="41.4" ry="1.6" transform="rotate(33.154 377.925 282.386)"></ellipse><path stroke="#000" stroke-miterlimit="10" d="M449.5 220.3c-.2.2-1.9-1.3-4.9-4-3-2.8-7.3-6.8-12.5-11.8-10.5-10.1-25-24-41-39.4-25.6-24.5-47.5-45.1-55-52.7l.8-.7c1.5 2.3 2.2 3.5 2.1 3.7-.1.1-1.2-1-2.9-3l.8-.7c8.4 6.7 31 26.6 56.6 51.2 16.1 15.4 30.3 29.6 40.4 40.1 5.1 5.2 9.1 9.5 11.8 12.6 2.6 2.7 4 4.5 3.8 4.7z"></path><ellipse cx="482.3" cy="162.4" stroke="#000" stroke-miterlimit="10" rx="31.2" ry="1.6" transform="rotate(49.286 482.269 162.43)"></ellipse><path stroke="#000" stroke-miterlimit="10" d="M554.8 158c-.9.4-6.1-9.8-13.6-21.6-7.5-11.9-14.4-21-13.7-21.6.6-.6 8.8 7.7 16.4 19.8 7.7 12.1 11.7 23.1 10.9 23.4zM960 690.9c-.3.4-7-4-17.7-11.4S917 661.7 901 650.1s-30.4-22.3-40.7-30.2C850 612 843.7 607 844 606.6s7 4 17.7 11.4 25.3 17.8 41.3 29.4c16 11.6 30.4 22.3 40.7 30.2 10.3 7.9 16.6 12.9 16.3 13.3z"></path><ellipse cx="943.9" cy="458.8" stroke="#000" stroke-miterlimit="10" rx="33.5" ry="1.6" transform="rotate(16.791 943.833 458.793)"></ellipse><path stroke="#000" stroke-miterlimit="10" d="M963.3 382.9c-.1.9-8.3.5-18.3.4-10-.2-18.1 0-18.2-.9-.1-.9 8.1-2.5 18.3-2.3 10.2.1 18.4 2 18.2 2.8zM474.3 580.9c.1.2-1.4 1.8-4.2 4.5s-7.1 6.6-12.3 11.4c-10.5 9.5-25.1 22.5-41.4 36.7-25.3 22-47.1 40.5-55.9 47.3l-.7-.9c2.8-1.6 4.3-2.4 4.5-2.3.1.2-1.2 1.3-3.8 3.2l-.7-.9c8-7.8 29.2-26.9 54.5-48.9 16.3-14.2 31.1-26.9 42-36 5.4-4.5 9.9-8.2 13-10.6s4.8-3.7 5-3.5z"></path><ellipse cx="322" cy="774.8" stroke="#000" stroke-miterlimit="10" rx="172.6" ry="1.6" transform="rotate(90.136 322.005 774.749)"></ellipse><path stroke="#000" stroke-miterlimit="10" d="M345 910.9c-.4 0-1.1-7.1-1.6-18.6-.5-11.5-1-27.4-1.1-45-.1-17.6.2-33.5.6-45 .4-11.5.9-18.6 1.4-18.6.5 0 .7 7.1.9 18.6.2 11.5.3 27.4.4 45 .1 17.6.2 33.5.1 45 0 11.5-.2 18.6-.7 18.6zM1052 263.8c.1.2-.1.6-.8 1-.7.5-1.8.9-3.3 1-2.9.2-7-1.5-9.5-5.3-1.2-1.8-1.8-3.8-2.1-5.6-.3-1.8-.4-3.4-.4-4.7.1-2.6.5-4.2.9-4.2.5 0 .9 1.6 1.3 4 .5 2.4 1.1 5.8 3 8.7.9 1.4 2.1 2.5 3.3 3.3 1.2.8 2.5 1.3 3.6 1.5 2.3.5 3.8-.1 4 .3z"></path><path stroke="#000" stroke-miterlimit="10" stroke-width="4" d="M568.3 436.8c-1.7.5-4.2-1.9-6.9-6.2-2.7-4.3-5.7-10.5-8.5-17.4-2.8-7-4.9-13.4-6-18.4-1.1-5-1-8.5.6-9.3 1.6-.8 4.5 1.2 7.7 5.3s6.8 10.2 9.8 17.5c2.9 7.2 4.6 14.2 5.1 19.3.6 5.2-.1 8.7-1.8 9.2z"></path><path stroke="#000" stroke-miterlimit="10" d="M1198.8 495.8c-.3.3-2.5-1.8-5.2-5.8-1.4-1.9-2.9-4.4-4.4-7.2-1.5-2.8-2.9-6-4.1-9.5-2.5-6.9-3.7-13.5-4-18.3-.2-2.4-.2-4.3-.1-5.7 0-.3 0-.7.2-1 .1-.3.4-.5.6-.3.2.2.2.4.3.5 0 .1 0 .1.1.1h.2c.1-.1.1-.2 0-.3-.1-.1-.3.1-.2.2 0 .2.1.4.1.7.3 1.3.6 3.2 1.1 5.5.9 4.6 2.4 10.8 4.8 17.5 4.6 13.5 11.4 23 10.6 23.6zM1002.7 320.4c.2.4-1 1.4-2.8 3-1.8 1.6-4.1 3.9-6.2 6.8-2.1 2.9-3.4 5.9-4.3 8.1-.2.5-.4 1-.6 1.4-.1.2-.1.6.1.7.2.1.3 0 .3-.1s-.1-.2-.2-.2-.1.1-.1.1l-.2.2c0 .1-.1.1-.1.2-.1.3-.4.5-.9.4-.5-.1-.8-.7-.8-1.4s.1-1.2.1-1.9c.3-2.6 1.5-6.1 3.9-9.4 2.3-3.3 5.2-5.6 7.5-6.8 2.5-1.2 4.1-1.5 4.3-1.1zM1013.4 326.2c.3.4-1.1 1.7-3 3.7-1 1-2.1 2.3-3.2 3.7-1.1 1.5-2.3 3.1-3.4 4.9-1.1 1.8-2 3.6-2.7 5.3-.7 1.7-1.3 3.3-1.7 4.6-.9 2.7-1.3 4.4-1.8 4.4-.4 0-.8-1.9-.4-4.9.2-1.5.6-3.3 1.2-5.2.6-1.9 1.5-3.9 2.7-5.9 1.2-2 2.6-3.7 3.9-5.2 1.4-1.5 2.8-2.6 4-3.5 2.4-1.7 4.2-2.2 4.4-1.9zM1179.3 534.5c.3.4-1.5 2.1-4.6 4.6-3.1 2.4-7.6 5.6-13.2 8.3a51.4 51.4 0 0 1-8.2 3c-1.3.3-2.5.6-3.7.7-.6.1-1.2.2-1.7.2-.6 0-1.1.1-1.6.1-4.1.1-6.5-.6-6.5-1 0-.5 2.5-.6 6.2-1.3l1.5-.3c.5-.1 1-.3 1.6-.4 1.1-.2 2.2-.6 3.4-1 2.4-.8 5-1.8 7.6-3.1 5.3-2.5 9.9-5.3 13.3-7.2 3.5-1.9 5.7-3 5.9-2.6zM1433.8 894c-.5 0-.9-1.6-1.7-4-.4-1.2-.9-2.6-1.6-4.2-.7-1.5-1.5-3.1-2.6-4.7-1-1.6-2.2-3-3.2-4.3-1.1-1.2-2.2-2.3-3.1-3.2-1.9-1.7-3.2-2.8-3-3.2.2-.4 1.9-.1 4.3 1.3 1.2.7 2.5 1.7 3.9 2.9 1.3 1.3 2.7 2.8 3.8 4.6 1.1 1.8 2 3.7 2.6 5.4.6 1.8.9 3.4 1 4.8.5 2.9 0 4.6-.4 4.6z"></path><path fill="#fff" stroke="#fff" stroke-miterlimit="10" d="M948.9 262.5c-.2.4-3.6-1.1-8.8-4.2-2.6-1.5-5.5-3.5-8.7-5.9-3.2-2.4-6.6-5.1-10-8.2-3.4-3.1-6.4-6.2-9.1-9.2-2.6-3-4.9-5.8-6.6-8.2-3.5-4.9-5.3-8.1-4.9-8.4.8-.6 9.5 11.3 22.8 23.4 13.3 12.2 25.8 19.9 25.3 20.7z"></path></svg>